<svg width="96" height="31" viewBox="0 0 96 31" fill="none" xmlns="http://www.w3.org/2000/svg">
<path fill-rule="evenodd" clip-rule="evenodd" d="M70.0995 0.0912587C69.7743 0.227552 69.5355 0.42605 69.348 0.7159C69.1489 1.0236 69.0826 1.29808 69.1068 1.71452C69.1303 2.12029 69.2766 2.44345 69.5691 2.73573C70.343 3.50906 71.6588 3.27738 72.148 2.28162C72.2609 2.05183 72.2716 1.9921 72.2716 1.58914C72.2716 1.18619 72.2609 1.12646 72.148 0.896672C71.9903 0.575657 71.6852 0.270898 71.3778 0.127296C71.1789 0.0343473 71.0669 0.0126328 70.7374 0.0029305C70.395 -0.00710777 70.3041 0.00545044 70.0995 0.0912587ZM14.4492 0.205838C11.3476 0.386862 8.23737 1.59423 5.73412 3.58894C4.81613 4.32048 3.57823 5.63448 2.86999 6.62928C0.559584 9.87432 -0.420615 13.9294 0.166579 17.8132C0.521081 20.1579 1.49161 22.6002 2.78878 24.4116C3.57777 25.5134 4.79344 26.8137 5.73022 27.5578C8.00422 29.3641 10.5513 30.4413 13.5101 30.8482C14.2886 30.9552 16.4282 30.9554 17.209 30.8485C20.8262 30.3534 23.9567 28.7875 26.4011 26.2509C27.57 25.0377 28.7189 23.3488 29.3187 21.9616C29.4088 21.7533 29.492 21.5837 29.5035 21.5846C29.5151 21.5855 29.8129 22.0247 30.1653 22.5605C32.3486 25.8798 34.5286 28.022 37.1114 29.3864C38.9452 30.3551 40.7835 30.8325 43.2166 30.9717L43.7105 31V27.7472V24.4944L43.0928 24.4442C41.0562 24.2787 39.559 23.5584 37.9867 21.9874C36.4227 20.4247 35.3587 18.8241 32.6353 13.9375C32.1783 13.1174 31.5609 12.0287 31.2634 11.5182L30.7225 10.5901L30.7224 6.62512C30.7223 4.44438 30.7099 2.10731 30.6946 1.43164L30.6669 0.203107H27.4582H24.2495L24.2493 0.738622C24.2493 1.03313 24.2368 1.65719 24.2216 2.12533L24.1941 2.97653L24.1062 2.91365C23.8256 2.71288 22.9802 2.19014 22.5858 1.97354C20.2538 0.692673 17.2583 0.0419073 14.4492 0.205838ZM56.2366 5.27474C56.237 10.4319 56.2539 11.1046 56.4045 11.9505C56.7625 13.9607 57.8449 15.1065 59.6317 15.3669C60.0241 15.424 61.0046 15.4056 61.0704 15.3398C61.0981 15.3122 61.1093 14.8601 61.1021 14.0607L61.091 12.8244L60.7315 12.7998C59.9265 12.7447 59.4638 12.3284 59.2096 11.4306L59.1167 11.1024L59.1042 5.67375L59.0917 0.245109H57.664H56.2362L56.2366 5.27474ZM62.457 2.93318V4.27722H61.8049H61.1528L61.1639 5.52675L61.175 6.77628L61.816 6.78787L62.457 6.79947V8.80418C62.457 10.9246 62.4914 11.4842 62.6658 12.2042C62.8338 12.8973 63.1712 13.5955 63.5724 14.0803C64.0988 14.7163 64.957 15.1781 65.9197 15.3434C66.2994 15.4086 67.2043 15.4293 67.5581 15.3808L67.7531 15.3541V14.0861V12.8181L67.3013 12.814C66.1765 12.8039 65.6032 12.3019 65.3703 11.1234C65.3229 10.8835 65.3027 10.3302 65.2858 8.80351L65.2636 6.79867L66.4138 6.78745L67.564 6.77628L67.5751 5.52675L67.5863 4.27722H66.4297H65.2732V2.93318V1.58914H63.8651H62.457V2.93318ZM79.8795 4.05037C78.6337 4.2319 77.9051 4.48919 77.0857 5.0368C75.8857 5.83894 75.0758 7.0592 74.7458 8.56246C74.6358 9.06375 74.6341 10.5564 74.7429 11.0927C75.1837 13.2655 76.5775 14.7622 78.7026 15.3448C79.859 15.6618 81.3929 15.6627 82.5733 15.3469C83.3167 15.1481 84.1223 14.7348 84.572 14.3216L84.7861 14.1249L83.9564 13.2017C83.5 12.6939 83.1122 12.2626 83.0946 12.2433C83.077 12.224 82.949 12.2857 82.8102 12.3804C82.4819 12.6043 82.0945 12.7779 81.659 12.8961C81.1676 13.0296 80.2081 13.0284 79.7138 12.8937C79.1349 12.736 78.792 12.5378 78.361 12.1116C78.0401 11.7944 77.9498 11.6741 77.8081 11.3754C77.5436 10.8179 77.485 10.5325 77.4845 9.80036C77.484 9.0653 77.5591 8.73114 77.852 8.16471C78.105 7.6754 78.6166 7.17143 79.1019 6.93328C79.6174 6.68035 79.9391 6.6118 80.5941 6.61529C81.3764 6.61949 81.8853 6.77616 82.4981 7.20154C82.6437 7.3026 82.7724 7.3853 82.7843 7.3853C82.816 7.3853 84.7343 5.60638 84.7343 5.57698C84.7343 5.53864 84.2412 5.14807 83.9453 4.95201C83.3627 4.56602 82.5838 4.26504 81.813 4.12811C81.451 4.06381 80.147 4.01139 79.8795 4.05037ZM89.9463 4.05318C89.1977 4.12698 88.4677 4.33749 87.8361 4.66165C86.3743 5.412 85.4011 6.69568 84.9945 8.41025C84.8929 8.83858 84.8839 8.95118 84.8827 9.80036C84.8813 10.82 84.9271 11.16 85.1591 11.8558C85.8354 13.8833 87.5053 15.1852 89.8529 15.5152C90.3813 15.5895 91.5395 15.599 92.0752 15.5333C92.8499 15.4385 93.631 15.207 94.2757 14.8812C94.7799 14.6264 95.4354 14.1535 95.4035 14.0675C95.377 13.9961 93.757 12.2192 93.7326 12.2349C93.7192 12.2435 93.5774 12.3367 93.4175 12.442C93.0607 12.677 92.6329 12.8582 92.1449 12.9812C91.8304 13.0604 91.6608 13.0745 91.0181 13.0745C90.3778 13.0745 90.2053 13.0603 89.8955 12.9822C88.7654 12.6971 87.9758 11.9989 87.7458 11.0814L87.688 10.8504L91.8191 10.8397L95.9503 10.829L95.9799 10.5526C96.0334 10.0538 95.9733 8.6662 95.8795 8.23448C95.7171 7.48681 95.4442 6.82328 95.0551 6.23027C94.8199 5.87175 94.1026 5.16932 93.7139 4.91685C92.7191 4.27071 91.2215 3.92739 89.9463 4.05318ZM46.8342 4.15529C45.9322 4.24597 44.9337 4.61133 44.1834 5.12534C43.28 5.74415 42.4944 6.81194 42.1364 7.90787C41.9194 8.57216 41.8821 8.85286 41.8821 9.82136C41.8821 10.8006 41.9437 11.2235 42.1845 11.897C43.0278 14.2559 45.2638 15.6239 47.9216 15.4069C49.2061 15.302 50.2128 14.8764 50.9774 14.1151C51.1712 13.922 51.3421 13.7795 51.3571 13.7983C51.372 13.8171 51.4576 13.9421 51.5471 14.0762C51.9331 14.6538 52.602 15.1042 53.336 15.2807C53.7558 15.3816 54.4617 15.4318 54.8609 15.3891L55.1434 15.3588V14.0864V12.814L54.7949 12.7957C54.0288 12.7555 53.5297 12.2639 53.3107 11.3334C53.2438 11.0493 53.235 10.6871 53.2211 7.6478L53.2057 4.27722H51.8838H50.5618V4.81046V5.34371L50.4252 5.21682C49.557 4.41019 48.2224 4.01567 46.8342 4.15529ZM69.2825 4.29553C69.2695 4.32934 69.2669 5.84634 69.2767 7.66671C69.2961 11.298 69.3076 11.4915 69.5643 12.5094C69.961 14.0827 71.0034 15.0784 72.533 15.3449C72.906 15.4099 73.5399 15.4261 73.9214 15.3803L74.1421 15.3538V14.0838V12.8137L73.7743 12.7958C73.1377 12.7649 72.6977 12.4783 72.4268 11.9183C72.1526 11.3511 72.1539 11.3702 72.1274 7.6373L72.1035 4.25621L70.7048 4.24513C69.5089 4.23568 69.3027 4.24298 69.2825 4.29553ZM91.3124 6.52264C92.1683 6.74629 92.8275 7.35896 93.095 8.17975C93.1433 8.32793 93.1828 8.47443 93.1828 8.50526C93.1828 8.55146 92.7014 8.56133 90.453 8.56133H87.7231L87.7879 8.34082C87.9895 7.65524 88.5226 7.0209 89.1477 6.72281C89.3442 6.62911 89.609 6.53213 89.7361 6.50726C89.8633 6.48244 90.0051 6.45334 90.0514 6.44267C90.2173 6.40428 91.0652 6.45808 91.3124 6.52264ZM16.4524 6.75868C18.2832 6.95353 19.8552 7.6917 21.4092 9.08634C21.873 9.50253 22.5672 10.276 22.8588 10.7016C23.4993 11.6359 23.9632 12.8825 24.1443 14.1557C24.2261 14.7308 24.2264 16.0989 24.1449 16.7179C23.6005 20.8511 20.3346 24.0177 16.1853 24.4359C14.0315 24.6529 11.7549 24.0009 9.97941 22.6585C9.55543 22.3379 8.80834 21.6151 8.47561 21.2037C7.47704 19.9687 6.80667 18.4386 6.56876 16.8511C6.48604 16.2991 6.47549 15.0024 6.54947 14.4835C7.00969 11.2567 8.95483 8.68422 11.8943 7.41487C13.3505 6.78603 14.7781 6.58051 16.4524 6.75868ZM48.3436 6.79434C48.8777 6.93085 49.2323 7.13724 49.6382 7.5478C50.2511 8.16778 50.4878 8.78948 50.4878 9.77936C50.4878 10.7709 50.2503 11.3939 49.6382 12.0079C49.046 12.602 48.447 12.8454 47.5775 12.8454C46.7063 12.8454 46.0985 12.5993 45.5168 12.0109C45.1123 11.6017 44.9088 11.2458 44.7559 10.6799C44.6281 10.2066 44.6281 9.35208 44.7559 8.87877C45.0439 7.81295 45.7786 7.06256 46.7949 6.79632C47.2114 6.6872 47.9208 6.68627 48.3436 6.79434ZM21.2958 27.6132C21.2818 27.6271 21.2456 27.6287 21.2153 27.6165C21.1817 27.6031 21.1917 27.5932 21.2406 27.5911C21.2849 27.5893 21.3097 27.5993 21.2958 27.6132Z" fill="currentColor"/>
</svg>
