<svg width="138" height="41" viewBox="0 0 138 41" fill="none" xmlns="http://www.w3.org/2000/svg">
<path fill-rule="evenodd" clip-rule="evenodd" d="M135.07 0.0474597C134.778 0.105139 134.464 0.23253 134.223 0.391269C133.918 0.592048 133.562 0.994535 133.405 1.31628C133.141 1.85798 133.164 0.618035 133.163 14.6772C133.162 27.2045 133.163 27.3152 133.232 27.5847C133.423 28.3346 133.978 28.9458 134.713 29.2158C134.981 29.3145 135.07 29.3298 135.454 29.3438C136.25 29.3728 136.775 29.176 137.308 28.6481C137.649 28.3103 137.819 28.0279 137.938 27.5988C137.997 27.386 138 26.7735 138 14.6742V1.97292L137.899 1.66854C137.515 0.507419 136.291 -0.194053 135.07 0.0474597ZM125.978 4.12481C124.985 4.23089 124.192 4.90314 123.915 5.87438C123.854 6.08902 123.851 6.51642 123.851 16.7366C123.851 26.9674 123.854 27.3839 123.915 27.5988C124.042 28.0427 124.203 28.3124 124.543 28.649C125.048 29.1495 125.539 29.3525 126.241 29.3513C126.689 29.3505 126.997 29.2848 127.349 29.1145C128.008 28.7967 128.473 28.2135 128.633 27.5061C128.684 27.2814 128.689 26.2911 128.689 16.7267C128.689 6.29296 128.688 6.19224 128.619 5.92484C128.357 4.90789 127.479 4.18617 126.418 4.11416C126.303 4.10639 126.105 4.1112 125.978 4.12481ZM77.9555 7.6849C75.8567 7.89359 74.1844 8.60791 72.9898 9.80609C72.0796 10.719 71.5226 11.8617 71.3459 13.1789C71.2682 13.7586 71.2936 14.7891 71.3983 15.3032C71.7794 17.1738 73.08 18.5192 75.4294 19.473C75.9592 19.6881 77.001 20.033 77.9208 20.2979C80.5092 21.0432 81.5252 21.4762 82.1204 22.0873C82.5103 22.4876 82.6219 22.7945 82.5927 23.3864C82.5631 23.9865 82.4181 24.3152 82.0049 24.7191C81.5863 25.1283 80.8721 25.4108 80.0362 25.4979C79.8064 25.5218 78.3928 25.5407 76.2043 25.549C72.7783 25.5621 72.7337 25.5631 72.5059 25.6356C72.2293 25.7235 71.9037 25.9319 71.7202 26.1386C70.7895 27.1866 71.3958 28.9248 72.8232 29.3008C72.9844 29.3433 73.5483 29.3511 76.4644 29.3514C78.5547 29.3515 80.072 29.3377 80.3136 29.3162C83.2359 29.0566 85.4302 27.7696 86.4361 25.7254C86.8804 24.8226 87.1087 23.6544 87.0644 22.5114C87.0247 21.4865 86.7757 20.6927 86.2517 19.9199C85.6625 19.051 84.7852 18.3517 83.4866 17.716C82.5316 17.2484 82.1346 17.0997 80.0882 16.4435C78.1325 15.8164 77.3385 15.4993 76.7479 15.1095C76.0113 14.6234 75.686 14.0626 75.7522 13.3928C75.8555 12.3474 76.7408 11.6581 78.1662 11.5131C78.3846 11.4909 79.8418 11.4774 82.0148 11.4774C84.4656 11.4774 85.5668 11.4658 85.6956 11.4388C86.0406 11.3665 86.3008 11.2222 86.5701 10.9539C87.1583 10.3679 87.2688 9.60366 86.8813 8.80254C86.7149 8.45866 86.3356 8.07601 85.9798 7.89314C85.5126 7.65297 85.6904 7.66228 81.6834 7.66785C79.6998 7.6706 78.0223 7.67827 77.9555 7.6849ZM93.4738 7.78558C93.0929 7.86313 92.5671 8.13613 92.3045 8.39273C91.9007 8.78714 91.6538 9.27481 91.5815 9.82063C91.5584 9.99481 91.5501 13.0451 91.5572 18.7475C91.5692 28.4634 91.5409 27.4975 91.8307 28.0785C91.9455 28.3086 92.0378 28.4307 92.2739 28.6649C92.7661 29.153 93.259 29.3519 93.9766 29.3519C94.6791 29.3519 95.2479 29.1264 95.7105 28.6645C96.1315 28.2442 96.3346 27.825 96.4026 27.236C96.4224 27.065 96.4385 26.1272 96.439 25.1239L96.4397 23.3192L97.9683 21.8755C98.809 21.0815 99.5242 20.4122 99.5576 20.3882C99.6122 20.3489 99.9232 20.747 102.684 24.3908C104.649 26.9838 105.838 28.5242 105.996 28.6796C106.476 29.1525 106.874 29.3161 107.61 29.3431C108.186 29.3642 108.481 29.3093 108.895 29.1036C109.769 28.6701 110.243 27.6378 110 26.697C109.868 26.1866 109.758 26.0135 108.64 24.5675C108.196 23.9944 107.637 23.2703 107.397 22.9583C106.945 22.3724 105.866 20.9746 105.26 20.1912C105.07 19.9454 104.504 19.2107 104.001 18.5584C103.498 17.9062 103.074 17.3562 103.058 17.3362C103.035 17.3056 104.28 16.1415 106.128 14.4679C107.488 13.2361 108.645 12.1703 108.896 11.9174C109.556 11.252 109.803 10.7428 109.8 10.0508C109.797 9.41822 109.592 8.90999 109.166 8.48334C108.422 7.73811 107.27 7.6638 106.305 8.29882C106.013 8.4908 105.809 8.68261 103.651 10.7869C102.555 11.8567 100.807 13.5591 99.7675 14.5699C98.7282 15.5808 97.554 16.725 97.1583 17.1125L96.4387 17.8172L96.4385 14.0028C96.4383 11.7378 96.4244 10.069 96.4042 9.8945C96.3356 9.30162 96.1114 8.84369 95.6855 8.42676C95.4799 8.22554 95.363 8.14503 95.0766 8.0076C94.5229 7.74186 94.0265 7.67311 93.4738 7.78558ZM26.0363 7.81796C25.5876 7.92621 25.0757 8.2297 24.7784 8.56371C24.5725 8.79515 24.322 9.29485 24.2569 9.60397C24.0799 10.4449 24.4098 11.3394 25.0816 11.84C25.3606 12.0479 25.639 12.1856 25.9686 12.2789L26.2337 12.3539L34.7124 12.3639C40.3253 12.3705 43.3039 12.362 43.525 12.3387C44.366 12.2501 45.0586 11.7987 45.4253 11.1001C45.6028 10.7619 45.6695 10.4798 45.6695 10.068C45.6695 9.508 45.5255 9.08846 45.1817 8.647C44.9068 8.29404 44.5667 8.0593 44.0587 7.87193L43.8153 7.78215L35.0245 7.77623C27.6377 7.77128 26.2022 7.77795 26.0363 7.81796ZM116.396 7.82199C115.584 7.99444 114.937 8.57949 114.653 9.39773L114.558 9.67272V18.5756C114.558 27.216 114.56 27.4841 114.623 27.6676C114.659 27.7715 114.74 27.9579 114.802 28.0816C115.461 29.3886 117.239 29.7654 118.452 28.8548C118.851 28.5547 119.146 28.1122 119.291 27.5933C119.36 27.3444 119.361 27.2702 119.361 18.5904C119.361 9.99763 119.359 9.83359 119.292 9.57383C119.118 8.89951 118.648 8.31934 118.041 8.02864C117.51 7.77493 116.95 7.70449 116.396 7.82199ZM1.80324 7.90342C1.27437 8.04081 0.857199 8.30745 0.520894 8.72307C0.208483 9.10916 0.0434512 9.53388 0.0116865 10.0336C-0.0245171 10.6031 0.156015 11.1058 0.542464 11.5119C0.801471 11.784 1.01956 11.9323 1.34622 12.0582L1.57784 12.1474L5.32303 12.1675C9.2747 12.1887 9.24182 12.1874 10.0045 12.351C12.6911 12.9275 14.5057 14.9291 14.8274 17.6709C14.9462 18.6842 14.8441 19.8423 14.5581 20.724C14.2358 21.7174 13.7756 22.4719 13.0578 23.1834C12.1322 24.1008 11.0602 24.6449 9.62536 24.9253C9.24973 24.9987 9.16175 25.0007 5.46174 25.0213C1.28973 25.0444 1.56296 25.0291 1.07768 25.266C0.792074 25.4053 0.406596 25.7826 0.250373 26.0756C0.110691 26.3376 0 26.7537 0 27.0169C0 27.869 0.527829 28.7337 1.27312 29.1025C1.80862 29.3676 1.601 29.3566 5.80873 29.3426C9.42176 29.3307 9.57202 29.3277 10.0739 29.2563C12.2439 28.9476 14.0278 28.2452 15.6114 27.0757C18.7238 24.7772 20.2269 20.9635 19.6252 16.8913C19.3725 15.1803 18.6968 13.5465 17.689 12.2091C16.0331 10.0118 13.5702 8.55463 10.6461 8.04225C9.57018 7.85375 9.61377 7.85547 5.70449 7.84533C2.17936 7.83615 2.05504 7.838 1.80324 7.90342ZM57.6864 7.85674C56.1397 7.98482 54.9722 8.23887 53.8025 8.702C51.9656 9.42928 50.4821 10.5026 49.3039 11.9567C48.7623 12.6251 48.1446 13.6924 47.8075 14.5424C47.5055 15.304 47.2526 16.3173 47.139 17.2208C47.0679 17.7856 47.0577 19.2242 47.1209 19.7787C47.2601 21.0013 47.577 22.1615 48.0524 23.1887C49.4837 26.2817 52.4017 28.4563 56.0392 29.1408C57.0701 29.3348 57.0665 29.3347 61.1715 29.3347H64.9687L65.2231 29.2426C65.5947 29.108 65.8353 28.9548 66.1328 28.6632C66.5759 28.229 66.8015 27.6798 66.8032 27.0316C66.8055 26.1409 66.2811 25.4211 65.4195 25.1325L65.1421 25.0396L61.3275 25.018C59.2295 25.0061 57.4662 24.9852 57.409 24.9716C57.3517 24.958 57.1435 24.9157 56.9462 24.8778C56.1296 24.7209 55.2162 24.3454 54.5232 23.8819C53.9867 23.523 53.3604 22.8957 53.0079 22.3643C52.4477 21.5194 52.1179 20.5941 51.9828 19.4874C51.9371 19.1133 51.9375 18.1834 51.9835 17.7852C52.2357 15.6026 53.4375 13.8339 55.2945 12.9124C55.9749 12.5747 56.5773 12.3846 57.409 12.2449C57.7143 12.1936 58.2038 12.1843 61.5009 12.1664L65.2461 12.146L65.4514 12.0693C66.0825 11.8336 66.5503 11.3384 66.7411 10.7039C66.8232 10.4308 66.8232 9.891 66.741 9.58679C66.6255 9.15928 66.4565 8.87614 66.1144 8.53703C65.7597 8.18542 65.4727 8.02146 65.0045 7.90273C64.74 7.83567 64.6336 7.83388 61.2787 7.83948C59.3792 7.84268 57.7627 7.85045 57.6864 7.85674ZM26.1643 16.3059C25.8266 16.3685 25.5682 16.4723 25.2729 16.6639C24.0459 17.4598 23.8479 19.1411 24.8636 20.1396C25.1702 20.4411 25.407 20.588 25.8259 20.7365L26.1297 20.8443H33.412H40.6943L40.9717 20.751C41.8038 20.4711 42.4019 19.8259 42.5646 19.0325C42.6335 18.6965 42.6333 18.4527 42.5638 18.1187C42.3869 17.2677 41.7546 16.6042 40.8654 16.3363C40.6703 16.2775 40.2905 16.274 33.5334 16.2676C27.7849 16.2622 26.3602 16.2696 26.1643 16.3059ZM26.095 24.8361C25.6932 24.9203 25.2483 25.1564 24.9392 25.4489C24.4528 25.9097 24.2328 26.4099 24.2281 27.066C24.2235 27.7196 24.416 28.1857 24.8831 28.652C25.1165 28.885 25.2181 28.9578 25.4904 29.0874C26.0864 29.3709 25.6316 29.3519 31.8341 29.3519C37.9421 29.3519 37.5807 29.3647 38.0935 29.1298C39.2992 28.5773 39.7768 27.1823 39.1624 26.0073C39.0073 25.7105 38.5705 25.2583 38.2842 25.0982C38.1793 25.0395 37.9686 24.9478 37.8161 24.8944L37.5386 24.7973L31.9382 24.7912C27.1066 24.7859 26.3044 24.7921 26.095 24.8361ZM80.9565 35.7126C80.6345 35.7627 80.4174 35.835 80.066 36.0091C79.7972 36.1422 79.6871 36.2236 79.4251 36.483C79.1554 36.7499 79.0855 36.844 78.9504 37.1215C78.7174 37.6002 78.6698 37.8092 78.669 38.3579C78.6685 38.7387 78.6826 38.871 78.7472 39.095C78.8812 39.5595 79.0731 39.8807 79.4279 40.2342C79.6931 40.4983 79.7922 40.5712 80.0709 40.7068C80.555 40.9424 80.7579 40.9867 81.3539 40.9869C81.9427 40.987 82.2262 40.923 82.686 40.6858C83.0809 40.4822 83.542 40.0265 83.7388 39.6452C83.97 39.1975 84.0637 38.8264 84.0638 38.3579C84.064 37.8686 83.9862 37.5443 83.7586 37.0862C83.624 36.8152 83.5455 36.7092 83.2968 36.4627C83.0388 36.2069 82.9469 36.1414 82.635 35.991C82.4359 35.8949 82.1715 35.7928 82.0475 35.764C81.7577 35.6968 81.221 35.6715 80.9565 35.7126ZM99.7865 35.7126C99.474 35.7613 99.2511 35.8336 98.9492 35.9842C98.2545 36.3308 97.7666 36.9507 97.5804 37.7234C97.5172 37.9855 97.5089 38.0979 97.5245 38.4782C97.5451 38.9769 97.6 39.2179 97.7769 39.5851C98.2341 40.5341 99.1868 41.0529 100.366 40.9952C100.862 40.971 101.218 40.8794 101.666 40.6601C102.078 40.4589 102.275 40.2908 102.33 40.0938C102.353 40.0125 102.368 39.643 102.368 39.1904C102.369 38.3333 102.349 38.2361 102.154 38.1182C102.047 38.0536 101.981 38.0488 101.197 38.0487C100.269 38.0485 100.198 38.0619 100.098 38.2536C100.03 38.3837 100.031 38.5626 100.099 38.6598C100.209 38.8156 100.316 38.8391 100.911 38.8391H101.469L101.459 39.3259L101.45 39.8126L101.218 39.9275C100.897 40.0867 100.603 40.1555 100.236 40.157C99.6973 40.1593 99.3105 40.0021 98.9717 39.643C98.7411 39.3987 98.6054 39.1399 98.5349 38.8104C98.3579 37.9825 98.6614 37.2031 99.3283 36.773C99.8542 36.4338 100.677 36.4715 101.277 36.8621C101.562 37.0471 101.611 37.0648 101.764 37.0364C102.148 36.9649 102.27 36.4927 101.971 36.2323C101.8 36.0831 101.321 35.8593 101.003 35.78C100.684 35.7002 100.081 35.6668 99.7865 35.7126ZM121.304 35.7146C120.261 35.8729 119.427 36.573 119.117 37.5501C118.999 37.9203 118.981 38.6249 119.079 39.0127C119.401 40.2862 120.509 41.0688 121.884 40.9942C122.089 40.9831 122.35 40.9489 122.464 40.9183C122.978 40.7808 123.53 40.4216 123.852 40.0155C124.039 39.7796 124.261 39.3464 124.34 39.0626C124.426 38.7515 124.444 38.1206 124.376 37.7952C124.124 36.5868 123.123 35.7526 121.858 35.6955C121.676 35.6873 121.427 35.6959 121.304 35.7146ZM11.9343 35.7694C11.7678 35.8508 11.6968 35.9745 11.2567 36.9511C11.04 37.4318 10.6873 38.2118 10.4729 38.6845C9.76213 40.2511 9.67508 40.4546 9.67522 40.5496C9.67554 40.7852 9.94339 40.999 10.1825 40.9546C10.3939 40.9152 10.4812 40.8006 10.7314 40.2331L10.9671 39.6985H12.2204H13.4736L13.6982 40.218C13.94 40.7771 14.0447 40.9135 14.2635 40.9542C14.5096 41 14.7723 40.7857 14.7726 40.5388C14.7727 40.4363 14.6388 40.126 13.6975 38.0485C13.4448 37.4908 13.131 36.796 13.0003 36.5045C12.7591 35.967 12.6799 35.8461 12.5117 35.7594C12.3855 35.6943 12.0772 35.6996 11.9343 35.7694ZM133.759 35.7355C133.715 35.7439 133.63 35.8006 133.568 35.8618C133.47 35.9598 133.388 36.1825 132.869 37.7491C132.545 38.726 132.27 39.514 132.258 39.5002C132.245 39.4864 131.972 38.6939 131.65 37.7392C130.988 35.7739 130.993 35.7844 130.674 35.7541C130.533 35.7406 130.472 35.7522 130.377 35.8106C130.253 35.8864 130.145 36.0624 130.145 36.189C130.145 36.2287 130.287 36.6518 130.46 37.1291C130.633 37.6064 130.883 38.2986 131.014 38.6673C131.68 40.5347 131.762 40.7449 131.871 40.8552C132.063 41.0487 132.425 41.0482 132.617 40.8541C132.735 40.7345 132.747 40.7019 133.444 38.6673C133.693 37.9394 133.902 37.3391 133.908 37.3332C133.913 37.3274 133.981 37.5053 134.057 37.7285C134.795 39.8804 135.081 40.6889 135.139 40.7806C135.232 40.9296 135.358 40.9877 135.588 40.9865C135.822 40.9851 135.966 40.8991 136.059 40.7064C136.092 40.6361 136.272 40.1525 136.459 39.6316C136.645 39.1107 136.988 38.1585 137.222 37.5157C137.455 36.8729 137.652 36.2851 137.659 36.2095C137.684 35.9503 137.478 35.7455 137.193 35.7455C137.06 35.7455 137.02 35.7638 136.909 35.8744C136.788 35.995 136.742 36.1149 136.198 37.7392C135.878 38.6939 135.606 39.4865 135.593 39.5004C135.58 39.5143 135.316 38.7641 135.007 37.8332C134.697 36.9024 134.413 36.0745 134.376 35.9935C134.279 35.7793 134.045 35.6814 133.759 35.7355ZM21.1361 35.8138C20.9016 35.9667 20.9107 35.8662 20.9107 38.323C20.9108 40.7718 20.903 40.6826 21.1299 40.8476C21.2255 40.9171 21.2648 40.9188 22.7771 40.9188C24.5217 40.9188 24.4573 40.9282 24.5665 40.6575C24.6253 40.5119 24.6124 40.3909 24.5238 40.2553C24.4105 40.0819 24.3672 40.0766 23.0624 40.0766H21.847L21.8468 38.0743C21.8467 36.1491 21.8441 36.0678 21.779 35.962C21.6491 35.7507 21.3414 35.6798 21.1361 35.8138ZM41.0678 35.7964C41.0062 35.823 40.9243 35.8959 40.8858 35.9583C40.8176 36.0693 40.8159 36.1266 40.8158 38.351C40.8157 40.274 40.8235 40.645 40.8659 40.7263C41.0124 41.0071 41.4583 41.0306 41.639 40.767C41.6945 40.6862 41.7015 40.5266 41.7173 38.9955L41.7346 37.3129L42.1481 37.844C42.3755 38.1361 42.6414 38.4756 42.739 38.5985C42.8365 38.7214 43.2463 39.2473 43.6496 39.7672C44.0529 40.2871 44.429 40.7563 44.4853 40.8098C44.7091 41.0222 45.1027 40.9903 45.2541 40.7474C45.322 40.6385 45.3238 40.579 45.3238 38.3607C45.3238 35.8502 45.3323 35.95 45.1054 35.8128C44.9007 35.6892 44.5993 35.7599 44.4851 35.9585C44.4499 36.0195 44.4355 36.4096 44.4222 37.6645L44.4048 39.2914L43.902 38.6452C43.6254 38.2898 43.2599 37.8206 43.0898 37.6027C42.9196 37.3847 42.6241 37.0053 42.4331 36.7595C41.8146 35.9635 41.7247 35.8599 41.6021 35.8023C41.4559 35.7335 41.2198 35.7309 41.0678 35.7964ZM0.502827 35.8126C0.276485 35.9054 0.178868 36.2177 0.310955 36.4264C0.42983 36.6143 0.541492 36.6392 1.26355 36.6392H1.90512L1.91487 38.643C1.92558 40.8462 1.91574 40.7467 2.13726 40.8905C2.25846 40.9692 2.52149 40.9668 2.64594 40.8858C2.84839 40.7541 2.84357 40.8089 2.84357 38.6346V36.6392H3.50356C4.22 36.6392 4.35091 36.6141 4.45498 36.4566C4.59688 36.242 4.54022 35.9777 4.32435 35.8472C4.21785 35.7828 4.13938 35.7802 2.39276 35.7821C1.39144 35.7833 0.540972 35.797 0.502827 35.8126ZM30.9106 35.8458C30.6762 35.9875 30.6898 35.8338 30.6898 38.3329C30.6898 40.7989 30.6833 40.7164 30.8874 40.8535C30.9789 40.915 31.0795 40.9193 32.6144 40.928C34.4412 40.9384 34.4193 40.941 34.5528 40.6937C34.6795 40.4594 34.5273 40.1516 34.2585 40.0983C34.1982 40.0864 33.5734 40.0766 32.8701 40.0766H31.5914V39.4063V38.736H32.7548C34.032 38.736 34.0702 38.7305 34.1743 38.5309C34.2695 38.3483 34.2436 38.1945 34.0923 38.0445L33.9576 37.911H32.7745H31.5914V37.2591V36.6071L32.9589 36.5974L34.3265 36.5876L34.4323 36.4871C34.6233 36.3057 34.6068 36.0433 34.3932 35.8651L34.291 35.7798L32.6551 35.78C31.1059 35.7801 31.0135 35.7836 30.9106 35.8458ZM51.6201 35.8467C51.4846 35.9353 51.4298 36.0416 51.4283 36.2186C51.4273 36.3385 51.4487 36.3886 51.5457 36.4936L51.6643 36.622L52.3772 36.6326L53.09 36.6431L53.0995 38.6719L53.1089 40.7007L53.2362 40.8162C53.4082 40.9725 53.5656 40.9986 53.7634 40.9037C54.0385 40.7717 54.0279 40.8631 54.0279 38.6211V36.6431L54.7415 36.6326L55.4552 36.622L55.5738 36.4936C55.6681 36.3915 55.6924 36.3366 55.6924 36.2255C55.6924 36.1487 55.6687 36.0404 55.6398 35.985C55.5312 35.7769 55.5615 35.7798 53.5528 35.7801C51.8013 35.7803 51.7174 35.7832 51.6201 35.8467ZM69.005 35.8313C68.8067 35.9381 68.7343 36.1632 68.8296 36.3766C68.9364 36.6161 69.022 36.6392 69.8028 36.6392H70.4651V38.6191C70.4651 40.8732 70.4549 40.7866 70.7349 40.9094C70.9127 40.9873 71.0682 40.9722 71.2079 40.8633C71.4065 40.7084 71.4014 40.7667 71.4014 38.6174V36.6392H72.062C72.7777 36.6392 72.8527 36.6237 72.9936 36.4462C73.1345 36.2685 73.0648 35.958 72.8565 35.8361C72.7708 35.7859 72.5637 35.78 70.9279 35.7812C69.4144 35.7824 69.0796 35.7911 69.005 35.8313ZM108.933 35.8459C108.706 35.9857 108.715 35.8868 108.715 38.3751C108.715 40.9228 108.7 40.7847 108.981 40.9078C109.164 40.988 109.317 40.9729 109.461 40.8605C109.631 40.7278 109.651 40.6233 109.651 39.8543V39.1485L110.214 39.1491L110.778 39.1496L111.4 39.9422C111.743 40.3781 112.073 40.7779 112.133 40.8308C112.435 41.093 112.911 40.9068 112.911 40.527C112.91 40.3666 112.875 40.313 112.291 39.5821L111.8 38.9673L112.069 38.8374C112.652 38.5561 112.945 38.0755 112.945 37.401C112.945 36.6502 112.547 36.128 111.784 35.8791C111.552 35.8034 111.486 35.7994 110.292 35.7887C109.096 35.778 109.039 35.7803 108.933 35.8459ZM81.6857 36.5733C82.2955 36.6837 82.7877 37.1296 83.0085 37.7715C83.1181 38.0903 83.1181 38.6255 83.0085 38.9443C82.7471 39.7043 82.1459 40.1454 81.3713 40.1454C80.8875 40.1454 80.502 39.9875 80.155 39.6472C79.1844 38.6957 79.6158 36.9315 80.9003 36.5991C81.1689 36.5296 81.4019 36.5219 81.6857 36.5733ZM122.317 36.6494C122.803 36.8244 123.186 37.2337 123.371 37.7735C123.467 38.0546 123.457 38.7108 123.353 38.9938C123.092 39.7033 122.473 40.1437 121.735 40.1449C121.134 40.1459 120.607 39.867 120.276 39.3719C120.096 39.1047 120.015 38.8346 119.994 38.4436C119.965 37.8704 120.11 37.4558 120.479 37.0657C120.702 36.8287 121.044 36.632 121.337 36.5713C121.595 36.518 122.054 36.5545 122.317 36.6494ZM111.452 36.6865C111.783 36.8096 111.964 37.0374 111.998 37.374C112.037 37.743 111.84 38.0642 111.479 38.2241C111.309 38.2995 111.248 38.3052 110.475 38.3171L109.651 38.3298V37.4634V36.5969L110.475 36.6131C111.128 36.6259 111.33 36.6411 111.452 36.6865ZM12.7026 37.9454L13.1009 38.8563L12.2324 38.8655C11.7547 38.8706 11.3579 38.8687 11.3504 38.8613C11.3385 38.8496 11.4589 38.5676 12.0766 37.1607C12.2165 36.842 12.2177 36.8406 12.2609 36.9372C12.2848 36.9907 12.4836 37.4444 12.7026 37.9454Z" fill="currentColor"/>
</svg>
