<svg width="60" height="65" viewBox="0 0 60 65" fill="none" xmlns="http://www.w3.org/2000/svg">
<mask id="mask0_313_2178" style="mask-type:luminance" maskUnits="userSpaceOnUse" x="0" y="0" width="60" height="65">
<path d="M59.282 0.193359H0V65.0001H59.282V0.193359Z" fill="white"/>
</mask>
<g mask="url(#mask0_313_2178)">
<path d="M58.9089 21.1087C58.8931 21.1819 58.8693 21.2532 58.838 21.3213C58.7938 21.3984 58.7752 21.4876 58.7851 21.576C58.7948 21.6645 58.8324 21.7475 58.8925 21.8131C58.9525 21.9143 59.0027 22.0211 59.0423 22.1319C59.0533 22.1551 59.0423 22.1918 59.0669 22.2055C59.2658 22.3662 59.1895 22.6224 59.2767 22.8241C59.304 22.8894 59.2331 22.9944 59.2154 23.0815C59.1786 23.2804 59.1554 23.4821 59.011 23.6442C58.9878 23.6701 58.996 23.7273 58.9974 23.7696C58.9988 23.8118 59.026 23.869 59.0097 23.9058C58.913 24.0761 58.808 24.241 58.7044 24.4086C58.6009 24.5761 58.4974 24.7233 58.4129 24.8908C58.2576 25.1741 58.0434 25.4208 57.7848 25.6143C57.6268 25.741 57.5436 25.9631 57.3107 25.9985C57.1049 26.3977 56.6758 26.5803 56.4033 26.9223C56.2302 27.1362 55.9468 27.2589 55.7602 27.4673C55.4414 27.8175 54.9495 27.9769 54.7247 28.421C54.7165 28.4387 54.6975 28.466 54.6866 28.4646C54.4454 28.4319 54.3664 28.6758 54.1893 28.7603C54.053 28.8257 53.9508 28.9837 53.8119 29.0572C53.5936 29.1814 53.3948 29.337 53.2219 29.5192C53.0824 29.6218 52.9286 29.7035 52.7655 29.7617C52.7137 29.7875 52.6402 29.793 52.6102 29.8325C52.3718 30.15 51.9889 30.2699 51.6906 30.5137C51.4984 30.6677 51.2341 30.729 51.0093 30.8516C50.8949 30.9318 50.7862 31.0197 50.6837 31.1146C50.5493 31.2194 50.4092 31.3168 50.2641 31.4062C50.1537 31.4716 50.027 31.507 49.9125 31.5655C49.4547 31.7958 49.0078 32.0465 48.5419 32.2577C48.2275 32.4159 47.8979 32.5418 47.5582 32.6337C47.2667 32.7005 46.9028 32.7482 46.6808 33.0302C46.6639 33.0493 46.6406 33.0614 46.6153 33.0643C46.3485 33.0562 46.0869 33.1399 45.8742 33.3014C45.8164 33.3309 45.7524 33.3464 45.6875 33.3463C45.3373 33.3695 45.054 33.6188 44.6834 33.6188C44.49 33.6188 44.2937 33.7551 44.0948 33.8137C43.6329 33.9594 43.1697 34.0984 42.7065 34.2414C42.6997 34.2414 42.6901 34.2414 42.6874 34.2414C42.4708 34.5344 42.1274 34.3655 41.8604 34.469C41.8133 34.4924 41.7651 34.5133 41.716 34.5317C41.6369 34.5534 41.5525 34.563 41.4735 34.5848C41.3182 34.6297 41.1656 34.6815 41.0115 34.721C40.96 34.7446 40.9032 34.7545 40.8467 34.7497C40.7804 34.7198 40.7059 34.7135 40.6355 34.7318C40.5651 34.7502 40.5031 34.7921 40.4598 34.8505C40.4404 34.8682 40.4163 34.8801 40.3903 34.8845L39.5279 35.1107C39.4829 35.1229 39.4366 35.127 39.3916 35.1407C38.9542 35.2769 38.5169 35.4132 38.0782 35.5385C38.0281 35.5461 37.9771 35.5461 37.927 35.5385C37.8889 35.5385 37.8384 35.514 37.8139 35.5303C37.5414 35.7074 37.2457 35.7388 36.9351 35.7701C36.7185 35.7905 36.51 35.9064 36.2933 35.9282C35.7702 35.9963 35.2443 36.0317 34.7198 36.093C34.2919 36.1435 33.8682 36.2292 33.4404 36.2674C32.8845 36.3164 32.3273 36.341 31.7714 36.3587C31.4103 36.3696 31.0479 36.3396 30.6814 36.3505C30.4852 36.3574 30.2863 36.3614 30.1133 36.5167C30.0583 36.5405 29.9982 36.5502 29.9385 36.545C29.8788 36.5398 29.8213 36.5197 29.7713 36.4867C29.6446 36.3832 29.5873 36.4105 29.4824 36.5017C29.3367 36.6285 29.2359 36.5794 29.0737 36.4691C28.9394 36.3909 28.7863 36.3509 28.6309 36.3533C28.0138 36.3396 27.3952 36.3533 26.778 36.3382C26.4196 36.3287 26.0627 36.2756 25.7043 36.2443C25.4632 36.2211 25.2207 36.2129 24.9809 36.1775C24.4359 36.0984 23.8909 36.0031 23.3541 35.9227C23.2601 35.9091 23.1579 35.954 23.0639 35.939C22.8649 35.9091 22.6688 35.8573 22.4726 35.8151C22.3895 35.7974 22.3091 35.7755 22.226 35.7646C21.9617 35.7251 21.6892 35.7156 21.4658 35.5385C21.4437 35.5239 21.4167 35.5185 21.3908 35.5235C21.0652 35.5712 20.7913 35.4036 20.497 35.3164C20.4725 35.3096 20.4466 35.2796 20.4275 35.2837C20.2068 35.3341 20.0419 35.1884 19.8499 35.1325C19.5597 35.0466 19.2381 35.0276 18.9752 34.8927C18.7122 34.7578 18.4547 34.7646 18.1972 34.6965C18.0187 34.6502 17.8675 34.5602 17.6522 34.5889C17.4969 34.6134 17.3197 34.4772 17.1494 34.424C17.0751 34.4032 16.9973 34.3971 16.9206 34.4063C16.8102 34.4199 16.7107 34.4403 16.6644 34.3C16.6547 34.2835 16.6417 34.2691 16.6262 34.2576C16.6107 34.2461 16.5932 34.2379 16.5745 34.2333C16.2734 34.1515 15.9682 34.082 15.6685 33.9907C15.411 33.9131 15.163 33.8055 14.9069 33.7182C14.7093 33.6569 14.5063 33.616 14.306 33.5684C14.2556 33.5561 14.1861 33.5684 14.1561 33.5438C13.9586 33.3599 13.6929 33.3953 13.4654 33.3136C13.2754 33.2366 13.0903 33.1483 12.9109 33.0492C12.8808 33.0357 12.8427 32.9907 12.8304 32.9988C12.622 33.1351 12.5198 32.9062 12.3686 32.8627C12.1615 32.7945 11.9667 32.6896 11.765 32.6078C11.714 32.5974 11.6618 32.5933 11.6097 32.5956C11.5323 32.5938 11.4556 32.5804 11.3821 32.556C10.953 32.3613 10.5279 32.1582 10.1028 31.9579C10.0965 31.9564 10.0905 31.9536 10.0851 31.9498C9.77722 31.6677 9.35758 31.6023 9.0129 31.4048C8.75807 31.255 8.53466 31.0505 8.28801 30.8843C8.10954 30.7645 7.91878 30.6636 7.72942 30.56C7.61772 30.4974 7.49371 30.4551 7.38335 30.3897C7.19261 30.2766 7.00868 30.1527 6.82202 30.0328C6.80022 30.0192 6.76207 30.0123 6.75662 29.9946C6.65989 29.7344 6.37514 29.7521 6.19938 29.6118C6.06313 29.5014 5.92689 29.3802 5.79882 29.2644C5.76285 29.2309 5.72461 29.2 5.68437 29.1717C5.51996 29.0495 5.34693 28.9393 5.16664 28.842C4.96635 28.7466 4.88188 28.4823 4.62165 28.4851C4.58759 28.4851 4.54536 28.421 4.51946 28.3788C4.36006 28.1063 4.10255 27.9427 3.83824 27.7779C3.75513 27.7234 3.70199 27.6253 3.6216 27.5599C3.37501 27.3542 3.11477 27.1634 2.87634 26.9482C2.69105 26.7833 2.533 26.5871 2.35861 26.4032C2.27822 26.3229 2.18149 26.2588 2.09838 26.1825C1.79392 25.9295 1.50415 25.6593 1.23049 25.3732C0.999646 25.0812 0.786707 24.7754 0.59286 24.4576C0.522778 24.3653 0.461214 24.2668 0.408931 24.1633C0.292064 23.9304 0.200705 23.6856 0.136435 23.4331C0.0860236 23.1741 -0.0611222 22.9344 0.0356125 22.6333C0.0941988 22.4507 0.218185 22.2327 0.0982855 22.0106C0.0805743 21.9779 0.11736 21.9139 0.132347 21.8662C0.147334 21.8186 0.173221 21.8049 0.170496 21.7763C0.17327 21.6492 0.221622 21.5273 0.306745 21.433C0.336713 21.4002 0.395305 21.3607 0.389855 21.3349C0.338079 21.091 0.445715 20.8771 0.486591 20.6536C0.511108 20.5174 0.61466 20.4697 0.66507 20.3812C0.75106 20.1963 0.826118 20.0066 0.889875 19.813C0.963451 19.6195 1.02612 19.4192 1.10515 19.2339C1.11274 19.2084 1.12618 19.185 1.14439 19.1655C1.16259 19.1461 1.18508 19.1312 1.21006 19.1219C1.23505 19.1127 1.26184 19.1093 1.28832 19.1123C1.3148 19.1151 1.34025 19.1241 1.36265 19.1386C1.45883 19.172 1.56348 19.172 1.65967 19.1386C2.11888 19.0077 2.59813 18.9614 3.0739 19.0023C3.24308 19.0002 3.41176 18.9834 3.57801 18.9519C4.02898 18.911 4.4854 18.8266 4.93229 18.8606C5.12576 18.8743 5.31786 18.8838 5.51406 18.8852C5.73887 18.8852 5.96367 18.9288 6.19529 18.9465C6.54681 18.9764 6.89832 19.001 7.24983 19.0241C7.37382 19.0337 7.49916 19.0337 7.62312 19.0405C7.96101 19.0623 8.30438 19.0827 8.63679 19.1086C8.92018 19.1317 9.22133 19.1086 9.48017 19.204C9.71585 19.2898 10.0088 19.2803 10.1805 19.5391C10.2459 19.6372 10.4108 19.6686 10.5293 19.7326C10.6201 19.7645 10.7042 19.813 10.7772 19.8757C10.8096 19.9331 10.8616 19.977 10.9237 19.999C10.9858 20.0211 11.0538 20.0199 11.1151 19.9956C11.1682 19.9778 11.2514 20.0228 11.31 20.0474C11.4006 20.0996 11.4978 20.1399 11.5988 20.1672C11.8263 20.1863 12.0579 20.1767 12.2882 20.1795C12.3073 20.1795 12.34 20.1795 12.3427 20.1876C12.4027 20.3662 12.5662 20.3239 12.6943 20.3648C12.9831 20.4588 13.2651 20.5773 13.5512 20.6795C13.5948 20.6959 13.6725 20.7013 13.6875 20.6795C13.7042 20.6572 13.7156 20.6314 13.721 20.6041C13.7265 20.5767 13.7257 20.5485 13.7188 20.5215C13.6807 20.4029 13.6111 20.2966 13.573 20.1781C13.5117 19.9874 13.4668 19.7925 13.4136 19.5991C13.3932 19.5255 13.3891 19.411 13.3414 19.3866C13.1888 19.3061 13.2133 19.1767 13.2051 19.05C13.1983 18.8423 13.1782 18.6352 13.1452 18.4301C13.1207 18.3143 13.0008 18.2203 12.9695 18.1045C12.9029 17.8688 12.855 17.6283 12.8263 17.3851C12.7746 16.9505 12.7474 16.5144 12.7051 16.0798C12.7056 16.0028 12.6844 15.9273 12.6439 15.8618C12.4408 15.6316 12.5267 15.3319 12.434 15.0757C12.4204 15.0362 12.4667 14.979 12.4667 14.9286C12.4667 14.8782 12.4667 14.7746 12.4353 14.7651C12.2528 14.6983 12.3182 14.5594 12.3182 14.4354C12.3182 14.3114 12.3182 14.2051 12.3182 14.0893C12.3087 13.8168 12.216 13.5443 12.3304 13.2718C12.3441 13.2391 12.3509 13.1778 12.3304 13.1587C12.1642 12.9898 12.2896 12.8209 12.3128 12.6478C12.3074 12.5797 12.2859 12.5138 12.2501 12.4557C12.2364 12.423 12.1888 12.3958 12.1888 12.3644C12.1888 12.2105 12.1997 12.0552 12.2051 11.8998C12.2051 11.8616 12.2214 11.8112 12.2051 11.7841C12.1002 11.6219 12.1765 11.4925 12.2255 11.3276C12.2909 11.1028 12.498 11.0633 12.607 10.9188C12.6302 10.8916 12.6833 10.8862 12.7011 10.8575C12.7324 10.8044 12.7324 10.7213 12.7759 10.6872C13.0771 10.4897 13.3781 10.2867 13.6957 10.115C14.0498 9.92562 14.4191 9.76759 14.7856 9.5973C14.8919 9.54689 14.9995 9.49648 15.1098 9.46105C15.1265 9.45908 15.1435 9.46145 15.1589 9.46784C15.1745 9.4743 15.1881 9.48461 15.1985 9.49779C15.2462 9.6144 15.3253 9.71547 15.427 9.78985C15.5288 9.86416 15.6491 9.90876 15.7747 9.91882C15.8006 9.91964 15.826 9.92578 15.8494 9.93683C15.8728 9.94779 15.8938 9.9635 15.911 9.98282C16.0472 10.2186 16.287 10.3016 16.5091 10.4256C16.7312 10.5496 17.0242 10.675 17.125 10.9801C17.1454 11.0442 17.2326 11.096 17.2994 11.1341C17.4304 11.2129 17.567 11.2821 17.708 11.3413C17.832 11.3917 17.952 11.4257 17.9805 11.5851C17.9805 11.6192 18.0855 11.6573 18.14 11.6559C18.2116 11.657 18.2818 11.6755 18.3446 11.7096C18.4076 11.7438 18.4612 11.7927 18.501 11.8521C18.6278 11.9884 18.7108 12.2118 18.9629 12.1914C18.9787 12.1932 18.9938 12.1989 19.0068 12.2079C19.0199 12.217 19.0306 12.2291 19.0378 12.2431C19.1018 12.453 19.2653 12.5252 19.4561 12.5865C19.5446 12.6151 19.6114 12.7132 19.6891 12.7786C19.7667 12.844 19.8063 12.8808 19.8689 12.9271C20.2013 13.1805 20.5379 13.4312 20.8676 13.6873C20.9167 13.7256 20.9385 13.795 20.9793 13.8454C21.0202 13.8959 21.0543 13.9285 21.0707 13.9217C21.2355 13.8495 21.2586 13.9217 21.2613 14.0675C21.2613 14.1166 21.3608 14.2037 21.4167 14.2037C21.4683 14.2029 21.5189 14.2175 21.5621 14.2457C21.6053 14.2738 21.6392 14.3143 21.6592 14.3618C21.6933 14.4217 21.7818 14.4504 21.8473 14.4981C21.9126 14.5457 21.9766 14.5539 22.008 14.603C22.034 14.6562 22.0793 14.6977 22.1347 14.7189C22.19 14.7401 22.2514 14.7396 22.3064 14.7174C22.3251 14.7131 22.3444 14.7129 22.3632 14.7166C22.382 14.7204 22.3997 14.7281 22.4154 14.7392C22.5397 14.8374 22.653 14.9489 22.7532 15.0716C22.8564 15.2087 22.9942 15.3159 23.1524 15.3823C23.278 15.4779 23.3836 15.5973 23.4631 15.7338C23.6361 15.9558 23.8023 16.1834 23.974 16.4068C23.998 16.4323 24.025 16.4547 24.0544 16.4736C24.0626 16.4396 24.0722 16.4041 24.0789 16.3701C24.1375 16.0649 23.9767 15.7964 23.9427 15.509C23.932 15.3662 23.9288 15.2229 23.9331 15.0798C23.9209 14.6534 23.8977 14.2256 23.9018 13.7991C23.9222 13.6556 23.9602 13.5151 24.0149 13.3808C24.0816 13.126 24.1511 12.8713 24.207 12.6138C24.2231 12.4722 24.2277 12.3296 24.2206 12.1873C24.2206 12.1546 24.2206 12.1097 24.2411 12.0933C24.5789 11.8208 24.5258 11.4229 24.598 11.0619C24.6593 10.7471 24.6907 10.4161 24.8215 10.1327C24.8855 9.99648 24.8569 9.87381 24.8992 9.75532C24.9646 9.57414 25.0667 9.40515 25.1457 9.22807C25.2017 9.10851 25.2319 8.97855 25.2343 8.84656C25.2425 8.58084 25.2493 8.28117 25.4482 8.05089C25.4999 8.00122 25.533 7.93534 25.5422 7.86423C25.5123 7.53995 25.6485 7.25929 25.7575 6.97045C25.7943 6.87371 25.8038 6.76608 25.8393 6.66798C25.9047 6.48405 26.0709 6.45135 26.2357 6.41864C26.4006 6.38595 26.3883 6.31919 26.2848 6.22518L26.1649 6.123C26.0668 6.04125 26.0763 6.05487 26.1744 5.97721C26.2166 5.94451 26.2057 5.84097 26.2139 5.77148C26.2262 5.67339 26.2003 5.55348 26.2479 5.48127C26.4213 5.2427 26.496 4.94649 26.4565 4.65426C26.4264 4.43899 26.5926 4.31092 26.6608 4.14879C26.7208 4.01255 26.8747 3.9308 26.9769 3.81499C27.0093 3.76049 27.0327 3.70116 27.0464 3.63923C27.1685 3.38177 27.2732 3.11641 27.3597 2.84492C27.3818 2.77571 27.4211 2.71331 27.4742 2.66371C27.5348 2.58382 27.5894 2.49957 27.6376 2.41166C27.6376 2.40076 27.6241 2.36533 27.6077 2.3558C27.5805 2.34606 27.552 2.34054 27.5232 2.33945C27.5622 2.32101 27.6 2.30007 27.6363 2.27677C27.6772 2.24816 27.7426 2.21683 27.7466 2.18276C27.7562 2.07241 27.7466 1.96068 27.7466 1.85033C27.7466 1.83261 27.7753 1.79991 27.7889 1.79991C27.8298 1.79991 27.9034 1.83125 27.9061 1.82443C27.9595 1.71467 27.9998 1.59897 28.0259 1.47974C28.0369 1.40616 28.0097 1.40888 28.0941 1.41433C28.1159 1.41433 28.1691 1.34349 28.1622 1.3285C28.1173 1.24403 28.1077 1.2086 28.2222 1.16092C28.2429 1.14365 28.2597 1.12225 28.2717 1.09809C28.2837 1.07391 28.2904 1.04751 28.2916 1.02058C28.2928 0.993636 28.2883 0.966745 28.2784 0.941647C28.2686 0.91654 28.2536 0.893774 28.2345 0.874805C28.2183 0.849347 28.2067 0.821204 28.2003 0.791695C28.2208 0.808045 28.2399 0.833929 28.2644 0.838013C28.2927 0.83933 28.321 0.83469 28.3475 0.824387C28.3285 0.70041 28.6513 0.663617 28.4361 0.490588C28.447 0.476963 28.4593 0.453804 28.4701 0.452438C28.5016 0.448199 28.5335 0.453911 28.5615 0.468788C28.5873 0.498764 28.608 0.532839 28.6228 0.569615C28.65 0.534189 28.699 0.498764 28.6963 0.466063C28.6832 0.418239 28.6573 0.3749 28.6214 0.340718C28.5967 0.318288 28.5692 0.299065 28.5396 0.283492C28.6132 0.249433 28.6922 0.181311 28.7603 0.190848C28.8773 0.226583 28.9924 0.268423 29.1051 0.316193C29.3012 0.362519 29.5015 0.351619 29.7072 0.407478C30.2111 0.539607 30.7047 0.708086 31.1841 0.911589C31.3068 0.964724 31.3354 1.03693 31.2837 1.13504C31.1624 1.36665 31.2837 1.56693 31.3722 1.75495C31.6447 2.32446 31.9499 2.87489 32.2033 3.44985C32.4349 3.9744 32.6229 4.51938 32.8109 5.06164C32.9881 5.57256 33.1379 6.09302 33.3028 6.60803C33.3205 6.66253 33.3641 6.70885 33.3818 6.76471C33.45 6.96636 33.518 7.17345 33.5766 7.37373C33.6025 7.46094 33.6148 7.55221 33.6407 7.64622C33.7074 7.87781 33.8355 8.10809 33.8314 8.33698C33.8246 8.65989 33.9963 8.92692 34.0167 9.23625C34.0411 9.49697 34.0797 9.7563 34.1325 10.0128C34.1924 10.3371 34.262 10.66 34.3274 10.9829C34.3274 10.9952 34.341 11.0102 34.3369 11.021C34.2116 11.3794 34.5821 11.66 34.495 12.0116C34.4901 12.0242 34.4901 12.0383 34.495 12.0511C34.668 12.3236 34.6176 12.6615 34.7239 12.953C34.7562 13.0093 34.7922 13.0634 34.8315 13.1152C34.8546 13.1587 34.8846 13.2404 34.8682 13.2514C34.732 13.3672 34.826 13.4912 34.8424 13.6138C34.8874 13.9531 34.9227 14.295 34.969 14.6329C34.9786 14.7024 35.0317 14.7692 35.0317 14.836C35.0524 15.2315 35.1281 15.6221 35.2565 15.9968C35.2634 16.0199 35.3587 16.0458 35.3737 16.0308C35.529 15.8796 35.6789 15.7216 35.8233 15.5594C35.8737 15.5022 35.9037 15.4231 35.9514 15.3632C35.9991 15.3032 36.0318 15.2624 36.0795 15.2542C36.1841 15.2342 36.2824 15.1894 36.3663 15.1238C36.4501 15.0581 36.5172 14.9735 36.5618 14.8768C36.6716 14.7248 36.7942 14.5826 36.9283 14.4517C36.9283 14.4517 36.9406 14.4395 36.9447 14.4408C37.2457 14.5375 37.3261 14.1996 37.5469 14.1356C37.5915 14.1223 37.6297 14.0932 37.6545 14.0539C37.7308 13.9176 37.8071 13.7895 38.0019 13.7991C38.0319 13.7991 38.0823 13.6629 38.0959 13.5934C38.1123 13.4939 38.1259 13.4381 38.2417 13.5021C38.2619 13.5082 38.2834 13.5092 38.3041 13.5049C38.3248 13.5006 38.3441 13.4912 38.3602 13.4775C38.5959 13.0783 38.9979 12.8972 39.3753 12.6805C39.4734 12.6246 39.5592 12.5443 39.6573 12.4884C39.7446 12.4363 39.8357 12.3908 39.9298 12.3521C39.9745 12.341 40.02 12.3341 40.066 12.3317C40.2404 12.3017 40.2023 12.0347 40.4326 12.0265C40.5606 12.0265 40.6941 11.8644 40.8045 11.754C40.8465 11.6998 40.9015 11.6571 40.9643 11.6297C41.0272 11.6023 41.0959 11.5912 41.1642 11.5974C41.2133 11.5974 41.3004 11.5782 41.3141 11.5442C41.4217 11.2989 41.6737 11.2717 41.8699 11.1723C42.013 11.0973 42.1424 11.036 42.2024 10.8657C42.2269 10.7949 42.3046 10.7417 42.3645 10.6872C42.5496 10.5123 42.7697 10.3786 43.0103 10.2948C43.1275 10.254 43.2133 10.1191 43.3142 10.0223C43.3605 9.98012 43.4177 9.89836 43.4572 9.90516C43.7215 9.95426 43.8155 9.70082 44.0021 9.61767C44.0021 9.61767 44.0117 9.60949 44.0158 9.60409C44.0526 9.54411 44.1017 9.43101 44.1248 9.4351C44.2379 9.46882 44.347 9.51456 44.4504 9.57136C44.5785 9.63404 44.6984 9.70761 44.8279 9.77029C45.1494 9.90655 45.4832 10.0291 45.7952 10.1899C45.9933 10.3058 46.1783 10.4429 46.347 10.5987C46.4955 10.7227 46.6099 10.8998 46.7747 10.9911C46.9792 11.1028 46.9995 11.3167 47.1208 11.4693C47.1468 11.5034 47.1304 11.5755 47.1208 11.6287C47.1081 11.7361 47.0885 11.8426 47.0622 11.9475C47.0146 12.1287 47.1427 12.3386 46.9491 12.5062C46.9056 12.5429 46.9628 12.7146 46.9955 12.8168C47.0282 12.9189 47.0554 13.0143 46.9587 13.1015C46.9454 13.116 46.9356 13.1334 46.9302 13.1523C46.9248 13.1712 46.9238 13.1912 46.9274 13.2105C47.0636 13.5498 46.9573 13.8918 46.9192 14.2215C46.9161 14.2805 46.9212 14.3396 46.9342 14.3972C46.9587 14.5334 47.0159 14.6806 46.8225 14.7569C46.7938 14.7678 46.7721 14.8495 46.7802 14.8932C46.8467 15.2035 46.7982 15.5273 46.644 15.8046C46.623 15.8379 46.6087 15.8749 46.6018 15.9136C46.5581 16.2624 46.5159 16.6112 46.4792 16.96C46.4356 17.3687 46.5009 17.8306 46.2734 18.1862C46.0636 18.5118 46.0868 18.8415 46.0567 19.1821C46.0567 19.2258 46.0567 19.298 46.0295 19.3075C45.8346 19.3852 45.8932 19.5569 45.8524 19.7054C45.7854 19.9375 45.7035 20.165 45.6072 20.3866C45.5845 20.4339 45.5649 20.4826 45.5486 20.5324C45.5159 20.6754 45.5826 20.7394 45.7175 20.6904C46.0036 20.5882 46.2829 20.4615 46.5745 20.3771C46.7131 20.336 46.8453 20.2754 46.9669 20.1972C47.0827 20.1277 47.2734 20.1836 47.4302 20.1795C47.6345 20.1795 47.8552 20.2353 48.0051 20.0214C48.0257 20.0061 48.0498 19.9961 48.0753 19.9923C48.1007 19.9885 48.1266 19.9911 48.1509 19.9997C48.3035 20.0623 48.3934 19.9874 48.4928 19.8852C48.569 19.8263 48.6518 19.7764 48.7394 19.7367C48.8757 19.6509 49.0119 19.5636 49.1482 19.4737C49.1741 19.4574 49.1822 19.4097 49.2068 19.4001C49.3912 19.3167 49.5827 19.2497 49.779 19.1999C50.0515 19.1495 50.3444 19.1372 50.6278 19.1141C50.997 19.0841 51.3677 19.0582 51.7382 19.0323C52.1361 19.0051 52.5326 18.9669 52.9304 18.9573C53.2178 18.9505 53.5053 19.0051 53.7833 18.8825C53.8255 18.8647 53.8936 18.9097 53.9508 18.9206C54.0081 18.9315 54.0871 18.9642 54.1184 18.9411C54.3909 18.7639 54.6893 18.8947 54.9686 18.8879C55.3406 18.8811 55.7138 18.9805 56.0886 19.0091C56.4128 19.0337 56.7398 19.0214 57.0641 19.0323C57.176 19.035 57.2873 19.0487 57.3965 19.0731C57.4957 19.1001 57.5871 19.1497 57.6635 19.2184C57.74 19.287 57.7992 19.3726 57.8366 19.4683C57.854 19.496 57.877 19.5197 57.9043 19.5378C57.9315 19.5559 57.9624 19.5679 57.9946 19.5732C58.0889 19.5708 58.1811 19.6011 58.2557 19.659C58.3301 19.7168 58.3824 19.7987 58.4034 19.8907C58.4688 20.106 58.5165 20.3525 58.7413 20.4874C58.7518 20.4946 58.7595 20.5051 58.763 20.5174C58.8134 20.704 58.8585 20.892 58.9089 21.1087ZM44.6711 30.6677L44.697 30.7331L44.8333 30.7045C44.7815 30.5682 44.8986 30.6214 44.949 30.5996L45.3074 30.447C45.3632 30.4152 45.4234 30.3918 45.4859 30.3775C45.663 30.3598 45.8606 30.4102 45.9709 30.2031C45.9819 30.1827 46.0309 30.1772 46.0622 30.1772C46.1985 30.1772 46.3483 30.1772 46.4914 30.1772C46.5591 30.1809 46.6269 30.1708 46.6905 30.1477C46.7543 30.1245 46.8126 30.0887 46.8621 30.0423C46.9117 29.996 46.9514 29.9401 46.9787 29.878C47.006 29.816 47.0206 29.7491 47.0214 29.6813C47.0214 29.6377 47.0991 29.5887 47.1468 29.545C47.1944 29.5014 47.2598 29.466 47.3171 29.4279C47.3477 29.4066 47.3801 29.3879 47.4138 29.372C47.5814 29.2998 47.7517 29.2357 47.9193 29.1594C47.9465 29.1472 47.9574 29.1049 47.9847 29.0886C48.0841 29.0213 48.1874 28.9599 48.2939 28.9047C48.4492 28.8297 48.6496 28.8052 48.7599 28.6921C48.9861 28.4619 48.9656 28.4441 49.249 28.6009C49.2762 28.6144 49.3199 28.6009 49.3553 28.6009C49.3553 28.5722 49.3553 28.53 49.343 28.5136C49.1822 28.357 49.3267 28.2725 49.4303 28.2099C49.5937 28.1103 49.7735 28.0423 49.9452 27.9564C50.0951 27.8815 50.2422 27.7997 50.3894 27.7207C50.416 27.7028 50.4415 27.6833 50.4657 27.6621C50.6019 27.5626 50.7273 27.4591 50.8622 27.3638C51.0733 27.2152 51.2913 27.0763 51.4998 26.925C51.5665 26.8774 51.6074 26.7888 51.6755 26.7452C51.8472 26.648 52.0112 26.5377 52.166 26.4155C52.4366 26.1276 52.7506 25.8839 53.0966 25.6934C53.2002 25.6416 53.3541 25.5939 53.3214 25.4113C53.3214 25.3909 53.3691 25.3555 53.3991 25.3323C53.5353 25.2246 53.6852 25.1225 53.8227 25.0094C54.0357 24.8504 54.2373 24.677 54.4264 24.4903C54.6811 24.2178 55.1144 24.1674 55.2874 23.7954C55.2874 23.7859 55.3093 23.7818 55.3187 23.7723C55.4087 23.6796 55.5027 23.5897 55.5913 23.4917C55.6798 23.3935 55.7711 23.2559 55.8706 23.1469C56.0558 22.9399 56.2656 22.7532 56.4332 22.5325C56.6008 22.3118 56.4837 22.1155 56.2139 22.0856C56.1103 22.0747 56.0109 22.0283 55.9087 22.012C55.793 21.9927 55.6759 21.9822 55.5585 21.9807C55.2479 21.9807 54.9372 21.9807 54.6266 21.9807C54.2956 21.9807 53.9645 21.9657 53.6334 21.9807C53.3977 21.9889 53.1647 22.0502 52.9304 22.0529C52.29 22.0597 51.6483 22.0215 51.0107 22.1442C50.3731 22.2668 49.7545 22.3622 49.1277 22.478C49.0052 22.5132 48.8847 22.5551 48.7667 22.6033C48.6113 22.6496 48.4547 22.6891 48.298 22.7272C48.0964 22.7764 47.9247 22.9344 47.6958 22.8881C47.6509 22.8786 47.5964 22.9126 47.5473 22.929C47.2911 23.0188 47.0378 23.1169 46.7788 23.2014C46.6426 23.2464 46.4832 23.2532 46.3401 23.2941C46.2306 23.3316 46.1241 23.3771 46.0213 23.4303C45.8851 23.4971 45.7325 23.636 45.5977 23.6238C45.2406 23.5925 45.0199 23.865 44.7352 23.9767C44.4945 24.0814 44.2619 24.2034 44.039 24.3418C43.8101 24.4781 43.5675 24.5912 43.3264 24.7029C43.1561 24.7818 43.1507 25.0625 42.8863 25.034C42.8182 25.0271 42.7501 25.1593 42.6602 25.1974C42.5702 25.2356 42.4313 25.2424 42.3264 25.2887C42.1574 25.365 41.9967 25.4604 41.8358 25.553C41.577 25.7002 41.325 25.861 41.062 25.9999C40.8209 26.1362 40.5592 26.222 40.3222 26.3582C39.9325 26.5817 39.5538 26.8215 39.1763 27.0653C39.0592 27.1403 38.9733 27.2616 38.8575 27.3378C38.645 27.4823 38.4188 27.6103 38.2049 27.7466C38.054 27.8373 37.9137 27.9448 37.7866 28.0668C37.6313 28.2275 37.3697 28.2603 37.2825 28.4973C37.2825 28.5055 37.258 28.5055 37.2485 28.5136C36.9664 28.7234 36.6762 28.9224 36.4051 29.1486C36.2157 29.3025 36.0577 29.4919 35.8737 29.6527C35.6394 29.8584 35.3792 30.0369 35.1557 30.2535C34.6911 30.7032 34.2415 31.1691 33.7932 31.6337C33.7088 31.7208 33.657 31.8435 33.5807 31.9348C33.4581 32.071 33.3178 32.1991 33.191 32.3353C33.0303 32.5097 32.8668 32.6841 32.7169 32.8681C32.5962 33.0197 32.4847 33.1785 32.3831 33.3436C32.3136 33.4553 32.3681 33.5465 32.5031 33.5629C32.5619 33.5697 32.6213 33.5697 32.6801 33.5629C33.1311 33.5303 33.5698 33.4008 34.0249 33.4049C34.0577 33.4007 34.0898 33.392 34.1203 33.379C34.3424 33.3136 34.5644 33.2428 34.7878 33.1814C34.8573 33.1623 34.9473 33.1269 34.9977 33.1542C35.1667 33.2469 35.3206 33.1869 35.4704 33.1297C35.6203 33.0724 35.7879 33.0139 35.9541 33.116C35.9718 33.1269 36.0195 33.1269 36.0277 33.116C36.1721 32.8926 36.416 32.9171 36.6312 32.8599C37.0005 32.7605 37.3656 32.6433 37.7308 32.5302C37.9474 32.4634 38.1613 32.3939 38.378 32.3204C38.6927 32.2209 39.006 32.1146 39.3249 32.0288C39.7077 31.9253 40.0974 31.8449 40.4816 31.7468C40.6464 31.7059 40.8045 31.6405 40.9693 31.5956C41.3576 31.4879 41.7487 31.387 42.1383 31.2808C42.2133 31.2604 42.2814 31.2181 42.3563 31.1964C42.5457 31.1432 42.7364 31.0956 42.9272 31.0478C42.9395 31.0478 42.9653 31.0642 42.9735 31.0792C43.0458 31.2154 43.171 31.1704 43.2719 31.1528C43.494 31.1132 43.7147 31.056 43.9341 31.0015C43.9813 30.9842 44.0269 30.9627 44.0703 30.9374L44.6711 30.6677ZM3.56711 21.9698C3.42132 22.0024 3.24012 22.0597 3.05346 22.0842C2.81094 22.1169 2.7074 22.2763 2.81775 22.493C2.85856 22.5684 2.91045 22.6373 2.97171 22.6973C3.12976 22.8649 3.30279 23.0202 3.45539 23.1946C3.60799 23.369 3.71561 23.5352 3.84777 23.7028C3.90228 23.7696 3.96767 23.8282 4.02762 23.8908C4.06863 23.9404 4.11425 23.9861 4.16386 24.0271C4.2279 24.072 4.30965 24.0884 4.37096 24.1361C4.64345 24.3486 4.90776 24.5775 5.18844 24.7791C5.43368 24.9549 5.60671 25.2192 5.89419 25.3405C5.92552 25.3541 5.93779 25.4127 5.95959 25.4481C5.98573 25.5084 6.02216 25.5638 6.06722 25.6116C6.33971 25.8146 6.62583 26.004 6.90104 26.207C6.99369 26.2751 7.06181 26.3774 7.1531 26.4495C7.35747 26.6253 7.59046 26.7616 7.78662 26.9414C7.91469 27.0571 8.09186 27.0899 8.19538 27.1907C8.54694 27.5122 8.96789 27.7234 9.36028 27.9782C9.50881 28.0749 9.68589 28.1267 9.84261 28.2126C9.93663 28.2644 10.0375 28.331 9.96798 28.4742C9.95055 28.5202 9.93868 28.5683 9.93254 28.6172C9.98017 28.6022 10.0259 28.5816 10.0688 28.5559C10.1873 28.4578 10.2949 28.4279 10.3998 28.5736C10.4448 28.6363 10.4857 28.7221 10.5497 28.7507C10.8413 28.8775 11.1805 28.9047 11.3972 29.1799C11.3972 29.1799 11.4108 29.1799 11.4163 29.1799C11.5852 29.248 11.7555 29.3162 11.9217 29.387C11.9448 29.3979 11.9517 29.4428 11.9721 29.466C11.9925 29.4892 12.0348 29.5383 12.0525 29.5314C12.325 29.4347 12.5321 29.744 12.806 29.6432C12.8359 29.6322 12.9095 29.6977 12.9422 29.7426C12.9749 29.7875 12.9218 29.8461 12.9422 29.8707C13.116 30.1031 13.3572 30.2762 13.633 30.3666C13.9286 30.4511 14.2188 30.5546 14.509 30.6595C14.7992 30.7645 15.0731 30.8176 15.3347 30.9852C15.5241 31.1064 15.7911 31.1214 16.0282 31.1514C16.1224 31.1448 16.2147 31.1212 16.3007 31.0819C16.3306 31.0737 16.3688 31.0532 16.3878 31.0642C16.5745 31.1759 16.7966 31.1173 16.9996 31.2195C17.358 31.3952 17.7666 31.4661 18.1563 31.5792C18.3184 31.6269 18.4833 31.6623 18.6441 31.7154C18.8049 31.7685 18.9752 31.8435 19.1454 31.883C19.6741 32.0043 20.2068 32.1078 20.7355 32.2291C20.8908 32.2645 21.0365 32.334 21.1878 32.3844C21.7 32.5533 22.211 32.7236 22.7247 32.8898C22.8441 32.9067 22.9611 32.9374 23.0735 32.9812C23.2179 33.0724 23.3391 33.1678 23.519 33.0602C23.5544 33.0398 23.6266 33.0834 23.6825 33.0956C23.8392 33.131 24.0081 33.2209 24.1498 33.1883C24.4591 33.1188 24.7207 33.2673 25.0041 33.3082C25.1403 33.3272 25.2765 33.3926 25.4128 33.4144C25.549 33.4362 25.7112 33.4144 25.8569 33.4348C26.1526 33.4717 26.4442 33.5357 26.7398 33.5588C26.9183 33.5738 26.9755 33.4471 26.8665 33.3027C26.6581 33.0302 26.4455 32.7496 26.2262 32.4852C26.0899 32.3244 25.9442 32.1787 25.8092 32.0193C25.7207 31.9157 25.6567 31.7904 25.5627 31.6937C25.2629 31.3843 24.9578 31.0819 24.6498 30.7821C24.3132 30.4538 23.9767 30.1241 23.628 29.808C23.41 29.6104 23.1647 29.4428 22.9467 29.2521C22.7288 29.0613 22.5489 28.8856 22.3445 28.7072C22.2682 28.6404 22.1742 28.5941 22.0924 28.5341C22.0255 28.4882 21.9622 28.4372 21.9031 28.3815C21.8608 28.342 21.8377 28.2793 21.7928 28.2453C21.5829 28.0954 21.3703 27.95 21.1551 27.8093C21.0638 27.7493 20.9562 27.7126 20.8689 27.6485C20.6347 27.4714 20.4126 27.2765 20.1728 27.1035C20.0365 27.0054 19.8703 26.9482 19.7272 26.8583C19.4915 26.7084 19.2708 26.5327 19.0283 26.395C18.7858 26.2574 18.4833 26.1389 18.2203 25.9972C17.8239 25.7819 17.4356 25.5503 17.0432 25.3282C16.9982 25.3023 16.9342 25.2506 16.907 25.2642C16.7516 25.3391 16.6671 25.2015 16.55 25.1634C16.4328 25.1252 16.3661 24.9045 16.1753 24.9998C16.1614 24.9884 16.1517 24.9726 16.148 24.9549C16.1386 24.7982 16.0268 24.7314 15.9056 24.6728C15.678 24.5611 15.4491 24.4521 15.2243 24.335C15.1044 24.271 14.9968 24.1824 14.8741 24.1238C14.693 24.038 14.4654 24.0121 14.3291 23.8827C14.0785 23.6374 13.7324 23.6606 13.4558 23.4971C13.2365 23.3677 12.9599 23.3376 12.7065 23.2669C12.5048 23.211 12.265 23.2137 12.1056 23.1006C11.7964 22.8826 11.4244 22.9235 11.0988 22.7723C10.8866 22.6939 10.6684 22.6332 10.4461 22.5911C10.1928 22.5202 9.94343 22.433 9.68868 22.3703C9.5183 22.3281 9.33982 22.3158 9.16683 22.2872C8.78123 22.2218 8.39841 22.1292 8.01011 22.0965C7.52096 22.0556 7.02912 22.0637 6.53863 22.0515C6.4528 22.0515 6.36696 22.0515 6.28249 22.0515C5.84787 22.0256 5.4146 21.9861 4.98134 21.9725C4.51946 21.9588 4.0644 21.9698 3.56711 21.9698ZM44.133 12.8644H44.103C44.103 12.8113 44.103 12.7595 44.103 12.7064C44.103 12.5851 44.0472 12.5265 43.9286 12.5919C43.637 12.75 43.34 12.9012 43.0634 13.0838C42.9475 13.1853 42.8063 13.2535 42.6547 13.2814C42.5965 13.2922 42.5418 13.317 42.4953 13.3535C42.126 13.6043 41.7623 13.8617 41.3903 14.1098C41.1424 14.2732 40.8822 14.419 40.6342 14.5825C40.4162 14.727 40.2254 14.9299 39.9898 15.0226C39.8031 15.1035 39.6338 15.2196 39.4911 15.3645C39.1886 15.637 38.8589 15.885 38.5469 16.1493C38.288 16.3687 38.036 16.5962 37.7839 16.8238C37.5319 17.0513 37.2648 17.2979 37.01 17.539C36.9037 17.6399 36.8138 17.7557 36.7076 17.8565C36.5808 17.9764 36.4351 18.0799 36.3138 18.2053C36.1681 18.3565 36.0672 18.5704 35.8955 18.6713C35.8025 18.7177 35.7262 18.792 35.6774 18.8839C35.6285 18.9757 35.6095 19.0804 35.623 19.1835C35.6193 19.1983 35.6106 19.2112 35.5985 19.2204C35.4296 19.1386 35.4473 19.2639 35.4364 19.3565C35.4364 19.3688 35.3969 19.3784 35.3765 19.3866C35.356 19.3947 35.2892 19.4097 35.2647 19.437C35.1721 19.5364 35.0862 19.644 34.9923 19.7476C34.8467 19.9012 34.7102 20.0632 34.5835 20.2326C34.3287 20.6101 34.0944 21.0024 33.8464 21.3853C33.6748 21.6496 33.4813 21.8989 33.3178 22.1687C33.1162 22.4984 32.9418 22.8431 32.7428 23.1755C32.6202 23.3827 32.6447 23.681 32.3654 23.7927C32.3558 23.7927 32.3531 23.8146 32.349 23.8268C32.2891 24.0993 32.0765 24.2791 31.9894 24.538C31.9022 24.7969 31.706 24.9998 31.5589 25.2301C31.5413 25.2649 31.5277 25.3014 31.5179 25.3391C31.4308 25.5816 31.3504 25.8283 31.2564 26.068C31.1624 26.3078 31.0247 26.5776 30.9307 26.8392C30.7827 27.2534 30.6464 27.6712 30.522 28.0927C30.4661 28.2738 30.2985 28.4265 30.3735 28.6445C30.3762 28.6572 30.3759 28.6702 30.3725 28.6829C30.3692 28.6954 30.363 28.7069 30.3544 28.7166C30.161 28.9088 30.2645 29.1881 30.1473 29.4115C30.0724 29.5573 30.1051 29.7562 30.0751 29.9293C30.0383 30.1323 29.9784 30.3311 29.9389 30.5342C29.8994 30.7372 29.8871 30.9688 29.8476 31.1827C29.8326 31.2699 29.759 31.3489 29.7508 31.4348C29.7393 31.6085 29.7365 31.7826 29.7426 31.9566C29.7426 32.0929 29.8871 32.206 29.9525 32.1214C30.0411 32.007 30.2768 32.0506 30.2549 31.8312C30.2549 31.8163 30.2945 31.7999 30.3122 31.7808C30.4239 31.6446 30.5846 31.5492 30.6119 31.3544C30.6279 31.2508 30.6696 31.1529 30.7332 31.0696C30.8558 30.9239 30.9008 30.7154 31.1202 30.6418C31.3864 30.5493 31.608 30.3601 31.7414 30.1118C31.7864 30.0342 31.8981 29.996 31.9798 29.9401C32.0616 29.8843 32.1733 29.8448 32.1679 29.8148C32.1365 29.6404 32.2196 29.7099 32.2918 29.744C32.3341 29.7631 32.375 29.7821 32.4185 29.7985C32.5548 29.8502 32.6311 29.8298 32.5766 29.6622C32.5408 29.5868 32.5274 29.5026 32.538 29.4198C32.5486 29.3369 32.5828 29.2589 32.6365 29.1949C32.7033 29.1227 32.7891 29.0682 32.86 28.9973C33.0875 28.7725 33.281 28.5095 33.5957 28.3855C33.642 28.3679 33.6666 28.297 33.7061 28.2562C33.8323 28.1051 33.9689 27.963 34.1148 27.831C34.2091 27.7693 34.3085 27.7155 34.4118 27.6703C34.5644 27.5886 34.6475 27.3801 34.7647 27.2288C34.8203 27.1411 34.8898 27.0629 34.9704 26.9972C35.0276 26.9591 35.1435 27.0054 35.1952 26.9659C35.247 26.9264 35.2361 26.8296 35.2552 26.7547C35.2577 26.749 35.262 26.7441 35.2675 26.7411C35.5208 26.5354 35.7675 26.3215 36.0291 26.1266C36.3179 25.9114 36.6789 25.7737 36.7785 25.3705C36.7852 25.3445 36.822 25.3228 36.8492 25.3078C36.9789 25.2508 37.1045 25.1853 37.2253 25.1116C37.3547 25.0176 37.4542 24.88 37.5863 24.7914C37.8875 24.5884 38.1204 24.2914 38.4719 24.1593C38.6082 24.1075 38.7362 24.023 38.8698 23.9685C38.9529 23.9317 39.0401 23.9072 39.1232 23.8718C39.4502 23.7355 39.7268 23.448 40.13 23.523C40.176 23.521 40.2205 23.5058 40.2581 23.4794C40.363 23.4262 40.4638 23.369 40.566 23.3132C40.7998 23.1988 41.0272 23.0718 41.2473 22.933C41.4666 22.7804 41.6561 22.587 41.6084 22.2723C41.5883 22.1813 41.5954 22.0866 41.6288 21.9997C41.8522 21.5433 41.9612 21.031 42.2895 20.625C42.3131 20.5777 42.3296 20.5272 42.3386 20.4751C42.3754 20.373 42.4135 20.2722 42.4503 20.17C42.5457 19.9083 42.7446 19.6849 42.7337 19.3838C42.7337 19.3402 42.7814 19.2966 42.8032 19.2476C42.825 19.1985 42.8482 19.1304 42.87 19.0731L42.9218 18.937C42.9708 18.8089 43.0267 18.6821 43.0689 18.5514C43.0921 18.4778 43.0839 18.3947 43.1057 18.3225C43.1493 18.1862 43.2133 18.05 43.2501 17.9028C43.3468 17.5309 43.4449 17.1576 43.5226 16.7802C43.573 16.5281 43.5839 16.2693 43.6207 16.0144C43.6602 15.7256 43.7065 15.4368 43.757 15.1479C43.7625 14.9909 43.7933 14.836 43.8482 14.6887C43.9994 14.4163 43.9927 14.1125 44.0103 13.8168C44.0103 13.7391 43.9899 13.6588 43.9994 13.5838C44.0458 13.3522 44.0908 13.1124 44.133 12.8644ZM17.6563 22.3295C17.5936 22.5052 17.689 22.6305 17.8797 22.7069C17.9206 22.7232 17.9479 22.7696 17.986 22.794C18.1604 22.9071 18.2708 23.136 18.531 23.1034C18.5596 23.1034 18.6278 23.1619 18.6237 23.181C18.5909 23.3241 18.7122 23.3173 18.7831 23.3554C18.8536 23.3989 18.927 23.4381 19.0024 23.4726C19.0633 23.5091 19.1331 23.528 19.204 23.5271C19.4247 23.4862 19.5896 23.6047 19.7695 23.6892C19.9915 23.7954 20.2177 23.8908 20.4425 23.9917C20.5183 24.0229 20.5916 24.0598 20.6619 24.102C20.873 24.2382 21.132 24.2996 21.2996 24.5244C21.3908 24.647 21.5557 24.7138 21.6824 24.8119C21.8176 24.9381 21.9644 25.0512 22.1211 25.1498C22.3159 25.2437 22.5012 25.3174 22.5298 25.5653C22.5326 25.6111 22.5514 25.6545 22.5829 25.6879C22.7192 25.7983 22.8649 25.9018 23.0108 26.0026C23.1061 26.0707 23.2124 26.1252 23.305 26.1975C23.5149 26.3623 23.7138 26.5367 23.9263 26.7043C23.9958 26.7602 24.0939 26.7942 24.0367 26.9182C24.0367 26.9291 24.0694 26.9755 24.0762 26.9741C24.3092 26.8964 24.3759 27.0926 24.4849 27.2179C24.6375 27.3937 24.6866 27.6417 24.9822 27.7166C25.1864 27.7896 25.3565 27.9351 25.4605 28.1253C25.5865 28.3199 25.7637 28.476 25.9727 28.5763C26.0204 28.6036 26.0504 28.6608 26.0913 28.7003C26.2194 28.8256 26.3502 28.9496 26.4796 29.075C26.5354 29.1295 26.5913 29.184 26.6431 29.2426C26.7425 29.3543 26.7085 29.5532 26.9155 29.6077C26.9769 29.6254 27.1636 29.699 27.1186 29.8721C27.2425 29.9151 27.3729 29.9368 27.5042 29.9361C27.5346 29.9308 27.5634 29.9184 27.5881 29.8997C27.6127 29.8811 27.6326 29.8568 27.6459 29.8289C27.6592 29.801 27.6657 29.7703 27.6647 29.7394C27.6637 29.7086 27.6554 29.6784 27.6404 29.6513C27.6305 29.614 27.6294 29.5748 27.6372 29.537C27.645 29.4992 27.6615 29.4637 27.6854 29.4333C27.8211 29.3225 27.9298 29.1822 28.0032 29.023C28.0766 28.8639 28.1129 28.6902 28.1091 28.515C28.1214 28.445 28.1469 28.378 28.184 28.3175C28.2236 28.2289 28.2671 28.1894 28.3203 28.3066C28.3298 28.3243 28.3543 28.3351 28.3734 28.3502C28.3734 28.3256 28.3993 28.297 28.3925 28.2779C28.3674 28.2207 28.3391 28.1647 28.308 28.1103C28.2876 28.0708 28.2453 28.0286 28.2508 27.9946C28.2608 27.8432 28.2958 27.6945 28.3543 27.5544C28.5124 27.2684 28.3543 27.019 28.2849 26.7711C28.2072 26.4985 28.0437 26.2533 27.9497 25.985C27.8284 25.6348 27.7385 25.2751 27.5314 24.9603C27.523 24.9428 27.5161 24.9246 27.511 24.9058C27.3938 24.6334 27.2794 24.3609 27.1581 24.0884C27.1086 23.9771 27.0526 23.8688 26.9905 23.7641C26.8011 23.4453 26.6049 23.1292 26.4182 22.8104C26.2916 22.5911 26.1894 22.3553 26.0559 22.1414C25.9047 21.9016 25.7289 21.6795 25.5668 21.4466C25.4822 21.3254 25.4128 21.1932 25.3242 21.0746C25.173 20.8757 25.0109 20.6849 24.8542 20.4902C24.6375 20.2177 24.4168 19.9574 24.2056 19.6849C23.9945 19.4124 23.7642 19.0963 23.5435 18.802C23.5209 18.7706 23.4948 18.7418 23.4658 18.7162C23.3276 18.6255 23.1996 18.52 23.0843 18.4014C22.9723 18.2349 22.8283 18.0923 22.6606 17.9818C22.5515 17.9131 22.4521 17.8302 22.3649 17.7352C22.1334 17.505 21.9194 17.2556 21.6838 17.0363C21.4712 16.8455 21.226 16.6916 21.0025 16.509C20.6319 16.2038 20.2654 15.8919 19.9017 15.5784C19.7775 15.4502 19.6465 15.3288 19.5093 15.2147C19.3239 15.0852 19.1087 14.9995 18.9193 14.8754C18.6468 14.6942 18.392 14.4885 18.1195 14.3073C17.8906 14.1561 17.7353 13.8986 17.4301 13.8563C17.4015 13.8563 17.3838 13.795 17.3525 13.7746C17.1045 13.6084 16.8742 13.3754 16.6004 13.299C16.3265 13.2228 16.1521 12.9476 15.8511 12.8904C15.6712 12.8576 15.5173 12.6968 15.3483 12.6001C15.2379 12.5374 15.1712 12.5715 15.1725 12.705C15.1739 12.8386 15.1725 12.9421 15.1725 13.0607C15.193 13.3576 15.2188 13.6547 15.2475 13.9517C15.2607 14.1468 15.2844 14.3409 15.3183 14.5334C15.3579 14.7215 15.4396 14.9 15.4831 15.088C15.5159 15.2324 15.5145 15.3837 15.5363 15.5308C15.5813 15.836 15.6303 16.1398 15.6821 16.445C15.7448 16.8197 15.8183 17.1943 15.8796 17.569C15.8796 17.5935 15.9124 17.6113 15.9192 17.6358C16.0219 17.9217 16.1084 18.2133 16.178 18.5091C16.2121 18.6821 16.1876 18.8606 16.3565 18.9805C16.3796 18.9969 16.3728 19.0514 16.3824 19.0882C16.3919 19.1249 16.411 19.1972 16.43 19.2503C16.4573 19.3253 16.4914 19.3988 16.5173 19.4751C16.539 19.5629 16.5658 19.6493 16.5976 19.7339C16.6931 19.9411 16.8566 20.1427 16.8879 20.3511C16.9451 20.734 17.2462 20.9834 17.3457 21.343C17.4397 21.6592 17.6522 21.9412 17.6563 22.3295ZM27.0341 19.8607L26.9755 19.892C27.007 19.9643 27.0458 20.0333 27.0913 20.0978C27.2753 20.3117 27.4782 20.5064 27.6527 20.7299C27.8025 20.9207 27.8652 21.1768 28.09 21.3144C28.0979 21.3201 28.1043 21.3275 28.109 21.3359C28.1138 21.3444 28.1165 21.3538 28.1173 21.3635C28.0955 21.576 28.3052 21.636 28.3898 21.7722C28.5669 22.0447 28.8176 22.2518 28.9048 22.5788C28.9431 22.775 29.0111 22.9643 29.1064 23.1401C29.1593 23.2102 29.2024 23.2872 29.2345 23.369C29.2539 23.4477 29.2842 23.5234 29.3244 23.5938C29.4129 23.7192 29.5192 23.8322 29.6174 23.9507C29.6487 23.9917 29.6746 24.0366 29.7045 24.0802C29.7481 24.0284 29.8258 23.978 29.8299 23.9222C29.8287 23.8805 29.8413 23.8396 29.8661 23.8061C29.8908 23.7724 29.926 23.7481 29.9661 23.7368C30.0111 23.7178 30.0438 23.6524 30.067 23.6007C30.1446 23.4276 30.2114 23.2491 30.2904 23.0774C30.4675 22.6946 30.6528 22.3158 30.8354 21.933C30.8694 21.8608 30.864 21.7436 30.9171 21.7109C31.0179 21.6482 31.1515 21.636 31.146 21.4752C31.3776 21.3989 31.4798 21.2027 31.5861 21.0078C31.7073 20.7803 31.849 20.5623 31.973 20.3416C32.0752 20.1604 32.345 20.0555 32.2837 19.783C32.2837 19.7749 32.315 19.7599 32.3259 19.7448C32.3954 19.6454 32.4621 19.5432 32.5302 19.4424C32.5773 19.3514 32.6369 19.2674 32.7074 19.1931C32.7829 19.127 32.836 19.0388 32.8589 18.9411C32.8819 18.8434 32.8737 18.7409 32.8355 18.6481C32.7414 18.4587 32.5357 18.2857 32.6992 18.0295C32.7197 17.9982 32.6734 17.9205 32.6556 17.8647C32.6099 17.7566 32.573 17.6449 32.5453 17.5309C32.5259 17.3653 32.5154 17.1989 32.5139 17.0322C32.5168 17.0005 32.5241 16.9693 32.5357 16.9396C32.6515 16.9709 32.6216 16.9396 32.5793 16.8633C32.504 16.7645 32.4531 16.6493 32.4308 16.5271C32.4085 16.405 32.4155 16.2792 32.4513 16.1603C32.4648 16.1098 32.4648 16.0567 32.4513 16.0063C32.3981 15.7733 32.3423 15.5417 32.2796 15.31C32.2537 15.2106 32.2278 15.1016 32.0861 15.0962C32.0657 15.0962 32.0289 15.0485 32.0316 15.0266C32.0616 14.81 31.9117 14.637 31.9103 14.4108C31.9103 14.0021 31.7809 13.5934 31.706 13.1778C31.6801 13.0416 31.6528 12.8972 31.631 12.7568C31.6011 12.5634 31.5902 12.3658 31.5452 12.1764C31.4212 11.6532 31.2823 11.1355 31.1556 10.6137C31.1215 10.4774 31.1106 10.3235 31.0901 10.1777C31.0247 9.69124 30.9539 9.20352 30.8994 8.71579C30.8749 8.50048 30.6923 8.30703 30.804 8.07405C30.8612 7.95956 30.804 7.91734 30.7454 7.84107C30.69 7.75326 30.649 7.65711 30.6242 7.5563C30.5806 7.42006 30.5901 7.23476 30.503 7.13666C30.2958 6.90096 30.3149 6.60258 30.2223 6.3369C30.1705 6.18839 30.1732 6.01944 30.1282 5.86685C30.0928 5.74287 29.9811 5.63114 29.9756 5.51125C29.9634 5.17473 29.7713 4.9104 29.6555 4.61611C29.6051 4.48804 29.492 4.49077 29.4184 4.61611C29.3463 4.72707 29.2818 4.84268 29.225 4.96218C29.1923 5.08565 29.1466 5.20531 29.0887 5.31915C28.8162 5.67475 28.774 6.13662 28.5437 6.51402C28.3557 6.82057 28.2971 7.20888 28.1867 7.56448C27.9674 8.27299 27.7535 8.98281 27.5368 9.69263C27.5368 9.71718 27.5368 9.74444 27.5259 9.7689C27.4904 10.0026 27.4399 10.2338 27.3747 10.4611C27.2832 10.6653 27.2435 10.889 27.2589 11.1123C27.2657 11.1627 27.2235 11.2213 27.2017 11.2745C27.1697 11.3237 27.1441 11.3769 27.1254 11.4325C27.0777 11.705 27.0354 11.9775 27.0014 12.25C26.9891 12.3372 27.0273 12.4325 27.011 12.5224C26.9497 12.8168 26.8638 13.107 26.8106 13.4026C26.7834 13.5593 26.8106 13.7269 26.7997 13.8877C26.7671 14.1983 26.7126 14.5062 26.6799 14.8155C26.669 14.9108 26.7126 15.009 26.7112 15.1057C26.703 15.4 26.6894 15.6938 26.6704 15.9872C26.6485 16.3128 26.6308 16.6398 26.5913 16.9641C26.5655 17.1712 26.4823 17.3728 26.4619 17.5772C26.4483 17.6984 26.5259 17.8265 26.5286 17.9532C26.5368 18.2938 26.5286 18.6344 26.5286 18.9778C26.5191 19.0361 26.5257 19.096 26.5477 19.1508C26.684 19.3497 26.8311 19.5405 26.9728 19.7353C26.9878 19.7694 27.0082 19.813 27.0341 19.8607Z" fill="currentColor"/>
<path d="M25.0542 63.7685C24.9833 63.2916 24.9097 62.8148 24.8416 62.3378C24.8253 62.2275 24.8267 62.1158 24.8185 62.0054C24.7776 61.5122 24.7435 61.0176 24.6931 60.5258C24.6726 60.335 24.606 60.1498 24.5746 59.959C24.5064 59.5503 24.4533 59.1415 24.3839 58.7328C24.3321 58.4345 24.2476 58.1401 24.204 57.8417C24.1699 57.6319 24.1794 57.4167 24.1481 57.2069C24.0814 56.7463 23.9983 56.2885 23.9288 55.8281C23.8525 55.324 23.7925 54.3974 23.7094 53.892C23.6999 53.8321 23.6604 53.3538 23.6345 53.2952C23.5555 53.3483 23.4465 53.8293 23.4424 53.9028C23.4383 53.9764 23.3593 54.5446 23.3402 54.6673C23.1958 55.5651 23.0432 56.4616 22.9096 57.3608C22.8647 57.6619 22.877 57.9698 22.8388 58.2723C22.8157 58.4576 22.7284 58.6347 22.7026 58.8173C22.6317 59.2628 22.6113 59.7192 22.5063 60.1566C22.446 60.3943 22.4063 60.6368 22.3879 60.8814C22.3735 61.3499 22.328 61.8169 22.2516 62.2792C22.135 62.9057 22.0748 63.5414 22.0717 64.1785C22.0556 64.3145 22.025 64.4483 21.9805 64.5778C21.9757 64.5967 21.9668 64.6143 21.9545 64.6295C21.8756 64.7072 21.5009 64.7317 21.3959 64.6813C21.3409 64.6577 21.2796 64.6529 21.2216 64.6676C21.0431 64.714 20.8755 64.7385 20.7257 64.5941C20.6875 64.5713 20.6432 64.5613 20.5989 64.5655C20.4204 64.5655 20.2134 64.62 20.0675 64.5505C20.0018 64.5123 19.9254 64.496 19.8497 64.5041C19.774 64.5122 19.7029 64.5442 19.6466 64.5955C19.5934 64.6323 19.4954 64.6104 19.4177 64.6036C19.3005 64.5928 19.1561 64.6036 19.0743 64.5464C18.9779 64.4635 18.9153 64.3482 18.8986 64.2221C18.836 63.8675 18.8173 63.5064 18.8427 63.1472C18.8733 62.8757 18.8774 62.6019 18.855 62.3297C18.8086 61.4905 18.761 60.6512 18.6997 59.8119C18.6424 59.0244 18.5715 58.2382 18.4967 57.4521C18.4789 57.2723 18.4094 57.0979 18.385 56.9194C18.3236 56.4725 18.2719 56.0242 18.2242 55.5746C18.1765 55.125 18.156 54.674 18.0879 54.2272C18.0225 53.7571 17.9094 53.2925 17.8386 52.8225C17.7895 52.49 17.7855 52.1508 17.7432 51.8156C17.6914 51.4068 17.731 50.979 17.607 50.5676C17.5388 50.3468 17.5865 50.0934 17.5498 49.8591C17.4925 49.4885 17.4053 49.1234 17.3399 48.7541C17.2949 48.498 17.2636 48.2378 17.2309 47.9789C17.1873 47.6383 17.1464 47.2976 17.107 46.9584C17.0701 46.6478 17.0334 46.3358 17.0007 46.0237C16.9707 45.7377 16.9435 45.4516 16.9148 45.1654L16.8004 44.0346C16.7677 43.7049 16.7309 43.3751 16.7009 43.0441C16.6778 42.7716 16.6628 42.4991 16.641 42.2266C16.6192 41.9541 16.5755 41.6817 16.5715 41.4091C16.582 41.2477 16.6099 41.0878 16.6546 40.9323C16.6546 40.9118 16.6914 40.8791 16.7077 40.8805C16.9693 40.9078 17.2527 40.7129 17.4775 40.8641C17.6071 40.9411 17.7589 40.9719 17.908 40.9514C18.0911 40.936 18.273 40.91 18.4531 40.8737C18.5058 40.8631 18.5606 40.8708 18.6084 40.8955C18.7762 41.0081 18.9161 41.1578 19.0171 41.3328C19.0317 41.3547 19.0432 41.3786 19.0512 41.4037C19.1193 41.7225 19.1874 42.0399 19.246 42.3574C19.2496 42.4865 19.2464 42.6156 19.2364 42.7443C19.261 43.1531 19.2842 43.5618 19.3291 43.9597C19.3536 44.175 19.4381 44.3847 19.4653 44.6C19.4981 44.8848 19.4858 45.1736 19.513 45.457C19.554 45.8916 19.6112 46.3235 19.6616 46.7568C19.6616 46.7963 19.6616 46.8358 19.6684 46.8753C19.7133 47.2623 19.7528 47.6506 19.8046 48.0375C19.8864 48.6329 19.9763 49.2256 20.0648 49.8196C20.0812 49.9286 20.1085 50.0376 20.1288 50.1466C20.1436 50.1968 20.1531 50.2484 20.1575 50.3005C20.1575 50.6534 20.1575 51.0077 20.1698 51.3591C20.1833 51.6126 20.2433 51.8633 20.272 52.1167C20.2794 52.2388 20.2794 52.3612 20.272 52.4832C20.2666 52.5284 20.2666 52.5742 20.272 52.6194C20.3441 52.9955 20.4286 53.3688 20.4927 53.7462C20.5812 54.268 20.6562 54.7925 20.7365 55.3158C20.7351 55.322 20.7351 55.3285 20.7365 55.3349L20.8728 55.5746C20.921 55.504 20.959 55.4269 20.9859 55.3457C21.0703 54.8757 21.1316 54.4002 21.2284 53.9329C21.3142 53.5091 21.4437 53.0936 21.5363 52.6713C21.5922 52.4164 21.6207 52.1562 21.6549 51.896C21.7134 51.4355 21.7666 50.9749 21.8197 50.5131C21.8728 50.0512 21.9178 49.5893 21.9764 49.1288C22.0199 48.7869 22.0799 48.4476 22.1317 48.1043C22.1603 47.9107 22.3156 44.6354 22.3456 44.442C22.3933 44.13 22.3456 44.0332 22.6508 44.1436C22.7203 44.1681 22.787 44.2213 22.8184 44.1041C22.8184 44.1041 22.9247 44.1041 22.9356 44.1232C22.9873 44.2281 23.0282 44.2676 23.1631 44.2158C23.3879 44.13 23.6345 44.1027 23.8593 44.0182C23.9669 43.9787 23.9956 43.9951 24.0078 44.0877C24.031 44.2403 24.1032 44.2457 24.2285 44.1872C24.5542 44.0332 24.501 44.1095 24.5596 44.4597C24.6686 45.1764 25.0488 48.9748 25.155 49.6901C25.2367 50.2351 25.3375 50.7869 25.4166 51.336C25.4602 51.6412 25.4588 51.9532 25.5119 52.2557C25.576 52.6262 25.6863 52.9901 25.7599 53.3606C25.8444 53.7844 25.9084 54.2122 25.9847 54.6386C26.0352 54.9247 26.0896 55.2095 26.1482 55.4956C26.1551 55.5269 26.2055 55.5787 26.2177 55.5732C26.2588 55.5594 26.2933 55.5308 26.3145 55.4929C26.3409 55.3986 26.3605 55.3025 26.3731 55.2054C26.4316 54.8075 26.4779 54.407 26.5461 54.0105C26.5979 53.7108 26.6918 53.4165 26.7381 53.1167C26.779 52.8551 26.7763 52.5895 26.8008 52.3252C26.8199 52.1099 26.8499 51.896 26.8744 51.682C26.9003 51.4382 26.9398 51.1957 26.9479 50.9532C26.9619 50.2863 27.038 49.6221 27.1755 48.9694C27.2382 48.6901 27.2505 48.3999 27.2913 48.1152C27.3376 47.7977 27.403 47.4843 27.4385 47.1614C27.5066 46.5524 27.5638 45.942 27.6156 45.3317C27.6319 45.1395 27.6156 44.9447 27.6156 44.7512C27.6097 44.712 27.6129 44.6719 27.6251 44.634C27.8704 44.1558 27.7382 43.6313 27.8159 43.1353C27.8633 42.8477 27.9552 42.5691 28.0884 42.3097C28.234 42.0544 28.3198 41.7692 28.339 41.4759C28.339 41.3465 28.3581 41.2157 28.3731 41.0862C28.3752 41.0485 28.3851 41.0116 28.4022 40.978C28.4192 40.9443 28.4432 40.9145 28.4724 40.8905C28.5016 40.8665 28.5355 40.8489 28.5719 40.8388C28.6083 40.8286 28.6463 40.8261 28.6837 40.8314C28.8574 40.8059 29.033 40.7963 29.2083 40.8028C29.3664 40.8301 29.3854 40.5807 29.5557 40.6762C29.6668 40.7348 29.7856 40.7775 29.9086 40.8028C30.0449 40.8315 30.1811 40.8287 30.3078 40.8506C30.361 40.86 30.444 40.8928 30.4508 40.9295C30.4993 41.0847 30.5273 41.2454 30.534 41.4078C30.534 41.6803 30.5026 41.9528 30.4822 42.2253C30.4618 42.4977 30.4359 42.7579 30.41 43.0236C30.3841 43.2894 30.3514 43.589 30.3228 43.8711C30.2329 44.7649 30.1525 45.66 30.0503 46.5511C29.9781 47.19 29.8841 47.8277 29.7873 48.4585C29.6988 49.0362 29.5516 49.6071 29.5148 50.1874C29.4644 50.8687 29.3486 51.5499 29.3391 52.2311C29.3391 52.6399 29.2138 53.0555 29.1497 53.4696C29.0857 53.8838 29.0066 54.3075 28.9631 54.7285C28.8949 55.3839 28.8623 56.042 28.7914 56.6973C28.7478 57.091 28.6552 57.478 28.598 57.8704C28.5475 58.2409 28.523 58.6142 28.4849 58.9849C28.4208 59.6102 28.3486 60.2328 28.2954 60.8596C28.2737 61.1321 28.3064 61.4046 28.3023 61.6839C28.3023 61.8202 28.2614 61.9564 28.2614 62.0927C28.2614 62.7739 28.271 63.4551 28.2791 64.1363C28.2791 64.293 28.2628 64.4415 28.102 64.5178C28.0579 64.5311 28.0112 64.5339 27.9657 64.526C27.948 64.526 27.9249 64.496 27.9153 64.5001C27.7477 64.5873 27.5843 64.6363 27.4398 64.4592C27.4114 64.4868 27.3867 64.518 27.3663 64.5518C27.3172 64.6772 27.2886 64.8176 27.0938 64.7317C27.0569 64.7154 26.993 64.7698 26.9412 64.7848C26.8526 64.8094 26.7627 64.8311 26.6686 64.8502C26.5629 64.8626 26.4585 64.8844 26.3567 64.9157C26.3271 64.9321 26.2941 64.9417 26.2603 64.9436C26.2264 64.9454 26.1926 64.9396 26.1614 64.9264C26.1302 64.9133 26.1023 64.8933 26.0799 64.8678C26.0576 64.8423 26.0413 64.8121 26.0324 64.7794C26.0211 64.7474 26.0027 64.7184 25.9786 64.6945C25.9546 64.6706 25.9254 64.6523 25.8934 64.6412C25.8613 64.6301 25.8272 64.6263 25.7934 64.6302C25.7597 64.6341 25.7273 64.6455 25.6986 64.6635C25.5623 64.7576 25.4561 64.6895 25.3199 64.6635C25.1537 64.6282 25.11 64.5696 25.0937 64.417C25.0732 64.2045 25.0228 63.9946 24.9847 63.7834L25.0542 63.7685Z" fill="currentColor"/>
<path d="M39.2757 64.6798C38.9146 64.6798 38.5536 64.6798 38.1925 64.6798C38.0209 64.6798 37.946 64.5994 37.9269 64.4332C37.8222 63.5189 37.7916 62.5975 37.8356 61.6783C37.8737 60.8199 37.8424 59.9562 37.822 59.0964C37.8097 58.5324 37.7716 57.9697 37.7266 57.4084C37.7184 57.2994 37.6026 57.204 37.5699 57.0923C37.5276 56.9465 37.4337 56.9383 37.3124 56.9328C36.8165 56.9152 36.3205 56.8675 35.826 56.8689C35.281 56.8689 34.7428 56.9097 34.2019 56.9424C34.0071 56.9547 33.9798 57.1345 33.9676 57.2735C33.8927 58.1672 33.8313 59.0624 33.7618 59.9575C33.7455 60.1401 33.6256 60.305 33.6501 60.5025C33.6747 60.7001 33.7142 60.9017 33.6501 61.0584C33.567 61.2492 33.6774 61.4072 33.6392 61.5897C33.5888 61.8282 33.6528 62.0925 33.6815 62.3446C33.7187 62.6269 33.704 62.9136 33.6378 63.1907C33.5929 63.3664 33.6487 63.5653 33.6378 63.7547C33.6378 64.019 33.6052 64.282 33.6093 64.5449C33.6093 64.6689 33.5534 64.6812 33.473 64.6812C33.21 64.6812 32.9485 64.6812 32.6855 64.6812C32.1732 64.6812 31.6609 64.6812 31.1486 64.6812C30.9511 64.6812 30.8939 64.5804 30.8993 64.4087C30.9116 63.9999 30.9402 63.5817 30.9388 63.1688C30.9388 62.3214 30.8857 61.4726 30.9157 60.6251C30.9511 59.5692 31.0519 58.5133 31.1187 57.4588C31.165 56.7775 31.2222 56.0963 31.2549 55.4151C31.3258 54.1562 31.3585 52.8931 31.5683 51.6465C31.6882 50.938 31.8476 50.235 31.977 49.5279C32.0328 49.2186 32.0451 48.9011 32.0833 48.5878C32.1609 47.9433 32.2305 47.2989 32.3244 46.6572C32.413 46.0618 32.5125 45.4664 32.6378 44.8779C32.7932 44.1571 32.9702 43.4405 33.1569 42.7265C33.2932 42.1815 33.4716 41.6365 33.6297 41.0916C33.7155 40.789 33.8681 40.7073 34.27 40.7237C34.7415 40.7427 35.2142 40.7509 35.687 40.7578C36.0617 40.7578 36.4377 40.7578 36.8124 40.7578C37.0672 40.7578 37.3233 40.7359 37.578 40.7332C37.6258 40.7251 37.6746 40.7266 37.7217 40.7377C37.7687 40.7489 37.8132 40.7693 37.8521 40.798C37.8911 40.8265 37.924 40.8627 37.9488 40.9042C37.9736 40.9458 37.9898 40.9918 37.9964 41.0398C38.1476 41.5466 38.292 42.0548 38.4351 42.563C38.5495 42.9717 38.679 43.3805 38.7648 43.7892C38.9547 44.6921 39.1304 45.5977 39.2921 46.5059C39.397 47.0987 39.4746 47.6968 39.5509 48.2935C39.6082 48.7431 39.6299 49.1968 39.6871 49.6451C39.7267 49.9285 39.8344 50.2037 39.8793 50.4871C40.006 51.3046 40.1518 52.122 40.2254 52.9395C40.3125 53.8483 40.3303 54.7638 40.3943 55.6753C40.4529 56.5214 40.5442 57.3648 40.5987 58.2108C40.6614 59.2068 40.7186 60.2054 40.7349 61.2082C40.754 62.042 40.7131 62.8759 40.7063 63.7111C40.7063 63.9468 40.7349 64.1825 40.7417 64.4182C40.7417 64.5871 40.6804 64.6907 40.4842 64.6826C40.0905 64.673 39.6831 64.6785 39.2757 64.6798ZM37.4882 54.3606H37.5059C37.4636 53.8905 37.4323 53.4177 37.3696 52.9504C37.3206 52.5417 37.2402 52.1479 37.1762 51.7474C37.1121 51.3468 37.0617 50.9708 36.9977 50.5838C36.9159 50.0933 36.8151 49.6042 36.7456 49.1109C36.6217 48.2281 36.5412 47.3398 36.3941 46.461C36.2701 45.7198 36.0766 44.9896 35.9118 44.2552C35.9029 44.2261 35.8906 44.1982 35.875 44.172C35.8641 44.2021 35.8546 44.2306 35.8437 44.2593C35.8328 44.2878 35.8246 44.3029 35.815 44.3247C35.8082 44.3029 35.8001 44.281 35.7919 44.2593L35.7592 44.1748C35.7483 44.2048 35.7347 44.2333 35.7265 44.2634C35.5699 44.9527 35.3873 45.6381 35.2633 46.3329C35.1393 47.0278 35.0793 47.7635 34.9785 48.4775C34.8668 49.2623 34.7496 50.0457 34.6175 50.8263C34.4431 51.8523 34.2196 52.87 34.1815 53.9164C34.1815 54.0186 34.2292 54.1998 34.0288 54.2325C34.0261 54.2633 34.0261 54.2943 34.0288 54.3251C34.2005 54.3319 34.0888 54.4354 34.0725 54.4805C34.0398 54.5704 34.0493 54.6057 34.1311 54.6793C34.3027 54.8319 34.4771 54.8237 34.6761 54.802C34.8653 54.7802 35.0563 54.7802 35.2455 54.802C35.4833 54.8192 35.7221 54.811 35.9582 54.7774C36.3451 54.7248 36.7286 54.6493 37.1067 54.5512C37.1583 54.5468 37.2102 54.5582 37.2552 54.584C37.4813 54.6916 37.4882 54.6889 37.48 54.4382C37.4923 54.4192 37.4895 54.3864 37.4882 54.3606Z" fill="currentColor"/>
<path d="M50.8988 64.6285C50.5528 64.6557 50.1522 64.698 49.7502 64.7129C49.5145 64.7225 49.2789 64.683 49.0431 64.6748C48.8947 64.6748 48.7447 64.6898 48.5976 64.683C48.3415 64.668 48.2965 64.5726 48.3142 64.3178C48.336 63.9936 48.3142 63.6652 48.3142 63.3396C48.3142 63.2687 48.3224 63.2034 48.3251 63.1271C48.3251 63.0821 48.3429 63.0154 48.3251 62.9908C48.178 62.8723 48.2706 62.7088 48.2366 62.5698C48.2366 62.5412 48.2611 62.503 48.2529 62.4745C48.1412 62.0903 48.2433 61.6897 48.1453 61.3C48.1003 61.1188 48.163 60.9117 48.1657 60.7168C48.1657 60.6078 48.1343 60.4975 48.1384 60.3885C48.1575 59.9294 48.1943 59.4716 48.2038 59.0124C48.2161 58.4253 48.1753 57.8339 48.2257 57.2494C48.2488 56.9865 48.0513 56.8243 48.0622 56.5832C48.0652 56.3956 48.0423 56.2086 47.9941 56.0273C47.9505 55.8447 47.866 55.673 47.8087 55.4932C47.7365 55.2671 47.6861 55.0327 47.6058 54.812C47.5226 54.5752 47.4233 54.3445 47.3087 54.1212C47.103 53.7233 46.8796 53.3337 46.6588 52.944C46.6283 52.8859 46.5807 52.8384 46.5225 52.8078C46.4436 52.7724 46.3182 52.7887 46.4054 52.6416C46.4077 52.6359 46.4077 52.6296 46.4054 52.6238C46.2229 52.6089 46.186 52.4481 46.1043 52.3296C46.0948 52.3146 46.0498 52.3037 46.0498 52.301C46.1275 52.0734 45.9653 52.1129 45.8387 52.1061C45.7932 52.1043 45.7491 52.0907 45.7106 52.0666C45.5648 51.9644 45.4939 51.9753 45.4585 52.1402C45.428 52.2936 45.4153 52.4499 45.4203 52.6062C45.4285 52.8855 45.4599 53.1634 45.4748 53.4413C45.5035 54.0231 45.4585 54.6198 45.573 55.1839C45.7446 56.0369 45.6152 56.8761 45.607 57.7222C45.607 57.9811 45.6193 58.2399 45.607 58.4988C45.5961 58.6595 45.528 58.8163 45.5171 58.977C45.5062 59.1378 45.5621 59.3027 45.5361 59.4566C45.5008 59.6746 45.622 59.8476 45.6465 60.0411C45.6969 60.4498 45.6983 60.8586 45.7201 61.2768C45.7446 61.7537 45.791 62.2306 45.7869 62.7087C45.7869 63.0521 45.7078 63.39 45.6765 63.7388C45.6615 63.9105 45.6765 64.0849 45.6683 64.2579C45.6656 64.3338 45.6378 64.4066 45.5893 64.465C45.4217 64.634 45.2133 64.653 44.9789 64.6367C44.6328 64.6121 44.2841 64.6285 43.9353 64.6367C43.6519 64.6367 43.3671 64.6707 43.0864 64.653C42.9802 64.6462 42.8139 64.6231 42.8139 64.4377C42.8139 64.2525 42.7854 64.0917 42.7772 63.9187C42.7581 63.4636 42.7336 63.0085 42.7254 62.5562C42.7186 62.1774 42.7363 61.7973 42.7363 61.4186C42.7363 61.112 42.7363 60.8041 42.72 60.4975C42.705 60.1078 42.6614 59.7182 42.6586 59.3299C42.6586 58.5683 42.6818 57.8067 42.6778 57.0437C42.6778 56.5586 42.6423 56.0736 42.6164 55.5886C42.5701 54.6853 42.517 53.7819 42.4733 52.8787C42.4638 52.677 42.4979 52.4699 42.4924 52.2683C42.4747 51.6661 42.4338 51.0625 42.4284 50.4603C42.4284 49.8049 42.4461 49.1482 42.4584 48.4929C42.472 47.7844 42.4911 47.0745 42.502 46.3647C42.517 45.3375 42.5264 44.3088 42.5415 43.2802C42.5524 42.5444 42.5715 41.8073 42.5783 41.0702C42.5778 41.007 42.6015 40.9459 42.6445 40.8995C42.6876 40.8532 42.7467 40.8251 42.8099 40.8209C43.1282 40.7578 43.4498 40.7123 43.7731 40.6846C43.9949 40.6676 44.2176 40.6676 44.4394 40.6846C44.6601 40.6996 44.8781 40.7337 45.0961 40.765C45.1301 40.765 45.156 40.81 45.1887 40.8277C45.2609 40.8631 45.3345 40.8945 45.4081 40.9272C45.4312 40.9381 45.4572 40.9422 45.4789 40.9544C45.9053 41.1631 46.3626 41.3011 46.8332 41.3631C47.0738 41.4257 47.3051 41.5197 47.5212 41.6424C47.8169 41.7787 48.1384 41.8986 48.3905 42.0975C48.8242 42.4415 49.2318 42.8172 49.6099 43.2216C49.8088 43.4341 49.9233 43.7257 50.0663 43.9872C50.2094 44.2488 50.3592 44.5322 50.4914 44.817C50.6144 45.0736 50.724 45.3365 50.8198 45.6045C50.956 45.9805 50.8089 46.3348 50.6659 46.6699C50.5326 46.9687 50.3717 47.2542 50.1848 47.5228C50.0037 47.7953 49.7844 48.0351 49.5799 48.2885C49.055 48.938 48.5295 49.5879 48.0036 50.2382C47.8401 50.4385 47.8673 50.6183 48.1071 50.666C48.2649 50.6975 48.4083 50.7792 48.5158 50.899C48.6181 51.0052 48.7884 51.0652 48.851 51.1851C49.0922 51.6115 49.3838 52.0025 49.6562 52.4045C49.9334 52.8503 50.1653 53.3227 50.3483 53.8147C50.4577 54.1263 50.546 54.445 50.6127 54.7684C50.6239 54.8058 50.6409 54.8412 50.6631 54.8733C50.9274 55.263 51.0187 55.7044 51.0718 56.1608C51.144 56.7131 51.1713 57.2703 51.1536 57.8271C51.129 58.5165 51.1127 59.21 51.1331 59.8994C51.1509 60.458 51.2394 61.0139 51.2694 61.5725C51.2844 61.8259 51.2204 62.0834 51.2285 62.3382C51.2421 62.6884 51.2858 63.0372 51.3253 63.3845C51.3566 63.6489 51.4015 63.9132 51.4411 64.1762C51.4434 64.2155 51.4479 64.2546 51.4547 64.2933C51.5228 64.5494 51.4438 64.6462 51.1713 64.6381C51.0991 64.6381 51.0269 64.6381 50.8988 64.6285ZM45.4367 47.2749C45.4231 47.7871 45.4108 48.17 45.4027 48.5515C45.3959 48.8512 45.3904 49.151 45.3918 49.4507C45.3982 49.5178 45.4114 49.5839 45.4313 49.6483C45.4982 49.6056 45.5603 49.5557 45.6166 49.4998C45.7855 49.2945 45.9495 49.0856 46.1084 48.873C46.2651 48.6646 46.4136 48.4493 46.5662 48.2395C46.7128 48.0159 46.8725 47.8011 47.0444 47.5964C47.3811 47.247 47.628 46.8211 47.7638 46.3552C47.8158 46.186 47.8311 46.0076 47.8087 45.832C47.7615 45.5976 47.6883 45.3691 47.5907 45.1508C47.4544 44.8007 47.2974 44.459 47.1207 44.1275C46.9866 43.9266 46.8329 43.7394 46.6616 43.5689C46.4475 43.2842 46.1766 43.0471 45.8659 42.8727C45.6738 42.7801 45.5934 42.8251 45.5811 43.0335C45.5621 43.4177 45.5457 43.8033 45.543 44.1889C45.543 44.4109 45.5947 44.6344 45.5838 44.8551C45.5416 45.6998 45.4816 46.5528 45.4367 47.2749Z" fill="currentColor"/>
<path d="M10.5497 46.8718C10.4924 47.7439 10.7631 48.6059 11.3086 49.2888C11.4925 49.5245 11.6301 49.797 11.8155 50.0327C12.0811 50.372 12.3713 50.6908 12.6506 51.0191C12.8196 51.2194 12.9912 51.417 13.1547 51.6213C13.4708 52.0137 13.7773 52.4129 14.0948 52.8053C14.4708 53.2595 14.7872 53.76 15.0363 54.2945C15.144 54.5329 15.2733 54.7618 15.3864 54.9988C15.6921 55.6735 15.9166 56.3818 16.0554 57.1093C16.208 57.8137 16.2979 58.5317 16.4015 59.247C16.4606 59.5946 16.4934 59.9462 16.4995 60.2988C16.4995 60.6449 16.4083 60.9882 16.3987 61.3343C16.4125 61.5828 16.4402 61.8302 16.4818 62.0755C16.5159 62.4556 16.5268 62.8425 16.2475 63.1477C16.1232 63.2553 15.9859 63.3468 15.8388 63.4202C15.7897 63.4516 15.7366 63.4774 15.6917 63.5129C15.5124 63.6843 15.3172 63.8381 15.1085 63.972C14.8537 64.1082 14.6861 64.3712 14.4096 64.4407C14.133 64.5102 13.9763 64.7554 13.6629 64.7282C13.4777 64.7132 13.2746 64.8304 13.0907 64.9108C12.716 65.0729 12.3509 64.9925 11.9871 64.8862C11.768 64.8275 11.5531 64.7536 11.344 64.6655C11.165 64.5951 11.0019 64.4896 10.8645 64.3549C10.5647 64.0211 10.2895 63.6627 10.0224 63.3031C9.88623 63.1205 9.7922 62.908 9.67362 62.7144C9.46249 62.3697 9.22264 62.0414 9.03876 61.6845C8.88074 61.3606 8.74727 61.0255 8.63957 60.6817C8.49375 60.2539 8.37525 59.8178 8.23081 59.386C8.15995 59.1625 8.05913 58.9486 7.99783 58.7224C7.91739 58.4254 7.86158 58.1216 7.79341 57.8218C7.74611 57.5993 7.68335 57.3803 7.60544 57.1665C7.55634 57.0466 7.43103 56.9608 7.36427 56.845C7.32596 56.7799 7.30117 56.7079 7.29141 56.633C7.28165 56.5582 7.28711 56.4822 7.30747 56.4096C7.32784 56.3369 7.36268 56.269 7.40989 56.2102C7.45712 56.1514 7.51574 56.1027 7.58228 56.067C7.61305 56.0551 7.64169 56.0381 7.66674 56.0166C7.93924 55.6924 8.33024 55.5697 8.71584 55.4375C8.89162 55.3776 9.04416 55.2468 9.21994 55.1855C9.43982 55.1046 9.66847 55.0502 9.9012 55.0234C9.95652 55.0276 10.01 55.0449 10.0573 55.0738C10.1047 55.1027 10.1446 55.1424 10.1736 55.1896C10.2437 55.3578 10.2949 55.5333 10.3262 55.7127C10.4652 56.2777 10.6015 56.8432 10.735 57.4091C10.8372 57.8368 10.9108 58.2728 11.0443 58.6898C11.2208 59.2446 11.4249 59.7903 11.656 60.3247C11.7937 60.6057 11.9619 60.8707 12.1574 61.1149C12.4154 61.4674 12.6833 61.8111 12.9613 62.1463C13.1629 62.3875 13.2092 62.3657 13.4899 62.209C13.5582 62.1738 13.6136 62.118 13.6484 62.0495C13.6831 61.981 13.6953 61.9034 13.6834 61.8275C13.667 61.4937 13.6316 61.1612 13.6152 60.8274C13.5989 60.4936 13.6057 60.1966 13.5867 59.8819C13.5673 59.7402 13.54 59.5996 13.5049 59.4609C13.4326 59.0522 13.3809 58.6298 13.2882 58.2211C13.1847 57.7633 13.0457 57.3137 12.9204 56.8586C12.9035 56.8155 12.8835 56.7736 12.8605 56.7333C12.6813 56.3788 12.5211 56.015 12.3808 55.6433C12.2078 55.1147 11.8563 54.7154 11.5089 54.3081C11.3536 54.1255 11.1696 53.9661 11.017 53.7808C10.8222 53.5464 10.6587 53.2862 10.4598 53.056C10.051 52.5832 9.6246 52.1336 9.2336 51.654C8.99244 51.3693 8.80439 51.0396 8.58368 50.7412C8.45561 50.5613 8.31118 50.3978 8.17492 50.2193C8.03711 50.0521 7.95725 49.8445 7.94743 49.628C7.93171 49.5376 7.90184 49.4503 7.85888 49.3692C7.62451 48.7356 7.66674 48.0776 7.68441 47.4209C7.70356 46.6647 7.89832 45.9426 8.0782 45.2164C8.23761 44.5706 8.39841 43.9262 8.56871 43.283C8.61928 43.1708 8.67566 43.0612 8.73761 42.9547C8.83164 42.719 8.91478 42.4792 8.99514 42.2394C9.12722 41.8534 9.39891 41.5307 9.75677 41.3348C9.92976 41.2312 10.0496 41.0418 10.2159 40.926C10.6383 40.6167 11.0334 40.2775 11.5784 40.1535C11.674 40.1198 11.778 40.1181 11.8746 40.1489C11.9713 40.1796 12.0552 40.241 12.1138 40.3238C12.3114 40.5622 12.4871 40.8198 12.6779 41.0636C12.7664 41.1767 12.8863 41.268 12.9626 41.3865C13.1629 41.6972 13.3468 42.0187 13.5389 42.3402C13.5484 42.3566 13.5635 42.3716 13.573 42.3879L13.9818 43.1359C14.0252 43.2228 14.0739 43.3069 14.1275 43.388C14.2924 43.6141 14.4818 43.824 14.6289 44.061C14.8264 44.3799 14.9995 44.715 15.1739 45.0475C15.3483 45.3799 15.5118 45.7286 15.6903 46.0706C15.7518 46.1624 15.8246 46.2462 15.9069 46.32C15.9716 46.3786 16.0117 46.4596 16.019 46.5466C16.0264 46.6336 16.0004 46.7201 15.9464 46.7887C15.753 47.0421 15.5295 47.2723 15.3183 47.5121C15.2842 47.5503 15.2284 47.5775 15.2079 47.6211C15.0227 48.0217 14.6971 48.2928 14.3605 48.5544C14.024 48.816 13.37 48.6048 13.2978 48.1688C13.1943 47.5421 12.8808 47.0217 12.5511 46.4984C12.3917 46.2464 12.2786 45.963 12.1425 45.6946C12.0579 45.527 11.9749 45.3595 11.87 45.2001C11.6411 44.8281 11.404 44.4616 11.1696 44.0937C11.159 44.0794 11.1461 44.067 11.1315 44.0569C11.1109 44.0791 11.0938 44.1044 11.0811 44.1319C10.9775 44.4493 10.8903 44.7736 10.7731 45.0856C10.5551 45.6919 10.6001 46.3459 10.5497 46.8718Z" fill="currentColor"/>
<path d="M56.493 41.431C56.5147 41.9093 56.5475 42.3847 56.5543 42.8643C56.5543 43.2308 56.5407 43.5986 56.5134 43.9652C56.4889 44.2908 56.4276 44.6137 56.4057 44.9393C56.3731 45.4012 56.354 45.8644 56.3445 46.3277C56.3363 46.7364 56.3676 47.1451 56.3445 47.5539C56.309 48.3591 56.2354 49.163 56.2082 49.9682C56.1932 50.4995 56.245 51.0309 56.2477 51.5623C56.2477 52.125 56.2368 52.689 56.2246 53.2517C56.2164 53.6714 56.2 54.0896 56.1891 54.5079C56.1769 55.0134 56.1524 55.5188 56.1592 56.0243C56.1715 56.978 56.2082 57.9427 56.2205 58.9032C56.2205 59.3487 56.1919 59.7956 56.1864 60.2424C56.1864 60.3991 56.2341 60.5572 56.2273 60.7125C56.2069 61.1825 56.1633 61.6513 56.1428 62.1213C56.1265 62.4878 56.1319 62.8543 56.1251 63.2222C56.1251 63.3189 56.0924 63.417 56.0992 63.5123C56.1183 63.7508 56.1442 63.9893 56.181 64.2263C56.1977 64.3154 56.1784 64.4074 56.1273 64.4823C56.0763 64.5571 55.9976 64.6087 55.9085 64.6255C55.5479 64.7386 55.1807 64.8296 54.809 64.898C54.6146 64.9089 54.4195 64.8989 54.2273 64.868C54.0716 64.841 53.9129 64.8355 53.7558 64.8517C53.501 64.9116 53.2803 64.804 53.0473 64.7631C52.8579 64.729 52.8157 64.5383 52.862 64.3544C52.9179 64.0847 52.9561 63.8116 52.9765 63.5369C52.9969 63.3502 53.0038 63.1609 53.0106 62.9728C53.0241 62.6286 53.036 62.283 53.046 61.936C53.0569 61.4573 53.0664 60.9791 53.0745 60.5014C53.0745 60.1771 53.0745 59.8514 53.0841 59.5272C53.0923 59.0953 53.1141 58.6648 53.1155 58.2329C53.1155 57.7683 53.0936 57.3036 53.095 56.8377C53.095 55.854 53.1018 54.8703 53.1155 53.8866C53.1236 53.1863 53.1522 52.4873 53.155 51.7871C53.155 51.5146 53.1046 51.2421 53.0895 50.9696C53.08 50.788 53.08 50.6061 53.0895 50.4246C53.1114 49.9668 53.144 49.5077 53.1604 49.0499C53.1741 48.6902 53.1713 48.3291 53.1768 47.9681C53.1768 47.8645 53.1863 47.761 53.189 47.6574C53.189 47.2732 53.2054 46.889 53.204 46.5034C53.204 46.2554 53.1604 46.0048 53.1754 45.7581C53.1999 45.3671 53.264 44.9774 53.298 44.5864C53.3185 44.3467 53.3144 44.1041 53.3198 43.863C53.3335 43.3998 53.362 42.9379 53.3511 42.476C53.3372 42.216 53.2965 41.958 53.2299 41.7062C53.1931 41.5441 53.0936 41.3956 53.0596 41.2335C53.0473 41.1803 53.1236 41.0822 53.1836 41.044C53.2823 40.993 53.3853 40.9506 53.4915 40.9174C53.5799 40.8718 53.6709 40.8313 53.764 40.7961C53.9143 40.7484 54.069 40.716 54.2259 40.6994C54.4984 40.6789 54.7709 40.6803 55.0433 40.6748C55.0892 40.6766 55.1348 40.6826 55.1796 40.6926C55.2763 40.7116 55.3812 40.7702 55.467 40.7484C55.8145 40.6598 56.0584 40.8533 56.2927 41.0427C56.3953 41.1519 56.4815 41.2754 56.5489 41.4092L56.493 41.431Z" fill="currentColor"/>
<path d="M6.14479 45.212C6.11754 45.6656 6.08075 46.2215 6.0535 46.7774C6.04124 47.0499 6.0535 47.3224 6.0535 47.5854C6.0535 47.7924 6.07258 47.9941 6.07258 48.2067C6.07258 48.9137 6.07258 49.6208 6.07258 50.3279C6.07258 50.9248 6.08484 51.5201 6.10119 52.1169C6.13389 53.3608 6.18566 54.6047 6.20746 55.85C6.22245 56.6961 6.20746 57.5421 6.18975 58.3883C6.17067 59.4401 6.13252 60.4905 6.11481 61.541C6.10255 62.2441 6.10664 62.9457 6.11481 63.6487C6.13417 63.785 6.16471 63.9194 6.2061 64.0506C6.22971 64.1702 6.24384 64.2914 6.24833 64.4131C6.24833 64.4417 6.19929 64.4948 6.16522 64.5003C5.71561 64.5793 5.30688 64.796 4.83547 64.8273C4.58341 64.8436 4.31636 64.8068 4.06295 64.894C3.97255 64.9141 3.8784 64.9094 3.79046 64.8804C3.54794 64.8218 3.31087 64.7442 3.06835 64.6856C2.92393 64.6501 2.86535 64.5684 2.8926 64.4308C2.94391 64.2622 2.98307 64.0901 3.00977 63.9158C3.03838 63.3013 3.04383 62.6896 3.06018 62.0697C3.07244 61.6228 3.09288 61.1772 3.0956 60.7304C3.0956 60.4306 3.0738 60.1309 3.07108 59.8311C3.07108 59.5954 3.08198 59.3597 3.08334 59.1226C3.08334 58.3556 3.08335 57.5872 3.09288 56.82C3.09288 56.3364 3.14056 55.8514 3.13375 55.3677C3.13375 54.8118 3.08743 54.256 3.06154 53.6987C3.06154 53.5747 3.04383 53.4493 3.04928 53.3253C3.08551 52.8706 3.06677 52.4131 2.99342 51.9629C2.96272 51.6714 2.95998 51.3775 2.98524 51.0855C2.9848 50.9559 2.99117 50.8262 3.00432 50.6972C3.05991 50.3788 3.09811 50.0577 3.11876 49.7353C3.11876 49.302 3.06154 48.8702 3.03565 48.4369C3.0182 48.2412 3.01365 48.0445 3.02203 47.8483C3.06427 47.2352 3.15828 46.6221 3.12285 46.0089C3.11059 45.8196 3.20732 45.6261 3.21414 45.4327C3.21686 45.1935 3.20182 44.9543 3.16917 44.7174C3.14329 44.4912 3.07789 44.2678 3.06699 44.0361C3.08546 43.916 3.12319 43.7996 3.17871 43.6914C3.21082 43.6075 3.23322 43.5202 3.24547 43.4312C3.26816 43.2117 3.27181 42.9906 3.25637 42.7704C3.21944 42.5619 3.16521 42.3568 3.09424 42.1573C3.05473 42.021 3.00295 41.8929 2.95799 41.7622C2.94226 41.7191 2.92169 41.678 2.89668 41.6396C2.83946 41.5524 2.71139 41.4393 2.73319 41.3862C2.81902 41.179 2.88442 40.961 3.1065 40.8221C3.44712 40.6069 3.81634 40.5946 4.18694 40.6177C4.55752 40.6409 4.8995 40.7104 5.25374 40.7663C5.32127 40.7874 5.38618 40.8162 5.44721 40.852C5.53264 40.9 5.62436 40.9358 5.7197 40.9583C6.03579 40.9979 6.11754 41.1899 6.16659 41.4925C6.23335 41.9011 6.01535 42.2499 6.03034 42.6423C6.04533 43.0347 5.98538 43.4162 6.00309 43.8004C6.01672 44.235 6.0862 44.6696 6.14479 45.212Z" fill="currentColor"/>
</g>
</svg>
