<svg width="143" height="37" viewBox="0 0 143 37" fill="none" xmlns="http://www.w3.org/2000/svg">
<path d="M59.1483 20.7723C59.1324 20.8441 59.1086 20.9141 59.0771 20.9809C59.0327 21.0567 59.0141 21.1442 59.0239 21.231C59.0337 21.3178 59.0715 21.3992 59.1318 21.4637C59.1921 21.563 59.2425 21.6678 59.2823 21.7766C59.2933 21.7993 59.2823 21.8354 59.3069 21.8488C59.5067 22.0065 59.43 22.258 59.5176 22.4559C59.545 22.5201 59.4738 22.6231 59.4561 22.7086C59.4191 22.9039 59.3958 23.1018 59.2508 23.2609C59.2276 23.2864 59.2358 23.3425 59.2372 23.384C59.2386 23.4254 59.2658 23.4816 59.2495 23.5177C59.1524 23.6848 59.047 23.8467 58.943 24.0112C58.8391 24.1756 58.7351 24.32 58.6502 24.4845C58.4943 24.7625 58.2792 25.0047 58.0196 25.1946C57.8609 25.319 57.7774 25.537 57.5435 25.5717C57.3369 25.9636 56.906 26.1427 56.6324 26.4784C56.4586 26.6884 56.174 26.8088 55.9867 27.0133C55.6665 27.357 55.1726 27.5135 54.9469 27.9494C54.9386 27.9668 54.9195 27.9936 54.9086 27.9922C54.6664 27.9601 54.587 28.1995 54.4092 28.2824C54.2724 28.3466 54.1698 28.5017 54.0302 28.5739C53.8111 28.6957 53.6115 28.8485 53.4379 29.0273C53.2978 29.128 53.1434 29.2082 52.9796 29.2653C52.9276 29.2907 52.8537 29.2961 52.8237 29.3349C52.5842 29.6464 52.1998 29.7641 51.9002 30.0034C51.7073 30.1546 51.4419 30.2148 51.2161 30.3351C51.1013 30.4138 50.9921 30.5001 50.8892 30.5932C50.7543 30.6961 50.6136 30.7917 50.4678 30.8794C50.357 30.9436 50.2298 30.9784 50.1148 31.0358C49.6551 31.2618 49.2064 31.5079 48.7385 31.7152C48.4228 31.8704 48.0919 31.994 47.7508 32.0842C47.4581 32.1498 47.0927 32.1966 46.8698 32.4734C46.8529 32.4922 46.8295 32.5041 46.8041 32.5069C46.5361 32.4989 46.2734 32.5811 46.0598 32.7396C46.0018 32.7686 45.9376 32.7838 45.8724 32.7837C45.5208 32.8064 45.2362 33.0511 44.8642 33.0511C44.6699 33.0511 44.4729 33.1849 44.2731 33.2424C43.8093 33.3854 43.3443 33.5218 42.8791 33.6622C42.8723 33.6622 42.8627 33.6622 42.8599 33.6622C42.6424 33.9498 42.2976 33.784 42.0295 33.8856C41.9823 33.9086 41.9339 33.9291 41.8845 33.9471C41.8051 33.9685 41.7203 33.9779 41.641 33.9992C41.4851 34.0433 41.3318 34.0942 41.1772 34.133C41.1254 34.1561 41.0684 34.1658 41.0117 34.1611C40.945 34.1318 40.8703 34.1256 40.7996 34.1436C40.7289 34.1616 40.6666 34.2027 40.6232 34.26C40.6037 34.2775 40.5795 34.2891 40.5533 34.2935L39.6874 34.5155C39.6422 34.5274 39.5957 34.5315 39.5506 34.5449C39.1114 34.6786 38.6723 34.8123 38.2318 34.9353C38.1814 34.9428 38.1302 34.9428 38.0799 34.9353C38.0416 34.9353 37.991 34.9113 37.9663 34.9273C37.6927 35.1012 37.3958 35.1319 37.0839 35.1627C36.8664 35.1827 36.6571 35.2964 36.4395 35.3178C35.9142 35.3847 35.3862 35.4194 34.8595 35.4796C34.4299 35.5291 34.0044 35.6133 33.5748 35.6508C33.0166 35.6989 32.4571 35.723 31.8989 35.7404C31.5364 35.751 31.1725 35.7216 30.8045 35.7323C30.6074 35.7391 30.4077 35.743 30.234 35.8955C30.1788 35.9188 30.1184 35.9284 30.0585 35.9233C29.9986 35.9181 29.9408 35.8984 29.8906 35.8661C29.7634 35.7645 29.7059 35.7912 29.6005 35.8808C29.4542 36.0052 29.3529 35.957 29.1902 35.8487C29.0552 35.772 28.9015 35.7327 28.7455 35.7351C28.1258 35.7216 27.5047 35.7351 26.8849 35.7203C26.5251 35.711 26.1667 35.6588 25.8069 35.6281C25.5647 35.6053 25.3212 35.5973 25.0805 35.5625C24.5332 35.4849 23.986 35.3914 23.4469 35.3124C23.3526 35.2991 23.2499 35.3432 23.1555 35.3285C22.9558 35.2991 22.7588 35.2482 22.5618 35.2068C22.4784 35.1894 22.3977 35.168 22.3142 35.1573C22.0488 35.1185 21.7751 35.1092 21.5508 34.9353C21.5286 34.921 21.5016 34.9157 21.4756 34.9206C21.1486 34.9674 20.8736 34.8029 20.5781 34.7174C20.5535 34.7107 20.5275 34.6813 20.5083 34.6853C20.2867 34.7347 20.1211 34.5917 19.9283 34.5368C19.6369 34.4526 19.314 34.4339 19.0499 34.3015C18.7859 34.169 18.5273 34.1758 18.2688 34.1089C18.0895 34.0634 17.9377 33.9752 17.7216 34.0033C17.5656 34.0274 17.3877 33.8936 17.2167 33.8414C17.142 33.821 17.064 33.8151 16.9869 33.8241C16.8761 33.8374 16.7762 33.8575 16.7297 33.7197C16.7199 33.7035 16.7068 33.6894 16.6913 33.6781C16.6758 33.6668 16.6582 33.6588 16.6394 33.6543C16.3371 33.574 16.0306 33.5058 15.7297 33.4162C15.4711 33.34 15.2221 33.2344 14.9649 33.1487C14.7665 33.0886 14.5627 33.0484 14.3615 33.0017C14.3109 32.9896 14.2411 33.0017 14.2111 32.9776C14.0127 32.797 13.7459 32.8318 13.5175 32.7515C13.3267 32.676 13.1408 32.5894 12.9607 32.4921C12.9305 32.4788 12.8922 32.4347 12.8799 32.4426C12.6706 32.5764 12.568 32.3517 12.4161 32.309C12.2082 32.2421 12.0126 32.1391 11.8101 32.0589C11.7588 32.0487 11.7064 32.0446 11.6542 32.0468C11.5764 32.045 11.4994 32.0319 11.4256 32.008C10.9947 31.8168 10.5679 31.6176 10.1411 31.4209C10.1347 31.4194 10.1287 31.4167 10.1232 31.413C9.81411 31.1361 9.39274 31.072 9.04663 30.8781C8.79075 30.731 8.56643 30.5304 8.31876 30.3672C8.13955 30.2496 7.94801 30.1506 7.75787 30.0489C7.6457 29.9875 7.52119 29.9459 7.41037 29.8818C7.21885 29.7708 7.03415 29.6491 6.84673 29.5314C6.82484 29.5181 6.78653 29.5113 6.78106 29.494C6.68393 29.2386 6.398 29.2559 6.22152 29.1182C6.08471 29.0099 5.94791 28.8908 5.81931 28.7772C5.78319 28.7443 5.7448 28.714 5.70439 28.6863C5.5393 28.5663 5.36556 28.4582 5.18452 28.3627C4.98341 28.269 4.89859 28.0096 4.63729 28.0123C4.60309 28.0123 4.56068 27.9494 4.53468 27.908C4.37462 27.6405 4.11605 27.48 3.85065 27.3182C3.7672 27.2647 3.71384 27.1684 3.63312 27.1043C3.38551 26.9023 3.1242 26.7151 2.88479 26.5039C2.69873 26.342 2.54003 26.1494 2.36492 25.9689C2.2842 25.8901 2.18707 25.8272 2.10362 25.7523C1.79791 25.504 1.50694 25.2387 1.23215 24.9579C1.00036 24.6714 0.786541 24.3712 0.591894 24.0593C0.521523 23.9687 0.459706 23.872 0.407207 23.7705C0.289859 23.5419 0.198123 23.3016 0.133588 23.0537C0.0829691 22.7996 -0.0647832 22.5642 0.0323502 22.2687C0.0911779 22.0895 0.215675 21.8755 0.0952815 21.6576C0.0774973 21.6254 0.114435 21.5626 0.129484 21.5158C0.144532 21.469 0.170526 21.4556 0.16779 21.4275C0.170575 21.3028 0.219126 21.1832 0.3046 21.0906C0.334691 21.0584 0.393526 21.0196 0.388053 20.9943C0.336064 20.7549 0.444143 20.5449 0.485187 20.3256C0.509806 20.1919 0.613785 20.1451 0.664402 20.0582C0.750747 19.8768 0.826114 19.6906 0.890133 19.5005C0.964013 19.3107 1.02694 19.114 1.10629 18.9322C1.11392 18.9071 1.12741 18.8842 1.14569 18.865C1.16398 18.846 1.18656 18.8313 1.21164 18.8222C1.23673 18.8132 1.26363 18.8099 1.29022 18.8127C1.31681 18.8156 1.34237 18.8244 1.36486 18.8386C1.46143 18.8714 1.56651 18.8714 1.6631 18.8386C2.12421 18.7101 2.60543 18.6647 3.08316 18.7049C3.25304 18.7028 3.42241 18.6862 3.58935 18.6554C4.04217 18.6152 4.50048 18.5324 4.94921 18.5658C5.14348 18.5792 5.33637 18.5885 5.53338 18.5899C5.75911 18.5899 5.98484 18.6327 6.21742 18.65C6.57038 18.6794 6.92334 18.7035 7.2763 18.7262C7.4008 18.7356 7.52666 18.7356 7.65113 18.7423C7.99041 18.7637 8.3352 18.7838 8.66898 18.8091C8.95353 18.8319 9.25592 18.8091 9.51583 18.9028C9.75248 18.987 10.0467 18.9776 10.219 19.2317C10.2847 19.328 10.4503 19.3588 10.5693 19.4217C10.6605 19.4529 10.7449 19.5005 10.8182 19.5621C10.8507 19.6184 10.903 19.6615 10.9653 19.6831C11.0277 19.7048 11.096 19.7036 11.1575 19.6797C11.2108 19.6623 11.2943 19.7065 11.3532 19.7306C11.4442 19.7818 11.5418 19.8214 11.6432 19.8482C11.8717 19.867 12.1042 19.8576 12.3354 19.8603C12.3546 19.8603 12.3875 19.8603 12.3902 19.8682C12.4504 20.0435 12.6146 20.002 12.7432 20.0421C13.0332 20.1344 13.3164 20.2507 13.6037 20.3511C13.6475 20.3671 13.7254 20.3724 13.7405 20.3511C13.7572 20.3291 13.7687 20.3038 13.7742 20.277C13.7797 20.2501 13.7789 20.2225 13.772 20.196C13.7337 20.0796 13.6638 19.9752 13.6255 19.8589C13.564 19.6717 13.5189 19.4805 13.4655 19.2906C13.445 19.2184 13.4409 19.106 13.393 19.082C13.2397 19.003 13.2644 18.876 13.2562 18.7516C13.2493 18.5478 13.2291 18.3446 13.1959 18.1432C13.1714 18.0295 13.051 17.9373 13.0195 17.8236C12.9526 17.5923 12.9046 17.3562 12.8758 17.1175C12.8239 16.6909 12.7965 16.263 12.7541 15.8364C12.7546 15.7608 12.7332 15.6867 12.6926 15.6224C12.4887 15.3965 12.5749 15.1023 12.4819 14.8508C12.4681 14.8121 12.5147 14.7559 12.5147 14.7064C12.5147 14.657 12.5147 14.5553 12.4832 14.5459C12.2999 14.4804 12.3655 14.344 12.3655 14.2223C12.3655 14.1006 12.3655 13.9963 12.3655 13.8827C12.356 13.6152 12.263 13.3477 12.3778 13.0803C12.3916 13.0482 12.3984 12.988 12.3778 12.9693C12.211 12.8035 12.3368 12.6377 12.3601 12.4678C12.3548 12.401 12.3331 12.3363 12.2971 12.2793C12.2834 12.2472 12.2356 12.2204 12.2356 12.1897C12.2356 12.0386 12.2465 11.8861 12.252 11.7337C12.252 11.6962 12.2684 11.6467 12.252 11.62C12.1467 11.4608 12.2233 11.3338 12.2725 11.172C12.3382 10.9514 12.5461 10.9126 12.6556 10.7708C12.6788 10.744 12.7322 10.7387 12.75 10.7106C12.7815 10.6585 12.7815 10.5769 12.8252 10.5435C13.1276 10.3496 13.4299 10.1503 13.7487 9.9818C14.1043 9.79594 14.4751 9.64084 14.8431 9.47369C14.9499 9.42421 15.0579 9.37473 15.1687 9.33995C15.1855 9.33803 15.2025 9.34036 15.218 9.34662C15.2336 9.35297 15.2472 9.36309 15.2577 9.37602C15.3056 9.49048 15.385 9.58967 15.4872 9.66268C15.5894 9.73561 15.7102 9.77939 15.8363 9.78927C15.8623 9.79007 15.8879 9.7961 15.9114 9.80694C15.9349 9.8177 15.9559 9.83312 15.9731 9.85208C16.11 10.0835 16.3507 10.165 16.5737 10.2867C16.7967 10.4084 17.0909 10.5314 17.1922 10.8309C17.2126 10.8938 17.3002 10.9447 17.3673 10.9821C17.4988 11.0595 17.636 11.1273 17.7776 11.1854C17.9021 11.2349 18.0226 11.2683 18.0512 11.4248C18.0512 11.4582 18.1566 11.4956 18.2113 11.4942C18.2832 11.4954 18.3537 11.5134 18.4168 11.5469C18.48 11.5805 18.5338 11.6285 18.5739 11.6868C18.7011 11.8206 18.7845 12.0399 19.0376 12.0199C19.0535 12.0216 19.0687 12.0272 19.0817 12.036C19.0949 12.0449 19.1056 12.0568 19.1129 12.0706C19.1772 12.2766 19.3413 12.3475 19.5329 12.4076C19.6218 12.4357 19.6888 12.532 19.7668 12.5962C19.8448 12.6604 19.8845 12.6965 19.9474 12.7419C20.2812 12.9907 20.6192 13.2367 20.9502 13.4881C20.9995 13.5256 21.0214 13.5938 21.0624 13.6433C21.1034 13.6928 21.1377 13.7248 21.1541 13.7182C21.3196 13.6473 21.3428 13.7182 21.3456 13.8612C21.3456 13.9094 21.4455 13.9949 21.5015 13.9949C21.5534 13.9941 21.6041 14.0085 21.6475 14.0362C21.6909 14.0638 21.7249 14.1035 21.7451 14.1501C21.7793 14.2089 21.8682 14.237 21.9339 14.2839C21.9996 14.3306 22.0638 14.3386 22.0953 14.3868C22.1214 14.4391 22.1669 14.4798 22.2225 14.5006C22.278 14.5215 22.3397 14.521 22.3949 14.4991C22.4137 14.4949 22.4331 14.4947 22.452 14.4984C22.4708 14.5021 22.4886 14.5096 22.5043 14.5206C22.6292 14.617 22.743 14.7263 22.8436 14.8468C22.9472 14.9814 23.0856 15.0866 23.2444 15.1517C23.3706 15.2456 23.4766 15.3628 23.5564 15.4967C23.7302 15.7147 23.897 15.9381 24.0694 16.1573C24.0935 16.1823 24.1206 16.2043 24.1501 16.2229C24.1583 16.1895 24.168 16.1547 24.1748 16.1213C24.2336 15.8217 24.0722 15.5582 24.038 15.2761C24.0272 15.1359 24.024 14.9953 24.0284 14.8549C24.0161 14.4363 23.9928 14.0164 23.9969 13.5978C24.0174 13.457 24.0556 13.319 24.1104 13.1872C24.1775 12.9372 24.2473 12.6872 24.3034 12.4344C24.3196 12.2954 24.3242 12.1554 24.317 12.0158C24.317 11.9837 24.317 11.9396 24.3376 11.9236C24.6768 11.6561 24.6235 11.2656 24.696 10.9112C24.7575 10.6023 24.789 10.2774 24.9204 9.99923C24.9847 9.86549 24.9559 9.74509 24.9984 9.62879C25.064 9.45096 25.1666 9.2851 25.246 9.11128C25.3022 8.99393 25.3325 8.86638 25.3349 8.73683C25.3431 8.47602 25.3499 8.18189 25.5497 7.95587C25.6016 7.90711 25.6349 7.84245 25.6441 7.77265C25.614 7.45438 25.7508 7.1789 25.8603 6.8954C25.8972 6.80045 25.9068 6.69481 25.9424 6.59852C26.008 6.41799 26.1749 6.38589 26.3404 6.3538C26.506 6.32171 26.4936 6.25618 26.3897 6.16391L26.2693 6.06361C26.1708 5.98337 26.1803 5.99675 26.2788 5.92052C26.3212 5.88842 26.3103 5.78679 26.3185 5.71859C26.3309 5.62231 26.3049 5.50463 26.3527 5.43375C26.5268 5.19958 26.6018 4.90886 26.5621 4.62203C26.5319 4.41074 26.6988 4.28504 26.7673 4.12591C26.8275 3.99218 26.9821 3.91194 27.0847 3.79827C27.1172 3.74478 27.1407 3.68654 27.1545 3.62576C27.2771 3.37306 27.3822 3.1126 27.4691 2.84613C27.4912 2.7782 27.5307 2.71696 27.5841 2.66828C27.6449 2.58986 27.6997 2.50717 27.7481 2.42088C27.7481 2.41018 27.7345 2.37541 27.7181 2.36605C27.6908 2.35649 27.6622 2.35108 27.6333 2.35C27.6724 2.33191 27.7103 2.31135 27.7468 2.28849C27.7878 2.26041 27.8535 2.22965 27.8576 2.19621C27.8672 2.0879 27.8576 1.97824 27.8576 1.86993C27.8576 1.85254 27.8864 1.82044 27.9 1.82044C27.9411 1.82044 28.015 1.8512 28.0177 1.84451C28.0713 1.73678 28.1117 1.62321 28.138 1.50619C28.1491 1.43397 28.1217 1.43664 28.2065 1.44199C28.2284 1.44199 28.2818 1.37246 28.2749 1.35774C28.2297 1.27484 28.2201 1.24007 28.3351 1.19326C28.3559 1.17632 28.3728 1.15531 28.3848 1.13159C28.3969 1.10787 28.4036 1.08196 28.4048 1.05551C28.406 1.02907 28.4015 1.00268 28.3915 0.978044C28.3817 0.953402 28.3666 0.931056 28.3474 0.912438C28.3311 0.88745 28.3196 0.859828 28.3132 0.830864C28.3337 0.846912 28.3528 0.872318 28.3775 0.876326C28.4059 0.877619 28.4344 0.873065 28.461 0.862952C28.4418 0.741266 28.766 0.705154 28.5499 0.535324C28.5608 0.52195 28.5731 0.499219 28.5841 0.497878C28.6156 0.493717 28.6477 0.499324 28.6758 0.513926C28.7017 0.543348 28.7225 0.576793 28.7373 0.612889C28.7647 0.578119 28.8139 0.543348 28.8112 0.511251C28.798 0.464312 28.772 0.421774 28.7359 0.388224C28.7111 0.366208 28.6835 0.347341 28.6538 0.332056C28.7277 0.298626 28.8071 0.231763 28.8754 0.241124C28.993 0.276199 29.1085 0.317266 29.2216 0.364152C29.4186 0.409622 29.6197 0.398923 29.8262 0.45375C30.3322 0.583436 30.8278 0.7488 31.3093 0.948542C31.4324 1.00069 31.4611 1.07157 31.4092 1.16786C31.2874 1.39519 31.4092 1.59177 31.4981 1.77631C31.7717 2.3353 32.0781 2.87555 32.3326 3.43988C32.5652 3.95473 32.754 4.48964 32.9427 5.02188C33.1206 5.52335 33.2711 6.03419 33.4367 6.53968C33.4544 6.59318 33.4982 6.63864 33.516 6.69346C33.5844 6.89138 33.6528 7.09465 33.7116 7.29123C33.7376 7.37682 33.7499 7.46641 33.776 7.55868C33.8429 7.78599 33.9715 8.01201 33.9674 8.23667C33.9606 8.55361 34.133 8.8157 34.1535 9.11931C34.178 9.37522 34.2168 9.62975 34.2698 9.88156C34.3299 10.1998 34.3998 10.5167 34.4655 10.8337C34.4655 10.8457 34.4791 10.8604 34.475 10.8711C34.3492 11.2228 34.7212 11.4983 34.6337 11.8433C34.6289 11.8558 34.6289 11.8696 34.6337 11.8821C34.8074 12.1496 34.7568 12.4812 34.8636 12.7673C34.896 12.8226 34.9322 12.8758 34.9716 12.9265C34.9949 12.9692 35.025 13.0495 35.0085 13.0603C34.8718 13.1739 34.9661 13.2956 34.9826 13.4159C35.0277 13.7489 35.0632 14.0846 35.1097 14.4162C35.1194 14.4844 35.1727 14.55 35.1727 14.6155C35.1935 15.0037 35.2695 15.3871 35.3984 15.7549C35.4053 15.7776 35.501 15.803 35.5161 15.7883C35.672 15.6398 35.8226 15.4847 35.9675 15.3255C36.0182 15.2694 36.0483 15.1918 36.0962 15.133C36.144 15.0741 36.1769 15.0341 36.2248 15.026C36.3298 15.0063 36.4285 14.9624 36.5127 14.898C36.597 14.8336 36.6643 14.7505 36.709 14.6556C36.8193 14.5064 36.9424 14.3668 37.0771 14.2384C37.0771 14.2384 37.0894 14.2264 37.0935 14.2276C37.3958 14.3226 37.4765 13.9909 37.6982 13.9281C37.743 13.915 37.7814 13.8865 37.8063 13.8479C37.8829 13.7141 37.9595 13.5884 38.1552 13.5978C38.1852 13.5978 38.2359 13.4641 38.2495 13.3959C38.2659 13.2982 38.2797 13.2435 38.3959 13.3063C38.4162 13.3123 38.4378 13.3133 38.4585 13.309C38.4793 13.3048 38.4987 13.2956 38.5149 13.2822C38.7516 12.8904 39.1552 12.7125 39.5342 12.4999C39.6327 12.4451 39.7188 12.3662 39.8173 12.3113C39.905 12.2602 39.9965 12.2155 40.091 12.1776C40.1358 12.1667 40.1816 12.1599 40.2278 12.1575C40.4029 12.1281 40.3646 11.866 40.5958 11.858C40.7244 11.858 40.8584 11.6989 40.9693 11.5905C41.0114 11.5374 41.0666 11.4954 41.1297 11.4685C41.1929 11.4416 41.2619 11.4307 41.3304 11.4368C41.3797 11.4368 41.4672 11.418 41.4809 11.3846C41.589 11.1439 41.8421 11.1171 42.0391 11.0195C42.1828 10.946 42.3127 10.8858 42.3729 10.7187C42.3975 10.6491 42.4755 10.597 42.5357 10.5435C42.7216 10.3718 42.9426 10.2405 43.1842 10.1583C43.3019 10.1183 43.388 9.98581 43.4893 9.89087C43.5358 9.84943 43.5932 9.76919 43.6329 9.77586C43.8983 9.82405 43.9927 9.57529 44.1801 9.49369C44.1801 9.49369 44.1897 9.48566 44.1938 9.48036C44.2307 9.42148 44.28 9.31048 44.3033 9.31449C44.4168 9.34759 44.5264 9.39248 44.6302 9.44823C44.7588 9.50975 44.8792 9.58196 45.0092 9.64349C45.3321 9.77722 45.6672 9.89754 45.9805 10.0554C46.1795 10.1691 46.3653 10.3036 46.5346 10.4566C46.6837 10.5783 46.7986 10.7521 46.9641 10.8417C47.1694 10.9514 47.1899 11.1613 47.3116 11.3111C47.3377 11.3445 47.3212 11.4154 47.3116 11.4675C47.2988 11.573 47.2792 11.6775 47.2528 11.7804C47.205 11.9583 47.3336 12.1643 47.1392 12.3288C47.0955 12.3648 47.153 12.5333 47.1858 12.6337C47.2186 12.7339 47.246 12.8276 47.1488 12.9131C47.1355 12.9273 47.1257 12.9444 47.1202 12.963C47.1147 12.9815 47.1138 13.0011 47.1174 13.0201C47.2542 13.3531 47.1475 13.6888 47.1092 14.0124C47.106 14.0703 47.1111 14.1283 47.1242 14.1849C47.1488 14.3186 47.2063 14.4631 47.012 14.5379C46.9833 14.5486 46.9614 14.6288 46.9696 14.6716C47.0364 14.9762 46.9877 15.2941 46.8328 15.5663C46.8118 15.599 46.7974 15.6353 46.7904 15.6733C46.7466 16.0156 46.7042 16.3579 46.6673 16.7003C46.6235 17.1014 46.6892 17.5548 46.4607 17.9038C46.2501 18.2234 46.2733 18.547 46.2432 18.8813C46.2432 18.9242 46.2432 18.9951 46.2158 19.0044C46.0201 19.0806 46.079 19.2491 46.038 19.3949C45.9707 19.6227 45.8884 19.8461 45.7917 20.0635C45.769 20.1099 45.7493 20.1577 45.7329 20.2066C45.7001 20.347 45.7671 20.4098 45.9026 20.3617C46.1898 20.2614 46.4703 20.1371 46.7631 20.0542C46.9023 20.0139 47.035 19.9544 47.1571 19.8776C47.2733 19.8095 47.4649 19.8643 47.6222 19.8603C47.8274 19.8603 48.049 19.9151 48.1996 19.7051C48.2203 19.6901 48.2444 19.6803 48.27 19.6765C48.2955 19.6728 48.3216 19.6753 48.3459 19.6838C48.4992 19.7453 48.5895 19.6717 48.6893 19.5714C48.7657 19.5135 48.8489 19.4646 48.9369 19.4257C49.0737 19.3414 49.2105 19.2558 49.3473 19.1675C49.3734 19.1515 49.3815 19.1047 49.4062 19.0953C49.5914 19.0134 49.7837 18.9476 49.9808 18.8988C50.2544 18.8493 50.5485 18.8372 50.8331 18.8145C51.2038 18.7851 51.576 18.7597 51.948 18.7343C52.3476 18.7075 52.7457 18.6701 53.1451 18.6607C53.4338 18.654 53.7224 18.7075 54.0016 18.5872C54.044 18.5698 54.1123 18.614 54.1698 18.6246C54.2273 18.6353 54.3066 18.6674 54.3381 18.6447C54.6117 18.4708 54.9113 18.5992 55.1917 18.5925C55.5653 18.5858 55.9401 18.6834 56.3163 18.7115C56.6419 18.7356 56.9702 18.7236 57.2959 18.7343C57.4082 18.7369 57.52 18.7503 57.6297 18.7744C57.7293 18.8008 57.821 18.8495 57.8978 18.9169C57.9745 18.9842 58.034 19.0683 58.0716 19.1622C58.089 19.1894 58.1122 19.2127 58.1395 19.2304C58.1669 19.2482 58.1979 19.26 58.2302 19.2652C58.3249 19.2629 58.4175 19.2926 58.4924 19.3494C58.5671 19.4062 58.6196 19.4865 58.6407 19.5768C58.7063 19.7881 58.7543 20.0301 58.98 20.1625C58.9906 20.1695 58.9983 20.1799 59.0018 20.1919C59.0524 20.3751 59.0976 20.5596 59.1483 20.7723ZM44.8518 30.1546L44.8778 30.2188L45.0146 30.1907C44.9627 30.0569 45.0803 30.1091 45.1309 30.0877L45.4907 29.938C45.5468 29.9067 45.6072 29.8838 45.6699 29.8697C45.8478 29.8524 46.0462 29.9018 46.157 29.6985C46.168 29.6786 46.2172 29.6732 46.2487 29.6732C46.3855 29.6732 46.5359 29.6732 46.6796 29.6732C46.7476 29.6768 46.8156 29.6669 46.8796 29.6442C46.9436 29.6214 47.0022 29.5863 47.0519 29.5407C47.1016 29.4953 47.1415 29.4405 47.1689 29.3795C47.1963 29.3186 47.211 29.2529 47.2118 29.1864C47.2118 29.1436 47.2898 29.0955 47.3377 29.0527C47.3855 29.0099 47.4512 28.9751 47.5087 28.9377C47.5394 28.9168 47.5719 28.8985 47.6058 28.8828C47.7741 28.812 47.9451 28.7491 48.1134 28.6742C48.1407 28.6622 48.1517 28.6207 48.179 28.6047C48.2789 28.5386 48.3826 28.4784 48.4895 28.4242C48.6455 28.3506 48.8467 28.3265 48.9574 28.2155C49.1845 27.9896 49.164 27.9721 49.4486 28.1259C49.4759 28.1393 49.5197 28.1259 49.5553 28.1259C49.5553 28.0978 49.5553 28.0564 49.543 28.0403C49.3815 27.8866 49.5265 27.8037 49.6306 27.7422C49.7947 27.6445 49.9753 27.5777 50.1477 27.4934C50.2981 27.4198 50.4459 27.3396 50.5937 27.2621C50.6204 27.2445 50.646 27.2253 50.6703 27.2046C50.8071 27.1069 50.933 27.0053 51.0684 26.9117C51.2804 26.766 51.4993 26.6296 51.7087 26.4811C51.7756 26.4343 51.8167 26.3474 51.8851 26.3046C52.0575 26.2092 52.2222 26.101 52.3776 25.981C52.6493 25.6984 52.9646 25.4592 53.312 25.2722C53.416 25.2214 53.5706 25.1746 53.5377 24.9954C53.5377 24.9754 53.5856 24.9406 53.6158 24.9179C53.7525 24.8122 53.903 24.7119 54.0412 24.6009C54.255 24.4448 54.4575 24.2746 54.6473 24.0914C54.9031 23.824 55.3382 23.7745 55.5119 23.4093C55.5119 23.4 55.5338 23.396 55.5433 23.3866C55.6336 23.2957 55.7281 23.2074 55.817 23.1112C55.9059 23.0149 55.9976 22.8798 56.0974 22.7728C56.2835 22.5696 56.4941 22.3864 56.6624 22.1698C56.8307 21.9531 56.713 21.7605 56.4422 21.7311C56.3382 21.7204 56.2383 21.6749 56.1357 21.6589C56.0195 21.64 55.9019 21.6297 55.7841 21.6282C55.4722 21.6282 55.1603 21.6282 54.8483 21.6282C54.516 21.6282 54.1835 21.6135 53.851 21.6282C53.6144 21.6362 53.3804 21.6963 53.1451 21.699C52.5021 21.7057 51.8577 21.6682 51.2175 21.7886C50.5773 21.909 49.9561 22.0026 49.3268 22.1163C49.2038 22.1508 49.0827 22.1919 48.9642 22.2392C48.8083 22.2847 48.651 22.3235 48.4937 22.3609C48.2912 22.4091 48.1188 22.5642 47.889 22.5188C47.8438 22.5094 47.7891 22.5428 47.7398 22.5589C47.4826 22.6471 47.2282 22.7434 46.9682 22.8263C46.8314 22.8705 46.6714 22.8771 46.5277 22.9173C46.4178 22.9541 46.3108 22.9988 46.2076 23.051C46.0708 23.1165 45.9176 23.2529 45.7822 23.2409C45.4237 23.2102 45.2021 23.4776 44.9162 23.5873C44.6745 23.69 44.4409 23.8097 44.2171 23.9457C43.9872 24.0794 43.7437 24.1904 43.5015 24.3C43.3305 24.3775 43.3251 24.653 43.0597 24.625C42.9912 24.6183 42.9229 24.748 42.8326 24.7854C42.7423 24.8229 42.6027 24.8296 42.4974 24.875C42.3277 24.9499 42.1663 25.0436 42.0049 25.1345C41.745 25.2789 41.4919 25.4367 41.2278 25.5731C40.9857 25.7068 40.723 25.7911 40.485 25.9248C40.0937 26.1441 39.7134 26.3795 39.3344 26.6188C39.2167 26.6924 39.1305 26.8114 39.0143 26.8863C38.8009 27.028 38.5737 27.1537 38.359 27.2875C38.2074 27.3766 38.0665 27.482 37.939 27.6018C37.783 27.7595 37.5203 27.7917 37.4328 28.0243C37.4328 28.0324 37.4081 28.0324 37.3986 28.0403C37.1154 28.2463 36.824 28.4415 36.5518 28.6635C36.3615 28.8146 36.2029 29.0006 36.0182 29.1583C35.7829 29.3602 35.5216 29.5354 35.2972 29.748C34.8307 30.1894 34.3792 30.6467 33.9291 31.1027C33.8443 31.1883 33.7923 31.3087 33.7157 31.3982C33.5926 31.532 33.4517 31.6577 33.3244 31.7914C33.163 31.9626 32.9989 32.1337 32.8483 32.3143C32.7271 32.4631 32.6152 32.6189 32.5132 32.781C32.4434 32.8907 32.4981 32.9802 32.6336 32.9963C32.6927 33.0029 32.7523 33.0029 32.8114 32.9963C33.2643 32.9642 33.7048 32.8372 34.1617 32.8412C34.1947 32.8371 34.2269 32.8286 34.2575 32.8158C34.4805 32.7515 34.7035 32.6821 34.9278 32.6218C34.9976 32.6031 35.0879 32.5683 35.1385 32.5951C35.3082 32.6861 35.4628 32.6272 35.6132 32.5711C35.7637 32.5148 35.932 32.4574 36.0989 32.5577C36.1167 32.5683 36.1646 32.5683 36.1728 32.5577C36.3178 32.3384 36.5627 32.3624 36.7788 32.3062C37.1496 32.2087 37.5162 32.0936 37.8829 31.9826C38.1004 31.9171 38.3152 31.8489 38.5327 31.7767C38.8488 31.6791 39.1634 31.5748 39.4835 31.4905C39.8679 31.3889 40.2592 31.31 40.645 31.2137C40.8105 31.1736 40.9693 31.1094 41.1348 31.0653C41.5247 30.9597 41.9174 30.8606 42.3086 30.7564C42.3838 30.7363 42.4522 30.6948 42.5275 30.6735C42.7176 30.6213 42.9092 30.5745 43.1007 30.5277C43.113 30.5277 43.139 30.5438 43.1472 30.5585C43.2198 30.6922 43.3456 30.648 43.4468 30.6307C43.6698 30.5919 43.8914 30.5357 44.1117 30.4822C44.1591 30.4652 44.2049 30.4442 44.2485 30.4193L44.8518 30.1546ZM3.5784 21.6175C3.43202 21.6495 3.25006 21.7057 3.06263 21.7298C2.81912 21.7619 2.71515 21.9184 2.82596 22.131C2.86693 22.205 2.91904 22.2726 2.98055 22.3315C3.13925 22.496 3.31299 22.6485 3.46622 22.8196C3.61945 22.9908 3.72752 23.1539 3.86022 23.3184C3.91495 23.384 3.98061 23.4415 4.04081 23.503C4.08199 23.5517 4.1278 23.5965 4.17762 23.6367C4.24192 23.6808 4.324 23.6969 4.38557 23.7437C4.65918 23.9523 4.92458 24.177 5.20641 24.3749C5.45266 24.5474 5.62641 24.8069 5.91507 24.9259C5.94653 24.9392 5.95885 24.9967 5.98074 25.0315C6.007 25.0907 6.04357 25.145 6.08882 25.192C6.36243 25.3912 6.64973 25.5771 6.92608 25.7763C7.01911 25.8432 7.08751 25.9436 7.17917 26.0144C7.38438 26.1869 7.61834 26.3207 7.8153 26.4971C7.9439 26.6108 8.1218 26.6429 8.22575 26.7419C8.57875 27.0574 9.00144 27.2647 9.39545 27.5148C9.54459 27.6097 9.72241 27.6606 9.87976 27.7448C9.97418 27.7957 10.0754 27.8611 10.0057 28.0016C9.98815 28.0468 9.97623 28.094 9.97007 28.142C10.0179 28.1273 10.0638 28.1071 10.1069 28.0819C10.2259 27.9855 10.3339 27.9562 10.4393 28.0992C10.4845 28.1607 10.5255 28.245 10.5898 28.273C10.8826 28.3974 11.2232 28.4242 11.4408 28.6943C11.4408 28.6943 11.4544 28.6943 11.4599 28.6943C11.6295 28.7611 11.8005 28.828 11.9674 28.8976C11.9907 28.9083 11.9976 28.9524 12.018 28.9751C12.0386 28.9978 12.081 29.046 12.0988 29.0393C12.3724 28.9443 12.5803 29.2479 12.8553 29.149C12.8854 29.1382 12.9593 29.2025 12.9922 29.2466C13.0249 29.2907 12.9716 29.3482 12.9922 29.3723C13.1667 29.6004 13.4088 29.7704 13.6858 29.859C13.9826 29.942 14.274 30.0436 14.5654 30.1466C14.8568 30.2496 15.1318 30.3017 15.3945 30.4662C15.5846 30.5852 15.8528 30.5999 16.0908 30.6293C16.1855 30.6229 16.2782 30.5997 16.3644 30.5611C16.3945 30.5531 16.4328 30.533 16.452 30.5438C16.6394 30.6534 16.8624 30.5959 17.0663 30.6962C17.4261 30.8687 17.8365 30.9382 18.2277 31.0492C18.3905 31.0961 18.5561 31.1308 18.7175 31.183C18.879 31.2351 19.0499 31.3087 19.2209 31.3475C19.7518 31.4665 20.2867 31.5681 20.8175 31.6871C20.9735 31.7219 21.1198 31.7901 21.2717 31.8396C21.7861 32.0054 22.2992 32.1725 22.8149 32.3356C22.9348 32.3522 23.0523 32.3823 23.1651 32.4253C23.3102 32.5148 23.4319 32.6085 23.6125 32.5029C23.6481 32.4828 23.7205 32.5256 23.7767 32.5376C23.934 32.5723 24.1036 32.6606 24.2459 32.6286C24.5565 32.5604 24.8192 32.7061 25.1037 32.7462C25.2405 32.765 25.3773 32.8291 25.5141 32.8505C25.6509 32.8719 25.8138 32.8505 25.9601 32.8706C26.257 32.9067 26.5498 32.9695 26.8466 32.9923C27.0259 33.007 27.0833 32.8826 26.9739 32.7409C26.7646 32.4734 26.5511 32.198 26.3309 31.9385C26.194 31.7807 26.0477 31.6377 25.9122 31.4812C25.8233 31.3795 25.759 31.2565 25.6646 31.1616C25.3636 30.858 25.0572 30.5611 24.748 30.2669C24.41 29.9447 24.0722 29.621 23.7219 29.3108C23.503 29.1169 23.2568 28.9524 23.0379 28.7651C22.819 28.5779 22.6384 28.4055 22.4332 28.2303C22.3566 28.1647 22.2622 28.1193 22.1801 28.0604C22.1129 28.0153 22.0493 27.9653 21.9899 27.9106C21.9475 27.8719 21.9243 27.8104 21.8792 27.777C21.6685 27.6298 21.455 27.4872 21.2389 27.349C21.1472 27.2901 21.0391 27.2541 20.9515 27.1912C20.7163 27.0174 20.4933 26.8261 20.2525 26.6563C20.1157 26.56 19.9488 26.5039 19.8051 26.4156C19.5684 26.2684 19.3468 26.096 19.1033 25.9609C18.8598 25.8258 18.5561 25.7095 18.292 25.5704C17.894 25.3591 17.5041 25.1318 17.1101 24.9138C17.0649 24.8884 17.0006 24.8376 16.9732 24.8509C16.8173 24.9245 16.7324 24.7894 16.6148 24.752C16.4971 24.7146 16.4301 24.4979 16.2386 24.5915C16.2246 24.5803 16.2149 24.5648 16.2112 24.5474C16.2017 24.3936 16.0894 24.3281 15.9677 24.2705C15.7392 24.1609 15.5094 24.0539 15.2836 23.9389C15.1633 23.8761 15.0552 23.7892 14.932 23.7317C14.7501 23.6474 14.5216 23.622 14.3848 23.495C14.1331 23.2542 13.7856 23.277 13.5079 23.1165C13.2876 22.9895 13.0099 22.96 12.7554 22.8906C12.5529 22.8357 12.3122 22.8383 12.1521 22.7273C11.8416 22.5134 11.4681 22.5535 11.1411 22.4051C10.9281 22.3282 10.709 22.2686 10.4858 22.2273C10.2314 22.1577 9.981 22.0721 9.7252 22.0106C9.55412 21.9691 9.37491 21.9571 9.2012 21.929C8.81401 21.8649 8.42961 21.7739 8.03971 21.7418C7.54855 21.7016 7.05468 21.7097 6.56217 21.6976C6.47598 21.6976 6.3898 21.6976 6.30497 21.6976C5.86856 21.6723 5.43351 21.6335 4.99846 21.6201C4.53468 21.6067 4.07775 21.6175 3.5784 21.6175ZM44.3115 12.6804H44.2813C44.2813 12.6283 44.2813 12.5774 44.2813 12.5253C44.2813 12.4063 44.2253 12.3488 44.1062 12.4129C43.8135 12.5681 43.5153 12.7166 43.2375 12.8958C43.1211 12.9954 42.9793 13.0623 42.8271 13.0897C42.7687 13.1003 42.7138 13.1246 42.667 13.1605C42.2962 13.4066 41.931 13.6593 41.5575 13.9027C41.3086 14.0631 41.0473 14.2063 40.7983 14.3668C40.5794 14.5085 40.3878 14.7077 40.1512 14.7987C39.9637 14.8781 39.7937 14.9921 39.6504 15.1343C39.3467 15.4018 39.0157 15.6451 38.7023 15.9046C38.4424 16.1199 38.1894 16.3432 37.9363 16.5666C37.6832 16.7899 37.415 17.032 37.1592 17.2686C37.0524 17.3676 36.9621 17.4813 36.8555 17.5802C36.7282 17.6979 36.5818 17.7995 36.4601 17.9226C36.3137 18.071 36.2125 18.2809 36.0401 18.3799C35.9467 18.4255 35.8701 18.4985 35.821 18.5886C35.772 18.6787 35.7529 18.7815 35.7665 18.8827C35.7627 18.8972 35.754 18.9099 35.7418 18.9189C35.5722 18.8386 35.59 18.9616 35.579 19.0525C35.579 19.0646 35.5393 19.074 35.5189 19.082C35.4983 19.09 35.4313 19.1047 35.4066 19.1315C35.3136 19.2291 35.2274 19.3347 35.1331 19.4364C34.9869 19.5871 34.8498 19.7461 34.7226 19.9124C34.4668 20.2829 34.2315 20.668 33.9825 21.0437C33.8101 21.3032 33.6159 21.5479 33.4517 21.8127C33.2492 22.1363 33.0741 22.4747 32.8744 22.8009C32.7512 23.0042 32.7759 23.2971 32.4954 23.4067C32.4858 23.4067 32.4831 23.4281 32.479 23.4401C32.4188 23.7076 32.2053 23.8841 32.1178 24.1382C32.0302 24.3923 31.8333 24.5915 31.6855 24.8175C31.6679 24.8517 31.6542 24.8875 31.6444 24.9245C31.5569 25.1625 31.4762 25.4046 31.3818 25.6399C31.2874 25.8753 31.1492 26.1401 31.0548 26.3969C30.9061 26.8034 30.7693 27.2135 30.6444 27.6272C30.5883 27.805 30.42 27.9548 30.4953 28.1688C30.498 28.1812 30.4977 28.1941 30.4943 28.2064C30.491 28.2187 30.4848 28.23 30.4761 28.2396C30.2819 28.4282 30.3858 28.7023 30.2682 28.9216C30.1929 29.0647 30.2258 29.2599 30.1957 29.4298C30.1587 29.6291 30.0986 29.8243 30.0589 30.0235C30.0192 30.2228 30.0069 30.4501 29.9672 30.6601C29.9521 30.7457 29.8783 30.8232 29.87 30.9075C29.8585 31.078 29.8557 31.2489 29.8618 31.4197C29.8618 31.5534 30.0069 31.6644 30.0725 31.5814C30.1615 31.4691 30.3982 31.512 30.3762 31.2966C30.3762 31.2819 30.4159 31.2658 30.4337 31.2471C30.5459 31.1134 30.7073 31.0198 30.7346 30.8286C30.7507 30.7269 30.7926 30.6308 30.8564 30.5491C30.9796 30.406 31.0247 30.2014 31.245 30.1291C31.5123 30.0384 31.7349 29.8527 31.8689 29.609C31.914 29.5328 32.0261 29.4953 32.1082 29.4405C32.1903 29.3856 32.3025 29.3469 32.297 29.3174C32.2656 29.1463 32.349 29.2145 32.4215 29.2479C32.4639 29.2667 32.505 29.2854 32.5487 29.3014C32.6855 29.3522 32.7622 29.3321 32.7075 29.1677C32.6715 29.0937 32.658 29.011 32.6687 28.9297C32.6794 28.8484 32.7137 28.7718 32.7676 28.709C32.8347 28.6382 32.9209 28.5847 32.992 28.5151C33.2205 28.2945 33.4147 28.0363 33.7308 27.9146C33.7773 27.8973 33.8019 27.8277 33.8416 27.7876C33.9683 27.6394 34.1055 27.4999 34.252 27.3704C34.3467 27.3097 34.4465 27.257 34.5502 27.2126C34.7035 27.1324 34.7869 26.9277 34.9046 26.7793C34.9604 26.6932 35.0302 26.6164 35.1111 26.552C35.1686 26.5146 35.2849 26.56 35.3369 26.5212C35.3889 26.4824 35.378 26.3875 35.3971 26.3139C35.3996 26.3083 35.4039 26.3036 35.4094 26.3006C35.6638 26.0987 35.9115 25.8887 36.1742 25.6974C36.4642 25.4862 36.8267 25.3511 36.9266 24.9553C36.9335 24.9298 36.9703 24.9085 36.9977 24.8938C37.1279 24.8379 37.254 24.7735 37.3753 24.7011C37.5053 24.6089 37.6052 24.4738 37.7378 24.3869C38.0402 24.1877 38.2742 23.8962 38.6271 23.7665C38.7639 23.7156 38.8925 23.6327 39.0266 23.5792C39.1101 23.5431 39.1976 23.5191 39.2811 23.4843C39.6094 23.3506 39.8871 23.0684 40.292 23.142C40.3382 23.14 40.3828 23.1251 40.4206 23.0991C40.526 23.0469 40.6272 22.9908 40.7298 22.936C40.9645 22.8237 41.1929 22.6992 41.4139 22.5628C41.6341 22.4131 41.8243 22.2233 41.7764 21.9143C41.7563 21.8251 41.7635 21.7321 41.797 21.6469C42.0213 21.1988 42.1308 20.696 42.4604 20.2976C42.4841 20.2511 42.5007 20.2016 42.5097 20.1504C42.5466 20.0502 42.5849 19.9512 42.6219 19.8509C42.7176 19.5941 42.9174 19.3748 42.9064 19.0793C42.9064 19.0365 42.9544 18.9937 42.9762 18.9456C42.9981 18.8974 43.0214 18.8306 43.0433 18.7744L43.0953 18.6407C43.1445 18.515 43.2006 18.3906 43.243 18.2622C43.2663 18.19 43.2581 18.1084 43.2799 18.0376C43.3237 17.9038 43.388 17.7701 43.4249 17.6257C43.5221 17.2606 43.6206 16.8942 43.6986 16.5238C43.7492 16.2764 43.7601 16.0223 43.7971 15.7722C43.8367 15.4888 43.8832 15.2052 43.9339 14.9217C43.9395 14.7676 43.9704 14.6155 44.0255 14.471C44.1774 14.2036 44.1706 13.9054 44.1883 13.6152C44.1883 13.539 44.1678 13.4601 44.1774 13.3865C44.2239 13.1592 44.2691 12.9238 44.3115 12.6804ZM17.7257 21.9705C17.6627 22.143 17.7585 22.266 17.95 22.3409C17.9911 22.357 18.0185 22.4024 18.0568 22.4265C18.2319 22.5375 18.3427 22.7621 18.6039 22.7301C18.6327 22.7301 18.7011 22.7876 18.697 22.8063C18.6642 22.9467 18.7859 22.94 18.8571 22.9775C18.9279 23.0202 19.0016 23.0586 19.0773 23.0925C19.1384 23.1283 19.2085 23.1469 19.2798 23.146C19.5014 23.1058 19.667 23.2222 19.8476 23.3051C20.0705 23.4093 20.2976 23.503 20.5234 23.602C20.5994 23.6326 20.6731 23.6689 20.7437 23.7102C20.9557 23.844 21.2156 23.9042 21.3839 24.1248C21.4756 24.2452 21.6411 24.3107 21.7683 24.407C21.9041 24.5309 22.0516 24.642 22.2088 24.7387C22.4045 24.8309 22.5905 24.9032 22.6193 25.1465C22.6221 25.1915 22.641 25.2341 22.6726 25.2668C22.8094 25.3752 22.9558 25.4768 23.1022 25.5758C23.1979 25.6426 23.3047 25.6961 23.3977 25.767C23.6084 25.9288 23.8081 26.0999 24.0215 26.2644C24.0913 26.3193 24.1898 26.3527 24.1324 26.4744C24.1324 26.4851 24.1652 26.5306 24.1721 26.5293C24.406 26.453 24.473 26.6456 24.5824 26.7686C24.7357 26.9411 24.7849 27.1845 25.0818 27.2581C25.2868 27.3297 25.4576 27.4725 25.562 27.6592C25.6885 27.8502 25.8665 28.0034 26.0764 28.1019C26.1243 28.1286 26.1544 28.1848 26.1954 28.2235C26.324 28.3466 26.4554 28.4683 26.5853 28.5913C26.6414 28.6448 26.6975 28.6983 26.7495 28.7558C26.8494 28.8655 26.8152 29.0607 27.0231 29.1142C27.0847 29.1316 27.2721 29.2038 27.2269 29.3736C27.3514 29.4159 27.4823 29.4372 27.6141 29.4365C27.6447 29.4313 27.6736 29.4191 27.6983 29.4008C27.7231 29.3825 27.7431 29.3586 27.7564 29.3313C27.7698 29.3039 27.7763 29.2738 27.7753 29.2435C27.7744 29.2132 27.766 29.1835 27.7509 29.1569C27.741 29.1203 27.7398 29.0819 27.7477 29.0448C27.7555 29.0077 27.7721 28.9729 27.7961 28.9431C27.9324 28.8342 28.0415 28.6965 28.1152 28.5403C28.1889 28.3842 28.2253 28.2137 28.2215 28.0417C28.2339 27.973 28.2595 27.9072 28.2968 27.8478C28.3365 27.7609 28.3802 27.7221 28.4336 27.8371C28.4431 27.8545 28.4678 27.8651 28.4869 27.8799C28.4869 27.8558 28.5129 27.8277 28.5061 27.809C28.4809 27.7528 28.4525 27.6978 28.4213 27.6445C28.4007 27.6057 28.3583 27.5643 28.3639 27.5309C28.3739 27.3823 28.409 27.2363 28.4678 27.0989C28.6265 26.8181 28.4678 26.5733 28.398 26.33C28.3201 26.0625 28.1559 25.8218 28.0615 25.5584C27.9397 25.2147 27.8494 24.8616 27.6415 24.5527C27.633 24.5355 27.6261 24.5177 27.6209 24.4992C27.5033 24.2318 27.3884 23.9644 27.2666 23.6969C27.2169 23.5877 27.1607 23.4814 27.0983 23.3786C26.9082 23.0657 26.7111 22.7555 26.5237 22.4425C26.3965 22.2273 26.2939 21.9959 26.1599 21.7859C26.008 21.5506 25.8315 21.3326 25.6687 21.1039C25.5838 20.9849 25.5141 20.8552 25.4252 20.7388C25.2733 20.5436 25.1105 20.3564 24.9532 20.1652C24.7357 19.8977 24.5141 19.6423 24.302 19.3748C24.09 19.1074 23.8588 18.7971 23.6371 18.5083C23.6145 18.4774 23.5882 18.4491 23.5592 18.424C23.4203 18.335 23.2919 18.2315 23.1761 18.1151C23.0636 17.9516 22.919 17.8116 22.7506 17.7032C22.6411 17.6358 22.5412 17.5544 22.4537 17.4612C22.2212 17.2352 22.0064 16.9904 21.7697 16.7752C21.5562 16.5879 21.3101 16.4369 21.0857 16.2577C20.7135 15.9581 20.3455 15.6519 19.9803 15.3443C19.8556 15.2184 19.7241 15.0992 19.5863 14.9872C19.4002 14.8602 19.1841 14.776 18.9939 14.6542C18.7203 14.4764 18.4644 14.2745 18.1908 14.0966C17.9609 13.9482 17.805 13.6954 17.4986 13.654C17.4698 13.654 17.4521 13.5938 17.4206 13.5737C17.1716 13.4106 16.9404 13.1819 16.6654 13.107C16.3904 13.0321 16.2153 12.762 15.913 12.7059C15.7324 12.6738 15.5778 12.5159 15.4081 12.421C15.2973 12.3595 15.2303 12.3929 15.2316 12.524C15.233 12.655 15.2316 12.7566 15.2316 12.873C15.2522 13.1645 15.2781 13.4561 15.3069 13.7476C15.3202 13.939 15.344 14.1296 15.3781 14.3186C15.4178 14.5031 15.4998 14.6783 15.5436 14.8629C15.5764 15.0046 15.575 15.1531 15.597 15.2975C15.6421 15.597 15.6913 15.8953 15.7433 16.1948C15.8063 16.5626 15.8801 16.9303 15.9417 17.2981C15.9417 17.3221 15.9745 17.3395 15.9814 17.3636C16.0846 17.6442 16.1713 17.9304 16.2413 18.2208C16.2755 18.3906 16.2509 18.5658 16.4205 18.6834C16.4437 18.6995 16.4369 18.753 16.4465 18.7891C16.4561 18.8252 16.4752 18.8961 16.4944 18.9483C16.5217 19.0218 16.556 19.094 16.5819 19.1689C16.6037 19.2551 16.6307 19.3399 16.6626 19.4229C16.7585 19.6262 16.9226 19.8242 16.9541 20.0287C17.0115 20.4045 17.3138 20.6493 17.4138 21.0023C17.5082 21.3126 17.7216 21.5894 17.7257 21.9705ZM27.1421 19.5474L27.0833 19.5781C27.1149 19.6491 27.1539 19.7168 27.1996 19.7801C27.3843 19.99 27.5881 20.1812 27.7633 20.4005C27.9137 20.5878 27.9767 20.8392 28.2024 20.9742C28.2103 20.9798 28.2168 20.987 28.2214 20.9953C28.2262 21.0037 28.229 21.0129 28.2297 21.0224C28.2079 21.231 28.4185 21.2898 28.5034 21.4235C28.6812 21.691 28.933 21.8943 29.0205 22.2152C29.0589 22.4078 29.1272 22.5936 29.2229 22.7661C29.276 22.835 29.3193 22.9106 29.3515 22.9908C29.3711 23.0681 29.4015 23.1424 29.4419 23.2114C29.5308 23.3345 29.6375 23.4455 29.736 23.5618C29.7675 23.602 29.7935 23.6461 29.8235 23.6889C29.8673 23.638 29.9453 23.5885 29.9494 23.5338C29.9482 23.4929 29.9609 23.4527 29.9857 23.4198C30.0106 23.3868 30.0459 23.3629 30.0862 23.3518C30.1313 23.3331 30.1642 23.2689 30.1875 23.2182C30.2655 23.0483 30.3325 22.8731 30.4118 22.7046C30.5897 22.3289 30.7757 21.9571 30.9591 21.5813C30.9932 21.5105 30.9878 21.3955 31.0411 21.3633C31.1424 21.3018 31.2765 21.2898 31.271 21.132C31.5035 21.0572 31.6061 20.8645 31.7129 20.6733C31.8346 20.45 31.9769 20.236 32.1014 20.0194C32.204 19.8415 32.4749 19.7385 32.4133 19.4711C32.4133 19.4631 32.4448 19.4484 32.4557 19.4336C32.5255 19.336 32.5925 19.2357 32.6609 19.1368C32.7081 19.0474 32.768 18.965 32.8388 18.8921C32.9146 18.8272 32.9679 18.7407 32.9909 18.6448C33.014 18.5489 33.0058 18.4483 32.9674 18.3572C32.873 18.1713 32.6664 18.0014 32.8306 17.75C32.8511 17.7193 32.8046 17.643 32.7868 17.5883C32.7409 17.4822 32.7039 17.3725 32.676 17.2606C32.6565 17.0981 32.646 16.9348 32.6445 16.7712C32.6474 16.74 32.6547 16.7094 32.6664 16.6802C32.7827 16.711 32.7526 16.6802 32.7102 16.6054C32.6345 16.5084 32.5834 16.3953 32.5611 16.2754C32.5387 16.1555 32.5457 16.032 32.5816 15.9153C32.5952 15.8658 32.5952 15.8137 32.5816 15.7642C32.5283 15.5355 32.4721 15.3082 32.4092 15.0808C32.3832 14.9832 32.3572 14.8762 32.215 14.8709C32.1944 14.8709 32.1575 14.8241 32.1602 14.8027C32.1903 14.59 32.0398 14.4202 32.0384 14.1982C32.0384 13.797 31.9085 13.3959 31.8333 12.988C31.8072 12.8543 31.7799 12.7125 31.758 12.5748C31.7279 12.3849 31.717 12.191 31.6718 12.0051C31.5473 11.4916 31.4078 10.9835 31.2806 10.4713C31.2463 10.3375 31.2354 10.1865 31.2149 10.0433C31.1492 9.5659 31.078 9.08718 31.0233 8.60847C30.9987 8.39715 30.8154 8.20727 30.9276 7.9786C30.985 7.86623 30.9276 7.82478 30.8687 7.74992C30.813 7.66374 30.772 7.56936 30.747 7.47042C30.7033 7.3367 30.7128 7.15483 30.6253 7.05854C30.4173 6.82719 30.4364 6.53433 30.3434 6.27356C30.2914 6.1278 30.2941 5.96197 30.249 5.8122C30.2134 5.69051 30.1013 5.58085 30.0958 5.46317C30.0834 5.13287 29.8906 4.87343 29.7743 4.58458C29.7237 4.45888 29.6101 4.46156 29.5363 4.58458C29.4639 4.69349 29.399 4.80696 29.342 4.92425C29.3092 5.04544 29.2633 5.16289 29.2052 5.27462C28.9316 5.62365 28.8892 6.07699 28.6579 6.44741C28.4692 6.74829 28.4104 7.12942 28.2995 7.47845C28.0793 8.17386 27.8645 8.87056 27.6469 9.56726C27.6469 9.59136 27.6469 9.61811 27.636 9.64212C27.6003 9.87152 27.5495 10.0984 27.4841 10.3215C27.3923 10.522 27.3523 10.7416 27.3679 10.9607C27.3747 11.0101 27.3323 11.0677 27.3104 11.1199C27.2783 11.1682 27.2526 11.2203 27.2338 11.275C27.1859 11.5424 27.1434 11.8099 27.1093 12.0774C27.0969 12.1629 27.1353 12.2565 27.1189 12.3448C27.0573 12.6337 26.9711 12.9185 26.9177 13.2087C26.8904 13.3624 26.9177 13.5269 26.9068 13.6847C26.874 13.9896 26.8193 14.2918 26.7864 14.5954C26.7755 14.689 26.8193 14.7853 26.8179 14.8802C26.8097 15.1691 26.796 15.4575 26.7769 15.7455C26.7549 16.0651 26.7372 16.386 26.6975 16.7043C26.6715 16.9075 26.5881 17.1054 26.5675 17.3061C26.5539 17.425 26.6319 17.5508 26.6346 17.6752C26.6428 18.0095 26.6346 18.3438 26.6346 18.6808C26.625 18.7381 26.6316 18.7968 26.6537 18.8506C26.7905 19.0458 26.9383 19.2331 27.0806 19.4243C27.0956 19.4577 27.1161 19.5005 27.1421 19.5474Z" fill="currentColor"/>
<path d="M97.1615 34.393C97.0584 33.6993 96.9514 33.0056 96.8524 32.3118C96.8286 32.1513 96.8306 31.9888 96.8187 31.8282C96.7591 31.1107 96.7096 30.3912 96.6363 29.6757C96.6065 29.3982 96.5095 29.1287 96.4639 28.8512C96.3647 28.2565 96.2875 27.6619 96.1864 27.0674C96.1111 26.6333 95.9882 26.2051 95.9247 25.7711C95.8752 25.4658 95.889 25.1527 95.8434 24.8475C95.7464 24.1775 95.6255 23.5115 95.5244 22.8417C95.4134 22.1083 95.3262 20.7605 95.2052 20.0251C95.1914 19.938 95.1339 19.2423 95.0963 19.157C94.9813 19.2343 94.8227 19.9339 94.8168 20.0409C94.8108 20.148 94.6959 20.9745 94.6681 21.153C94.4581 22.459 94.2361 23.7633 94.0418 25.0714C93.9764 25.5094 93.9943 25.9574 93.9388 26.3974C93.9051 26.667 93.7782 26.9246 93.7406 27.1902C93.6375 27.8383 93.6077 28.5024 93.4551 29.1386C93.3674 29.4844 93.3096 29.8373 93.2827 30.193C93.2618 30.8745 93.1956 31.5539 93.0845 32.2265C92.9149 33.1378 92.8272 34.0626 92.8228 34.9895C92.7994 35.1874 92.7549 35.382 92.6901 35.5704C92.6831 35.5979 92.6702 35.6234 92.6524 35.6456C92.5375 35.7586 91.9924 35.7943 91.8397 35.7209C91.7596 35.6867 91.6705 35.6796 91.5861 35.7011C91.3264 35.7684 91.0826 35.8042 90.8646 35.594C90.8091 35.5609 90.7446 35.5463 90.6802 35.5525C90.4206 35.5525 90.1194 35.6318 89.9072 35.5307C89.8115 35.4751 89.7005 35.4514 89.5903 35.4632C89.4802 35.475 89.3768 35.5215 89.2949 35.5961C89.2175 35.6496 89.0749 35.6179 88.9619 35.608C88.7914 35.5921 88.5813 35.608 88.4624 35.5248C88.3221 35.4042 88.2311 35.2363 88.2066 35.053C88.1157 34.537 88.0884 34.0118 88.1255 33.4892C88.17 33.0943 88.1759 32.6959 88.1433 32.2999C88.0758 31.079 88.0065 29.8581 87.9174 28.6371C87.834 27.4915 87.7309 26.3479 87.622 25.2042C87.5962 24.9426 87.4951 24.6889 87.4595 24.4293C87.3702 23.7792 87.295 23.127 87.2256 22.473C87.1562 21.8189 87.1264 21.1628 87.0274 20.5127C86.9322 19.8289 86.7677 19.1531 86.6646 18.4693C86.5933 17.9856 86.5874 17.4921 86.5259 17.0045C86.4506 16.4099 86.5081 15.7875 86.3277 15.1889C86.2286 14.8678 86.298 14.4992 86.2445 14.1583C86.1612 13.6192 86.0344 13.088 85.9393 12.5508C85.8738 12.1782 85.8282 11.7996 85.7807 11.4231C85.7172 10.9276 85.6577 10.432 85.6003 9.93856C85.5468 9.48666 85.4933 9.03273 85.4457 8.5788C85.4021 8.16261 85.3625 7.74642 85.3208 7.33011L85.1544 5.68511C85.1068 5.20547 85.0532 4.72571 85.0096 4.24416C84.9759 3.84773 84.9541 3.4513 84.9225 3.05487C84.8907 2.65844 84.8272 2.26213 84.8214 1.8657C84.8366 1.63082 84.8772 1.3982 84.9422 1.17201C84.9422 1.14225 84.9958 1.09463 85.0195 1.09666C85.4001 1.1363 85.8124 0.85285 86.1394 1.07285C86.3278 1.18487 86.5487 1.22963 86.7657 1.19975C87.032 1.17737 87.2966 1.13963 87.5586 1.08678C87.6353 1.0713 87.715 1.08249 87.7845 1.11844C88.0287 1.28225 88.2321 1.49999 88.3791 1.75463C88.4003 1.78654 88.417 1.8213 88.4287 1.85773C88.5277 2.32154 88.6269 2.78332 88.7121 3.24523C88.7174 3.43297 88.7127 3.62083 88.6982 3.80809C88.7339 4.40273 88.7676 4.99725 88.833 5.57606C88.8687 5.88928 88.9915 6.19439 89.0312 6.50761C89.0788 6.92189 89.0609 7.34202 89.1006 7.75428C89.1601 8.38654 89.2433 9.01487 89.3166 9.64523C89.3166 9.70273 89.3166 9.76011 89.3265 9.81761C89.3919 10.3806 89.4494 10.9455 89.5247 11.5083C89.6437 12.3745 89.7745 13.2367 89.9033 14.1008C89.9271 14.2594 89.9668 14.418 89.9964 14.5765C90.0178 14.6496 90.0318 14.7246 90.0381 14.8005C90.0381 15.3138 90.0381 15.8292 90.0559 16.3405C90.0757 16.7092 90.163 17.0739 90.2046 17.4425C90.2155 17.6201 90.2155 17.7982 90.2046 17.9757C90.1968 18.0415 90.1968 18.1081 90.2046 18.1739C90.3096 18.7209 90.4325 19.264 90.5257 19.8131C90.6545 20.5721 90.7636 21.3352 90.8805 22.0964C90.8784 22.1055 90.8784 22.115 90.8805 22.1242L91.0787 22.473C91.1488 22.3702 91.2041 22.2581 91.2432 22.14C91.3661 21.4562 91.4552 20.7644 91.5959 20.0846C91.7208 19.4682 91.9091 18.8637 92.0439 18.2493C92.1252 17.8786 92.1668 17.5 92.2164 17.1214C92.3015 16.4515 92.3789 15.7815 92.4562 15.1096C92.5334 14.4377 92.5989 13.7658 92.6841 13.0959C92.7475 12.5984 92.8347 12.1049 92.9101 11.6055C92.9516 11.3239 93.1776 6.55916 93.2213 6.27773C93.2906 5.8238 93.2213 5.68309 93.6652 5.84368C93.7663 5.87928 93.8634 5.95666 93.909 5.78618C93.909 5.78618 94.0637 5.78618 94.0795 5.81392C94.1547 5.96654 94.2143 6.02404 94.4105 5.94868C94.7375 5.8238 95.0963 5.78416 95.4233 5.6613C95.5799 5.6038 95.6215 5.62761 95.6394 5.76237C95.6731 5.98439 95.7781 5.99225 95.9605 5.90702C96.4341 5.68309 96.3569 5.79404 96.442 6.30344C96.6006 7.34606 97.1537 12.8719 97.3082 13.9125C97.4271 14.7053 97.5738 15.5081 97.6888 16.3068C97.7522 16.7508 97.7502 17.2048 97.8275 17.6447C97.9207 18.1838 98.0812 18.7131 98.1882 19.2521C98.3112 19.8686 98.4043 20.4909 98.5152 21.1113C98.5887 21.5275 98.6678 21.9418 98.7531 22.358C98.7631 22.4036 98.8364 22.4789 98.8541 22.4709C98.914 22.4508 98.9641 22.4092 98.995 22.354C99.0334 22.2169 99.0619 22.0771 99.0802 21.9358C99.1653 21.357 99.2327 20.7744 99.3319 20.1976C99.4072 19.7615 99.5439 19.3334 99.6113 18.8974C99.6708 18.5168 99.6669 18.1303 99.7025 17.7458C99.7302 17.4326 99.7739 17.1214 99.8095 16.8102C99.8472 16.4555 99.9047 16.1027 99.9165 15.7499C99.9368 14.7798 100.048 13.8136 100.248 12.864C100.339 12.4577 100.357 12.0356 100.416 11.6213C100.483 11.1595 100.579 10.7036 100.63 10.2338C100.729 9.34785 100.812 8.45987 100.888 7.57201C100.912 7.29249 100.888 7.00904 100.888 6.72761C100.879 6.67047 100.884 6.61214 100.902 6.55714C101.258 5.86142 101.066 5.09844 101.179 4.3769C101.248 3.95844 101.382 3.55321 101.576 3.17582C101.787 2.8044 101.912 2.38951 101.94 1.96285C101.94 1.77451 101.968 1.58427 101.99 1.39594C101.993 1.34106 102.007 1.28737 102.032 1.23844C102.057 1.1894 102.092 1.14606 102.134 1.11118C102.177 1.0763 102.226 1.0507 102.279 1.03594C102.332 1.02118 102.387 1.01749 102.442 1.02523C102.694 0.988087 102.95 0.974157 103.205 0.983681C103.435 1.02332 103.462 0.660585 103.71 0.799395C103.872 0.884752 104.045 0.946776 104.224 0.983681C104.422 1.02535 104.62 1.0213 104.804 1.05309C104.882 1.0669 105.002 1.11451 105.012 1.16797C105.083 1.39368 105.124 1.62749 105.133 1.86368C105.133 2.26011 105.088 2.65654 105.058 3.05297C105.028 3.44928 104.991 3.82785 104.953 4.21439C104.915 4.60094 104.868 5.0369 104.826 5.44725C104.695 6.74749 104.578 8.04963 104.43 9.34594C104.325 10.2755 104.188 11.2031 104.047 12.1207C103.918 12.9612 103.704 13.7917 103.651 14.6359C103.577 15.627 103.409 16.618 103.395 17.609C103.395 18.2037 103.213 18.8082 103.12 19.4107C103.026 20.0132 102.911 20.6296 102.848 21.2421C102.749 22.1955 102.701 23.1529 102.598 24.1062C102.535 24.6789 102.4 25.2419 102.317 25.8127C102.244 26.3518 102.208 26.8949 102.152 27.434C102.059 28.3438 101.954 29.2495 101.877 30.1613C101.845 30.5577 101.893 30.9542 101.887 31.3605C101.887 31.5587 101.827 31.7569 101.827 31.9551C101.827 32.9461 101.841 33.9371 101.853 34.9281C101.853 35.1561 101.829 35.3721 101.595 35.4831C101.531 35.5025 101.463 35.5065 101.397 35.495C101.371 35.495 101.338 35.4514 101.324 35.4574C101.08 35.5842 100.842 35.6555 100.632 35.3979C100.591 35.438 100.555 35.4833 100.525 35.5326C100.454 35.715 100.412 35.9192 100.129 35.7943C100.075 35.7705 99.982 35.8498 99.9066 35.8715C99.7778 35.9073 99.647 35.9389 99.5102 35.9667C99.3564 35.9846 99.2045 36.0164 99.0564 36.0619C99.0133 36.0858 98.9653 36.0998 98.9162 36.1025C98.8669 36.1051 98.8177 36.0967 98.7722 36.0775C98.7269 36.0584 98.6863 36.0293 98.6538 35.9923C98.6213 35.9551 98.5976 35.9112 98.5846 35.8637C98.5682 35.8171 98.5414 35.7749 98.5064 35.7401C98.4714 35.7053 98.429 35.6788 98.3824 35.6626C98.3357 35.6464 98.2861 35.6409 98.237 35.6467C98.188 35.6523 98.1408 35.6688 98.099 35.6951C97.9008 35.8319 97.7463 35.7328 97.5481 35.6951C97.3063 35.6437 97.2428 35.5584 97.219 35.3364C97.1893 35.0273 97.1159 34.722 97.0605 34.4147L97.1615 34.393Z" fill="currentColor"/>
<path d="M117.85 35.7193C117.325 35.7193 116.8 35.7193 116.275 35.7193C116.025 35.7193 115.916 35.6024 115.888 35.3606C115.736 34.0305 115.691 32.6902 115.755 31.3529C115.811 30.1042 115.765 28.8477 115.736 27.597C115.718 26.7764 115.662 25.9578 115.597 25.1412C115.585 24.9827 115.416 24.8439 115.369 24.6814C115.307 24.4693 115.171 24.4574 114.994 24.4495C114.273 24.4237 113.551 24.3543 112.832 24.3564C112.039 24.3564 111.256 24.4158 110.469 24.4634C110.186 24.4812 110.146 24.7428 110.128 24.945C110.019 26.2452 109.93 27.5474 109.829 28.8496C109.805 29.1152 109.631 29.355 109.667 29.6424C109.702 29.9298 109.76 30.2231 109.667 30.4511C109.546 30.7286 109.706 30.9585 109.651 31.2241C109.577 31.571 109.671 31.9555 109.712 32.3222C109.766 32.7329 109.745 33.15 109.649 33.553C109.583 33.8086 109.665 34.098 109.649 34.3735C109.649 34.758 109.601 35.1406 109.607 35.5231C109.607 35.7035 109.526 35.7214 109.409 35.7214C109.026 35.7214 108.646 35.7214 108.263 35.7214C107.518 35.7214 106.773 35.7214 106.028 35.7214C105.74 35.7214 105.657 35.5747 105.665 35.3249C105.683 34.7303 105.724 34.1218 105.722 33.5212C105.722 32.2885 105.645 31.0536 105.689 29.8208C105.74 28.2847 105.887 26.7486 105.984 25.2146C106.051 24.2235 106.135 23.2325 106.182 22.2415C106.285 20.41 106.333 18.5727 106.638 16.7591C106.812 15.7285 107.044 14.7058 107.233 13.6771C107.314 13.2272 107.332 12.7653 107.387 12.3095C107.5 11.372 107.601 10.4345 107.738 9.50088C107.867 8.63481 108.012 7.76862 108.194 6.91243C108.42 5.86386 108.678 4.82136 108.949 3.78267C109.147 2.98993 109.407 2.19707 109.637 1.40433C109.762 0.964213 109.984 0.845284 110.568 0.869093C111.254 0.896832 111.942 0.908739 112.63 0.918739C113.175 0.918739 113.722 0.918739 114.267 0.918739C114.638 0.918739 115.01 0.88695 115.381 0.883022C115.45 0.871236 115.521 0.87338 115.59 0.88957C115.658 0.905761 115.723 0.935523 115.779 0.97719C115.836 1.01874 115.884 1.07136 115.92 1.13171C115.956 1.19219 115.98 1.25922 115.989 1.32898C116.209 2.06624 116.419 2.80552 116.628 3.54493C116.794 4.13945 116.982 4.7341 117.107 5.32874C117.383 6.64219 117.639 7.95957 117.874 9.28088C118.027 10.1431 118.14 11.0133 118.251 11.8814C118.334 12.5354 118.366 13.1954 118.449 13.8475C118.506 14.2598 118.663 14.6602 118.729 15.0724C118.913 16.2617 119.125 17.4509 119.232 18.6402C119.359 19.9622 119.385 21.2941 119.478 22.62C119.563 23.8509 119.696 25.0778 119.775 26.3086C119.866 27.7575 119.949 29.2103 119.973 30.6691C120.001 31.8821 119.941 33.0952 119.932 34.3102C119.932 34.653 119.973 34.9959 119.983 35.3389C119.983 35.5846 119.894 35.7352 119.608 35.7234C119.036 35.7095 118.443 35.7174 117.85 35.7193ZM115.25 20.7074H115.276C115.214 20.0236 115.169 19.3358 115.078 18.656C115.006 18.0614 114.889 17.4885 114.796 16.9059C114.703 16.3231 114.63 15.7761 114.536 15.2131C114.418 14.4996 114.271 13.788 114.17 13.0705C113.989 11.7862 113.872 10.494 113.658 9.21552C113.478 8.13731 113.197 7.07493 112.957 6.0066C112.944 5.96422 112.926 5.92362 112.903 5.88564C112.887 5.92933 112.873 5.97088 112.858 6.01255C112.842 6.05409 112.83 6.076 112.816 6.10767C112.806 6.076 112.794 6.04421 112.782 6.01255L112.735 5.88969C112.719 5.93326 112.699 5.97481 112.687 6.0185C112.459 7.02136 112.194 8.01838 112.013 9.02921C111.833 10.04 111.746 11.1103 111.599 12.149C111.437 13.2906 111.266 14.4303 111.074 15.566C110.82 17.0585 110.495 18.539 110.44 20.0612C110.44 20.2099 110.509 20.4735 110.218 20.5211C110.214 20.5659 110.214 20.611 110.218 20.6559C110.467 20.6658 110.305 20.8164 110.281 20.8818C110.233 21.0127 110.247 21.0641 110.366 21.1711C110.616 21.3931 110.87 21.3812 111.159 21.3496C111.434 21.3179 111.712 21.3179 111.988 21.3496C112.333 21.3746 112.681 21.3627 113.024 21.3139C113.587 21.2373 114.145 21.1274 114.695 20.9848C114.77 20.9784 114.846 20.9949 114.911 21.0324C115.24 21.189 115.25 21.185 115.238 20.8204C115.256 20.7927 115.252 20.745 115.25 20.7074Z" fill="currentColor"/>
<path d="M134.759 35.6439C134.256 35.6836 133.673 35.745 133.088 35.7668C132.745 35.7807 132.402 35.7232 132.06 35.7113C131.844 35.7113 131.625 35.7331 131.411 35.7232C131.039 35.7014 130.973 35.5626 130.999 35.192C131.031 34.7203 130.999 34.2426 130.999 33.7689C130.999 33.6658 131.011 33.5707 131.015 33.4598C131.015 33.3943 131.041 33.2973 131.015 33.2615C130.801 33.089 130.936 32.8512 130.886 32.649C130.886 32.6075 130.922 32.5519 130.91 32.5104C130.747 31.9514 130.896 31.3687 130.753 30.8018C130.688 30.5382 130.779 30.2369 130.783 29.9534C130.783 29.7949 130.737 29.6344 130.743 29.4758C130.771 28.8078 130.825 28.1419 130.839 27.4739C130.856 26.6198 130.797 25.7595 130.87 24.9092C130.904 24.5267 130.617 24.2908 130.632 23.94C130.637 23.6671 130.604 23.395 130.533 23.1313C130.47 22.8657 130.347 22.6159 130.264 22.3544C130.159 22.0253 130.085 21.6844 129.969 21.3633C129.847 21.0189 129.703 20.6832 129.536 20.3584C129.237 19.7796 128.912 19.2128 128.591 18.6459C128.547 18.5613 128.477 18.4923 128.393 18.4477C128.278 18.3962 128.095 18.42 128.222 18.2059C128.226 18.1977 128.226 18.1884 128.222 18.1801C127.957 18.1583 127.903 17.9245 127.784 17.752C127.77 17.7302 127.705 17.7144 127.705 17.7105C127.818 17.3794 127.582 17.4369 127.398 17.427C127.332 17.4243 127.267 17.4045 127.212 17.3695C126.999 17.2208 126.896 17.2367 126.845 17.4765C126.8 17.6996 126.782 17.927 126.789 18.1544C126.801 18.5607 126.847 18.9651 126.869 19.3694C126.91 20.2157 126.845 21.0838 127.011 21.9044C127.261 23.1452 127.073 24.3661 127.061 25.597C127.061 25.9736 127.079 26.3501 127.061 26.7268C127.045 26.9606 126.946 27.1886 126.93 27.4224C126.914 27.6563 126.995 27.8962 126.958 28.1201C126.906 28.4373 127.083 28.6889 127.118 28.9704C127.192 29.565 127.194 30.1596 127.225 30.7681C127.261 31.4618 127.328 32.1556 127.322 32.8512C127.322 33.3507 127.207 33.8423 127.162 34.3496C127.14 34.5994 127.162 34.8531 127.15 35.1049C127.146 35.2152 127.106 35.3212 127.035 35.4061C126.791 35.6519 126.488 35.6796 126.147 35.6558C125.644 35.6201 125.136 35.6439 124.629 35.6558C124.217 35.6558 123.802 35.7053 123.394 35.6796C123.24 35.6698 122.998 35.6361 122.998 35.3664C122.998 35.0969 122.956 34.863 122.944 34.6113C122.916 33.9493 122.881 33.2873 122.869 32.6293C122.859 32.0782 122.885 31.5252 122.885 30.9743C122.885 30.5283 122.885 30.0804 122.861 29.6344C122.839 29.0675 122.776 28.5007 122.772 27.9358C122.772 26.8278 122.805 25.7199 122.8 24.6099C122.8 23.9043 122.748 23.1987 122.71 22.4931C122.643 21.179 122.566 19.8649 122.502 18.5508C122.488 18.2575 122.538 17.9562 122.53 17.6629C122.504 16.7868 122.445 15.9088 122.437 15.0327C122.437 14.0793 122.462 13.1239 122.48 12.1706C122.5 11.14 122.528 10.1073 122.544 9.07463C122.566 7.58023 122.579 6.0838 122.601 4.58737C122.617 3.51702 122.645 2.44475 122.655 1.37249C122.654 1.28047 122.689 1.19154 122.751 1.12416C122.814 1.05678 122.9 1.01583 122.992 1.00975C123.455 0.917969 123.923 0.851778 124.393 0.81154C124.716 0.786778 125.04 0.786778 125.362 0.81154C125.683 0.833326 126 0.882847 126.318 0.928442C126.367 0.928442 126.405 0.993918 126.452 1.01963C126.557 1.07118 126.664 1.11678 126.771 1.1644C126.805 1.18023 126.843 1.18618 126.875 1.20404C127.495 1.50761 128.16 1.70832 128.845 1.79856C129.195 1.88963 129.531 2.0263 129.846 2.20487C130.276 2.40309 130.743 2.57749 131.11 2.86689C131.741 3.36737 132.334 3.91392 132.884 4.50213C133.173 4.8113 133.34 5.23547 133.548 5.61594C133.756 5.99654 133.974 6.4088 134.166 6.82309C134.345 7.19642 134.505 7.5788 134.644 7.96868C134.842 8.5157 134.628 9.03106 134.42 9.51868C134.226 9.95333 133.992 10.3687 133.72 10.7594C133.457 11.1558 133.138 11.5046 132.84 11.8733C132.077 12.8181 131.312 13.7636 130.547 14.7096C130.309 15.0009 130.349 15.2626 130.698 15.332C130.927 15.3777 131.136 15.4967 131.292 15.6709C131.441 15.8255 131.689 15.9127 131.78 16.0871C132.131 16.7075 132.555 17.2763 132.951 17.8611C133.355 18.5095 133.692 19.1968 133.958 19.9125C134.117 20.3658 134.246 20.8294 134.343 21.2999C134.359 21.3543 134.384 21.4058 134.416 21.4525C134.801 22.0194 134.934 22.6615 135.011 23.3256C135.116 24.129 135.156 24.9396 135.13 25.7496C135.094 26.7525 135.07 27.7613 135.1 28.7643C135.126 29.5769 135.255 30.3856 135.298 31.1982C135.32 31.5669 135.227 31.9414 135.239 32.3121C135.259 32.8215 135.322 33.3289 135.38 33.8343C135.425 34.2188 135.49 34.6033 135.548 34.9859C135.551 35.0431 135.558 35.1 135.568 35.1563C135.667 35.5289 135.552 35.6698 135.155 35.6579C135.05 35.6579 134.945 35.6578 134.759 35.6439ZM126.813 10.3987C126.793 11.1439 126.775 11.7008 126.764 12.2558C126.754 12.6919 126.746 13.128 126.748 13.564C126.757 13.6615 126.776 13.7577 126.805 13.8514C126.902 13.7893 126.993 13.7168 127.075 13.6353C127.32 13.3368 127.559 13.0328 127.79 12.7236C128.018 12.4203 128.234 12.1071 128.456 11.802C128.67 11.4767 128.902 11.1643 129.152 10.8664C129.642 10.3581 130.001 9.73856 130.198 9.06082C130.274 8.81463 130.296 8.55511 130.264 8.29963C130.195 7.95868 130.089 7.6263 129.947 7.30868C129.748 6.7994 129.52 6.30237 129.263 5.82011C129.068 5.52773 128.844 5.25547 128.595 5.00749C128.284 4.5932 127.889 4.24832 127.437 3.99463C127.158 3.85987 127.041 3.92535 127.023 4.22856C126.995 4.78749 126.972 5.34844 126.968 5.9094C126.968 6.23237 127.043 6.55749 127.027 6.87856C126.966 8.10737 126.878 9.34821 126.813 10.3987Z" fill="currentColor"/>
<path d="M76.0612 9.81204C75.9778 11.0807 76.3716 12.3348 77.1652 13.3282C77.4328 13.6711 77.6329 14.0675 77.9025 14.4104C78.289 14.9039 78.7112 15.3678 79.1175 15.8454C79.3633 16.1368 79.613 16.4242 79.8509 16.7214C80.3106 17.2923 80.7566 17.873 81.2185 18.4438C81.7654 19.1047 82.2256 19.8328 82.588 20.6103C82.7447 20.957 82.9329 21.29 83.0974 21.6349C83.5421 22.6163 83.8687 23.6468 84.0706 24.7051C84.2927 25.7298 84.4234 26.7744 84.5741 27.8149C84.66 28.3206 84.7078 28.8322 84.7167 29.345C84.7167 29.8485 84.584 30.348 84.57 30.8515C84.59 31.2129 84.6304 31.5729 84.691 31.9297C84.7405 32.4826 84.7563 33.0455 84.35 33.4895C84.1692 33.646 83.9694 33.7791 83.7555 33.886C83.6841 33.9316 83.6068 33.9692 83.5415 34.0207C83.2808 34.2701 82.9967 34.4938 82.6931 34.6887C82.3224 34.8868 82.0786 35.2694 81.6763 35.3705C81.274 35.4716 81.046 35.8284 80.5902 35.7887C80.3206 35.7669 80.0253 35.9374 79.7577 36.0543C79.2127 36.2901 78.6815 36.1732 78.1523 36.0186C77.8335 35.9331 77.5209 35.8257 77.2167 35.6975C76.9562 35.5951 76.719 35.4416 76.5191 35.2456C76.083 34.76 75.6827 34.2387 75.2941 33.7155C75.096 33.4499 74.9592 33.1407 74.7867 32.8592C74.4796 32.3578 74.1306 31.8801 73.8631 31.3609C73.6333 30.8898 73.4391 30.4022 73.2824 29.902C73.0703 29.2797 72.8979 28.6454 72.6878 28.0172C72.5847 27.692 72.438 27.3809 72.3488 27.0518C72.2318 26.6198 72.1506 26.1778 72.0515 25.7417C71.9827 25.418 71.8913 25.0994 71.778 24.7884C71.7066 24.6139 71.5243 24.4891 71.4272 24.3206C71.3714 24.226 71.3354 24.1212 71.3212 24.0123C71.307 23.9035 71.3149 23.7929 71.3445 23.6872C71.3742 23.5814 71.4248 23.4828 71.4935 23.3972C71.5622 23.3116 71.6475 23.2407 71.7443 23.1888C71.7891 23.1716 71.8308 23.1468 71.8672 23.1155C72.2636 22.6438 72.8324 22.4654 73.3934 22.2731C73.6491 22.186 73.871 21.9956 74.1267 21.9065C74.4466 21.7888 74.7792 21.7097 75.1178 21.6706C75.1983 21.6768 75.2761 21.7019 75.3449 21.744C75.4138 21.786 75.4718 21.8437 75.5141 21.9124C75.616 22.1572 75.6905 22.4124 75.7361 22.6735C75.9383 23.4954 76.1365 24.318 76.3308 25.1412C76.4794 25.7635 76.5865 26.3978 76.7806 27.0043C77.0374 27.8115 77.3344 28.6053 77.6706 29.3828C77.8709 29.7914 78.1155 30.177 78.4 30.5323C78.7753 31.045 79.165 31.5451 79.5694 32.0328C79.8628 32.3836 79.9302 32.3518 80.3385 32.124C80.4378 32.0728 80.5184 31.9916 80.569 31.8919C80.6194 31.7923 80.6373 31.6793 80.6199 31.569C80.5961 31.0834 80.5446 30.5997 80.5208 30.1141C80.4969 29.6285 80.5069 29.1964 80.4792 28.7386C80.451 28.5324 80.4113 28.3279 80.3603 28.1261C80.2552 27.5316 80.1799 26.917 80.045 26.3225C79.8944 25.6565 79.6923 25.0024 79.5099 24.3404C79.4854 24.2776 79.4562 24.2167 79.4228 24.1581C79.1621 23.6424 78.9291 23.1131 78.725 22.5724C78.4734 21.8035 77.9619 21.2226 77.4566 20.63C77.2306 20.3644 76.963 20.1325 76.741 19.863C76.4575 19.522 76.2198 19.1435 75.9304 18.8086C75.3358 18.1207 74.7154 17.4667 74.1466 16.7691C73.7958 16.3548 73.5222 15.8751 73.2011 15.4411C73.0148 15.1794 72.8047 14.9416 72.6065 14.6819C72.406 14.4386 72.2898 14.1367 72.2755 13.8217C72.2527 13.6901 72.2092 13.5631 72.1467 13.4451C71.8058 12.5235 71.8672 11.5662 71.8929 10.6109C71.9208 9.51073 72.2041 8.46026 72.4658 7.40383C72.6977 6.46442 72.9316 5.52693 73.1793 4.59133C73.2529 4.428 73.3349 4.26859 73.425 4.11371C73.5618 3.77085 73.6828 3.42193 73.7997 3.07312C73.9918 2.51157 74.3871 2.04217 74.9077 1.75705C75.1593 1.60645 75.3337 1.33086 75.5756 1.1624C76.19 0.712523 76.7648 0.218951 77.5577 0.0385937C77.6967 -0.0104539 77.848 -0.0128349 77.9886 0.0319271C78.1292 0.0765699 78.2513 0.165974 78.3366 0.286331C78.624 0.633236 78.8797 1.00788 79.1572 1.36264C79.286 1.52716 79.4604 1.6599 79.5713 1.8324C79.8628 2.28431 80.1303 2.75205 80.4098 3.21978C80.4236 3.24359 80.4455 3.26538 80.4593 3.28919L81.054 4.37729C81.1172 4.50371 81.188 4.62609 81.266 4.74395C81.5059 5.073 81.7813 5.37823 81.9954 5.72311C82.2828 6.18692 82.5346 6.67455 82.7883 7.15812C83.0419 7.64169 83.2798 8.14907 83.5394 8.64657C83.629 8.78014 83.7349 8.90205 83.8546 9.00931C83.9487 9.09455 84.0071 9.2124 84.0177 9.33895C84.0284 9.4655 83.9906 9.59133 83.9121 9.69121C83.6306 10.0598 83.3055 10.3948 82.9984 10.7436C82.9487 10.7991 82.8675 10.8387 82.8378 10.9022C82.5683 11.4849 82.0946 11.8793 81.6049 12.2599C81.1154 12.6404 80.164 12.3332 80.059 11.699C79.9084 10.7872 79.4524 10.0301 78.9728 9.26895C78.7409 8.90228 78.5763 8.49002 78.3783 8.09954C78.2553 7.85573 78.1344 7.61205 77.9818 7.38014C77.6488 6.83895 77.304 6.30585 76.963 5.77062C76.9475 5.7499 76.9288 5.73181 76.9075 5.71717C76.8775 5.74943 76.8528 5.78621 76.8342 5.82621C76.6835 6.288 76.5567 6.75967 76.3862 7.21359C76.0691 8.09562 76.1346 9.04704 76.0612 9.81204Z" fill="currentColor"/>
<path d="M142.897 1.89797C142.929 2.59368 142.977 3.28535 142.986 3.98309C142.986 4.51619 142.967 5.05131 142.927 5.58452C142.891 6.05821 142.802 6.52797 142.77 7.00166C142.723 7.67357 142.695 8.34749 142.681 9.02142C142.669 9.61594 142.715 10.2106 142.681 10.8052C142.63 11.9767 142.523 13.1461 142.483 14.3174C142.461 15.0904 142.537 15.8634 142.541 16.6364C142.541 17.455 142.525 18.2756 142.507 19.0942C142.495 19.7046 142.471 20.3131 142.455 20.9215C142.437 21.6569 142.402 22.3923 142.412 23.1276C142.43 24.515 142.483 25.9183 142.501 27.3156C142.501 27.9638 142.459 28.6139 142.451 29.2639C142.451 29.4919 142.521 29.7218 142.511 29.9477C142.481 30.6315 142.418 31.3134 142.388 31.9973C142.364 32.5303 142.372 33.0636 142.362 33.5987C142.362 33.7394 142.315 33.8821 142.324 34.0208C142.352 34.3677 142.39 34.7146 142.443 35.0595C142.468 35.189 142.44 35.323 142.365 35.4319C142.291 35.5407 142.177 35.6157 142.047 35.6402C141.522 35.8048 140.988 35.9371 140.448 36.0367C140.165 36.0525 139.881 36.0379 139.601 35.993C139.375 35.9537 139.144 35.9457 138.915 35.9693C138.545 36.0564 138.224 35.8999 137.885 35.8404C137.609 35.7908 137.548 35.5133 137.615 35.2458C137.696 34.8535 137.752 34.4562 137.782 34.0565C137.811 33.785 137.821 33.5095 137.831 33.2359C137.851 32.7352 137.868 32.2324 137.883 31.7276C137.899 31.0313 137.912 30.3356 137.924 29.6406C137.924 29.1688 137.924 28.6951 137.938 28.2234C137.95 27.5951 137.982 26.9688 137.984 26.3405C137.984 25.6646 137.952 24.9887 137.954 24.3108C137.954 22.8799 137.964 21.4488 137.984 20.0177C137.996 18.999 138.037 17.9821 138.041 16.9634C138.041 16.567 137.968 16.1706 137.946 15.7742C137.932 15.5101 137.932 15.2455 137.946 14.9814C137.978 14.3155 138.025 13.6475 138.049 12.9815C138.069 12.4582 138.065 11.933 138.073 11.4077C138.073 11.2571 138.087 11.1065 138.091 10.9558C138.091 10.3969 138.115 9.83797 138.113 9.27702C138.113 8.91631 138.049 8.55166 138.071 8.19285C138.107 7.62404 138.2 7.05714 138.249 6.48833C138.279 6.13952 138.273 5.78666 138.281 5.43583C138.301 4.76202 138.343 4.09011 138.327 3.41821C138.306 3.03987 138.247 2.66464 138.15 2.29833C138.097 2.06249 137.952 1.84642 137.903 1.61059C137.885 1.53321 137.996 1.39047 138.083 1.33499C138.227 1.26071 138.376 1.19904 138.531 1.15071C138.66 1.0844 138.792 1.02547 138.927 0.974281C139.146 0.904877 139.371 0.857731 139.599 0.833564C139.996 0.803802 140.392 0.805828 140.788 0.797852C140.855 0.800471 140.921 0.809163 140.987 0.823687C141.127 0.851425 141.28 0.936662 141.405 0.904877C141.91 0.776067 142.265 1.05749 142.606 1.33309C142.755 1.4919 142.881 1.67154 142.979 1.86618L142.897 1.89797Z" fill="currentColor"/>
<path d="M69.6532 7.39776C69.6135 8.05776 69.56 8.86646 69.5204 9.67515C69.5025 10.0715 69.5204 10.4679 69.5204 10.8505C69.5204 11.1517 69.5481 11.445 69.5481 11.7543C69.5481 12.7829 69.5481 13.8116 69.5481 14.8403C69.5481 15.7085 69.5659 16.5745 69.5897 17.4428C69.6373 19.2523 69.7126 21.0619 69.7443 22.8735C69.7661 24.1043 69.7443 25.3351 69.7186 26.5661C69.6908 28.0962 69.6353 29.6243 69.6095 31.1525C69.5917 32.1753 69.5977 33.196 69.6095 34.2187C69.6377 34.4169 69.6821 34.6125 69.7423 34.8034C69.7767 34.9773 69.7972 35.1536 69.8038 35.3306C69.8038 35.3723 69.7324 35.4496 69.6829 35.4575C69.0288 35.5724 68.4342 35.8876 67.7484 35.9332C67.3817 35.9569 66.9932 35.9035 66.6246 36.0303C66.4931 36.0596 66.3561 36.0526 66.2282 36.0105C65.8754 35.9253 65.5305 35.8123 65.1777 35.727C64.9676 35.6755 64.8824 35.5566 64.922 35.3565C64.9967 35.1111 65.0536 34.8607 65.0925 34.6072C65.1341 33.7132 65.142 32.8234 65.1658 31.9216C65.1837 31.2715 65.2134 30.6232 65.2173 29.9732C65.2173 29.5372 65.1856 29.1011 65.1817 28.665C65.1817 28.3222 65.1975 27.9792 65.1995 27.6343C65.1995 26.5185 65.1995 25.4006 65.2134 24.2847C65.2134 23.5811 65.2827 22.8755 65.2728 22.1718C65.2728 21.3632 65.2055 20.5546 65.1678 19.7438C65.1678 19.5635 65.142 19.3811 65.15 19.2007C65.2027 18.5392 65.1754 17.8737 65.0687 17.2187C65.024 16.7947 65.02 16.3672 65.0568 15.9423C65.0562 15.7537 65.0654 15.5651 65.0845 15.3774C65.1654 14.9143 65.221 14.4472 65.251 13.9781C65.251 13.3478 65.1678 12.7195 65.1301 12.0892C65.1047 11.8045 65.0981 11.5185 65.1103 11.233C65.1718 10.3411 65.3085 9.44919 65.257 8.55717C65.2391 8.28169 65.3799 8.00026 65.3898 7.71883C65.3937 7.37086 65.3719 7.023 65.3244 6.67824C65.2867 6.34919 65.1916 6.02419 65.1757 5.68717C65.2026 5.5124 65.2575 5.34312 65.3382 5.18574C65.385 5.06371 65.4175 4.93669 65.4354 4.80717C65.4684 4.48788 65.4737 4.16621 65.4512 3.84586C65.3975 3.54252 65.3186 3.24419 65.2154 2.95395C65.1579 2.75574 65.0826 2.56943 65.0172 2.37919C64.9943 2.31657 64.9643 2.25669 64.928 2.20086C64.8447 2.07396 64.6584 1.90943 64.6901 1.83217C64.815 1.53086 64.9101 1.21372 65.2332 1.01157C65.7287 0.698478 66.2658 0.680618 66.805 0.714309C67.3441 0.747999 67.8416 0.849075 68.3569 0.930384C68.4551 0.961098 68.5496 1.003 68.6383 1.05514C68.7626 1.1249 68.8961 1.17705 69.0348 1.20979C69.4946 1.26729 69.6135 1.54669 69.6849 1.98681C69.782 2.58133 69.4649 3.08872 69.4867 3.65955C69.5085 4.23038 69.4212 4.78538 69.447 5.34431C69.4668 5.97657 69.5679 6.60883 69.6532 7.39776Z" fill="currentColor"/>
</svg>
