<svg width="85" height="26" viewBox="0 0 85 26" fill="none" xmlns="http://www.w3.org/2000/svg">
<path fill-rule="evenodd" clip-rule="evenodd" d="M8.15775 0.290306C5.40061 0.859838 2.54909 2.89942 1.2346 5.2423C-1.02819 9.27461 -0.104774 14.5904 3.3839 17.6136C8.24658 21.8275 16.0414 20.8406 19.5287 15.5697C21.5752 12.4763 21.5668 7.78241 19.509 4.70706C17.1018 1.10946 12.6251 -0.632576 8.15775 0.290306ZM30.3767 0.296695C27.6616 0.876451 25.2844 2.63042 24.1962 4.857L23.6033 6.07019L23.5366 13.1521L23.47 20.234H25.3688H27.2676L27.2689 13.8975C27.2696 10.3099 27.3669 7.22693 27.4932 6.79052C28.1148 4.64444 30.0214 3.40783 32.7088 3.40783C35.5545 3.40783 37.2499 4.35051 38.0727 6.39052C38.4014 7.20499 38.4716 8.31126 38.5435 13.791L38.6279 20.234H40.5172H42.4064L42.3165 13.3651C42.2161 5.70406 42.177 5.47382 40.6418 3.51432C38.4543 0.72182 34.374 -0.557178 30.3767 0.296695ZM52.8069 0.232372C51.0067 0.567191 48.7413 1.807 47.4101 3.1861C45.4494 5.21717 44.6032 7.30254 44.5979 10.117C44.5859 16.5737 50.5541 21.3019 57.0711 19.9986C59.7469 19.4634 62.7306 17.522 63.8696 15.5748L64.3835 14.6962H62.3928C60.4858 14.6962 60.3539 14.7276 59.2466 15.4421C55.5594 17.8219 50.9832 16.8804 49.1574 13.367C48.1057 11.3425 47.4516 11.5014 56.8341 11.5014H65.0807L64.9738 9.37152C64.8779 7.46122 64.7837 7.08039 64.06 5.67573C61.9495 1.58038 57.3982 -0.621075 52.8069 0.232372ZM64.8759 0.310111C64.9441 0.480715 66.8049 4.72367 69.0108 9.73871L73.0218 18.857L71.4861 22.4286L69.9505 26L71.9729 25.9391L73.9952 25.8782L79.4933 13.0988C82.5171 6.07019 84.9951 0.247493 85 0.159742C85.0047 0.0719903 84.1263 0 83.0477 0H81.0869L78.131 6.92214C76.5052 10.7293 75.1045 13.8443 75.0183 13.8443C74.9322 13.8443 73.5302 10.7293 71.9025 6.92214L68.9431 0H66.8475C65.1038 0 64.7726 0.052181 64.8759 0.310111ZM13.3518 4.11026C17.6462 5.99564 18.7155 11.255 15.5151 14.7508C13.9301 16.4822 10.9264 17.2248 8.47133 16.4926C6.69157 15.9616 4.65775 14.0466 4.10588 12.3821C2.23507 6.73983 7.86638 1.70178 13.3518 4.11026ZM57.4353 4.05254C59.0645 4.72474 61.0239 6.92747 61.0239 8.08677C61.0239 8.23267 58.9321 8.30657 54.8056 8.30657C49.8657 8.30657 48.5874 8.24992 48.5874 8.03096C48.5874 7.87932 48.912 7.24014 49.3091 6.61075C51.1047 3.7633 54.298 2.75799 57.4353 4.05254Z" fill="currentColor"/>
</svg>
