<svg width="143" height="43" viewBox="0 0 143 43" fill="none" xmlns="http://www.w3.org/2000/svg">
<path d="M16.4745 42.8157L14.4256 42.7704L15.6199 39.293C17.0897 35.0133 18.2579 31.6693 18.5836 30.8093C18.998 29.7147 19.4623 29.349 21.4664 28.5386C22.8743 27.9692 23.4361 27.6225 24.1893 26.8581C24.742 26.2971 24.9334 26.027 25.2936 25.2997C26.2346 23.3996 26.5272 21.0421 26.1019 18.7863C25.7565 16.9546 24.9643 15.5034 23.999 14.9343C23.4509 14.6111 22.4797 14.5656 21.6325 14.8235C20.3606 15.2105 19.0609 16.0222 17.9394 17.1299C15.8728 19.1712 14.7597 21.7746 15.0678 23.8468C15.1907 24.6735 15.3515 25.1569 15.9728 26.5681C16.5755 27.9368 16.722 28.5557 16.5902 29.1764C16.48 29.6952 15.2682 32.3844 11.4651 40.5499L10.4309 42.7704L7.68927 42.7698C5.08148 42.7693 4.91498 42.7597 4.27795 42.5768C2.14959 41.9658 0.493554 40.158 0.0745271 37.9884C0.000996988 37.6077 -0.0146381 34.7718 0.0124047 26.7183C0.0479927 16.1149 0.051057 15.9476 0.222855 15.3165C0.517692 14.2333 1.13364 13.1734 1.87789 12.4686C2.05462 12.3011 5.42242 9.62703 9.3619 6.52603C17.1093 0.427572 17.1097 0.427292 18.5158 0.117101C19.86 -0.17942 21.5531 0.100145 22.7069 0.809084C23.5326 1.31642 37.2679 12.3715 37.8043 12.9605C38.3407 13.5495 38.7743 14.3219 39.0629 15.2028C39.2471 15.7651 39.2562 15.9162 39.2811 18.8478C39.2954 20.5299 39.2755 25.5449 39.2371 29.9922L39.1671 38.0781L38.9549 38.7205C38.3281 40.6178 37.0072 41.9517 35.0559 42.6576L34.5146 42.8535L26.519 42.857C22.1214 42.8591 17.6014 42.8404 16.4745 42.8155L16.4745 42.8157Z" fill="currentColor"/>
<path d="M48.179 31.7139V30.6539H49.019C49.219 30.6539 49.3924 30.6272 49.539 30.5739C49.699 30.5072 49.819 30.3805 49.899 30.1939C49.9924 30.0072 50.039 29.7272 50.039 29.3539V19.7139C50.039 19.3539 49.9924 19.0872 49.899 18.9139C49.8057 18.7405 49.679 18.6272 49.519 18.5739C49.3724 18.5205 49.2057 18.4939 49.019 18.4939H48.179V17.4339H54.319C56.1724 17.4339 57.5457 17.8139 58.439 18.5739C59.3324 19.3339 59.779 20.3672 59.779 21.6739C59.779 22.2739 59.6724 22.8472 59.459 23.3939C59.2457 23.9405 58.9057 24.4339 58.439 24.8739C57.9857 25.3005 57.379 25.6405 56.619 25.8939C55.8724 26.1339 54.959 26.2539 53.879 26.2539H53.199V29.4539C53.199 29.8005 53.2457 30.0605 53.339 30.2339C53.4457 30.4072 53.579 30.5205 53.739 30.5739C53.899 30.6272 54.0724 30.6539 54.259 30.6539H55.479V31.7139H48.179ZM53.679 25.0939C54.1724 25.0939 54.5924 25.0339 54.939 24.9139C55.2857 24.7805 55.5657 24.5872 55.779 24.3339C56.0057 24.0672 56.1657 23.7205 56.259 23.2939C56.3657 22.8672 56.419 22.3539 56.419 21.7539C56.419 21.0339 56.339 20.4472 56.179 19.9939C56.019 19.5272 55.759 19.1805 55.399 18.9539C55.0524 18.7272 54.579 18.6139 53.979 18.6139H53.199V25.0939H53.679ZM64.4129 31.9139C63.8263 31.9139 63.2929 31.8005 62.8129 31.5739C62.3463 31.3339 61.9729 30.9739 61.6929 30.4939C61.4129 30.0005 61.2729 29.3872 61.2729 28.6539C61.2729 27.5739 61.6463 26.7739 62.3929 26.2539C63.1396 25.7339 64.2596 25.4472 65.7529 25.3939L67.3929 25.3339V24.2339C67.3929 23.7805 67.3663 23.3872 67.3129 23.0539C67.2596 22.7072 67.1463 22.4405 66.9729 22.2539C66.7996 22.0539 66.5263 21.9539 66.1529 21.9539C65.8196 21.9539 65.5529 22.0472 65.3529 22.2339C65.1529 22.4205 65.0129 22.6805 64.9329 23.0139C64.8529 23.3339 64.8129 23.7005 64.8129 24.1139C63.9196 24.1139 63.2463 24.0139 62.7929 23.8139C62.3396 23.6139 62.1129 23.2672 62.1129 22.7739C62.1129 22.2805 62.2996 21.8872 62.6729 21.5939C63.0463 21.3005 63.5463 21.0872 64.1729 20.9539C64.7996 20.8072 65.4863 20.7339 66.2329 20.7339C67.6329 20.7339 68.6796 20.9872 69.3729 21.4939C70.0796 22.0005 70.4329 22.8805 70.4329 24.1339V29.2339C70.4329 29.5939 70.4663 29.8805 70.5329 30.0939C70.6129 30.2939 70.7396 30.4405 70.9129 30.5339C71.0996 30.6139 71.3396 30.6539 71.6329 30.6539H71.7129V31.7139H67.9929L67.5729 30.3339H67.3929C67.0996 30.6939 66.8196 30.9939 66.5529 31.2339C66.2996 31.4605 66.0063 31.6272 65.6729 31.7339C65.3396 31.8539 64.9196 31.9139 64.4129 31.9139ZM65.5129 30.4539C65.8996 30.4539 66.2329 30.3539 66.5129 30.1539C66.7929 29.9405 67.0063 29.6405 67.1529 29.2539C67.3129 28.8672 67.3929 28.4139 67.3929 27.8939V26.3939L66.4929 26.4539C65.9596 26.4805 65.5396 26.5872 65.2329 26.7739C64.9263 26.9472 64.7063 27.2005 64.5729 27.5339C64.4396 27.8539 64.3729 28.2539 64.3729 28.7339C64.3729 29.1072 64.4129 29.4272 64.4929 29.6939C64.5729 29.9472 64.6996 30.1405 64.8729 30.2739C65.0463 30.3939 65.2596 30.4539 65.5129 30.4539ZM72.6856 31.7139V30.6539H72.9256C73.1256 30.6539 73.3322 30.6272 73.5456 30.5739C73.7722 30.5072 73.9589 30.3805 74.1056 30.1939C74.2656 30.0072 74.3456 29.7272 74.3456 29.3539V18.7939C74.3456 18.4339 74.2656 18.1672 74.1056 17.9939C73.9456 17.8205 73.7522 17.7072 73.5256 17.6539C73.3122 17.6005 73.1122 17.5739 72.9256 17.5739H72.6856V16.5139H77.3856V29.3539C77.3856 29.7272 77.4589 30.0072 77.6056 30.1939C77.7656 30.3805 77.9589 30.5072 78.1856 30.5739C78.4122 30.6272 78.6189 30.6539 78.8056 30.6539H79.0456V31.7139H72.6856ZM83.4168 31.9139C82.8302 31.9139 82.2968 31.8005 81.8168 31.5739C81.3502 31.3339 80.9768 30.9739 80.6968 30.4939C80.4168 30.0005 80.2768 29.3872 80.2768 28.6539C80.2768 27.5739 80.6502 26.7739 81.3968 26.2539C82.1435 25.7339 83.2635 25.4472 84.7568 25.3939L86.3968 25.3339V24.2339C86.3968 23.7805 86.3702 23.3872 86.3168 23.0539C86.2635 22.7072 86.1502 22.4405 85.9768 22.2539C85.8035 22.0539 85.5302 21.9539 85.1568 21.9539C84.8235 21.9539 84.5568 22.0472 84.3568 22.2339C84.1568 22.4205 84.0168 22.6805 83.9368 23.0139C83.8568 23.3339 83.8168 23.7005 83.8168 24.1139C82.9235 24.1139 82.2502 24.0139 81.7968 23.8139C81.3435 23.6139 81.1168 23.2672 81.1168 22.7739C81.1168 22.2805 81.3035 21.8872 81.6768 21.5939C82.0502 21.3005 82.5502 21.0872 83.1768 20.9539C83.8035 20.8072 84.4902 20.7339 85.2368 20.7339C86.6368 20.7339 87.6835 20.9872 88.3768 21.4939C89.0835 22.0005 89.4368 22.8805 89.4368 24.1339V29.2339C89.4368 29.5939 89.4702 29.8805 89.5368 30.0939C89.6168 30.2939 89.7435 30.4405 89.9168 30.5339C90.1035 30.6139 90.3435 30.6539 90.6368 30.6539H90.7168V31.7139H86.9968L86.5768 30.3339H86.3968C86.1035 30.6939 85.8235 30.9939 85.5568 31.2339C85.3035 31.4605 85.0102 31.6272 84.6768 31.7339C84.3435 31.8539 83.9235 31.9139 83.4168 31.9139ZM84.5168 30.4539C84.9035 30.4539 85.2368 30.3539 85.5168 30.1539C85.7968 29.9405 86.0102 29.6405 86.1568 29.2539C86.3168 28.8672 86.3968 28.4139 86.3968 27.8939V26.3939L85.4968 26.4539C84.9635 26.4805 84.5435 26.5872 84.2368 26.7739C83.9302 26.9472 83.7102 27.2005 83.5768 27.5339C83.4435 27.8539 83.3768 28.2539 83.3768 28.7339C83.3768 29.1072 83.4168 29.4272 83.4968 29.6939C83.5768 29.9472 83.7035 30.1405 83.8768 30.2739C84.0502 30.3939 84.2635 30.4539 84.5168 30.4539ZM96.3495 31.9139C95.4828 31.9139 94.7428 31.7205 94.1295 31.3339C93.5162 30.9472 93.0495 30.3472 92.7295 29.5339C92.4228 28.7072 92.2695 27.6539 92.2695 26.3739C92.2695 25.0805 92.4228 24.0205 92.7295 23.1939C93.0495 22.3672 93.5095 21.7539 94.1095 21.3539C94.7228 20.9539 95.4562 20.7539 96.3095 20.7539C97.0562 20.7539 97.6695 20.9072 98.1495 21.2139C98.6295 21.5072 99.0095 21.8872 99.2895 22.3539H99.4295C99.4028 22.1005 99.3762 21.8272 99.3495 21.5339C99.3228 21.2405 99.3028 20.9539 99.2895 20.6739C99.2762 20.3805 99.2695 20.1272 99.2695 19.9139V18.8139C99.2695 18.4405 99.1962 18.1672 99.0495 17.9939C98.9028 17.8205 98.7028 17.7072 98.4495 17.6539C98.2095 17.6005 97.9428 17.5739 97.6495 17.5739H97.4895V16.5139H102.309V29.2539C102.309 29.6539 102.383 29.9539 102.529 30.1539C102.689 30.3539 102.896 30.4872 103.149 30.5539C103.403 30.6205 103.676 30.6539 103.969 30.6539H104.049V31.7139H100.169L99.6095 30.1539H99.4295C99.1362 30.6872 98.7428 31.1139 98.2495 31.4339C97.7695 31.7539 97.1362 31.9139 96.3495 31.9139ZM97.2095 30.4139C97.9962 30.4139 98.5362 30.0805 98.8295 29.4139C99.1228 28.7339 99.2695 27.7072 99.2695 26.3339C99.2695 25.4539 99.2028 24.7072 99.0695 24.0939C98.9495 23.4805 98.7428 23.0205 98.4495 22.7139C98.1562 22.3939 97.7428 22.2339 97.2095 22.2339C96.7695 22.2339 96.4095 22.3939 96.1295 22.7139C95.8628 23.0339 95.6628 23.5005 95.5295 24.1139C95.4095 24.7139 95.3495 25.4605 95.3495 26.3539C95.3495 27.2605 95.4095 28.0139 95.5295 28.6139C95.6628 29.2139 95.8628 29.6672 96.1295 29.9739C96.4095 30.2672 96.7695 30.4139 97.2095 30.4139ZM108.378 31.9139C107.791 31.9139 107.258 31.8005 106.778 31.5739C106.311 31.3339 105.938 30.9739 105.658 30.4939C105.378 30.0005 105.238 29.3872 105.238 28.6539C105.238 27.5739 105.611 26.7739 106.358 26.2539C107.104 25.7339 108.224 25.4472 109.718 25.3939L111.358 25.3339V24.2339C111.358 23.7805 111.331 23.3872 111.278 23.0539C111.224 22.7072 111.111 22.4405 110.938 22.2539C110.764 22.0539 110.491 21.9539 110.118 21.9539C109.784 21.9539 109.518 22.0472 109.318 22.2339C109.118 22.4205 108.978 22.6805 108.898 23.0139C108.818 23.3339 108.778 23.7005 108.778 24.1139C107.884 24.1139 107.211 24.0139 106.758 23.8139C106.304 23.6139 106.078 23.2672 106.078 22.7739C106.078 22.2805 106.264 21.8872 106.638 21.5939C107.011 21.3005 107.511 21.0872 108.138 20.9539C108.764 20.8072 109.451 20.7339 110.198 20.7339C111.598 20.7339 112.644 20.9872 113.338 21.4939C114.044 22.0005 114.398 22.8805 114.398 24.1339V29.2339C114.398 29.5939 114.431 29.8805 114.498 30.0939C114.578 30.2939 114.704 30.4405 114.878 30.5339C115.064 30.6139 115.304 30.6539 115.598 30.6539H115.678V31.7139H111.958L111.538 30.3339H111.358C111.064 30.6939 110.784 30.9939 110.518 31.2339C110.264 31.4605 109.971 31.6272 109.638 31.7339C109.304 31.8539 108.884 31.9139 108.378 31.9139ZM109.478 30.4539C109.864 30.4539 110.198 30.3539 110.478 30.1539C110.758 29.9405 110.971 29.6405 111.118 29.2539C111.278 28.8672 111.358 28.4139 111.358 27.8939V26.3939L110.458 26.4539C109.924 26.4805 109.504 26.5872 109.198 26.7739C108.891 26.9472 108.671 27.2005 108.538 27.5339C108.404 27.8539 108.338 28.2539 108.338 28.7339C108.338 29.1072 108.378 29.4272 108.458 29.6939C108.538 29.9472 108.664 30.1405 108.838 30.2739C109.011 30.3939 109.224 30.4539 109.478 30.4539ZM116.71 31.7139V30.6539H116.77C117.077 30.6539 117.344 30.6205 117.57 30.5539C117.797 30.4872 117.977 30.3539 118.11 30.1539C118.244 29.9405 118.31 29.6272 118.31 29.2139V23.4139C118.31 23.0139 118.25 22.7205 118.13 22.5339C118.01 22.3339 117.844 22.2072 117.63 22.1539C117.417 22.0872 117.164 22.0539 116.87 22.0539H116.81V20.9939H120.85L121.25 22.5539H121.35C121.524 22.1539 121.724 21.8205 121.95 21.5539C122.177 21.2872 122.464 21.0872 122.81 20.9539C123.17 20.8205 123.624 20.7539 124.17 20.7539C124.957 20.7539 125.537 20.8939 125.91 21.1739C126.284 21.4539 126.47 21.8539 126.47 22.3739C126.47 22.9872 126.244 23.4672 125.79 23.8139C125.35 24.1472 124.73 24.3139 123.93 24.3139C123.93 23.9405 123.897 23.6339 123.83 23.3939C123.777 23.1539 123.677 22.9739 123.53 22.8539C123.397 22.7205 123.204 22.6539 122.95 22.6539C122.604 22.6539 122.324 22.7739 122.11 23.0139C121.897 23.2539 121.737 23.5539 121.63 23.9139C121.524 24.2605 121.45 24.6139 121.41 24.9739C121.37 25.3339 121.35 25.6272 121.35 25.8539V29.3139C121.35 29.7005 121.41 29.9939 121.53 30.1939C121.65 30.3805 121.817 30.5072 122.03 30.5739C122.244 30.6272 122.484 30.6539 122.75 30.6539H123.39V31.7139H116.71Z" fill="currentColor"/>
</svg>
