<svg width="135" height="34" viewBox="0 0 135 34" fill="none" xmlns="http://www.w3.org/2000/svg">
<path d="M10.0147 0.64867C10.3586 0.587303 10.7487 0.525936 10.8744 0.512299C11 0.498662 11.8795 0.491843 12.8252 0.50548C14.0552 0.519117 14.7231 0.560029 15.1728 0.635033C15.5167 0.6964 16.0391 0.812316 16.3301 0.88732C16.621 0.969143 17.084 1.10551 17.3551 1.20097C17.6262 1.29643 18.2082 1.54872 18.6446 1.76692C19.0811 1.98511 19.6432 2.3124 19.9011 2.48968C20.159 2.66697 20.569 2.98744 20.8269 3.19881C21.0848 3.41701 21.5147 3.83294 21.7858 4.12614C22.0569 4.42616 22.4206 4.84891 22.586 5.07392C22.7579 5.29893 23.0687 5.77623 23.2737 6.1308C23.4853 6.48536 23.7829 7.07176 23.9416 7.42633C24.0937 7.78089 24.3252 8.42866 24.4574 8.85822C24.5897 9.2878 24.7484 9.93556 24.8211 10.2901C24.8873 10.6447 24.9865 11.2311 25.0328 11.5857C25.0923 12.0016 25.1253 12.888 25.1253 14.0403C25.1187 15.4381 25.0923 16.0314 24.9997 16.6655C24.9336 17.1155 24.7815 17.886 24.6624 18.3701C24.5434 18.8542 24.3119 19.5906 24.1532 20.0066C23.9945 20.4225 23.7102 21.0498 23.5184 21.4044C23.3266 21.759 22.9827 22.3181 22.3148 23.2454L22.6587 23.6477C22.8505 23.8659 23.4523 24.5273 24.9931 26.1842L23.611 27.5616C22.8505 28.3184 22.1627 28.9798 22.09 29.0344C21.9577 29.123 21.8784 29.048 19.0414 26.0274L18.4793 26.3001C18.1685 26.4501 17.6196 26.682 17.2559 26.8115C16.8922 26.9411 16.2507 27.1252 15.8341 27.2206C15.4175 27.3161 14.7893 27.432 14.4454 27.4797C14.1015 27.5206 13.2484 27.5616 12.5607 27.5616C11.7803 27.5616 11.0066 27.5206 10.5107 27.4525C10.0742 27.3911 9.34677 27.2411 8.89048 27.1252C8.43418 27.0093 7.81256 26.8115 7.50175 26.6888C7.19094 26.566 6.70158 26.3479 6.41061 26.191C6.11964 26.041 5.61705 25.7342 5.2864 25.5092C4.95575 25.291 4.43994 24.8819 4.13574 24.6023C3.82493 24.3227 3.36864 23.8523 3.11735 23.5522C2.86605 23.2522 2.4825 22.7272 2.26427 22.3931C2.04604 22.059 1.70217 21.4521 1.51039 21.043C1.312 20.6407 1.04087 19.9657 0.895385 19.5497C0.756513 19.127 0.564736 18.4247 0.465542 17.9951C0.37296 17.5655 0.253926 16.8155 0.19441 16.3246C0.134893 15.7995 0.0952148 14.8586 0.0952148 14.0062C0.0952148 13.1539 0.134893 12.213 0.19441 11.6879C0.253926 11.197 0.37296 10.4674 0.458929 10.0515C0.55151 9.63554 0.710222 9.02869 0.816029 8.68776C0.921837 8.34683 1.13345 7.78089 1.28555 7.42633C1.43104 7.07176 1.70878 6.51946 1.89394 6.19898C2.07911 5.87851 2.38992 5.40121 2.58169 5.14211C2.77347 4.883 3.08428 4.48071 3.28267 4.26251C3.47445 4.0375 3.87123 3.6352 4.16881 3.3761C4.45978 3.11017 4.94914 2.72151 5.25995 2.51014C5.56415 2.29876 6.06673 1.99193 6.37754 1.8351C6.68835 1.67146 7.19094 1.44644 7.50175 1.31689C7.81256 1.19416 8.36144 1.01687 8.72515 0.921413C9.08887 0.825953 9.67081 0.703219 10.0147 0.64867Z" fill="currentColor"/>
<path d="M125.861 5.18984C125.854 3.73066 125.874 2.51696 125.907 2.4965C125.94 2.46923 127.309 2.44877 131.958 2.44877V7.83544H135V11.5857H131.958L131.978 16.4473C131.991 21.2612 131.998 21.3089 132.143 21.7658C132.256 22.1272 132.348 22.2772 132.573 22.4817C132.732 22.6181 133.009 22.7817 133.188 22.8363C133.38 22.8977 133.796 22.9386 134.934 22.9386V26.9274L134.484 27.0024C134.239 27.0433 133.684 27.1183 133.248 27.1729C132.811 27.2274 131.978 27.2752 131.396 27.2752C130.735 27.2752 130.12 27.2343 129.756 27.1661C129.438 27.1115 128.995 27.0024 128.764 26.9206C128.539 26.8456 128.202 26.6956 128.023 26.5865C127.838 26.4774 127.534 26.2388 127.342 26.0478C127.124 25.8228 126.912 25.5228 126.767 25.2092C126.641 24.9364 126.463 24.4182 126.377 24.0636C126.291 23.7091 126.165 23.0613 126.106 22.6317C126.046 22.2022 125.973 21.1726 125.94 20.3475C125.907 19.5225 125.881 17.211 125.874 11.5857H124.254L124.313 11.872C124.346 12.0357 124.386 12.2948 124.413 12.4584C124.432 12.6221 124.439 12.7653 124.426 12.7857C124.413 12.7994 123.11 12.813 118.666 12.813L118.56 12.4584C118.501 12.2607 118.375 11.9811 118.276 11.8448C118.183 11.7084 117.998 11.5175 117.872 11.4152C117.747 11.3197 117.476 11.1765 117.277 11.1015C117.059 11.0197 116.675 10.9447 116.318 10.9243C115.974 10.9038 115.531 10.9174 115.26 10.9652C115.009 11.0129 114.652 11.1356 114.473 11.2311C114.262 11.3538 114.083 11.5243 113.957 11.722C113.858 11.8925 113.752 12.1516 113.733 12.3016C113.7 12.513 113.726 12.6493 113.845 12.9085C113.957 13.1471 114.11 13.3244 114.367 13.5085C114.566 13.6517 114.943 13.8631 115.194 13.9722C115.445 14.0812 116.477 14.4154 117.476 14.7154C118.474 15.0154 119.664 15.3768 120.121 15.5268C120.577 15.67 121.212 15.895 121.543 16.0177C121.873 16.1405 122.33 16.3382 122.568 16.4677C122.806 16.5905 123.196 16.8632 123.44 17.0746C123.692 17.2792 124.029 17.6405 124.194 17.8792C124.36 18.111 124.565 18.4588 124.651 18.6429C124.737 18.8338 124.856 19.1815 124.922 19.427C125.014 19.7679 125.041 20.1157 125.041 20.9271C125.041 21.7249 125.014 22.0999 124.922 22.4613C124.856 22.7272 124.657 23.259 124.472 23.6545C124.168 24.3023 124.075 24.4318 123.467 25.0523C123.03 25.4955 122.614 25.8433 122.27 26.0547C121.979 26.2319 121.476 26.491 121.146 26.6274C120.815 26.7638 120.266 26.9547 119.922 27.0433C119.579 27.132 118.983 27.2547 118.6 27.3229C118.077 27.4047 117.489 27.4388 116.219 27.4388C114.923 27.4388 114.361 27.4047 113.805 27.3161C113.409 27.2479 112.84 27.132 112.549 27.057C112.258 26.9752 111.841 26.8524 111.623 26.7774C111.405 26.7024 110.962 26.4979 110.631 26.3342C110.3 26.1637 109.904 25.9319 109.738 25.816C109.573 25.6933 109.289 25.4614 109.11 25.2978C108.925 25.1273 108.647 24.8341 108.495 24.6432C108.336 24.4591 108.072 24.0704 107.913 23.7909C107.748 23.5113 107.543 23.0272 107.457 22.7204C107.364 22.4067 107.278 22.1544 107.259 22.1544C107.239 22.1544 107.139 22.3454 107.04 22.584C106.934 22.8158 106.677 23.2795 106.458 23.6204C106.247 23.9545 105.83 24.4727 105.539 24.7796C105.242 25.0796 104.739 25.516 104.415 25.741C104.084 25.9728 103.641 26.2524 103.423 26.3683C103.205 26.4774 102.715 26.682 102.332 26.8183C101.948 26.9547 101.353 27.132 101.009 27.2002C100.665 27.2752 99.9313 27.3638 99.3891 27.4047C98.7146 27.4525 98.1458 27.4525 97.6036 27.4047C97.1671 27.3638 96.5587 27.2888 96.2479 27.2274C95.9371 27.1661 95.4345 27.0365 95.1237 26.9274C94.8129 26.8251 94.3103 26.607 93.9995 26.4501C93.6887 26.2865 93.2589 26.0342 93.0406 25.8774C92.8224 25.7274 92.4521 25.4273 92.214 25.2228C91.9759 25.0114 91.5791 24.5818 91.3345 24.2614C91.0898 23.9477 90.7724 23.4909 90.6335 23.2454C90.488 22.9999 90.2896 22.6045 90.1772 22.359C90.0714 22.1135 89.9061 21.6703 89.8135 21.3703C89.7143 21.0703 89.5754 20.5316 89.5027 20.177C89.4299 19.8225 89.3374 19.0724 89.2911 18.5065C89.2316 17.7224 89.2316 17.2382 89.2911 16.4268C89.3307 15.8473 89.4299 15.0631 89.5027 14.6881C89.5754 14.3131 89.7275 13.713 89.8399 13.3585C89.9524 13.0039 90.1838 12.4312 90.3491 12.097C90.5079 11.7629 90.7988 11.2515 90.9774 10.972C91.1625 10.6924 91.5395 10.2219 91.8172 9.92192C92.0884 9.62872 92.538 9.21279 92.8092 9.00142C93.0803 8.79004 93.6027 8.46275 93.9664 8.27183C94.3302 8.07409 94.8063 7.8559 95.0245 7.78089C95.2427 7.70589 95.5998 7.59679 95.8181 7.53542C96.0363 7.48087 96.5257 7.38541 96.9092 7.32405C97.2928 7.2695 98.0202 7.22177 98.5294 7.22177C99.0386 7.22177 99.766 7.2695 100.15 7.31723C100.533 7.37178 101.095 7.48087 101.406 7.5627C101.717 7.64452 102.193 7.80135 102.464 7.91726C102.735 8.02636 103.152 8.2241 103.39 8.36047C103.628 8.49002 104.012 8.74231 104.25 8.91959C104.488 9.09006 104.931 9.49235 105.242 9.81283C105.552 10.1333 105.969 10.6447 106.167 10.9379C106.366 11.2379 106.65 11.7425 106.802 12.063C106.961 12.3834 107.186 12.963 107.318 13.3585C107.444 13.754 107.609 14.3813 107.682 14.7563C107.755 15.1313 107.847 15.7586 107.887 16.1541C107.92 16.5496 107.953 17.3064 107.953 18.8133H95.4213L95.4676 19.4065C95.4874 19.7407 95.5602 20.2043 95.6197 20.4498C95.6792 20.6953 95.8181 21.0839 95.9239 21.3226C96.0297 21.5544 96.2545 21.8885 96.4265 22.0726C96.605 22.2499 96.9357 22.4954 97.1737 22.6113C97.4118 22.734 97.8152 22.8704 98.0665 22.9113C98.3244 22.959 98.7741 22.9727 99.0915 22.9522C99.4552 22.9317 99.8189 22.8499 100.117 22.7408C100.368 22.6454 100.698 22.4817 100.837 22.3794C100.976 22.2703 101.188 22.0658 101.307 21.9158C101.426 21.7658 101.585 21.5135 101.803 21.0635H113.177L113.217 21.3908C113.237 21.568 113.323 21.8681 113.402 22.0522C113.481 22.2431 113.653 22.5158 113.786 22.6658C113.911 22.8158 114.162 23.0204 114.341 23.1227C114.52 23.2181 114.844 23.3545 115.062 23.4227C115.359 23.5181 115.683 23.5522 116.351 23.5522C117.099 23.5522 117.317 23.525 117.707 23.4022C117.958 23.3136 118.309 23.1363 118.481 23.0068C118.699 22.8431 118.851 22.6522 118.963 22.4135C119.056 22.2158 119.129 21.9362 119.129 21.7999C119.129 21.6567 119.089 21.4589 119.036 21.3567C118.983 21.2476 118.858 21.0839 118.752 20.9885C118.653 20.8862 118.448 20.7294 118.302 20.6407C118.157 20.5452 117.846 20.3884 117.608 20.293C117.37 20.1975 116.57 19.9452 115.822 19.7338C115.075 19.5225 114.037 19.202 113.508 19.0179C112.979 18.8406 112.179 18.527 111.722 18.3224C111.266 18.1178 110.598 17.7769 110.234 17.5587C109.765 17.2723 109.421 16.9996 109.044 16.6041C108.674 16.2155 108.449 15.9154 108.297 15.595C108.184 15.3359 108.039 14.954 107.979 14.7426C107.926 14.5245 107.86 14.0267 107.84 13.6312C107.821 13.2153 107.834 12.6971 107.88 12.4039C107.926 12.1243 108.032 11.6607 108.125 11.3811C108.217 11.1015 108.403 10.672 108.548 10.4265C108.687 10.181 108.978 9.78555 109.19 9.54008C109.408 9.29461 109.805 8.94005 110.076 8.74913C110.347 8.55821 110.744 8.30592 110.962 8.19682C111.18 8.08091 111.583 7.90363 111.855 7.80817C112.126 7.70589 112.589 7.5627 112.88 7.49451C113.171 7.42633 113.693 7.33087 114.037 7.28314C114.387 7.23541 115.26 7.19449 116.021 7.20131C116.907 7.20131 117.654 7.24222 118.17 7.31723C118.606 7.3786 119.228 7.49451 119.559 7.57633C119.889 7.65134 120.451 7.83544 120.815 7.98545C121.179 8.13546 121.609 8.3332 121.774 8.43547C121.939 8.53093 122.191 8.7014 122.336 8.81731C122.482 8.92641 122.786 9.20597 123.427 9.84692V7.83544H125.874L125.861 5.18984Z" fill="currentColor"/>
<path d="M11.2743 6.59594C11.5123 6.53643 11.9288 6.4637 12.1999 6.43725C12.4709 6.40418 12.9799 6.39757 13.3237 6.41741C13.6675 6.43063 14.1765 6.49014 14.4476 6.54966C14.7186 6.60256 15.1549 6.7348 15.4061 6.83399C15.6574 6.93979 16.0805 7.17122 16.3317 7.34976C16.5829 7.52829 16.9663 7.86553 17.1712 8.09696C17.3828 8.32839 17.6869 8.74498 17.8522 9.01608C18.0174 9.28719 18.2554 9.80957 18.3877 10.1733C18.5133 10.5369 18.6785 11.1056 18.7446 11.4296C18.8174 11.7536 18.9033 12.3686 18.9496 12.7852C18.9959 13.248 19.0157 14.0283 18.9892 14.7689C18.9694 15.45 18.9099 16.2434 18.8504 16.5542C18.7909 16.865 18.6785 17.3543 18.5992 17.6453C18.5199 17.9362 18.4141 18.2867 18.2488 18.6768L17.0589 17.4205C16.4044 16.7262 15.8491 16.1575 15.8226 16.1575C15.7896 16.1575 15.1153 16.779 14.3153 17.5461C13.5154 18.3131 12.8609 18.9611 12.8609 19.0008C12.8609 19.0405 13.4097 19.6488 14.084 20.3564C14.7583 21.0639 15.2938 21.6722 15.2739 21.7119C15.2541 21.7516 15.0558 21.8309 14.831 21.9037C14.5996 21.9698 14.1302 22.0624 13.7865 22.1086C13.4097 22.1615 12.9072 22.1748 12.5304 22.1483C12.1866 22.1219 11.6644 22.0491 11.3735 21.983C11.0826 21.9103 10.6794 21.7846 10.481 21.6987C10.2827 21.6061 9.93893 21.4143 9.72077 21.2689C9.50261 21.1168 9.15885 20.8258 8.9473 20.6076C8.74236 20.396 8.45148 20.0456 8.30604 19.8274C8.15399 19.6092 7.916 19.1595 7.77056 18.8355C7.63173 18.5115 7.45324 18.0023 7.3739 17.7114C7.30118 17.4205 7.19541 16.9113 7.13591 16.5873C7.08303 16.2633 7.01692 15.4566 6.99708 14.8019C6.97725 14.0878 6.99047 13.2943 7.03675 12.8182C7.08303 12.3818 7.16236 11.7999 7.21524 11.5288C7.26813 11.2577 7.38713 10.7948 7.47968 10.5039C7.57223 10.2129 7.76395 9.73684 7.90278 9.44589C8.0416 9.15494 8.29943 8.72514 8.47792 8.48709C8.66303 8.24905 9.00018 7.88536 9.23157 7.67377C9.496 7.42911 9.87943 7.17784 10.2496 6.99269C10.5736 6.83399 11.0363 6.65546 11.2743 6.59594Z" fill="white"/>
<path d="M97.4341 12.1768C97.5862 12.0975 97.877 11.9851 98.0754 11.9189C98.3134 11.8396 98.6571 11.7999 99.067 11.7933C99.4372 11.7933 99.8603 11.833 100.092 11.8991C100.31 11.952 100.64 12.0776 100.819 12.1768C101.004 12.276 101.308 12.514 101.5 12.6992C101.711 12.9174 101.936 13.2348 102.075 13.5257C102.201 13.7902 102.353 14.2399 102.405 14.5176C102.458 14.8019 102.505 15.1524 102.505 15.5624H95.6293L95.669 15.3111C95.6888 15.1788 95.7616 14.8284 95.8343 14.5374C95.9004 14.2465 96.059 13.7969 96.1846 13.5456C96.3169 13.2745 96.5615 12.9306 96.7796 12.6992C96.9846 12.4942 97.2754 12.2562 97.4341 12.1768Z" fill="white"/>
<path d="M44.5784 6.39036V3.93664V1.48291L50.5929 1.51607L50.6261 6.39036H44.5784Z" fill="currentColor"/>
<path d="M64.1038 5.97257C64.1105 3.59179 64.1304 1.60891 64.1504 1.56249C64.1769 1.50281 64.8415 1.48291 70.1648 1.48291V26.5507H64.1171L64.0839 24.1567L63.7848 24.5678C63.6187 24.7933 63.2798 25.1713 63.0206 25.4167C62.768 25.6621 62.3028 26.0135 61.9905 26.2059C61.6781 26.3916 61.1597 26.6369 60.8274 26.743C60.5018 26.8491 59.9635 26.9751 59.6312 27.0216C59.2723 27.068 58.7008 27.0813 58.2023 27.0614C57.6374 27.0348 57.1589 26.9685 56.707 26.8491C56.3415 26.7563 55.7899 26.564 55.4776 26.4114C55.1652 26.2656 54.7332 26.0135 54.5139 25.8544C54.2946 25.7019 53.9424 25.4101 53.7231 25.2177C53.5104 25.0188 53.1449 24.6209 52.9189 24.3291C52.693 24.0373 52.4005 23.6195 52.2743 23.4007C52.1414 23.1818 51.9287 22.7773 51.8024 22.5054C51.6761 22.2335 51.4967 21.7693 51.4037 21.4775C51.3106 21.1857 51.191 20.7347 51.1312 20.4827C51.0714 20.2241 50.9783 19.6803 50.9252 19.2691C50.872 18.8646 50.8255 18.0356 50.8255 17.4321C50.8255 16.8287 50.8587 16.0461 50.8986 15.688C50.9318 15.3365 51.0448 14.6999 51.1378 14.2821C51.2309 13.8643 51.4103 13.2343 51.5366 12.8894C51.6695 12.5446 51.8689 12.0671 51.9885 11.8284C52.1081 11.5896 52.3939 11.1121 52.6265 10.7673C52.8591 10.4224 53.3177 9.86537 53.65 9.54042C53.9822 9.20883 54.4607 8.8043 54.7133 8.63188C54.9725 8.45945 55.3912 8.22734 55.6437 8.10797C55.9029 7.99523 56.3947 7.82281 56.7403 7.7366C57.1523 7.63049 57.6507 7.55754 58.1691 7.53765C58.6609 7.51112 59.2059 7.53102 59.598 7.57744C59.9436 7.62386 60.4686 7.7366 60.761 7.82944C61.0534 7.92229 61.4721 8.08808 61.6914 8.19419C61.9107 8.30692 62.2231 8.48598 62.3892 8.59872C62.5554 8.71146 62.8411 8.9303 63.0206 9.08283C63.2066 9.23536 63.519 9.57358 64.0839 10.2964L64.1038 5.97257Z" fill="currentColor"/>
<path d="M76.279 7.79628C76.5913 7.7167 76.9502 7.64375 77.0765 7.63049C77.2027 7.61723 77.6679 7.59733 78.1066 7.59733C78.5651 7.5907 79.1766 7.63049 79.5354 7.68355C79.881 7.74323 80.3927 7.8626 80.6652 7.95544C80.9377 8.04829 81.3564 8.22734 81.5956 8.35335C81.8349 8.48598 82.1805 8.70483 82.3599 8.84409C82.546 8.98336 82.8251 9.22873 82.9913 9.38789C83.1574 9.54705 83.4498 9.85874 83.9881 10.502V8.04829H89.7035L89.6836 17.2133C89.6637 23.7919 89.6371 26.5905 89.5773 27.1144C89.5307 27.5123 89.4443 28.1092 89.3712 28.4408C89.3048 28.7657 89.1586 29.2763 89.0456 29.5681C88.9393 29.8599 88.72 30.291 88.5671 30.5297C88.4142 30.7685 88.1551 31.12 87.9823 31.3189C87.8161 31.5179 87.4373 31.8693 87.1449 32.1014C86.8458 32.3402 86.3009 32.6784 85.8822 32.884C85.4834 33.0829 84.9119 33.315 84.6195 33.4079C84.3271 33.5007 83.8818 33.6267 83.6226 33.6798C83.3701 33.7395 82.845 33.8323 82.4596 33.8854C82.0542 33.9384 81.1836 33.9782 80.3861 33.9782C79.6218 33.9782 78.7113 33.9451 78.3591 33.9119C78.0002 33.8721 77.3955 33.7793 77.01 33.7063C76.6246 33.6267 76.073 33.4941 75.7805 33.4013C75.4881 33.3084 75.0561 33.1426 74.8169 33.0365C74.5776 32.9304 74.1922 32.7116 73.9529 32.5524C73.7137 32.3999 73.3349 32.0882 73.1089 31.8627C72.8763 31.6372 72.5374 31.2261 72.3579 30.9409C72.1719 30.6624 71.926 30.1915 71.8196 29.8997C71.7067 29.6079 71.5604 29.1172 71.4873 28.8055C71.4209 28.4938 71.3611 28.2219 71.3611 28.1887C71.3611 28.1622 72.7368 28.1423 77.4752 28.1423L77.5084 28.3081C77.5284 28.401 77.6148 28.5933 77.7078 28.7392C77.8009 28.8851 78.0002 29.0973 78.1597 29.2034C78.3126 29.3161 78.605 29.4687 78.8044 29.5482C79.0902 29.661 79.3693 29.6941 80.0671 29.7207C80.7516 29.7406 81.0839 29.7273 81.4627 29.6411C81.7352 29.5814 82.114 29.462 82.2934 29.3758C82.4795 29.2896 82.7454 29.1039 82.8916 28.958C83.0378 28.8121 83.2305 28.5469 83.3235 28.3678C83.4099 28.1887 83.5429 27.8174 83.6093 27.5455C83.709 27.1476 83.7422 26.7231 83.7688 25.4233C83.7888 24.4485 83.7755 23.8251 83.7422 23.8649C83.709 23.898 83.5163 24.1368 83.3103 24.3954C83.1109 24.6474 82.7786 24.9923 82.5859 25.1647C82.3865 25.3305 82.0808 25.5626 81.8947 25.6886C81.7153 25.8146 81.383 25.9937 81.1637 26.0931C80.9443 26.1992 80.5124 26.3518 80.2 26.438C79.8877 26.5308 79.2762 26.6369 78.8376 26.6834C78.2328 26.743 77.874 26.7497 77.3423 26.69C76.9569 26.6502 76.4052 26.5573 76.1128 26.4778C75.8204 26.4048 75.2954 26.2059 74.9498 26.0467C74.6042 25.8809 74.139 25.6156 73.9197 25.4565C73.7004 25.2973 73.2884 24.9392 73.0092 24.6474C72.7301 24.3623 72.3978 23.9975 72.2715 23.8317C72.1453 23.6659 71.906 23.3078 71.7399 23.0359C71.5737 22.764 71.3278 22.2865 71.1949 21.9748C71.062 21.6632 70.8826 21.1591 70.7962 20.8475C70.7031 20.5358 70.5702 19.9257 70.4905 19.488C70.3775 18.8381 70.3509 18.4269 70.3509 17.2663C70.3443 16.2517 70.3775 15.6349 70.4572 15.1442C70.517 14.7596 70.6167 14.2688 70.6699 14.05C70.7231 13.8311 70.8626 13.3669 70.9756 13.0221C71.0952 12.6772 71.3345 12.1069 71.5139 11.762C71.6867 11.4172 71.9725 10.9397 72.1453 10.701C72.3114 10.4622 72.7035 10.0046 73.0159 9.68632C73.3349 9.36136 73.84 8.9303 74.1523 8.72472C74.4647 8.51914 74.9432 8.25387 75.2156 8.14113C75.4881 8.02839 75.9666 7.86923 76.279 7.79628Z" fill="currentColor"/>
<path d="M25.8571 22.7043C25.7574 22.3263 25.7442 21.4244 25.7242 15.1575L25.6976 8.04829H31.752V13.5526C31.752 17.1271 31.7786 19.2956 31.8251 19.7333C31.865 20.1113 31.9713 20.6419 32.0577 20.9138C32.164 21.252 32.2903 21.504 32.4631 21.6963C32.6026 21.8555 32.8685 22.0611 33.0479 22.1473C33.234 22.2335 33.5929 22.333 33.8454 22.3595C34.1046 22.3926 34.5299 22.3926 34.8091 22.3595C35.1081 22.3263 35.467 22.2335 35.6996 22.1207C35.9388 22.008 36.2047 21.8157 36.3974 21.6101C36.5635 21.4244 36.7762 21.0995 36.8759 20.8806C36.9756 20.6618 37.1085 20.2705 37.175 20.0185C37.2879 19.5874 37.2946 19.1033 37.3345 8.04829L43.4154 8.08145L43.4486 26.5507H37.4674L37.4607 24.0638L37.2481 24.3291C37.1351 24.475 36.8427 24.7999 36.6034 25.0453C36.3642 25.2973 35.992 25.6355 35.7727 25.8013C35.5534 25.9671 35.1081 26.2324 34.7758 26.3916C34.4502 26.5507 33.9252 26.7364 33.6128 26.816C33.3005 26.8889 32.6957 26.9685 32.2504 26.995C31.8118 27.0149 31.1605 27.0017 30.7883 26.9553C30.4228 26.9155 29.8845 26.8226 29.5921 26.743C29.2997 26.6701 28.8212 26.491 28.5288 26.3451C28.2363 26.2059 27.8176 25.9406 27.5983 25.7682C27.379 25.5891 27.0733 25.2841 26.9205 25.0851C26.7676 24.8862 26.5417 24.5148 26.4154 24.2628C26.2825 24.0041 26.1296 23.646 26.0698 23.467C26.01 23.2813 25.9103 22.9431 25.8571 22.7043Z" fill="currentColor"/>
<path d="M44.5851 26.5441V17.2929V8.04166L50.5995 8.07481L50.6328 26.5441H44.5851Z" fill="currentColor"/>
<path d="M59.3222 12.6412C59.5609 12.5303 59.8859 12.4128 60.0517 12.3802C60.2175 12.3476 60.516 12.3215 60.7149 12.3149C60.9139 12.3149 61.2853 12.3541 61.544 12.4128C61.8026 12.465 62.1873 12.6021 62.3995 12.7195C62.6118 12.837 62.9434 13.0915 63.1291 13.2872C63.3148 13.483 63.5801 13.868 63.7194 14.1356C63.852 14.4031 64.0311 14.8599 64.1107 15.147C64.2433 15.6169 64.2566 15.8192 64.2566 17.2026C64.2566 18.6382 64.2433 18.7752 64.0841 19.356C63.9913 19.6953 63.8056 20.1978 63.6597 20.4654C63.5137 20.746 63.2551 21.0983 63.0561 21.3006C62.8572 21.4899 62.5255 21.7248 62.2934 21.8357C62.0613 21.9401 61.7098 22.0576 61.5108 22.0967C61.3118 22.1359 61.0001 22.162 60.8144 22.162C60.6353 22.162 60.3037 22.1294 60.0849 22.0902C59.866 22.0511 59.5079 21.9401 59.289 21.8357C59.037 21.7183 58.7452 21.5029 58.4865 21.2354C58.2146 20.9613 57.9957 20.6611 57.8365 20.3348C57.7039 20.0673 57.5381 19.6105 57.4651 19.3234C57.3922 19.0363 57.2927 18.4359 57.2529 17.9856C57.1932 17.3657 57.1932 16.9807 57.2529 16.3869C57.2927 15.9562 57.3789 15.4146 57.4386 15.1797C57.4983 14.9447 57.6641 14.5141 57.8034 14.2204C57.9891 13.8354 58.1814 13.5548 58.4732 13.2611C58.7518 12.9805 59.0303 12.7783 59.3222 12.6412Z" fill="white"/>
<path d="M78.6021 12.7456C78.7945 12.6477 79.1128 12.5303 79.3052 12.4781H79.2985C79.4909 12.4259 79.9153 12.3802 80.2469 12.3802C80.5918 12.3737 81.0096 12.4194 81.2418 12.4781C81.4606 12.5303 81.7856 12.6543 81.9647 12.7522C82.1438 12.85 82.4422 13.0915 82.6279 13.2938C82.8136 13.4895 83.0458 13.7962 83.1452 13.979C83.2447 14.1551 83.3973 14.5467 83.4835 14.8534C83.5763 15.1601 83.6824 15.6952 83.7222 16.0476C83.762 16.3934 83.7952 16.9089 83.7952 17.1895C83.7952 17.4636 83.762 17.94 83.7289 18.2467C83.6891 18.5534 83.5962 19.0036 83.5233 19.2581C83.4437 19.5126 83.2779 19.9172 83.1452 20.1717C83.006 20.4262 82.734 20.7916 82.5351 20.9874C82.3295 21.1832 82.0045 21.4246 81.8055 21.5225C81.6066 21.6269 81.2285 21.7509 80.9765 21.8031C80.7245 21.8553 80.3796 21.901 80.2138 21.901C80.048 21.901 79.7363 21.8684 79.5174 21.8292C79.2985 21.79 78.9536 21.6856 78.7547 21.5878C78.5358 21.4899 78.2108 21.2484 77.9522 20.9939C77.6537 20.6938 77.4415 20.4132 77.2757 20.0738C77.1364 19.8063 76.9706 19.3495 76.891 19.0624C76.7915 18.6839 76.7385 18.2597 76.7186 17.4962C76.6854 16.674 76.7053 16.3021 76.7982 15.767C76.8645 15.3885 76.9706 14.9186 77.0436 14.7229C77.1099 14.5271 77.2624 14.1878 77.3818 13.979C77.5012 13.7701 77.7399 13.4439 77.9256 13.2546C78.1047 13.0654 78.4164 12.837 78.6021 12.7456Z" fill="white"/>
</svg>
