<svg width="163" height="50" viewBox="0 0 163 50" fill="none" xmlns="http://www.w3.org/2000/svg">
<g clip-path="url(#clip0_355_325)">
<mask id="mask0_355_325" style="mask-type:luminance" maskUnits="userSpaceOnUse" x="-18" y="-45" width="199" height="140">
<path d="M-17.1236 -44.5876H180.288V94.3438H-17.1236V-44.5876Z" fill="white"/>
</mask>
<g mask="url(#mask0_355_325)">
<path d="M33.0945 28.3721C32.6508 30.506 31.0985 31.6095 30.0262 31.61C29.3603 31.6095 28.182 31.568 28.182 28.74C28.182 25.2816 30.214 18.6612 33.3552 18.6584C34.5366 18.6598 34.8688 19.6151 34.8688 20.056L33.0945 28.3721ZM71.188 28.3721C70.6334 30.212 69.3027 31.61 67.8606 31.61C66.8256 31.61 66.3451 31.2785 66.3451 30.2484C66.3451 29.9174 66.382 29.5496 66.4926 29.0709L69.1386 16.6408C68.0576 15.1926 66.3351 15.7378 65.3164 16.4034C64.2338 17.1108 63.3981 18.3147 63.1608 19.7565L61.3177 28.3721C61.3173 28.374 61.317 28.3754 61.3168 28.377C60.5043 30.288 59.8386 31.61 58.2134 31.61C57.1043 31.61 56.7345 30.9845 56.7345 30.0647C56.7345 28.0038 58.5095 23.5519 58.5095 20.5711C58.5095 17.6278 56.7718 16.4135 54.4056 16.4135C53.2598 16.4135 51.633 16.7078 50.0807 18.4743C50.0807 18.4743 49.9522 17.7057 49.6431 17.326C48.8051 16.2968 45.164 16.5607 45.164 16.5607L42.6479 28.3721H42.6317C42.0772 30.212 41.0797 31.8305 39.6376 31.8305C38.6026 31.8305 38.1221 31.2785 38.1221 30.2484C38.1221 29.9174 38.1589 29.5496 38.2696 29.0709L40.9247 16.5925L40.9357 16.5607C40.9357 16.5607 37.2908 16.3733 36.2589 17.2089C35.8757 17.5193 35.222 18.4871 35.2074 18.5088L35.206 18.5093V18.2533C35.206 17.186 34.3187 16.3768 32.2112 16.3768H32.2095H32.2069C25.7747 16.3768 22.7058 24.2876 22.7058 29.2551C22.7058 33.6335 25.1088 35.1792 27.6232 35.1792H27.6251H27.6277C27.7027 35.1792 27.7749 35.1729 27.849 35.1701C27.9355 35.1668 28.0235 35.1664 28.1074 35.1596C28.1379 35.1568 28.1667 35.1514 28.1975 35.1486C30.5029 34.9225 32.0712 33.3595 33.1313 31.7936C33.3529 34.0017 34.6841 35.1792 36.7541 35.1792C38.0644 35.1792 39.9487 34.83 41.6849 32.8931L41.2448 34.9586H46.5685L49.0825 23.147C49.6368 21.3072 50.6352 19.7619 51.9657 19.7619C52.8535 19.7619 53.2964 20.4243 53.2964 21.6386C53.2964 23.9935 51.633 28.5194 51.633 31.0216C51.633 33.1184 52.7794 35.1792 55.9951 35.1792C57.4499 35.1792 59.3931 34.7512 61.1449 32.0627C61.5726 34.226 63.1005 35.1792 64.9771 35.1792C66.9738 35.1792 70.6334 34.3696 72.7408 28.3721H71.188Z" fill="currentColor"/>
<path d="M16.6997 11.3338C17.2577 11.9747 17.9016 12.2309 18.6747 12.2309C20.8212 12.2309 22.1949 10.3935 22.1949 7.91556C22.1949 3.21532 17.3007 2.78775 15.2834 2.78775C9.74526 2.78775 5.36646 5.99219 5.36646 10.4362C5.36646 16.7176 14.167 19.3241 14.167 26.6307C14.167 30.22 12.4782 31.6553 9.60199 31.6553C6.85451 31.6553 5.68489 30.2309 5.68489 28.0942C5.68489 25.1465 7.77065 24.1948 10.0888 24.1948C9.95958 21.9731 7.81309 21.3749 6.31027 21.3749C3.30579 21.3749 0 23.7677 0 28.3829C0 33.5955 4.20739 35.7319 9.10089 35.7319C15.3263 35.7319 21.1641 32.2278 21.1641 25.0497C21.1641 15.8198 11.4568 15.687 11.4568 9.40599C11.4568 6.84197 13.3118 5.79801 15.0078 5.71516C16.6012 5.63721 18.2463 6.79272 18.2463 8.28828C18.2463 9.69819 17.859 10.65 16.6997 11.3338Z" fill="currentColor"/>
<path d="M147.744 28.3721C147.3 30.5065 145.747 31.61 144.675 31.61C144.009 31.61 142.827 31.5736 142.827 28.74C142.827 25.2811 144.859 18.658 148.002 18.658C149.185 18.658 149.518 19.6149 149.518 20.056L147.744 28.3721ZM90.9649 28.3721C90.5213 30.506 88.969 31.6095 87.8964 31.61C87.2307 31.6095 86.0524 31.568 86.0524 28.74C86.0524 25.2816 88.0845 18.6612 91.2257 18.6584C92.407 18.6598 92.7393 19.6151 92.7393 20.056L90.9649 28.3721ZM152.771 30.2484C152.771 29.9174 152.808 29.5496 152.918 29.0709L155.581 16.5607C155.581 16.5607 151.936 16.3733 150.904 17.2089C150.516 17.523 149.85 18.5107 149.85 18.5107V18.2533C149.85 17.186 148.963 16.3768 146.856 16.3768C140.424 16.3768 137.356 24.2876 137.356 29.2551C137.356 29.2924 137.359 29.3258 137.359 29.3626C136.709 30.7275 136.022 31.61 134.694 31.61C133.585 31.61 133.215 30.9845 133.215 30.0647C133.215 28.0038 134.99 23.5519 134.99 20.5711C134.99 17.6278 133.253 16.4135 130.887 16.4135C129.741 16.4135 128.114 16.7078 126.562 18.4743C126.562 18.4743 126.433 17.7057 126.124 17.326C125.286 16.2968 121.645 16.5607 121.645 16.5607L119.051 28.7376C118.478 30.3938 117.519 31.61 116.176 31.61C115.14 31.61 114.659 31.2785 114.659 30.2484C114.659 29.9174 114.697 29.5496 114.808 29.0709L117.469 16.5607H112.146L109.632 28.3721C109.077 30.212 108.116 31.61 106.674 31.61C105.862 31.61 105.565 30.9476 105.565 30.1016C105.565 29.7701 105.603 29.4387 105.677 29.0709L108.338 16.5607H103.015L100.501 28.3721C100.5 28.3754 100.5 28.3784 100.499 28.3812C99.9439 30.2173 98.9476 31.8305 97.508 31.8305C96.473 31.8305 95.9926 31.2785 95.9926 30.2484C95.9926 29.9174 96.0291 29.5496 96.1401 29.0709L98.7951 16.5925L98.8062 16.5607C98.8062 16.5607 95.1613 16.3733 94.1291 17.2089C93.7462 17.5193 93.0927 18.4871 93.0777 18.5088L93.0765 18.5093V18.2533C93.0765 17.186 92.189 16.3768 90.0819 16.3768H90.0797H90.0774C83.6452 16.3768 80.5765 24.2876 80.5765 29.2551C80.5765 33.6335 82.9793 35.1792 85.4934 35.1792H85.4953H85.4979C85.5732 35.1792 85.6454 35.1729 85.7195 35.1701C85.8058 35.1668 85.8939 35.1664 85.9779 35.1596C86.0084 35.1568 86.0372 35.1514 86.0679 35.1486C88.3734 34.9225 89.9414 33.3595 91.0017 31.7936C91.2233 34.0017 92.5545 35.1792 94.6246 35.1792C96.1265 35.1792 98.3813 34.7201 100.304 31.9386C100.696 34.191 102.248 35.1792 104.161 35.1792C105.713 35.1792 107.783 34.7005 109.632 31.6835C109.854 33.9649 111.185 35.1792 113.292 35.1792C114.584 35.1792 116.434 34.8377 118.149 32.972L117.726 34.9586H123.049L125.563 23.147C126.118 21.3072 127.116 19.7619 128.447 19.7619C129.334 19.7619 129.778 20.4243 129.778 21.6386C129.778 23.9935 128.114 28.5194 128.114 31.0216C128.114 33.1184 129.26 35.1792 132.476 35.1792C133.96 35.1792 135.953 34.7339 137.732 31.8975C138.501 34.2729 140.352 35.1792 142.272 35.1792C144.897 35.1792 146.671 33.4498 147.78 31.7572C148.076 33.8914 149.406 35.1792 151.403 35.1792C153.399 35.1792 154.102 34.0382 155.1 31.4627C154.841 31.5736 154.619 31.61 154.286 31.61C153.252 31.61 152.771 31.2785 152.771 30.2484Z" fill="currentColor"/>
<path d="M77.9844 21.7518L79.883 12.4874V12.4869C79.8914 12.4482 79.9001 12.4081 79.9088 12.3674L79.9142 12.342C79.9852 12.0029 80.0697 11.5744 80.2662 10.6873L80.7466 8.55338C81.2271 6.38215 82.0778 5.68338 82.8537 5.68338C83.6674 5.68338 84.3326 6.38215 84.3326 6.89748C84.3326 7.86045 83.9218 8.59773 83.2357 9.19077C83.0828 9.60504 82.9151 10.0599 82.9151 10.4569C82.9151 10.5974 82.9229 10.737 82.9334 10.8747C84.9709 9.98196 86.3654 8.74943 86.3654 6.38216C86.3654 3.99037 84.2585 2.40868 82.0037 2.40868C79.5634 2.40868 76.4951 3.40199 75.386 8.66377L68.9086 39.921V39.9215C68.9006 39.9602 68.8921 40.0001 68.8835 40.0408L68.8781 40.0664C68.807 40.4051 68.7224 40.834 68.5261 41.7207L68.0456 43.8548C67.565 46.0256 66.7142 46.7248 65.9381 46.7248C65.1246 46.7248 64.4594 46.0256 64.4594 45.511C64.4594 44.5478 64.8702 43.8107 65.5563 43.2177C65.7092 42.8032 65.8769 42.3483 65.8769 41.9513C65.8769 41.8108 65.8691 41.6715 65.8586 41.5338C63.8204 42.4262 62.4262 43.6588 62.4262 46.0256C62.4262 48.4174 64.5335 49.9995 66.7883 49.9995C69.2286 49.9995 72.2971 49.0062 73.406 43.7444L77.1531 25.7785H79.7465C80.0598 24.4225 80.5489 23.0336 81.2168 21.7518H77.9844Z" fill="currentColor"/>
<mask id="mask1_355_325" style="mask-type:luminance" maskUnits="userSpaceOnUse" x="84" y="39" width="70" height="9">
<path d="M84.9247 39.7425H153.375V47.0786H84.9247V39.7425Z" fill="white"/>
</mask>
<g mask="url(#mask1_355_325)">
<g opacity="0.800003">
<path d="M85.7562 44.7539C85.5983 45.9491 86.3058 46.3849 87.3298 46.3849C88.5306 46.3849 89.1733 45.7363 89.3314 45.0041C89.7689 42.9379 85.3932 44.3091 85.9519 41.6865C86.1473 40.7599 87.1066 39.8978 88.6054 39.8978C90.1136 39.8978 90.6724 40.8064 90.4299 41.8902H89.8254C90.0487 40.871 89.3501 40.4357 88.4933 40.4357C87.2086 40.4357 86.5757 41.2234 86.5384 41.9091C86.4547 43.6325 90.523 42.3909 89.9739 44.9759C89.7131 46.1993 88.6521 46.9224 87.1066 46.9224C85.7097 46.9224 84.8349 46.1993 85.1423 44.7539H85.7562Z" fill="currentColor"/>
<path d="M85.2722 44.9102C85.1814 45.443 85.2661 45.8725 85.5231 46.1885C85.831 46.5668 86.3789 46.7668 87.1066 46.7668C88.5848 46.7668 89.5738 46.1021 89.8203 44.9443C90.0934 43.6594 89.1182 43.4361 88.0853 43.199C87.2264 43.0025 86.3384 42.7992 86.3825 41.9016C86.4258 41.0957 87.1652 40.2802 88.4933 40.2802C89.0603 40.2802 89.5157 40.4576 89.7769 40.7803C89.9771 41.0277 90.0566 41.3552 90.0107 41.7349H90.3007C90.3774 41.2789 90.2949 40.887 90.0597 40.5953C89.7745 40.2414 89.2716 40.0545 88.6056 40.0545C87.1291 40.0545 86.2746 40.9176 86.1053 41.7188C85.8408 42.9609 86.7961 43.1966 87.8074 43.4461C88.7046 43.6671 89.722 43.9178 89.485 45.0369C89.3278 45.7644 88.6788 46.5411 87.3298 46.5411C86.6756 46.5411 86.1946 46.3721 85.9001 46.0379C85.6579 45.7621 85.5512 45.3837 85.5831 44.9102H85.2722ZM87.1066 47.0786C86.2809 47.0786 85.649 46.8385 85.2794 46.3847C84.9453 45.9747 84.8449 45.3994 84.9887 44.7218L85.0149 44.5984H85.9351L85.9118 44.7744C85.8506 45.2379 85.9259 45.594 86.1358 45.8323C86.3677 46.0958 86.7701 46.2293 87.3298 46.2293C88.3172 46.2293 89.0082 45.7595 89.1782 44.9718C89.3443 44.1876 88.7369 43.9962 87.7319 43.7486C86.7246 43.5003 85.4717 43.1917 85.7986 41.6546C85.9932 40.7337 86.9541 39.7422 88.6056 39.7422C89.3701 39.7422 89.9574 39.9698 90.304 40.4002C90.6168 40.788 90.716 41.3295 90.5831 41.9249L90.5561 42.0465H89.6308L89.6723 41.8574C89.753 41.4873 89.7065 41.1904 89.5328 40.9759C89.3325 40.7283 88.9635 40.592 88.4933 40.592C87.3605 40.592 86.7307 41.2588 86.695 41.9181C86.6664 42.5107 87.2278 42.6829 88.1556 42.8953C89.1839 43.1311 90.4637 43.4242 90.127 45.0087C89.851 46.3052 88.7224 47.0786 87.1066 47.0786Z" fill="currentColor"/>
<path d="M95.3003 44.2258C94.7785 44.4205 94.2946 44.4574 93.8012 44.4942C92.9357 44.5596 92.3586 44.8653 92.2184 45.5141C92.0979 46.0976 92.5537 46.3756 93.0846 46.3756C93.9689 46.3756 94.9281 45.9494 95.1422 44.9762L95.3003 44.2258ZM94.4158 43.9483C94.6301 43.9294 94.9837 43.8734 95.1887 43.7901C95.3931 43.707 95.4588 43.4568 95.4961 43.2899C95.6168 42.7247 95.3748 42.3167 94.5089 42.3167C93.7362 42.3167 93.1493 42.5671 92.8703 43.4013H92.3024C92.6283 42.2707 93.5686 41.8168 94.621 41.8168C95.5983 41.8168 96.2875 42.1965 96.0544 43.3081L95.4961 45.9216C95.403 46.3574 95.4961 46.4589 95.9988 46.2923L95.9055 46.728C95.8218 46.7558 95.6077 46.8204 95.4496 46.8204C95.3558 46.8204 95.2911 46.8113 95.2072 46.7927C94.8442 46.7371 94.8533 46.4129 94.9091 46.0792C94.3318 46.598 93.6434 46.876 92.9449 46.876C92.0979 46.876 91.427 46.422 91.632 45.4952C91.7996 44.6889 92.4609 44.1981 93.6244 44.0499L94.4158 43.9483Z" fill="currentColor"/>
<path d="M95.091 44.4596C94.6447 44.5882 94.2229 44.6197 93.813 44.6505C92.9595 44.7144 92.4882 45.008 92.3721 45.5467C92.3341 45.7278 92.3615 45.8767 92.4535 45.9885C92.5742 46.1358 92.8035 46.22 93.0845 46.22C93.8332 46.22 94.7819 45.8853 94.9892 44.9432L95.091 44.4596ZM93.0845 46.5318C92.7093 46.5318 92.3904 46.406 92.2105 46.1857C92.1045 46.0564 91.9932 45.8293 92.0654 45.483C92.2131 44.7982 92.7925 44.4141 93.7896 44.3391C94.2792 44.3027 94.7413 44.2682 95.245 44.0803L95.5119 43.9804L95.2952 45.009C95.0478 46.1334 93.95 46.5318 93.0845 46.5318ZM94.509 42.1611C94.9838 42.1611 95.321 42.2797 95.5107 42.5131C95.6741 42.7145 95.7213 42.9866 95.649 43.3232C95.6132 43.484 95.5381 43.8173 95.2476 43.9349C95.0077 44.0329 94.6201 44.0871 94.4299 44.1036L93.6447 44.2047C92.5648 44.3424 91.9395 44.7872 91.7856 45.5276C91.7115 45.8608 91.7582 46.1325 91.9228 46.3363C92.1198 46.5806 92.4926 46.7207 92.9449 46.7207C93.6104 46.7207 94.2536 46.4588 94.8044 45.9638L95.1374 45.6643L95.064 46.1052C95.0366 46.2697 95.0138 46.4707 95.0823 46.565C95.0928 46.5792 95.124 46.6226 95.2312 46.639C95.3111 46.6562 95.3651 46.6649 95.4495 46.6649C95.548 46.6649 95.6809 46.6322 95.7714 46.6061L95.7916 46.5099C95.5904 46.5477 95.465 46.5132 95.3822 46.4114C95.2769 46.2826 95.3008 46.0842 95.3423 45.8895L95.9011 43.2763C95.9855 42.8709 95.9417 42.5584 95.7698 42.3476C95.5663 42.0993 95.1803 41.973 94.6208 41.973C94.0051 41.973 92.9449 42.1439 92.5196 43.2457H92.7602C93.0453 42.5063 93.6041 42.1611 94.509 42.1611ZM92.9449 47.0322C92.3892 47.0322 91.9395 46.8546 91.6785 46.5318C91.4545 46.2546 91.3858 45.8844 91.4792 45.4624C91.6628 44.5795 92.3777 44.0521 93.6048 43.8952L94.3955 43.7935C94.6344 43.7732 94.9582 43.716 95.1294 43.6464C95.2521 43.5967 95.3062 43.4212 95.343 43.2567C95.3939 43.0181 95.3681 42.8335 95.2671 42.7091C95.1397 42.5528 94.8846 42.4729 94.509 42.4729C93.6941 42.4729 93.2486 42.7656 93.019 43.4509L92.9836 43.5575H92.0942L92.1517 43.3587C92.4626 42.2797 93.3623 41.6612 94.6208 41.6612C95.2788 41.6612 95.7471 41.8258 96.0127 42.1506C96.2477 42.4379 96.3131 42.8387 96.2081 43.3405L95.649 45.9542C95.6113 46.1316 95.6197 46.1932 95.6251 46.2119C95.6296 46.2123 95.638 46.2123 95.6509 46.2123C95.7133 46.2123 95.8132 46.1895 95.949 46.1444L96.2085 46.0583L96.0402 46.8476L95.9546 46.8763C95.8413 46.9139 95.6244 46.9767 95.4495 46.9767C95.3369 46.9767 95.2605 46.9643 95.173 46.9452C95.0267 46.9235 94.9074 46.8565 94.829 46.7484C94.7617 46.6558 94.7322 46.5463 94.7254 46.4291C94.1856 46.8203 93.5649 47.0322 92.9449 47.0322Z" fill="currentColor"/>
<path d="M100.236 41.4272L101.548 40.1389H102.265L100.71 41.4272H100.236ZM102.005 41.9461H102.563L101.539 46.7464H100.98L101.12 46.0792C100.757 46.4127 100.245 46.876 99.3981 46.876C98.1131 46.876 97.8526 46.107 98.0659 45.1059L98.7368 41.9461H99.2951L98.625 45.0968C98.4479 45.9214 98.7178 46.3754 99.5931 46.3754C100.515 46.3754 101.223 45.6159 101.446 44.5593L102.005 41.9461Z" fill="currentColor"/>
<path d="M100.618 41.2717H100.654L101.832 40.2952H101.612L100.618 41.2717ZM100.767 41.5835H99.8539L101.484 39.9834H102.698L100.767 41.5835ZM98.8637 42.1023L98.2196 45.1385C98.1019 45.6914 98.1476 46.1022 98.3574 46.3603C98.5521 46.5991 98.9024 46.7204 99.3981 46.7204C100.191 46.7204 100.667 46.2837 101.014 45.9649L101.374 45.6345L101.173 46.5904H101.412L102.37 42.1023H102.132L101.6 44.5921C101.35 45.7703 100.563 46.5316 99.5932 46.5316C99.1378 46.5316 98.8091 46.4116 98.617 46.1752C98.4125 45.9241 98.3656 45.5612 98.4721 45.0647L99.1017 42.1023H98.8637ZM99.3981 47.0322C98.8025 47.0322 98.371 46.8721 98.1138 46.5563C97.8416 46.2221 97.7743 45.7229 97.9131 45.0738L98.6097 41.7905H99.4886L98.7786 45.1294C98.6942 45.5229 98.7216 45.8081 98.8606 45.9792C98.9906 46.1388 99.237 46.2198 99.5932 46.2198C100.408 46.2198 101.075 45.5556 101.293 44.5272L101.878 41.7905H102.756L101.666 46.9027H100.787L100.872 46.501C100.525 46.7713 100.056 47.0322 99.3981 47.0322Z" fill="currentColor"/>
<path d="M106.865 42.3167C105.711 42.3167 104.957 43.2899 104.752 44.4942C104.501 45.699 105.059 46.3756 106 46.3756C107.052 46.3756 107.815 45.4861 108.057 44.3278C108.29 43.244 107.88 42.3167 106.865 42.3167ZM108.97 40.0745H109.528L108.103 46.7464H107.545L107.722 45.9032H107.703C107.247 46.5331 106.437 46.876 105.823 46.876C104.268 46.876 103.877 45.7734 104.184 44.3556C104.473 43.012 105.404 41.8165 106.875 41.8165C107.554 41.8165 108.178 42.1316 108.402 42.7151L108.97 40.0745Z" fill="currentColor"/>
<path d="M106.865 42.4729C105.887 42.4729 105.118 43.277 104.907 44.5205C104.787 45.0939 104.853 45.5516 105.097 45.8499C105.295 46.0919 105.607 46.22 106 46.22C106.912 46.22 107.66 45.465 107.904 44.2962C108.033 43.6945 107.953 43.1603 107.684 42.8293C107.492 42.5934 107.216 42.4729 106.865 42.4729ZM106 46.5318C105.51 46.5318 105.113 46.364 104.854 46.0469C104.548 45.6734 104.46 45.1254 104.599 44.4631C104.836 43.0669 105.726 42.1611 106.865 42.1611C107.31 42.1611 107.677 42.3243 107.928 42.6333C108.257 43.0378 108.359 43.6672 108.21 44.3606C107.935 45.6793 107.067 46.5318 106 46.5318ZM106.875 41.9728C105.385 41.9728 104.577 43.2744 104.337 44.3884C104.161 45.2052 104.235 45.8447 104.554 46.2378C104.814 46.5582 105.241 46.7204 105.823 46.7204C106.368 46.7204 107.144 46.4086 107.576 45.8125L107.623 45.7476H107.896L107.875 45.9355L107.738 46.5907H107.977L109.335 40.2308H109.096L108.444 43.2644L108.255 42.771C108.067 42.2788 107.538 41.9728 106.875 41.9728ZM105.823 47.0322C105.141 47.0322 104.632 46.8313 104.31 46.4338C103.93 45.9647 103.834 45.2349 104.031 44.3228C104.295 43.0952 105.198 41.661 106.875 41.661C107.495 41.661 108.02 41.8927 108.334 42.2855L108.843 39.919H109.722L108.231 46.9027H107.352L107.458 46.3965C106.951 46.8308 106.3 47.0322 105.823 47.0322Z" fill="currentColor"/>
<path d="M114.519 44.0127C114.715 43.0764 114.361 42.3165 113.356 42.3165C112.369 42.3165 111.68 43.1042 111.372 44.0127H114.519ZM111.27 44.4758C111.037 45.5139 111.419 46.3754 112.49 46.3754C113.216 46.3754 113.868 45.977 114.184 45.2726H114.808C114.333 46.1807 113.607 46.876 112.378 46.876C110.833 46.876 110.395 45.7823 110.703 44.3647C111 42.9653 112.08 41.8165 113.458 41.8165C114.78 41.8165 115.394 42.7524 115.013 44.4758H111.27Z" fill="currentColor"/>
<path d="M111.599 43.8572H114.389C114.457 43.4177 114.388 43.0476 114.19 42.8051C114.01 42.585 113.729 42.4727 113.356 42.4727C112.484 42.4727 111.893 43.1547 111.599 43.8572ZM114.647 44.169H111.155L111.224 43.9634C111.519 43.0919 112.233 42.1609 113.356 42.1609C113.822 42.1609 114.194 42.3159 114.433 42.6081C114.71 42.9474 114.795 43.4579 114.673 44.0446L114.647 44.169ZM113.458 41.9728C112.23 41.9728 111.159 42.9696 110.855 44.3973C110.683 45.195 110.762 45.8261 111.084 46.2231C111.352 46.5531 111.787 46.7204 112.378 46.7204C113.307 46.7204 114.017 46.2973 114.541 45.4288H114.283C113.936 46.1122 113.258 46.5316 112.489 46.5316C112.006 46.5316 111.617 46.3657 111.365 46.052C111.057 45.6709 110.97 45.0993 111.117 44.4421L111.145 44.3202H114.886C115.049 43.4903 114.967 42.8443 114.647 42.4468C114.392 42.1322 113.993 41.9728 113.458 41.9728ZM112.378 47.0322C111.688 47.0322 111.17 46.8261 110.84 46.4196C110.456 45.9458 110.356 45.2242 110.549 44.3321C110.884 42.7596 112.08 41.661 113.458 41.661C114.084 41.661 114.579 41.8652 114.891 42.2517C115.289 42.7444 115.384 43.5253 115.166 44.51L115.139 44.632H111.398C111.308 45.1418 111.38 45.5735 111.609 45.8569C111.803 46.0977 112.099 46.2198 112.489 46.2198C113.177 46.2198 113.757 45.8424 114.041 45.2097L114.083 45.117H115.066L114.947 45.345C114.353 46.48 113.513 47.0322 112.378 47.0322Z" fill="currentColor"/>
<path d="M121.755 44.1146H124.38L123.822 40.6119L121.755 44.1146ZM119.539 46.7466L123.598 40.0744H124.315L125.461 46.7466H124.809L124.482 44.6521H121.429L120.191 46.7466H119.539Z" fill="currentColor"/>
<path d="M122.029 43.9591H124.197L123.735 41.0662L122.029 43.9591ZM124.943 46.5906H125.275L124.183 40.2307H123.919L124.564 44.2709H121.481L123.865 40.2307H123.687L119.817 46.5906H120.101L121.34 44.4966H124.617L124.943 46.5906ZM125.646 46.9028H124.674L124.349 44.8089H121.519L120.281 46.9028H119.261L123.51 39.9189H124.448L125.646 46.9028Z" fill="currentColor"/>
<path d="M127.77 46.7466H127.212L128.235 41.9462H128.794L128.655 42.6135C129.204 42.1409 129.706 41.8167 130.377 41.8167C130.964 41.8167 131.466 42.0018 131.699 42.5021C131.857 42.845 131.792 43.2065 131.708 43.6049L131.038 46.7466H130.479L131.15 43.614C131.336 42.7526 131.075 42.3168 130.181 42.3168C129.493 42.3168 128.916 42.7617 128.636 43.253C128.459 43.5589 128.394 43.8273 128.32 44.1611L127.77 46.7466Z" fill="currentColor"/>
<path d="M130.673 46.5906H130.911L131.555 43.5728C131.641 43.1672 131.691 42.8577 131.557 42.5678C131.373 42.1729 130.977 41.9729 130.377 41.9729C129.763 41.9729 129.302 42.2633 128.757 42.7319L128.407 43.0332L128.602 42.1025H128.363L127.405 46.5906H127.643L128.166 44.129C128.247 43.7698 128.317 43.4923 128.5 43.1754C128.766 42.7081 129.367 42.161 130.181 42.161C130.653 42.161 130.977 42.2766 131.169 42.513C131.37 42.7616 131.414 43.1326 131.303 43.6473L130.673 46.5906ZM131.165 46.9028H130.286L130.997 43.5819C131.087 43.1649 131.063 42.8797 130.925 42.709C130.796 42.5501 130.553 42.4729 130.181 42.4729C129.501 42.4729 128.997 42.9347 128.773 43.3299C128.61 43.6102 128.548 43.8541 128.472 44.195L127.897 46.9028H127.018L128.109 41.7907H128.987L128.898 42.2164C129.355 41.8744 129.81 41.6611 130.377 41.6611C131.099 41.6611 131.605 41.9295 131.841 42.4369C132.015 42.8134 131.956 43.1873 131.862 43.6372L131.165 46.9028Z" fill="currentColor"/>
<path d="M134.623 40.899L134.8 40.0744H135.415L135.238 40.899H134.623ZM133.403 46.7466L134.428 41.946H134.986L133.962 46.7466H133.403Z" fill="currentColor"/>
<path d="M134.817 40.7434H135.111L135.221 40.2307H134.927L134.817 40.7434ZM135.365 41.0552H134.429L134.673 39.9189H135.608L135.365 41.0552ZM133.597 46.5906H133.835L134.793 42.1022H134.555L133.597 46.5906ZM134.089 46.9028H133.21L134.301 41.7904H135.179L134.089 46.9028Z" fill="currentColor"/>
<path d="M136.802 46.7466H136.243L137.267 41.9462H137.826L137.677 42.669H137.696C138.096 42.1222 138.739 41.8167 139.362 41.8167C140.256 41.8167 140.489 42.2337 140.582 42.7435C141.029 42.1222 141.662 41.8167 142.351 41.8167C143.664 41.8167 143.654 42.7526 143.45 43.7162L142.798 46.7466H142.239L142.947 43.4289C143.096 42.7435 142.947 42.3168 142.155 42.3168C141.746 42.3168 141.308 42.4926 140.945 42.8637C140.638 43.1787 140.433 43.7627 140.349 44.1611L139.8 46.7466H139.241L139.949 43.4289C140.098 42.7435 139.949 42.3168 139.158 42.3168C138.748 42.3168 138.31 42.4926 137.947 42.8637C137.64 43.1787 137.435 43.7627 137.351 44.1611L136.802 46.7466Z" fill="currentColor"/>
<path d="M136.437 46.5906H136.675L137.198 44.129C137.285 43.7143 137.48 43.1691 137.771 42.8253H137.504L137.524 42.6379L137.634 42.1025H137.395L136.437 46.5906ZM142.432 46.5906H142.671L143.296 43.6841C143.4 43.1992 143.483 42.6001 143.214 42.2696C143.051 42.07 142.769 41.9729 142.351 41.9729C141.692 41.9729 141.109 42.2787 140.71 42.8344L140.494 43.1333L140.428 42.7716C140.338 42.2782 140.128 41.9729 139.363 41.9729C138.769 41.9729 138.179 42.2747 137.822 42.7611L137.799 42.7942C137.81 42.7807 137.822 42.7679 137.835 42.7555C138.211 42.3718 138.68 42.161 139.158 42.161C139.552 42.161 139.824 42.26 139.988 42.4628C140.167 42.6822 140.203 42.9998 140.102 43.4622L139.435 46.5906H139.673L140.196 44.129C140.289 43.6851 140.506 43.0906 140.833 42.7555C141.208 42.3718 141.677 42.161 142.156 42.161C142.55 42.161 142.822 42.26 142.987 42.4628C143.165 42.6822 143.201 42.9998 143.1 43.4622L142.432 46.5906ZM142.925 46.9028H142.046L142.794 43.3968C142.871 43.0381 142.855 42.797 142.743 42.6584C142.643 42.5354 142.445 42.4729 142.156 42.4729C141.763 42.4729 141.373 42.6507 141.057 42.9725C140.777 43.2605 140.584 43.8099 140.503 44.1934L139.927 46.9028H139.048L139.796 43.3968C139.873 43.0381 139.857 42.797 139.745 42.6584C139.645 42.5354 139.448 42.4729 139.158 42.4729C138.765 42.4729 138.375 42.6507 138.059 42.9725C137.779 43.2605 137.586 43.8099 137.505 44.1934L136.929 46.9028H136.05L137.141 41.7907H138.018L137.936 42.1876C138.335 41.8553 138.848 41.6611 139.363 41.6611C140.192 41.6611 140.513 42.0149 140.655 42.4063C141.101 41.9232 141.693 41.6611 142.351 41.6611C142.862 41.6611 143.234 41.7998 143.457 42.0733C143.81 42.5058 143.72 43.1959 143.603 43.7488L142.925 46.9028Z" fill="currentColor"/>
<path d="M148.702 44.2258C148.181 44.4205 147.696 44.4574 147.203 44.4942C146.337 44.5596 145.76 44.8653 145.62 45.5141C145.499 46.0976 145.955 46.3756 146.486 46.3756C147.371 46.3756 148.329 45.9494 148.544 44.9762L148.702 44.2258ZM147.818 43.9483C148.031 43.9294 148.385 43.8734 148.59 43.7901C148.795 43.707 148.86 43.4568 148.897 43.2899C149.019 42.7247 148.776 42.3167 147.911 42.3167C147.138 42.3167 146.551 42.5671 146.272 43.4013H145.704C146.03 42.2707 146.97 41.8168 148.022 41.8168C149 41.8168 149.689 42.1965 149.456 43.3081L148.897 45.9216C148.804 46.3574 148.897 46.4589 149.401 46.2923L149.307 46.728C149.223 46.7558 149.009 46.8204 148.851 46.8204C148.758 46.8204 148.692 46.8113 148.609 46.7927C148.245 46.7371 148.255 46.4129 148.311 46.0792C147.734 46.598 147.045 46.876 146.346 46.876C145.499 46.876 144.829 46.422 145.034 45.4952C145.201 44.6889 145.862 44.1981 147.026 44.0499L147.818 43.9483Z" fill="currentColor"/>
<path d="M148.493 44.4596C148.046 44.5882 147.625 44.6197 147.215 44.6505C146.361 44.7144 145.889 45.008 145.773 45.5467C145.736 45.7278 145.763 45.8767 145.855 45.9885C145.975 46.1358 146.205 46.22 146.486 46.22C147.235 46.22 148.183 45.8853 148.39 44.9432L148.493 44.4596ZM146.486 46.5318C146.111 46.5318 145.792 46.406 145.612 46.1857C145.507 46.0564 145.395 45.8293 145.467 45.483C145.614 44.7982 146.194 44.4141 147.191 44.3391C147.681 44.3027 148.143 44.2682 148.647 44.0803L148.914 43.9804L148.697 45.009C148.449 46.1334 147.351 46.5318 146.486 46.5318ZM147.911 42.1611C148.386 42.1611 148.722 42.2797 148.912 42.5131C149.076 42.7145 149.123 42.9866 149.051 43.3232C149.015 43.484 148.94 43.8173 148.649 43.9349C148.409 44.0329 148.022 44.0871 147.831 44.1036L147.046 44.2047C145.966 44.3424 145.341 44.7872 145.187 45.5276C145.114 45.8608 145.159 46.1325 145.324 46.3363C145.522 46.5806 145.894 46.7207 146.346 46.7207C147.012 46.7207 147.655 46.4588 148.206 45.9638L148.539 45.6643L148.465 46.1052C148.438 46.2697 148.415 46.4707 148.484 46.565C148.495 46.5792 148.526 46.6226 148.633 46.639C148.713 46.6562 148.767 46.6649 148.851 46.6649C148.95 46.6649 149.083 46.6322 149.173 46.6061L149.193 46.5099C148.992 46.5477 148.866 46.5132 148.783 46.4114C148.678 46.2821 148.703 46.0842 148.744 45.8891L149.302 43.2763C149.387 42.8709 149.343 42.5584 149.172 42.3476C148.968 42.0993 148.581 41.973 148.022 41.973C147.406 41.973 146.347 42.1439 145.921 43.2457H146.162C146.447 42.5063 147.005 42.1611 147.911 42.1611ZM146.346 47.0322C145.791 47.0322 145.341 46.8546 145.08 46.5318C144.856 46.2546 144.787 45.8844 144.881 45.4624C145.064 44.5795 145.78 44.0521 147.006 43.8952L147.797 43.7935C148.036 43.7732 148.36 43.716 148.531 43.6464C148.653 43.5967 148.708 43.4212 148.744 43.2567C148.796 43.0181 148.77 42.8335 148.668 42.7091C148.541 42.5528 148.286 42.4729 147.911 42.4729C147.095 42.4729 146.65 42.7656 146.421 43.4509L146.385 43.5575H145.496L145.554 43.3587C145.864 42.2797 146.764 41.6612 148.022 41.6612C148.681 41.6612 149.149 41.8258 149.415 42.1506C149.649 42.4379 149.714 42.8387 149.609 43.3405L149.051 45.9542C149.012 46.132 149.021 46.1932 149.026 46.2119C149.026 46.2119 149.039 46.2123 149.053 46.2123C149.114 46.2123 149.215 46.1895 149.351 46.1444L149.611 46.0583L149.441 46.8481L149.356 46.8763C149.242 46.9139 149.026 46.9767 148.851 46.9767C148.739 46.9767 148.662 46.9643 148.575 46.9452C148.429 46.9235 148.309 46.8565 148.23 46.7484C148.163 46.6558 148.134 46.5463 148.126 46.4291C147.587 46.8203 146.966 47.0322 146.346 47.0322Z" fill="currentColor"/>
<path d="M151.198 46.7466L152.622 40.0744H153.181L151.756 46.7466H151.198Z" fill="currentColor"/>
<path d="M151.392 46.5906H151.63L152.988 40.2307H152.75L151.392 46.5906ZM151.884 46.9028H151.005L152.496 39.9189H153.375L151.884 46.9028Z" fill="currentColor"/>
</g>
</g>
<path fill-rule="evenodd" clip-rule="evenodd" d="M146.359 4.55452C146.145 4.6362 145.916 4.65161 145.688 4.58416C145.538 4.54005 145.385 4.50854 145.213 4.46653C145.238 4.60096 145.257 4.72956 145.283 4.85676C145.333 5.09878 145.382 5.33941 145.359 5.59007C145.318 6.03515 145.22 6.46668 145.016 6.86415C144.842 7.20256 144.631 7.52021 144.44 7.84975C144.378 7.95501 144.32 8.06494 144.27 8.17673C144.204 8.32214 144.264 8.4561 144.317 8.59053C144.347 8.66802 144.379 8.74644 144.392 8.82719C144.414 8.95789 144.421 9.09139 144.435 9.22326C144.474 9.59831 144.294 9.85271 143.977 10.021C143.572 10.2362 143.142 10.3137 142.7 10.3032C142.258 10.3137 141.828 10.2362 141.423 10.021C141.106 9.85271 140.926 9.59831 140.965 9.22326C140.979 9.09139 140.986 8.95789 141.008 8.82719C141.021 8.74644 141.052 8.66802 141.083 8.59053C141.136 8.4561 141.196 8.32214 141.131 8.17673C141.08 8.06494 141.022 7.95501 140.961 7.84975C140.77 7.52021 140.559 7.20256 140.385 6.86415C140.181 6.46668 140.083 6.03515 140.041 5.59007C140.018 5.33941 140.067 5.09878 140.117 4.85676C140.144 4.72956 140.163 4.60096 140.187 4.46653C140.016 4.50854 139.863 4.54005 139.713 4.58416C139.484 4.65161 139.255 4.6362 139.042 4.55452C138.754 4.44506 138.539 4.24317 138.411 3.95517C138.321 3.75306 138.352 3.63543 138.557 3.56401C138.735 3.50239 138.92 3.44405 139.107 3.42631C139.598 3.3794 140.087 3.39037 140.542 3.62469C140.565 3.63589 140.609 3.63426 140.628 3.61909C140.751 3.52573 140.869 3.42771 141.001 3.32105C140.274 3.01881 139.977 2.46684 140.05 1.70459C140.118 1.79678 140.168 1.8997 140.225 1.99773C140.402 2.30487 140.67 2.50558 141.01 2.58564C141.219 2.63488 141.443 2.61715 141.657 2.64679C141.753 2.65962 142.242 2.65775 142.7 2.65332C143.159 2.65775 143.647 2.65962 143.743 2.64679C143.958 2.61715 144.182 2.63488 144.391 2.58564C144.73 2.50558 144.998 2.30487 145.175 1.99773C145.232 1.8997 145.282 1.79678 145.35 1.70459C145.423 2.46684 145.127 3.01881 144.399 3.32105C144.532 3.42771 144.65 3.52573 144.773 3.61909C144.792 3.63426 144.836 3.63589 144.858 3.62469C145.314 3.39037 145.802 3.3794 146.294 3.42631C146.48 3.44405 146.666 3.50239 146.844 3.56401C147.048 3.63543 147.079 3.75306 146.989 3.95517C146.862 4.24317 146.646 4.44506 146.359 4.55452ZM142.7 -0.000326157C139.369 -0.000326157 136.667 2.68786 136.667 6.0041C136.667 9.31988 139.369 12.0083 142.7 12.0083C146.032 12.0083 148.733 9.31988 148.733 6.0041C148.733 2.68786 146.032 -0.000326157 142.7 -0.000326157Z" fill="currentColor"/>
<path fill-rule="evenodd" clip-rule="evenodd" d="M144.152 4.45046C144.009 4.37251 143.864 4.29456 143.711 4.24088C143.517 4.17343 143.318 4.10855 143.115 4.08171C142.979 4.06444 142.839 4.0467 142.7 4.04016C142.562 4.0467 142.422 4.06444 142.286 4.08171C142.083 4.10855 141.883 4.17343 141.689 4.24088C141.536 4.29456 141.391 4.37251 141.248 4.45046C141.122 4.51978 141.074 4.65888 141.059 4.78328C141.024 5.05588 141.013 5.33244 141.01 5.60785C141.006 5.8298 141.134 5.96983 141.334 6.06179C141.479 6.12877 141.614 6.21956 141.75 6.30265C141.878 6.37967 141.966 6.49169 142.001 6.63616C142.081 6.96221 142.146 7.29222 142.11 7.629C142.084 7.88387 141.978 8.11492 141.855 8.33688C141.707 8.60504 141.558 8.87111 141.418 9.14254C141.353 9.266 141.343 9.40277 141.397 9.5463C141.422 9.5386 141.446 9.533 141.467 9.52297C141.497 9.5085 141.523 9.48609 141.554 9.47512C141.639 9.44408 141.743 9.40954 141.799 9.49333C141.827 9.53814 141.786 9.63289 141.765 9.70174C141.754 9.73768 141.718 9.76639 141.693 9.79883C141.817 9.92603 142.258 9.98975 142.7 9.98975C143.143 9.98975 143.584 9.92603 143.707 9.79883C143.682 9.76639 143.646 9.73768 143.635 9.70174C143.614 9.63289 143.573 9.53814 143.602 9.49333C143.657 9.40954 143.761 9.44408 143.847 9.47512C143.877 9.48609 143.903 9.5085 143.933 9.52297C143.954 9.533 143.979 9.5386 144.004 9.5463C144.058 9.40277 144.047 9.266 143.983 9.14254C143.843 8.87111 143.693 8.60504 143.545 8.33688C143.422 8.11492 143.317 7.88387 143.29 7.629C143.255 7.29222 143.318 6.96221 143.399 6.63616C143.435 6.49169 143.522 6.37967 143.65 6.30265C143.787 6.21956 143.921 6.12877 144.066 6.06179C144.266 5.96983 144.394 5.8298 144.391 5.60785C144.387 5.33244 144.376 5.05588 144.342 4.78328C144.326 4.65888 144.279 4.51978 144.152 4.45046Z" fill="currentColor"/>
<mask id="mask2_355_325" style="mask-type:luminance" maskUnits="userSpaceOnUse" x="151" y="0" width="13" height="12">
<path d="M151.005 0.0340872H163V11.9736H151.005V0.0340872Z" fill="white"/>
</mask>
<g mask="url(#mask2_355_325)">
<g opacity="0.800003">
<path fill-rule="evenodd" clip-rule="evenodd" d="M157.002 0.0343237C153.69 0.0343237 151.005 2.70687 151.005 6.00351C151.005 9.30062 153.69 11.9736 157.002 11.9736C160.315 11.9736 163 9.30062 163 6.00351C163 2.70687 160.315 0.0343237 157.002 0.0343237Z" fill="currentColor"/>
</g>
</g>
<path fill-rule="evenodd" clip-rule="evenodd" d="M158.274 5.88274C158.104 5.88694 157.948 5.73197 157.943 5.55459C157.936 5.39355 158.098 5.21268 158.253 5.20637C158.439 5.19844 158.581 5.32517 158.596 5.51445C158.611 5.71773 158.471 5.87854 158.274 5.88274ZM158.309 7.14048C158.314 7.15261 158.318 7.16405 158.323 7.17362C158.314 7.15915 158.308 7.14631 158.309 7.14048ZM158.163 8.55342C157.841 8.74947 157.456 8.67058 157.209 8.35294C157.135 8.25678 157.071 8.15292 156.97 8.00612C156.87 8.15292 156.806 8.25678 156.731 8.35294C156.484 8.67058 156.1 8.74947 155.777 8.55342C155.448 8.35341 155.308 7.93307 155.454 7.58485C155.506 7.46279 155.553 7.33863 155.602 7.21563C155.604 7.2175 155.733 6.99508 155.762 6.91876C156.02 6.39503 156.288 5.87504 156.53 5.34337C156.597 5.19587 156.693 4.58812 156.69 4.46093C156.682 4.10594 156.65 3.75165 156.629 3.3976C156.625 3.32502 156.636 3.03865 156.904 3.05918C156.93 3.05475 156.948 3.05872 156.97 3.05778C156.992 3.05872 157.011 3.05475 157.037 3.05918C157.305 3.03865 157.316 3.32502 157.312 3.3976C157.291 3.75165 157.258 4.10594 157.25 4.46093C157.248 4.58812 157.344 5.19587 157.41 5.34337C157.652 5.87504 157.92 6.39503 158.179 6.91876C158.207 6.99508 158.337 7.2175 158.338 7.21563C158.387 7.33863 158.435 7.46279 158.487 7.58485C158.632 7.93307 158.493 8.35341 158.163 8.55342ZM156.97 8.82065C156.838 8.81879 156.704 8.79381 156.575 8.7546C156.707 8.62321 156.835 8.49648 156.968 8.36438C156.968 8.36438 156.97 8.36624 156.97 8.36624C156.97 8.36624 156.973 8.36531 156.973 8.36438C157.106 8.49648 157.233 8.62321 157.366 8.7546C157.236 8.79381 157.103 8.81879 156.97 8.82065ZM155.632 7.14048C155.633 7.14585 155.626 7.15915 155.619 7.17362C155.623 7.16358 155.626 7.15215 155.632 7.14048ZM155.688 5.20637C155.843 5.21268 156.004 5.39355 155.999 5.55459C155.992 5.73197 155.837 5.88694 155.667 5.88274C155.47 5.87854 155.329 5.71773 155.345 5.51445C155.36 5.32517 155.501 5.19844 155.688 5.20637ZM160.633 4.44902C160.174 4.00091 159.62 3.70054 159.02 3.47999C159.036 3.52643 159.042 3.57941 159.069 3.61769C159.4 4.08493 159.45 4.60913 159.404 5.22084C159.208 4.52207 158.933 3.93906 158.425 3.49049C158.4 3.46668 158.388 3.42747 158.371 3.39527C157.992 3.18405 157.604 3.00644 157.158 2.97773C157.094 2.97306 157.032 2.9726 156.97 2.97446C156.909 2.9726 156.846 2.97306 156.783 2.97773C156.336 3.00644 155.95 3.18405 155.571 3.39527C155.552 3.42747 155.542 3.46668 155.516 3.49049C155.007 3.93906 154.733 4.52207 154.536 5.22084C154.49 4.60913 154.541 4.08493 154.872 3.61769C154.898 3.57941 154.905 3.52643 154.921 3.47999C154.321 3.70054 153.766 4.00091 153.308 4.44902C152.952 4.79747 152.714 5.21081 152.746 5.7315C152.757 5.91611 152.769 6.10329 152.808 6.28394C152.887 6.65619 152.964 7.03289 153.174 7.36243C153.375 7.67564 153.628 7.73119 153.922 7.50877C154.027 7.42895 154.134 7.32276 154.184 7.20466C154.31 6.91012 154.403 6.60251 154.506 6.31124C154.512 6.4242 154.621 6.82914 154.665 6.89892C154.858 7.21003 155.05 7.5223 155.243 7.83458C155.312 8.46824 155.587 8.7371 156.208 8.78915C156.292 8.79638 156.373 8.83209 156.457 8.84889C156.613 8.88087 156.769 8.92685 156.927 8.93408C156.942 8.93408 156.956 8.93151 156.97 8.93151C156.985 8.93151 156.999 8.93408 157.013 8.93408C157.171 8.92685 157.327 8.88087 157.484 8.84889C157.568 8.83209 157.649 8.79638 157.733 8.78915C158.354 8.7371 158.629 8.46824 158.699 7.83458C158.891 7.5223 159.083 7.21003 159.276 6.89892C159.32 6.82914 159.429 6.4242 159.435 6.31124C159.538 6.60251 159.631 6.91012 159.757 7.20466C159.807 7.32276 159.913 7.42895 160.019 7.50877C160.312 7.73119 160.566 7.67564 160.766 7.36243C160.977 7.03289 161.053 6.65619 161.133 6.28394C161.172 6.10329 161.183 5.91611 161.194 5.7315C161.226 5.21081 160.988 4.79747 160.633 4.44902Z" fill="white"/>
<path fill-rule="evenodd" clip-rule="evenodd" d="M156.97 7.06003C156.792 7.05372 156.609 7.10414 156.504 7.21593C156.35 7.3786 156.35 7.51957 156.528 7.6554C156.656 7.75109 156.804 7.82041 156.97 7.91797C157.137 7.82041 157.285 7.75109 157.412 7.6554C157.591 7.51957 157.591 7.3786 157.437 7.21593C157.332 7.10414 157.149 7.05372 156.97 7.06003Z" fill="white"/>
<path fill-rule="evenodd" clip-rule="evenodd" d="M156.97 9.50153C156.206 9.50153 155.57 9.16055 155.43 8.70917C155.412 8.76985 155.401 8.8324 155.401 8.89565C155.401 9.43548 156.104 9.87402 156.97 9.87402C157.837 9.87402 158.539 9.43548 158.539 8.89565C158.539 8.8324 158.529 8.76985 158.511 8.70917C158.371 9.16055 157.735 9.50153 156.97 9.50153Z" fill="white"/>
<path fill-rule="evenodd" clip-rule="evenodd" d="M157.002 9.98423C156.86 9.98423 156.746 10.0981 156.746 10.2396C156.746 10.3808 156.86 10.4951 157.002 10.4951C157.144 10.4951 157.259 10.3808 157.259 10.2396C157.259 10.0981 157.144 9.98423 157.002 9.98423Z" fill="white"/>
<path d="M71.3153 9.01101C71.1012 7.92388 69.9149 6.63697 68.6243 6.92824C69.0098 7.57963 69.108 8.22052 68.9085 8.74308C68.7397 8.68193 68.5622 8.63665 68.3769 8.61168C66.9573 8.41937 65.6691 9.42224 65.4756 10.8352C65.2819 12.2484 66.2574 13.5266 67.6767 13.719C68.1654 13.7855 68.6405 13.7122 69.0632 13.5325C70.9356 12.8323 71.5903 10.4095 71.3153 9.01101Z" fill="currentColor"/>
</g>
</g>
<defs>
<clipPath id="clip0_355_325">
<rect width="163" height="50" fill="white"/>
</clipPath>
</defs>
</svg>
