<svg width="218" height="26" viewBox="0 0 218 26" fill="none" xmlns="http://www.w3.org/2000/svg">
<path fill-rule="evenodd" clip-rule="evenodd" d="M178.705 12.8475V25.6951H180.177H181.65V12.8475V0H180.177H178.705V12.8475ZM62.8007 3.94143C61.9941 4.15563 61.2155 4.88799 61.0255 5.61099C60.9489 5.90227 60.924 8.38449 60.945 13.6531C60.9751 21.2608 60.9756 21.2749 61.2031 21.8897C61.8637 23.6758 63.0748 24.8125 64.9839 25.4386C65.4303 25.585 66.0257 25.6313 67.9537 25.6693L70.3652 25.7167V23.3733V21.03L68.4464 20.9959C65.6532 20.9463 65.796 21.1832 65.796 16.5959V13.3157H67.3031C68.6841 13.3157 68.8475 13.2955 69.256 13.0741C70.2931 12.5122 70.7652 11.1003 70.2679 10.0478C69.9811 9.44101 69.362 8.89642 68.7912 8.74922C68.5463 8.68607 67.7723 8.63437 67.071 8.63437H65.796L65.7954 7.30801C65.7951 6.57845 65.7496 5.81478 65.6943 5.61078C65.5644 5.13142 64.9645 4.41643 64.4799 4.16312C64.0363 3.93134 63.2363 3.82565 62.8007 3.94143ZM36.6731 8.48707C33.2715 9.25012 30.7034 11.7301 29.8418 15.0841C29.5284 16.3044 29.5294 18.0059 29.8443 19.2453C30.4724 21.7171 32.0915 23.7825 34.3275 24.9639C35.8769 25.7826 36.601 25.9523 38.5333 25.9501C40.3783 25.9479 40.9351 25.8339 42.3077 25.1769C45.518 23.6406 47.4296 20.653 47.4342 17.1647C47.44 12.8628 44.3577 9.2109 40.0631 8.43162C39.2421 8.28265 37.4543 8.31188 36.6731 8.48707ZM78.082 8.47063C74.6765 9.24502 72.1283 11.7616 71.3112 15.1574C71.0603 16.2001 71.0859 18.3194 71.3621 19.3698C72.0394 21.9462 73.899 24.1798 76.2632 25.2571C77.5493 25.8431 78.0987 25.9508 79.8081 25.9516C81.2392 25.9523 81.4607 25.9268 82.2507 25.6705C84.6687 24.8859 86.5019 23.3031 87.6144 21.0398L87.934 20.3896H85.4328H82.9318L82.5846 20.7019C81.0751 22.0598 78.668 22.059 77.2293 20.7003C76.8025 20.2973 76.1528 19.1893 76.1528 18.8645C76.1528 18.7496 77.2283 18.7251 82.2958 18.7251H88.4388L88.4608 18.075C88.5319 15.9813 88.3216 14.8334 87.5793 13.2636C87.1337 12.3211 86.8914 11.9587 86.2058 11.2086C84.8846 9.76308 83.357 8.87114 81.5268 8.47677C80.6772 8.29357 78.8744 8.29045 78.082 8.47063ZM96.8363 8.48238C93.5183 9.15847 90.9808 11.8434 90.255 15.4464C90.0873 16.2788 90.0659 16.909 90.0647 21.0415L90.0633 25.6986L92.6779 25.6708L95.2925 25.643L95.3433 20.8057L95.394 15.9684L95.7235 15.3222C96.2935 14.2044 97.0338 13.6195 98.145 13.4091C99.6359 13.1267 101.123 14.0203 101.749 15.5752C101.99 16.174 101.991 16.1953 102.023 20.9375L102.056 25.6986L104.665 25.6708L107.274 25.643L107.273 20.8057C107.272 16.037 107.269 15.9558 107.032 15.0841C106.754 14.0628 106.168 12.7125 105.701 12.0175C104.459 10.1673 102.561 8.88487 100.455 8.47188C99.5184 8.28837 97.7638 8.29347 96.8363 8.48238ZM129.967 8.47073C127.536 9.02437 125.622 10.5015 124.498 12.6915C123.175 15.2697 123.133 18.7694 124.395 21.3568C125.424 23.4674 127.342 25.0691 129.663 25.7549C130.593 26.0297 133.277 26.036 134.232 25.7656C135.227 25.4837 136.64 24.7377 137.38 24.1034C137.995 23.5758 139.004 22.3891 139.004 22.1927C139.004 22.092 136.754 20.5957 136.611 20.6016C136.559 20.6038 136.357 20.8154 136.161 21.0719C135.546 21.879 134.327 22.6282 133.217 22.8811C132.623 23.0164 131.459 23.0182 130.768 22.8847C129.975 22.7315 128.83 22.1396 128.247 21.5818C127.505 20.8705 127.031 20.0488 126.673 18.8559L126.603 18.6227L133.185 18.5958L139.766 18.5691L139.795 17.3841C139.904 12.8713 137.37 9.3298 133.423 8.47895C132.562 8.29357 130.764 8.28931 129.967 8.47073ZM146.844 8.53232C144.589 9.13776 143.071 10.7626 142.746 12.9196C142.543 14.2651 142.905 15.6764 143.687 16.5917C144.155 17.1397 145.107 17.7524 145.851 17.9842C146.429 18.1648 146.851 18.2382 148.929 18.5192C151.203 18.8267 152.001 19.3887 152.001 20.6832C152.001 21.6772 151.254 22.5694 150.138 22.9073C149.598 23.0709 148.012 23.0726 147.477 22.9101C146.482 22.6082 145.604 21.6268 145.604 20.8177V20.4936H144.023H142.442L142.514 21.0918C142.779 23.2744 144.178 24.9352 146.358 25.6567C147.437 26.0139 149.335 26.109 150.478 25.863C153.215 25.2735 155.05 23.1181 155.046 20.4978C155.043 18.6387 154.152 17.1576 152.581 16.3992C151.76 16.0026 151.172 15.8699 149.283 15.6552C147.634 15.4677 147.076 15.3437 146.571 15.0525C145.483 14.4264 145.435 12.8618 146.476 11.9827C147.779 10.8829 150.461 11.0884 151.331 12.3545C151.492 12.5903 151.653 12.9615 151.688 13.1795L151.751 13.5757H153.272H154.793L154.764 13.0556C154.696 11.8692 153.946 10.4496 152.985 9.69016C152.307 9.15399 151.251 8.65934 150.384 8.47094C149.419 8.26132 147.746 8.29024 146.844 8.53232ZM164.49 8.47063C161.186 9.22192 158.901 11.4225 157.965 14.7557C157.777 15.4239 157.741 15.8122 157.742 17.1647C157.742 18.8842 157.89 19.6783 158.455 20.9865C159.507 23.4232 161.841 25.3087 164.486 25.8567C165.616 26.0909 167.758 26.0134 168.8 25.7007C173.491 24.2924 175.997 19.2502 174.476 14.2789C173.569 11.3105 171.093 9.069 168.06 8.46959C167.169 8.29336 165.267 8.29389 164.49 8.47063ZM207.897 8.54158C205.106 9.24346 202.873 11.4889 202.057 14.4158C201.726 15.599 201.607 17.103 201.751 18.2737C201.912 19.5814 202.167 20.4237 202.753 21.5859C203.424 22.9134 204.774 24.2967 206.069 24.9835C207.626 25.8084 208.233 25.9514 210.182 25.9516C212.15 25.9518 212.636 25.8413 214.167 25.0461C215.225 24.4961 216.334 23.543 216.963 22.6425L217.297 22.1644L216.13 21.3811C215.487 20.9502 214.937 20.5977 214.908 20.5977C214.878 20.5977 214.545 20.918 214.168 21.3095C211.547 24.0292 206.927 23.377 205.375 20.068C205.171 19.6337 204.976 19.1305 204.941 18.9497L204.876 18.6211H211.438H218V17.2124C218 15.1658 217.715 13.9221 216.901 12.4183C215.789 10.3612 213.928 8.95977 211.684 8.48707C210.601 8.25914 208.924 8.28327 207.897 8.54158ZM1.52752 8.6944C0.505756 9.14858 0 9.95522 0 11.131C0 11.5352 0.0621407 12.0165 0.13809 12.2007C0.21404 12.3848 1.15823 13.9398 2.23635 15.6563C3.31447 17.3728 4.54774 19.3434 4.97714 20.0356C8.04914 24.9878 8.57917 25.7921 8.68781 25.6671C8.74914 25.5966 9.0901 25.0709 9.44558 24.4987C9.80106 23.9266 10.5556 22.7328 11.1224 21.846C11.6891 20.9592 12.6326 19.4775 13.219 18.5534C13.8054 17.6293 14.3749 16.747 14.4846 16.5927L14.6841 16.3122L15.8965 18.2181C16.5633 19.2663 17.529 20.7805 18.0424 21.5831C18.5558 22.3857 19.3507 23.6392 19.8089 24.3687C20.267 25.0981 20.6922 25.6942 20.7539 25.6933C20.8155 25.6922 21.0381 25.3996 21.2487 25.0431C21.4591 24.6865 22.0155 23.7861 22.4849 23.0423C23.3114 21.7328 23.8634 20.8494 27.5207 14.9843C29.426 11.9287 29.571 11.5795 29.3413 10.5983C29.0445 9.33105 28.0767 8.53034 26.8417 8.53034C26.0793 8.53034 25.5661 8.72332 25.0985 9.18583C24.9134 9.36881 24.2788 10.291 23.6881 11.2351C23.0974 12.1791 22.3778 13.3261 22.0891 13.7838C21.8002 14.2415 21.389 14.9086 21.175 15.2662C20.9612 15.6238 20.7693 15.9164 20.7486 15.9164C20.728 15.9164 20.5447 15.6471 20.3415 15.3182C20.1382 14.9893 19.8249 14.486 19.6451 14.1999C19.4654 13.9138 18.7367 12.7435 18.0261 11.5992C17.3153 10.4549 16.6354 9.40709 16.5152 9.27082C15.669 8.31115 13.6781 8.31115 12.828 9.27082C12.6317 9.49229 10.9439 12.1413 9.95235 13.7838C9.25023 14.9469 8.61156 15.9315 8.581 15.8979C8.56424 15.8794 7.67346 14.46 6.60153 12.7435C5.5296 11.027 4.50814 9.46483 4.33157 9.27186C3.86145 8.75785 3.31681 8.53461 2.53843 8.53669C2.17543 8.53773 1.72054 8.60868 1.52752 8.6944ZM54.1192 8.79613C52.0201 9.25802 50.2026 10.9333 49.4754 13.0767C49.3267 13.5154 49.3019 14.3088 49.2712 19.6354L49.2363 25.6951H51.8301H54.4238L54.4245 20.1555C54.4248 16.8099 54.4649 14.4687 54.5258 14.2442C54.5812 14.0397 54.7445 13.7588 54.8885 13.62C55.1439 13.374 55.1984 13.3668 57.0717 13.3353L58.993 13.3031V10.9687V8.63437L56.8861 8.64259C55.4951 8.6481 54.555 8.70022 54.1192 8.79613ZM112.401 17.1647V25.6951H113.866H115.331L115.37 20.3636C115.408 15.162 115.414 15.0169 115.634 14.408C116.069 13.2059 116.838 12.3983 117.971 11.953C118.442 11.7682 118.832 11.7184 120.144 11.6757L121.743 11.6237V10.1291V8.63437H120.338C118.185 8.63437 116.941 9.03925 115.883 10.0845C115.648 10.3168 115.431 10.5069 115.401 10.5069C115.371 10.5069 115.346 10.0856 115.346 9.57063V8.63437H113.874H112.401V17.1647ZM184.677 8.68867C184.648 8.71863 184.916 9.5261 185.275 10.4832C186.42 13.545 187.003 15.0935 187.693 16.9046C188.064 17.8773 188.496 19.0242 188.654 19.4533C188.903 20.1309 189.48 21.6538 190.331 23.8746C190.462 24.2178 190.668 24.768 190.788 25.0969L191.006 25.6951H192.471C193.276 25.6951 193.936 25.678 193.936 25.6572C193.936 25.6364 194.376 24.4543 194.915 23.0305C195.453 21.6066 196.201 19.6224 196.577 18.6211C196.954 17.6198 197.562 16.0048 197.93 15.0321C198.298 14.0595 198.982 12.247 199.452 11.0043C199.921 9.76173 200.281 8.72009 200.251 8.68971C200.143 8.57892 197.198 8.63229 197.129 8.7463C197.062 8.85834 196.478 10.4013 195.36 13.4197C194.086 16.8627 192.514 21.0488 192.484 21.0794C192.453 21.1108 192.234 20.5253 189.672 13.5757C188.997 11.7448 188.303 9.88407 188.131 9.44059L187.818 8.63437H186.274C185.424 8.63437 184.706 8.65882 184.677 8.68867ZM133.648 11.6762C135.178 12.2592 136.342 13.6994 136.715 15.4742L136.787 15.8123H131.702C127.42 15.8123 126.617 15.7895 126.617 15.6672C126.617 15.2932 127.059 14.1231 127.411 13.5647C128.066 12.526 128.984 11.8632 130.272 11.4984C131.128 11.2559 132.771 11.3424 133.648 11.6762ZM168.044 11.6074C168.973 11.8919 169.583 12.2701 170.278 12.9921C171.062 13.8063 171.428 14.4674 171.701 15.5611C172.07 17.0368 171.91 18.611 171.247 20.0211C170.76 21.0595 169.77 22.0088 168.697 22.4665C165.533 23.8159 162.065 22.3686 161.017 19.2612C160.815 18.6612 160.785 18.3753 160.792 17.1127C160.798 15.8831 160.834 15.5591 161.023 15.0321C161.667 13.2347 163.139 11.9249 164.998 11.4943C165.801 11.3083 167.242 11.3618 168.044 11.6074ZM211.275 11.496C212.195 11.7182 212.881 12.1113 213.558 12.8048C214.196 13.4591 214.77 14.5555 214.901 15.3702L214.972 15.8123H209.898H204.825L204.926 15.3182C205.299 13.5041 206.705 11.9891 208.467 11.5036C209.182 11.3064 210.476 11.303 211.275 11.496ZM81.3819 12.9061C82.069 13.1708 83.0498 14.094 83.2411 14.656L83.3513 14.9801H79.8081H76.2649L76.3711 14.6679C76.5195 14.2315 77.3225 13.3454 77.7914 13.1003C78.8629 12.5402 80.239 12.4658 81.3819 12.9061ZM40.12 13.2401C41.8623 14.1135 42.834 16.3981 42.279 18.3161C41.8493 19.801 40.87 20.8905 39.614 21.281C37.1261 22.0546 34.6241 19.9954 34.6241 17.1743C34.6241 15.3335 35.6345 13.7591 37.242 13.0951C37.9733 12.793 39.3683 12.8633 40.12 13.2401Z" fill="currentColor"/>
</svg>
