<svg width="114" height="31" viewBox="0 0 114 31" fill="none" xmlns="http://www.w3.org/2000/svg">
<path fill-rule="evenodd" clip-rule="evenodd" d="M1.29463 3.31085C1.331 6.51257 1.33754 6.63635 1.49352 7.06251C1.77931 7.84335 2.18219 8.3554 3.89731 10.1179L5.57146 11.8383L6.46693 10.9143L7.3624 9.99041L5.66504 8.23214C3.83909 6.34056 3.81005 6.29831 3.80919 5.53049L3.80875 5.17906H10.4395H17.0703L9.19289 13.299C4.86028 17.7649 1.2175 21.5521 1.09775 21.7148C0.503664 22.5224 0.00165762 24.0361 4.39252e-06 25.0247C-0.00157696 25.9269 0.424023 27.3123 0.942705 28.0937C1.74265 29.2988 2.89538 30.1148 4.3094 30.4771C4.89457 30.627 5.06269 30.6301 12.5934 30.6301H20.28L20.2551 27.4672L20.2302 24.3043L20.0295 23.7124C19.9191 23.3869 19.7025 22.9208 19.548 22.6766C19.3897 22.4264 18.5366 21.482 17.5929 20.5123L15.9188 18.7919L15.0227 19.7165L14.1266 20.6411L15.7925 22.3617C16.8672 23.4717 17.498 24.1799 17.5699 24.3574C17.6313 24.5087 17.6815 24.8167 17.6815 25.0418V25.4511H11.0513H4.42124L12.4083 17.2202C21.1143 8.2485 20.7374 8.67258 21.1763 7.35416C21.4373 6.57028 21.4974 5.25349 21.3117 4.38963C21.0827 3.32446 20.5383 2.34327 19.7567 1.58721C18.9908 0.84632 18.3161 0.471955 17.2143 0.176531L16.5674 0.00303456L8.9122 0.00148116L1.25703 0L1.29463 3.31085ZM92.7956 15.3151V30.6301H95.4731L98.1506 30.6301L98.131 27.667C98.1148 25.2117 98.1288 24.6785 98.2128 24.5549C98.2687 24.4729 98.4878 24.2166 98.6997 23.9851C99.0316 23.6229 100.601 21.874 100.81 21.6341C101.411 20.9429 101.664 20.7103 101.716 20.801C101.748 20.856 102.016 21.2839 102.311 21.7518C102.607 22.2198 103.106 23.0188 103.42 23.5275C103.734 24.0361 104.775 25.7008 105.734 27.2267C106.692 28.7527 107.561 30.1427 107.664 30.3156L107.853 30.6301H110.927C112.617 30.6301 114 30.6151 114 30.5968C114 30.5785 113.763 30.1873 113.473 29.7274C113.183 29.2676 112.466 28.1257 111.88 27.1897C110.61 25.1609 110.531 25.0351 109.075 22.7136C107.616 20.3872 107.388 20.0239 106.248 18.219C105.728 17.395 105.303 16.7007 105.303 16.6762C105.303 16.6356 106.945 14.7775 108.108 13.5024C108.368 13.2176 108.791 12.7515 109.047 12.4666C109.304 12.1818 109.707 11.7363 109.942 11.4766C110.178 11.217 110.402 10.9669 110.442 10.9208C110.687 10.6355 112.244 8.90571 112.634 8.4854C112.891 8.20825 113.112 7.95026 113.125 7.91201C113.14 7.86932 111.875 7.84254 109.847 7.84254H106.544L106.008 8.41593C105.713 8.73125 105.202 9.28895 104.871 9.65518C104.287 10.302 103.8 10.8381 102.753 11.9857C102.475 12.2909 101.827 13.0051 101.313 13.5727C100.799 14.1404 100.136 14.872 99.8397 15.1985C99.5432 15.525 99.0581 16.064 98.7616 16.3962C98.465 16.7285 98.1979 17.004 98.168 17.0085C98.138 17.013 98.1218 13.188 98.132 8.50841L98.1506 7.45093e-05H95.4731H92.7956V15.3151ZM32.4527 7.22335C30.2289 7.46358 28.1524 8.35289 26.9033 9.59999C25.7206 10.7809 24.9804 12.4583 24.8548 14.2423L24.834 14.5382L27.3908 14.5576L29.9477 14.5771L30.0364 14.0814C30.2738 12.7555 31.0895 11.8969 32.4944 11.494C33.1507 11.3059 34.9341 11.3066 35.5435 11.4954C36.1667 11.6883 36.7774 12.0438 37.0105 12.3493C37.5251 13.0236 37.6622 13.553 37.7145 15.068L37.7556 16.2637L37.3684 16.3075C37.1554 16.3316 35.5903 16.4513 33.8903 16.5736C32.1904 16.6959 30.5229 16.842 30.1849 16.8983C28.9163 17.1097 27.8108 17.5158 26.8821 18.1114C25.4146 19.0527 24.5219 20.2289 24.0323 21.8664C23.8472 22.4849 23.8342 22.6166 23.8342 23.8604C23.8342 25.0985 23.8479 25.2378 24.0287 25.8419C24.6388 27.8797 26.0792 29.5286 27.8884 30.2598C28.1058 30.3477 28.3808 30.4639 28.4994 30.518C28.7523 30.6333 29.5271 30.8199 30.1885 30.9248C30.7984 31.0215 32.6322 31.0209 33.1763 30.9239C33.7075 30.8292 34.4902 30.6356 34.681 30.5519C34.7601 30.5172 35.035 30.4006 35.292 30.2931C36.4404 29.812 37.5842 28.9119 38.2197 27.989L38.4335 27.6785L38.5221 28.086C38.7308 29.0462 39.3968 29.9084 40.2777 30.3592C40.9475 30.7019 41.4297 30.8094 42.2643 30.8021C43.1384 30.7944 43.6802 30.6886 44.3308 30.3986L44.8519 30.1662V28.1855V26.2048L44.2589 26.2132C43.569 26.223 43.2729 26.1016 43.0742 25.7273C42.957 25.5066 42.944 25.0534 42.9059 19.8652C42.8607 13.6871 42.8526 13.5638 42.4011 12.1727C41.5486 9.54583 39.5526 7.91423 36.5139 7.3603C35.8522 7.2397 33.1461 7.14841 32.4527 7.22335ZM56.3167 7.22306C55.1794 7.34691 53.7112 7.74258 52.8032 8.16992C50.4591 9.27312 48.968 11.4196 48.7004 14.0758L48.6501 14.5752H51.2335H53.8168L53.8574 14.223C54.079 12.2968 55.7721 11.188 58.2521 11.3448C59.8272 11.4444 60.7179 11.9188 61.1919 12.9105C61.4557 13.4623 61.528 13.9476 61.528 15.1662V16.2678L61.2225 16.3067C61.0544 16.3281 59.4797 16.4487 57.7229 16.5748C54.3741 16.8151 53.5963 16.9137 52.6509 17.2174C50.0204 18.0625 48.2703 19.8924 47.7529 22.3387C47.6065 23.0303 47.5887 24.6431 47.7204 25.2661C48.3659 28.3194 50.6093 30.3715 53.8728 30.8938C55.3149 31.1246 57.5871 30.9595 58.545 30.5542C59.2003 30.2769 60.1513 29.7792 60.5256 29.5176C61.0442 29.1551 61.8641 28.3404 62.0679 27.9851C62.1438 27.8529 62.2236 27.7446 62.2453 27.7446C62.2669 27.7446 62.3225 27.9087 62.3688 28.1092C62.6609 29.3748 63.7309 30.4268 65.0141 30.7102C65.8307 30.8904 67.2935 30.7942 67.8893 30.5211C68.0079 30.4667 68.2263 30.3708 68.3745 30.3079L68.6441 30.1937V28.1982V26.2028L68.087 26.212C67.4619 26.2222 67.197 26.1246 66.9613 25.7972C66.8131 25.5911 66.8105 25.5169 66.7673 20.0263C66.73 15.2874 66.7054 14.3493 66.601 13.6874C66.0556 10.2333 64.1052 8.17962 60.6616 7.43384C59.8852 7.26567 59.558 7.23689 58.1856 7.21595C57.3158 7.20264 56.4749 7.20589 56.3167 7.22306ZM78.4556 7.28217C76.2434 7.62073 74.5869 8.39099 73.2906 9.68381C72.3644 10.6075 71.9034 11.3605 71.564 12.5036C70.5295 15.9887 72.3627 19.4446 75.7961 20.4817C76.6716 20.7462 77.7017 20.9129 80.6839 21.2728C81.5536 21.3778 82.4747 21.5131 82.7309 21.5736C84.0478 21.8845 84.7746 22.9455 84.5964 24.297C84.4432 25.4589 83.5119 26.2675 81.9417 26.6019C81.1144 26.7781 79.238 26.7807 78.5347 26.6066C77.0611 26.2419 76.0847 25.2945 75.7168 23.8723C75.6625 23.6623 75.6176 23.399 75.6172 23.287L75.6164 23.0836H73.1258H70.6353L70.6792 23.6939C70.7877 25.1992 71.5095 26.7839 72.6684 28.0612C73.5638 29.048 74.6057 29.7519 75.9618 30.286C77.3274 30.8238 78.3642 31 80.164 31C82.3645 31 84.0115 30.6611 85.5717 29.8872C86.4561 29.4484 87.0247 29.0318 87.6921 28.3333C88.9088 27.0597 89.4564 25.7106 89.5376 23.7864C89.5851 22.661 89.4665 21.8515 89.1287 20.9972C88.5194 19.4561 87.1376 18.1608 85.3766 17.48C84.5564 17.1629 83.4815 16.9461 81.2589 16.6497C77.9749 16.2117 77.6472 16.1349 77.0337 15.6598C76.1992 15.0136 76.0806 13.556 76.7856 12.6099C77.1098 12.1748 77.653 11.8053 78.3193 11.5666C78.8455 11.3781 78.9707 11.3631 80.0369 11.3614C81.1143 11.3595 81.2233 11.3725 81.7621 11.5666C82.7844 11.935 83.3236 12.4013 83.7444 13.2811C83.8614 13.5257 83.9771 13.9002 84.0017 14.1135L84.0463 14.5012H86.588C89.0224 14.5012 89.1297 14.4954 89.1297 14.363C89.1297 14.0719 88.9128 12.9657 88.7752 12.5545C88.4211 11.4971 87.7342 10.4084 86.9124 9.6025C85.7804 8.49235 84.4227 7.80014 82.5865 7.39707C81.637 7.18858 79.4622 7.12813 78.4556 7.28217ZM37.7134 21.3634C37.6608 22.5842 37.539 23.1407 37.1606 23.889C36.4813 25.2325 35.3325 26.0669 33.6747 26.4208C32.9079 26.5845 31.6803 26.6037 31.1589 26.4602C30.2652 26.2141 29.537 25.626 29.1944 24.8737C29.0287 24.5097 29.0025 24.3565 29.0025 23.7494C29.0025 23.1464 29.0292 22.9881 29.19 22.6352C29.5366 21.8743 30.3821 21.2062 31.3405 20.9358C31.5174 20.886 32.9882 20.7367 34.6091 20.6041C36.23 20.4715 37.6014 20.3592 37.6567 20.3545C37.7403 20.3475 37.7498 20.5176 37.7134 21.3634ZM61.528 21.2748C61.528 22.2932 61.4096 22.9867 61.1213 23.6578C60.6387 24.781 59.7645 25.6212 58.5809 26.0992C57.7261 26.4444 57.3014 26.5175 56.137 26.5198C55.1375 26.5217 54.9832 26.5047 54.6373 26.3542C53.4658 25.8445 52.8082 24.908 52.8082 23.7494C52.8082 22.8249 53.2387 22.0303 54.0399 21.4761C54.7843 20.9611 55.1728 20.8748 57.6465 20.6753C60.455 20.4489 61.4069 20.3695 61.4741 20.3565C61.5037 20.3508 61.528 20.764 61.528 21.2748Z" fill="currentColor"/>
</svg>
