<?xml version="1.0" encoding="UTF-8" standalone="no"?>
<!-- Created with Inkscape (http://www.inkscape.org/) -->

<svg
   xmlns:dc="http://purl.org/dc/elements/1.1/"
   xmlns:cc="http://creativecommons.org/ns#"
   xmlns:rdf="http://www.w3.org/1999/02/22-rdf-syntax-ns#"
   xmlns:svg="http://www.w3.org/2000/svg"
   xmlns="http://www.w3.org/2000/svg"
   xmlns:sodipodi="http://sodipodi.sourceforge.net/DTD/sodipodi-0.dtd"
   xmlns:inkscape="http://www.inkscape.org/namespaces/inkscape"
   width="24"
   height="24"
   viewBox="0 0 6.3499998 6.3500002"
   version="1.1"
   id="svg8"
   inkscape:version="0.92.1 r15371"
   sodipodi:docname="cog.svg">
  <defs
     id="defs2" />
  <sodipodi:namedview
     id="base"
     pagecolor="#ffffff"
     bordercolor="#666666"
     borderopacity="1.0"
     inkscape:pageopacity="0.0"
     inkscape:pageshadow="2"
     inkscape:zoom="11.2"
     inkscape:cx="18.143793"
     inkscape:cy="11.532129"
     inkscape:document-units="mm"
     inkscape:current-layer="layer1"
     showgrid="false"
     units="px"
     inkscape:window-width="1366"
     inkscape:window-height="705"
     inkscape:window-x="-8"
     inkscape:window-y="-8"
     inkscape:window-maximized="1" />
  <metadata
     id="metadata5">
    <rdf:RDF>
      <cc:Work
         rdf:about="">
        <dc:format>image/svg+xml</dc:format>
        <dc:type
           rdf:resource="http://purl.org/dc/dcmitype/StillImage" />
        <dc:title></dc:title>
      </cc:Work>
    </rdf:RDF>
  </metadata>
  <g
     inkscape:label="Layer 1"
     inkscape:groupmode="layer"
     id="layer1"
     transform="translate(0,-290.64998)">
    <g
       id="g4871"
       transform="matrix(0.21997334,0,0,0.21997334,0.42533291,291.0752)"
       style="fill:#cccccc">
      <g
         id="g4815"
         style="fill:#cccccc">
        <path
           id="path4813"
           d="M 24.38,10.175 22.149,9.907 C 21.921,9.056 21.587,8.252 21.157,7.506 l 1.387,-1.763 c 0.212,-0.271 0.188,-0.69 -0.057,-0.934 l -2.299,-2.3 C 19.946,2.266 19.526,2.24 19.254,2.452 L 17.488,3.841 C 16.745,3.411 15.941,3.077 15.092,2.851 L 14.825,0.62 C 14.784,0.279 14.469,0 14.125,0 H 10.873 C 10.529,0 10.214,0.279 10.174,0.62 L 9.906,2.851 C 9.056,3.078 8.251,3.413 7.508,3.842 L 5.743,2.455 C 5.473,2.243 5.053,2.268 4.81,2.511 L 2.51,4.812 C 2.268,5.054 2.243,5.474 2.456,5.746 L 3.842,7.51 C 3.412,8.254 3.078,9.059 2.851,9.91 l -2.23,0.267 C 0.28,10.217 0,10.532 0,10.877 v 3.252 c 0,0.344 0.279,0.657 0.621,0.699 l 2.231,0.268 c 0.228,0.848 0.561,1.652 0.991,2.396 l -1.386,1.766 c -0.211,0.271 -0.187,0.69 0.057,0.934 l 2.296,2.301 c 0.243,0.242 0.663,0.269 0.933,0.057 l 1.766,-1.39 c 0.744,0.43 1.548,0.765 2.398,0.991 l 0.268,2.23 c 0.041,0.342 0.355,0.62 0.699,0.62 h 3.252 c 0.345,0 0.659,-0.278 0.699,-0.62 l 0.268,-2.23 c 0.851,-0.228 1.655,-0.562 2.398,-0.991 l 1.766,1.387 c 0.271,0.212 0.69,0.187 0.933,-0.056 l 2.299,-2.301 c 0.244,-0.242 0.269,-0.662 0.056,-0.935 l -1.388,-1.764 c 0.431,-0.744 0.764,-1.548 0.992,-2.397 l 2.23,-0.268 C 24.721,14.785 25,14.473 25,14.127 v -3.252 c 0.001,-0.346 -0.277,-0.659 -0.62,-0.7 z M 12.501,18.75 c -3.452,0 -6.25,-2.798 -6.25,-6.25 0,-3.452 2.798,-6.25 6.25,-6.25 3.452,0 6.25,2.798 6.25,6.25 0,3.452 -2.797,6.25 -6.25,6.25 z"
           inkscape:connector-curvature="0"
           style="fill:#cccccc" />
      </g>
      <g
         id="g4817"
         style="fill:#cccccc" />
      <g
         id="g4819"
         style="fill:#cccccc" />
      <g
         id="g4821"
         style="fill:#cccccc" />
      <g
         id="g4823"
         style="fill:#cccccc" />
      <g
         id="g4825"
         style="fill:#cccccc" />
      <g
         id="g4827"
         style="fill:#cccccc" />
      <g
         id="g4829"
         style="fill:#cccccc" />
      <g
         id="g4831"
         style="fill:#cccccc" />
      <g
         id="g4833"
         style="fill:#cccccc" />
      <g
         id="g4835"
         style="fill:#cccccc" />
      <g
         id="g4837"
         style="fill:#cccccc" />
      <g
         id="g4839"
         style="fill:#cccccc" />
      <g
         id="g4841"
         style="fill:#cccccc" />
      <g
         id="g4843"
         style="fill:#cccccc" />
      <g
         id="g4845"
         style="fill:#cccccc" />
    </g>
  </g>
</svg>
