<?xml version="1.0" encoding="UTF-8" standalone="no"?>
<!-- Created with Inkscape (http://www.inkscape.org/) -->

<svg
   xmlns:dc="http://purl.org/dc/elements/1.1/"
   xmlns:cc="http://creativecommons.org/ns#"
   xmlns:rdf="http://www.w3.org/1999/02/22-rdf-syntax-ns#"
   xmlns:svg="http://www.w3.org/2000/svg"
   xmlns="http://www.w3.org/2000/svg"
   xmlns:sodipodi="http://sodipodi.sourceforge.net/DTD/sodipodi-0.dtd"
   xmlns:inkscape="http://www.inkscape.org/namespaces/inkscape"
   width="24"
   height="24"
   viewBox="0 0 6.3499998 6.3500002"
   version="1.1"
   id="svg8"
   inkscape:version="0.92.1 r15371"
   sodipodi:docname="laravel.svg">
  <defs
     id="defs2" />
  <sodipodi:namedview
     id="base"
     pagecolor="#ffffff"
     bordercolor="#666666"
     borderopacity="1.0"
     inkscape:pageopacity="0.0"
     inkscape:pageshadow="2"
     inkscape:zoom="7.9195959"
     inkscape:cx="8.9665325"
     inkscape:cy="2.4837283"
     inkscape:document-units="mm"
     inkscape:current-layer="layer1"
     showgrid="false"
     units="px"
     inkscape:window-width="1366"
     inkscape:window-height="705"
     inkscape:window-x="-8"
     inkscape:window-y="-8"
     inkscape:window-maximized="1" />
  <metadata
     id="metadata5">
    <rdf:RDF>
      <cc:Work
         rdf:about="">
        <dc:format>image/svg+xml</dc:format>
        <dc:type
           rdf:resource="http://purl.org/dc/dcmitype/StillImage" />
        <dc:title></dc:title>
      </cc:Work>
    </rdf:RDF>
  </metadata>
  <g
     inkscape:label="Layer 1"
     inkscape:groupmode="layer"
     id="layer1"
     transform="translate(0,-290.64998)">
    <path
       style="fill:#cccccc;stroke-width:0.01088075"
       d="m 2.5646348,296.56191 c -0.032913,-0.0199 -0.1010896,-0.0599 -0.1515003,-0.0888 -0.050414,-0.0289 -0.1125521,-0.0647 -0.1380913,-0.0798 -0.041109,-0.0241 -0.1243186,-0.0718 -0.2863264,-0.16442 -0.07113,-0.0406 -0.2614758,-0.15042 -0.2999819,-0.17303 -0.017955,-0.0106 -0.081606,-0.0473 -0.141449,-0.0816 -0.059842,-0.0343 -0.1234964,-0.071 -0.1414498,-0.0816 -0.029392,-0.0172 -0.1863228,-0.1076 -0.290488,-0.16724 -0.17293203,-0.099 -0.23624946,-0.13543 -0.27656335,-0.15904 -0.0255391,-0.0149 -0.0871196,-0.0502 -0.13683915,-0.0784 -0.13683392,-0.0774 -0.19718155,-0.12009 -0.21240629,-0.15012 -0.0110002,-0.0217 -0.0132632,-0.39184 -0.011175,-1.82955 0.002534,-1.73964 0.00332,-1.80311 0.0228393,-1.8247 0.0111226,-0.0123 0.0380597,-0.0316 0.0598417,-0.0429 0.0217821,-0.0113 0.10448845,-0.0581 0.18378203,-0.10392 0.13187725,-0.0763 0.35114406,-0.20291 0.48691296,-0.28125 0.029925,-0.0173 0.061746,-0.0358 0.070728,-0.0412 0.00897,-0.005 0.048151,-0.0281 0.08705,-0.0502 0.038898,-0.0222 0.099349,-0.0568 0.1343341,-0.0768 0.034984,-0.02 0.072965,-0.0364 0.084394,-0.0364 0.017361,0 0.1200452,0.0545 0.2872255,0.1525 0.032057,0.0188 0.1155009,0.067 0.3862662,0.22302 0.074809,0.0432 0.1849729,0.10676 0.2448173,0.14141 0.059842,0.0347 0.1214807,0.0695 0.1369702,0.0776 0.015491,0.008 0.037527,0.025 0.048964,0.0376 0.020131,0.0223 0.020978,0.0598 0.026238,1.15895 l 0.00542,1.13596 0.1360091,-0.0778 c 0.074809,-0.0427 0.1825248,-0.10455 0.2393766,-0.13733 0.056854,-0.0328 0.1229521,-0.0708 0.1468906,-0.0844 0.02394,-0.0136 0.08759,-0.0505 0.1414489,-0.0818 0.053857,-0.0314 0.1224087,-0.0707 0.1523304,-0.0874 l 0.054407,-0.0304 0.00542,-0.59213 c 0.00446,-0.48288 0.00821,-0.59547 0.020533,-0.6103 0.0083,-0.01 0.054818,-0.0407 0.1033666,-0.0682 0.048553,-0.0275 0.1029655,-0.0587 0.120918,-0.0693 0.017955,-0.0106 0.081606,-0.0474 0.1414499,-0.0817 0.059842,-0.0343 0.1234964,-0.071 0.1414498,-0.0816 0.017955,-0.0106 0.081606,-0.0473 0.1414498,-0.0816 0.059842,-0.0343 0.1234965,-0.071 0.1414499,-0.0814 0.017955,-0.0105 0.081606,-0.0469 0.1414489,-0.0809 0.059842,-0.034 0.113459,-0.0665 0.1191444,-0.0721 0.019065,-0.0189 0.092464,-0.0108 0.1340668,0.0146 0.053542,0.0328 0.073664,0.0447 0.1384958,0.0817 0.029925,0.0171 0.071541,0.0412 0.092487,0.0534 0.020943,0.0123 0.087041,0.0504 0.1468896,0.0847 0.059842,0.0343 0.1234965,0.071 0.1414499,0.0816 0.079981,0.0469 0.2532024,0.14624 0.2828987,0.16216 0.1077073,0.0578 0.2145627,0.12605 0.2285799,0.14606 0.013936,0.0199 0.016234,0.11097 0.016234,0.64204 v 0.61885 l -0.030921,0.0288 c -0.017003,0.0159 -0.045067,0.0362 -0.062358,0.0452 -0.017291,0.009 -0.08539,0.0476 -0.1513344,0.0858 -0.06594,0.0382 -0.1394839,0.0806 -0.1634215,0.0943 -0.02394,0.0136 -0.090038,0.0518 -0.1468896,0.0848 -0.091314,0.0531 -0.2516979,0.14489 -0.3354912,0.19204 -0.015954,0.009 -0.057168,0.0327 -0.091578,0.0527 l -0.062568,0.0364 v 0.5841 c 0,0.49633 -0.00245,0.58753 -0.015998,0.60693 -0.0088,0.0126 -0.056539,0.0461 -0.1060865,0.0745 -0.049549,0.0284 -0.1366059,0.0786 -0.1934577,0.1114 -0.056854,0.0328 -0.122953,0.0709 -0.1468906,0.0846 -0.02394,0.0136 -0.08759,0.0504 -0.1414489,0.0818 -0.053857,0.0313 -0.1175123,0.0681 -0.1414499,0.0816 -0.02394,0.0135 -0.087591,0.0503 -0.1414498,0.0816 -0.1112179,0.0647 -0.1094993,0.0637 -0.3155413,0.18157 -0.083782,0.048 -0.2184315,0.12526 -0.2992209,0.17184 -0.080785,0.0466 -0.1934053,0.11145 -0.2502572,0.14418 -0.056854,0.0328 -0.1180557,0.0682 -0.1360091,0.0786 -0.1764173,0.10339 -0.2704306,0.15233 -0.2909912,0.15149 -0.013499,-5.6e-4 -0.05148,-0.0173 -0.084394,-0.0372 z m 0.010878,-0.69025 v -0.51086 l -0.073446,-0.0402 c -0.040392,-0.0221 -0.112615,-0.0633 -0.160491,-0.0915 -0.047872,-0.0282 -0.1188718,-0.0686 -0.1577711,-0.0897 -0.060156,-0.0327 -0.2956867,-0.16594 -0.4243486,-0.24014 -0.020943,-0.0121 -0.060113,-0.0339 -0.08705,-0.0485 -0.026928,-0.0146 -0.068553,-0.0397 -0.092487,-0.0558 l -0.043521,-0.0292 -0.0028,-1.19312 -0.0028,-1.19313 -0.08428,-0.048 c -0.046351,-0.0264 -0.1283447,-0.0736 -0.1822049,-0.10511 -0.053857,-0.0314 -0.1175114,-0.0683 -0.1414489,-0.082 -0.16750973,-0.0956 -0.30533708,-0.17513 -0.39353833,-0.22714 -0.0369151,-0.0217 -0.0724147,-0.0396 -0.078889,-0.0396 -0.008388,0 -0.0117691,0.48736 -0.0117691,1.69675 v 1.69675 l 0.0843236,0.048 c 0.070641,0.0402 0.31155623,0.17794 0.43250923,0.24737 0.017955,0.0103 0.076713,0.0444 0.1305692,0.0757 0.053857,0.0313 0.1175123,0.0681 0.1414498,0.0816 0.02394,0.0135 0.08759,0.0503 0.141449,0.0816 0.053857,0.0313 0.1175123,0.0681 0.1414498,0.0818 0.02394,0.0136 0.092487,0.053 0.1523304,0.0873 0.059842,0.0343 0.1234964,0.0709 0.1414498,0.0812 0.017955,0.0103 0.081606,0.0472 0.1414499,0.0819 0.1650842,0.0958 0.4240008,0.24405 0.4270685,0.24446 0.00149,2.1e-4 0.00271,-0.22951 0.00271,-0.51049 z m 0.2937802,0.43557 c 0.044884,-0.0253 0.1281211,-0.0732 0.184973,-0.10655 0.056854,-0.0333 0.1229521,-0.0716 0.1468896,-0.085 0.050545,-0.0284 0.2460003,-0.14048 0.2937802,-0.16852 0.017955,-0.0106 0.081606,-0.0473 0.1414499,-0.0816 0.059842,-0.0343 0.1259446,-0.0725 0.1468896,-0.0847 0.020943,-0.0123 0.064359,-0.0374 0.096476,-0.0557 0.032118,-0.0183 0.07618,-0.0438 0.097927,-0.0564 0.063136,-0.0366 0.3157195,-0.18226 0.466603,-0.26907 0.076303,-0.0439 0.1570905,-0.0909 0.1795322,-0.10444 l 0.040803,-0.0246 v -0.49582 c 0,-0.27269 -0.00253,-0.49832 -0.00559,-0.50138 -0.00306,-0.003 -0.023879,0.004 -0.046246,0.0164 -0.050432,0.0273 -0.6518328,0.36936 -0.79144,0.45017 -0.096186,0.0557 -0.2888436,0.16593 -0.3645051,0.2086 -0.046509,0.0262 -0.2292588,0.13092 -0.2992209,0.17143 -0.1769941,0.10245 -0.3547482,0.20282 -0.3835455,0.21655 l -0.03536,0.0169 v 0.51582 0.51582 l 0.024482,-0.0159 c 0.013464,-0.009 0.061205,-0.0366 0.1060874,-0.0619 z m -0.08705,-1.15452 c 0.014958,-0.01 0.070589,-0.0421 0.123617,-0.0715 0.100056,-0.0554 0.1452715,-0.0809 0.219127,-0.12397 0.02394,-0.014 0.1120715,-0.0644 0.1958535,-0.1121 0.083782,-0.0477 0.171915,-0.0982 0.1958526,-0.11218 0.02394,-0.014 0.060663,-0.0349 0.081606,-0.0464 0.031105,-0.0171 0.2479365,-0.1409 0.6101114,-0.34837 0.027365,-0.0156 0.1130492,-0.0642 0.1904128,-0.10796 0.1484964,-0.0839 0.1855277,-0.10787 0.1779481,-0.11525 -0.00253,-0.003 -0.070746,-0.0424 -0.1515362,-0.0885 -0.080794,-0.0462 -0.1934053,-0.11102 -0.2502571,-0.14402 -0.056854,-0.033 -0.1229521,-0.071 -0.1468897,-0.0845 -0.096149,-0.0541 -0.2306419,-0.13234 -0.2665784,-0.15502 -0.04774,-0.0301 -0.071654,-0.0302 -0.1196887,-4.2e-4 -0.020943,0.013 -0.1005103,0.0595 -0.1768114,0.10332 -0.194168,0.11154 -0.3911189,0.22498 -0.5630785,0.32432 -0.080785,0.0467 -0.2105426,0.12136 -0.2883404,0.16595 -0.780244,0.44721 -0.8240939,0.473 -0.8287308,0.48737 -0.00192,0.006 0.073647,0.0536 0.16784,0.10624 0.094192,0.0526 0.1908435,0.1069 0.2147811,0.12065 0.02394,0.0137 0.070449,0.04 0.1033666,0.0584 0.032913,0.0183 0.1331826,0.0751 0.2228185,0.1259 l 0.1629741,0.0925 0.0492,-0.0281 c 0.027059,-0.0155 0.061441,-0.0363 0.076399,-0.0463 z m -0.9912165,-0.62404 c 0.045469,-0.0262 0.099812,-0.0573 0.1207573,-0.0692 0.020943,-0.0119 0.065014,-0.0376 0.097927,-0.0572 0.059571,-0.0356 0.080881,-0.0478 0.1740915,-0.10004 0.026928,-0.0151 0.075892,-0.0435 0.1088073,-0.0632 0.062227,-0.0371 0.089839,-0.053 0.1771766,-0.10158 0.028623,-0.0159 0.064123,-0.0369 0.078889,-0.0466 l 0.026841,-0.0176 v -1.0977 c 0,-0.87104 -0.0028,-1.09766 -0.013604,-1.09747 -0.00751,1.3e-4 -0.025845,0.01 -0.040803,0.0215 -0.014958,0.0117 -0.03024,0.0214 -0.033953,0.0215 -0.00367,1.2e-4 -0.062472,0.0328 -0.1305693,0.0724 -0.068098,0.0398 -0.1409553,0.0819 -0.1619004,0.0938 -0.2510434,0.14232 -0.4966855,0.28682 -0.5030681,0.29591 -0.00997,0.0142 -0.011035,2.17577 -0.00105,2.18573 0.011009,0.011 0.011961,0.0107 0.1004841,-0.0404 z m 2.8546536,-1.5689 c -0.010528,-0.008 -0.086587,-0.0524 -0.1690107,-0.0992 -0.082428,-0.0468 -0.1681091,-0.0954 -0.1904128,-0.10816 -0.069793,-0.0398 -0.2566537,-0.14735 -0.2908104,-0.16725 -0.1574207,-0.0917 -0.1887474,-0.10881 -0.1997713,-0.10881 -0.00943,0 -0.011909,0.12682 -0.00979,0.50202 l 0.0028,0.50202 0.114248,0.0652 c 0.1625557,0.0927 0.1679012,0.0958 0.2883395,0.16572 0.1580009,0.0917 0.4090916,0.23526 0.4406699,0.25194 l 0.027199,0.0143 0.0028,-0.5018 c 0.00262,-0.46828 0.00157,-0.50275 -0.016321,-0.51602 z m 0.339914,0.93313 c 0.065827,-0.0377 0.1270324,-0.0734 0.1360091,-0.0791 0.016348,-0.0105 0.2879988,-0.1657 0.4515505,-0.25807 0.047872,-0.027 0.1005112,-0.0585 0.1169679,-0.07 l 0.029925,-0.0208 v -0.49433 c 0,-0.45212 -0.00157,-0.49434 -0.017955,-0.49434 -0.00987,0 -0.052721,0.0202 -0.095207,0.0449 -0.042489,0.0247 -0.091943,0.0535 -0.109896,0.0639 -0.017955,0.0105 -0.081606,0.0471 -0.1414498,0.0815 -0.059842,0.0343 -0.1234964,0.071 -0.1414498,0.0816 -0.041686,0.0245 -0.2352028,0.13555 -0.2992201,0.17177 -0.026928,0.0152 -0.057535,0.033 -0.068002,0.0395 -0.017693,0.0109 -0.019038,0.0474 -0.019038,0.51475 0,0.47475 0.00105,0.50254 0.019038,0.49517 0.010476,-0.004 0.072904,-0.0387 0.1387299,-0.0764 z m -0.2175132,-1.06853 c 0.00376,-0.006 0.022402,-0.0182 0.041441,-0.0268 0.019039,-0.009 0.054206,-0.0275 0.078138,-0.042 0.038034,-0.0229 0.1668107,-0.0973 0.3046608,-0.17596 0.02394,-0.0136 0.08759,-0.0504 0.1414498,-0.0818 0.1131786,-0.0658 0.1403149,-0.0813 0.2257752,-0.12967 0.034408,-0.0194 0.062568,-0.0394 0.062568,-0.0445 0,-0.005 -0.05508,-0.0405 -0.1224086,-0.0788 -0.1706473,-0.0971 -0.4321781,-0.24719 -0.4671736,-0.26802 -0.037902,-0.0226 -0.2735193,-0.15794 -0.2817105,-0.16185 -0.00341,-0.002 -0.06221,0.0296 -0.1305684,0.0695 -0.068361,0.0398 -0.1389851,0.0809 -0.1569385,0.0911 -0.4918241,0.28108 -0.5930002,0.34068 -0.5930002,0.34938 0,0.004 0.028152,0.0237 0.062568,0.0431 0.034407,0.0195 0.077255,0.0438 0.095207,0.0541 0.1690413,0.0969 0.255378,0.14662 0.2828987,0.16278 0.017955,0.0106 0.081606,0.0473 0.1414499,0.0816 0.1448373,0.0831 0.1647915,0.0948 0.228496,0.13381 0.059012,0.0361 0.076617,0.041 0.087146,0.0239 z m -3.0330404,-0.65409 c 0.064298,-0.0367 0.1315889,-0.0753 0.1495414,-0.0858 0.027531,-0.0162 0.1126867,-0.0651 0.2828997,-0.16275 0.017955,-0.0103 0.081606,-0.0472 0.1414498,-0.082 0.059842,-0.0349 0.1221745,-0.0702 0.1385132,-0.0786 0.045268,-0.0232 0.044936,-0.0317 -0.00227,-0.0592 -0.02394,-0.014 -0.1084481,-0.0626 -0.1877959,-0.10814 -0.079343,-0.0455 -0.2103696,-0.12097 -0.291159,-0.16766 -0.2887362,-0.16682 -0.3501428,-0.2011 -0.3601706,-0.2011 -0.00559,0 -0.042402,0.0196 -0.081807,0.0435 -0.039405,0.0239 -0.072694,0.0435 -0.073996,0.0435 -0.00131,0 -0.060777,0.0339 -0.132177,0.0754 -0.071401,0.0415 -0.1883219,0.10879 -0.2598183,0.14961 -0.0714973,0.0408 -0.15718218,0.0902 -0.19041274,0.10976 -0.0332279,0.0196 -0.076329,0.0437 -0.0957817,0.0537 -0.0194492,0.01 -0.0353598,0.0237 -0.0353598,0.0305 0,0.007 0.0159106,0.0208 0.0353598,0.0311 0.0194492,0.0104 0.0549488,0.0303 0.0788803,0.0443 0.0239402,0.0141 0.0637648,0.0371 0.0884974,0.0512 0.0247353,0.0142 0.0712526,0.0409 0.10336744,0.0594 0.2074033,0.11984 0.365122,0.21125 0.4500992,0.26087 0.053857,0.0315 0.1040778,0.0576 0.1115962,0.0581 0.00751,5e-4 0.066272,-0.0291 0.1305693,-0.0658 z"
       id="path4900"
       inkscape:connector-curvature="0" />
  </g>
</svg>
