<?xml version="1.0" encoding="UTF-8" standalone="no"?>
<!-- Created with Inkscape (http://www.inkscape.org/) -->

<svg
   xmlns:dc="http://purl.org/dc/elements/1.1/"
   xmlns:cc="http://creativecommons.org/ns#"
   xmlns:rdf="http://www.w3.org/1999/02/22-rdf-syntax-ns#"
   xmlns:svg="http://www.w3.org/2000/svg"
   xmlns="http://www.w3.org/2000/svg"
   xmlns:sodipodi="http://sodipodi.sourceforge.net/DTD/sodipodi-0.dtd"
   xmlns:inkscape="http://www.inkscape.org/namespaces/inkscape"
   width="24"
   height="24"
   viewBox="0 0 6.3499998 6.3500002"
   version="1.1"
   id="svg8"
   inkscape:version="0.92.1 r15371"
   sodipodi:docname="mongodb.svg">
  <defs
     id="defs2" />
  <sodipodi:namedview
     id="base"
     pagecolor="#ffffff"
     bordercolor="#666666"
     borderopacity="1.0"
     inkscape:pageopacity="0.0"
     inkscape:pageshadow="2"
     inkscape:zoom="11.2"
     inkscape:cx="20.344779"
     inkscape:cy="10.647726"
     inkscape:document-units="mm"
     inkscape:current-layer="layer1"
     showgrid="false"
     units="px"
     inkscape:window-width="1366"
     inkscape:window-height="705"
     inkscape:window-x="-8"
     inkscape:window-y="-8"
     inkscape:window-maximized="1" />
  <metadata
     id="metadata5">
    <rdf:RDF>
      <cc:Work
         rdf:about="">
        <dc:format>image/svg+xml</dc:format>
        <dc:type
           rdf:resource="http://purl.org/dc/dcmitype/StillImage" />
        <dc:title></dc:title>
      </cc:Work>
    </rdf:RDF>
  </metadata>
  <g
     inkscape:label="Layer 1"
     inkscape:groupmode="layer"
     id="layer1"
     transform="translate(0,-290.64998)">
    <g
       id="g4919"
       transform="matrix(0.19574933,0,0,0.19574933,0.04298221,290.69283)">
      <path
         id="path4902"
         d="m 15.9,0.087 0.854,1.604 c 0.192,0.296 0.4,0.558 0.645,0.802 a 22.406,22.406 0 0 1 2.004,2.266 c 1.447,1.9 2.423,4.01 3.12,6.292 0.418,1.394 0.645,2.824 0.662,4.27 0.07,4.323 -1.412,8.035 -4.4,11.12 a 12.7,12.7 0 0 1 -1.57,1.342 c -0.296,0 -0.436,-0.227 -0.558,-0.436 a 3.589,3.589 0 0 1 -0.436,-1.255 c -0.105,-0.523 -0.174,-1.046 -0.14,-1.586 V 24.262 C 16.057,24.21 15.796,0.21 15.9,0.087 Z"
         inkscape:connector-curvature="0"
         style="fill:#599636" />
      <path
         id="path4904"
         d="m 15.9,0.034 c -0.035,-0.07 -0.07,-0.017 -0.105,0.017 0.017,0.35 -0.105,0.662 -0.296,0.96 -0.21,0.296 -0.488,0.523 -0.767,0.767 -1.55,1.342 -2.77,2.963 -3.747,4.776 -1.3,2.44 -1.97,5.055 -2.16,7.808 -0.087,0.993 0.314,4.497 0.627,5.508 0.854,2.684 2.388,4.933 4.375,6.885 0.488,0.47 1.01,0.906 1.55,1.325 0.157,0 0.174,-0.14 0.21,-0.244 a 4.78,4.78 0 0 0 0.157,-0.68 l 0.35,-2.614 z"
         inkscape:connector-curvature="0"
         style="fill:#6cac48" />
      <path
         id="path4906"
         d="m 16.754,28.845 c 0.035,-0.4 0.227,-0.732 0.436,-1.063 -0.21,-0.087 -0.366,-0.26 -0.488,-0.453 a 3.235,3.235 0 0 1 -0.26,-0.575 c -0.244,-0.732 -0.296,-1.5 -0.366,-2.248 v -0.453 c -0.087,0.07 -0.105,0.662 -0.105,0.75 a 17.37,17.37 0 0 1 -0.314,2.353 c -0.052,0.314 -0.087,0.627 -0.28,0.906 0,0.035 0,0.07 0.017,0.122 0.314,0.924 0.4,1.865 0.453,2.824 v 0.35 c 0,0.418 -0.017,0.33 0.33,0.47 0.14,0.052 0.296,0.07 0.436,0.174 0.105,0 0.122,-0.087 0.122,-0.157 L 16.683,31.27 v -1.604 c -0.017,-0.28 0.035,-0.558 0.07,-0.82 z"
         inkscape:connector-curvature="0"
         style="fill:#c2bfbf" />
    </g>
  </g>
</svg>
