<?xml version="1.0" encoding="UTF-8" standalone="no"?>
<!-- Generator: Adobe Illustrator 16.0.0, SVG Export Plug-In . SVG Version: 6.00 Build 0)  -->

<svg
   xmlns:dc="http://purl.org/dc/elements/1.1/"
   xmlns:cc="http://creativecommons.org/ns#"
   xmlns:rdf="http://www.w3.org/1999/02/22-rdf-syntax-ns#"
   xmlns:svg="http://www.w3.org/2000/svg"
   xmlns="http://www.w3.org/2000/svg"
   xmlns:sodipodi="http://sodipodi.sourceforge.net/DTD/sodipodi-0.dtd"
   xmlns:inkscape="http://www.inkscape.org/namespaces/inkscape"
   version="1.1"
   id="Capa_1"
   x="0px"
   y="0px"
   width="24"
   height="24"
   viewBox="0 0 23.999999 23.999999"
   xml:space="preserve"
   sodipodi:docname="44553.svg"
   inkscape:version="0.92.1 r15371"><metadata
     id="metadata41"><rdf:RDF><cc:Work
         rdf:about=""><dc:format>image/svg+xml</dc:format><dc:type
           rdf:resource="http://purl.org/dc/dcmitype/StillImage" /><dc:title></dc:title></cc:Work></rdf:RDF></metadata><defs
     id="defs39" /><sodipodi:namedview
     pagecolor="#ffffff"
     bordercolor="#666666"
     borderopacity="1"
     objecttolerance="10"
     gridtolerance="10"
     guidetolerance="10"
     inkscape:pageopacity="0"
     inkscape:pageshadow="2"
     inkscape:window-width="1366"
     inkscape:window-height="705"
     id="namedview37"
     showgrid="false"
     inkscape:zoom="12.678969"
     inkscape:cx="12.185863"
     inkscape:cy="5.491966"
     inkscape:window-x="-8"
     inkscape:window-y="-8"
     inkscape:window-maximized="1"
     inkscape:current-layer="Capa_1" /><g
     id="g4"
     transform="matrix(0.52966118,0,0,0.52966118,2.1411479,2.1408868)"
     style="fill:#cccccc"><path
       d="M 20.824,29.931 19.428,26.255 H 7.529 L 6.13,30.011 C 5.583,31.475 5.118,32.462 4.732,32.976 4.347,33.489 3.714,33.745 2.836,33.745 2.09,33.745 1.432,33.474 0.858,32.928 0.286,32.382 0,31.763 0,31.07 0,30.673 0.065,30.258 0.198,29.835 0.332,29.408 0.552,28.814 0.858,28.058 L 8.346,9.048 C 8.559,8.502 8.815,7.846 9.114,7.08 9.416,6.314 9.735,5.68 10.073,5.174 c 0.341,-0.506 0.785,-0.915 1.341,-1.229 0.551,-0.312 1.231,-0.469 2.045,-0.469 0.826,0 1.517,0.156 2.065,0.469 0.556,0.313 0.998,0.716 1.34,1.209 0.339,0.492 0.625,1.021 0.857,1.587 0.232,0.566 0.529,1.321 0.889,2.268 l 7.649,18.89 c 0.599,1.438 0.897,2.481 0.897,3.135 0,0.681 -0.282,1.304 -0.85,1.867 -0.566,0.565 -1.248,0.851 -2.049,0.851 -0.465,0 -0.863,-0.084 -1.195,-0.25 -0.334,-0.166 -0.613,-0.395 -0.84,-0.68 -0.229,-0.286 -0.471,-0.727 -0.729,-1.316 -0.259,-0.601 -0.482,-1.124 -0.669,-1.575 z M 9.084,21.804 H 17.83 L 13.416,9.722 Z M 36.533,29.263 30.676,14.939 C 30.403,14.222 30.174,13.65 29.994,13.22 29.816,12.791 29.598,12.391 29.34,12.017 c -0.26,-0.373 -0.6,-0.678 -1.02,-0.913 -0.418,-0.236 -0.941,-0.354 -1.568,-0.352 -0.619,0.003 -1.135,0.123 -1.553,0.361 -0.422,0.239 -0.758,0.552 -1.015,0.937 -0.258,0.386 -0.497,0.869 -0.725,1.451 -0.146,0.374 -0.271,0.699 -0.39,1.005 l 2.14,5.289 1.524,-4.295 3.383,9.16 -2.934,0.013 1.307,3.223 c 0.021,0.055 0.037,0.1 0.06,0.154 l 2.793,-0.012 1.069,2.787 c 0.146,0.344 0.314,0.739 0.515,1.188 0.197,0.449 0.386,0.783 0.56,1 0.172,0.217 0.385,0.388 0.639,0.514 0.252,0.125 0.557,0.188 0.91,0.188 0.604,-0.002 1.123,-0.221 1.551,-0.649 0.432,-0.433 0.643,-0.904 0.641,-1.42 -0.005,-0.5 -0.235,-1.292 -0.694,-2.383 z"
       id="path2"
       inkscape:connector-curvature="0"
       style="fill:#cccccc" /></g><g
     id="g6"
     transform="translate(0,-13.227001)" /><g
     id="g8"
     transform="translate(0,-13.227001)" /><g
     id="g10"
     transform="translate(0,-13.227001)" /><g
     id="g12"
     transform="translate(0,-13.227001)" /><g
     id="g14"
     transform="translate(0,-13.227001)" /><g
     id="g16"
     transform="translate(0,-13.227001)" /><g
     id="g18"
     transform="translate(0,-13.227001)" /><g
     id="g20"
     transform="translate(0,-13.227001)" /><g
     id="g22"
     transform="translate(0,-13.227001)" /><g
     id="g24"
     transform="translate(0,-13.227001)" /><g
     id="g26"
     transform="translate(0,-13.227001)" /><g
     id="g28"
     transform="translate(0,-13.227001)" /><g
     id="g30"
     transform="translate(0,-13.227001)" /><g
     id="g32"
     transform="translate(0,-13.227001)" /><g
     id="g34"
     transform="translate(0,-13.227001)" /></svg>