<?xml version="1.0" encoding="UTF-8" standalone="no"?>
<svg
   xmlns:dc="http://purl.org/dc/elements/1.1/"
   xmlns:cc="http://creativecommons.org/ns#"
   xmlns:rdf="http://www.w3.org/1999/02/22-rdf-syntax-ns#"
   xmlns:svg="http://www.w3.org/2000/svg"
   xmlns="http://www.w3.org/2000/svg"
   xmlns:sodipodi="http://sodipodi.sourceforge.net/DTD/sodipodi-0.dtd"
   xmlns:inkscape="http://www.inkscape.org/namespaces/inkscape"
   id="Layer_1"
   data-name="Layer 1"
   viewBox="0 0 24 24"
   version="1.1"
   sodipodi:docname="webflow.svg"
   inkscape:version="0.92.1 r15371">
  <metadata
     id="metadata22">
    <rdf:RDF>
      <cc:Work
         rdf:about="">
        <dc:format>image/svg+xml</dc:format>
        <dc:type
           rdf:resource="http://purl.org/dc/dcmitype/StillImage" />
      </cc:Work>
    </rdf:RDF>
  </metadata>
  <sodipodi:namedview
     pagecolor="#ffffff"
     bordercolor="#666666"
     borderopacity="1"
     objecttolerance="10"
     gridtolerance="10"
     guidetolerance="10"
     inkscape:pageopacity="0"
     inkscape:pageshadow="2"
     inkscape:window-width="1366"
     inkscape:window-height="705"
     id="namedview20"
     showgrid="false"
     inkscape:zoom="9.8333333"
     inkscape:cx="-4.5254237"
     inkscape:cy="12"
     inkscape:window-x="-8"
     inkscape:window-y="-8"
     inkscape:window-maximized="1"
     inkscape:current-layer="Layer_1" />
  <defs
     id="defs7">
    <style
       id="style2">.cls-1{clip-rule:evenodd;}.cls-2{fill-rule:evenodd;}.cls-3{clip-path:url(#clip-path);}.cls-4{fill:#fff;}</style>
    <clipPath
       id="clip-path">
      <polygon
         class="cls-1"
         points="201.85 -59.9 196 -64.82 196 -60.85 179.85 -60.85 179.85 -58.92 196 -58.92 196 -55 201.85 -59.9"
         id="polygon4" />
    </clipPath>
  </defs>
  <title
     id="title9">24-wolfdew</title>
  <polygon
     class="cls-2"
     points="201.85 -59.9 196 -64.82 196 -60.85 179.85 -60.85 179.85 -58.92 196 -58.92 196 -55 201.85 -59.9"
     id="polygon11" />
  <g
     class="cls-3"
     clip-path="url(#clip-path)"
     id="g15">
    <rect
       x="-997.15"
       y="-6140.82"
       width="1440"
       height="8007"
       id="rect13" />
  </g>
  <path
     class="cls-4"
     d="M17.1,9.78s-1.54,4.75-1.66,5.15c0-.4-1.17-8.93-1.17-8.93-2.63,0-4,1.83-4.78,3.78,0,0-1.88,4.76-2,5.16,0-.37-.29-5.11-.29-5.11A4.26,4.26,0,0,0,3,6L5.16,18.93c2.76,0,4.23-1.84,5-3.78,0,0,1.65-4.2,1.72-4.39,0,.18,1.19,8.18,1.19,8.18a5.29,5.29,0,0,0,5.05-3.59L22,6C19.27,6,17.84,7.83,17.1,9.78Z"
     id="path17"
     style="fill:#cccccc" />
</svg>
