<?xml version="1.0" encoding="UTF-8" standalone="no"?>
<svg
   xmlns:dc="http://purl.org/dc/elements/1.1/"
   xmlns:cc="http://creativecommons.org/ns#"
   xmlns:rdf="http://www.w3.org/1999/02/22-rdf-syntax-ns#"
   xmlns:svg="http://www.w3.org/2000/svg"
   xmlns="http://www.w3.org/2000/svg"
   xmlns:sodipodi="http://sodipodi.sourceforge.net/DTD/sodipodi-0.dtd"
   xmlns:inkscape="http://www.inkscape.org/namespaces/inkscape"
   width="24"
   height="24"
   viewBox="0 0 24 24"
   fill="none"
   version="1.1"
   id="svg4"
   sodipodi:docname="branding.svg"
   inkscape:version="0.92.1 r15371">
  <metadata
     id="metadata10">
    <rdf:RDF>
      <cc:Work
         rdf:about="">
        <dc:format>image/svg+xml</dc:format>
        <dc:type
           rdf:resource="http://purl.org/dc/dcmitype/StillImage" />
        <dc:title></dc:title>
      </cc:Work>
    </rdf:RDF>
  </metadata>
  <defs
     id="defs8" />
  <sodipodi:namedview
     pagecolor="#ffffff"
     bordercolor="#666666"
     borderopacity="1"
     objecttolerance="10"
     gridtolerance="10"
     guidetolerance="10"
     inkscape:pageopacity="0"
     inkscape:pageshadow="2"
     inkscape:window-width="1366"
     inkscape:window-height="705"
     id="namedview6"
     showgrid="false"
     inkscape:zoom="13.906433"
     inkscape:cx="11.3768"
     inkscape:cy="14.903441"
     inkscape:window-x="-8"
     inkscape:window-y="-8"
     inkscape:window-maximized="1"
     inkscape:current-layer="svg4" />
  <path
     style="fill:#1a1a1a;stroke-width:0.04268426"
     d="m 11.687737,22.85979 c -0.291181,-0.158023 -0.273826,-0.360887 0.100313,-1.172873 1.292225,-2.804433 1.997918,-5.895515 2.016812,-8.834081 0.0046,-0.775744 -0.0018,-0.854032 -0.09913,-1.151393 -0.277375,-0.84707 -0.956147,-1.389698 -1.885155,-1.507048 -0.934841,-0.118088 -1.8639214,0.337934 -2.2724622,1.115399 -0.2138221,0.406902 -0.2709135,0.715576 -0.3011839,1.628411 -0.08364,2.522971 -0.6580667,4.885089 -1.7285605,7.108488 -0.6175303,1.282595 -0.7838171,1.463116 -1.1762126,1.276916 -0.3031315,-0.143843 -0.30831,-0.405519 -0.018202,-0.920125 1.2716015,-2.255725 2.0361788,-5.215323 2.0443426,-7.913464 0.00182,-0.525946 0.091193,-0.912061 0.3169652,-1.36589 0.3444598,-0.692432 0.8405445,-1.1953884 1.4968004,-1.5175504 1.016123,-0.4988241 2.085816,-0.433569 3.043028,0.185645 0.544193,0.3520414 1.032542,0.9361064 1.268762,1.5174504 0.231888,0.570687 0.273107,1.099882 0.189995,2.439532 -0.184443,2.972986 -0.928061,5.899329 -2.154848,8.479929 -0.215233,0.452754 -0.292574,0.575128 -0.397893,0.629589 -0.16089,0.08318 -0.291418,0.08355 -0.443352,9.1e-4 z M 8.8278964,22.432947 c -0.3033773,-0.16464 -0.2793412,-0.37018 0.1380187,-1.18029 1.3083609,-2.53959 1.9881889,-5.195201 2.1175249,-8.271768 l 0.02958,-0.704291 0.143934,-0.14418 c 0.129227,-0.129446 0.161937,-0.141769 0.319996,-0.120572 0.110315,0.01483 0.217463,0.06516 0.286932,0.13497 l 0.11087,0.111352 -0.0055,0.713511 c -0.01738,2.185492 -0.536976,4.72359 -1.43412,7.005663 -0.341293,0.868148 -1.0612932,2.314837 -1.2104699,2.432178 -0.1325308,0.104245 -0.3304804,0.113582 -0.4966126,0.02339 z m 6.1295966,-0.0375 c -0.169581,-0.07381 -0.27226,-0.220157 -0.27226,-0.388054 0,-0.07235 0.0688,-0.302249 0.152908,-0.510811 0.531361,-1.317735 1.057597,-3.191158 1.336929,-4.759493 0.2912,-1.634974 0.456131,-3.938826 0.346644,-4.842205 C 16.3714,10.654603 15.94209,9.7588234 15.089269,8.9059924 14.56558,8.3823131 14.102906,8.0665401 13.511104,7.8289185 11.011805,6.8254 8.2393078,7.8298286 7.0681827,10.163715 6.6878463,10.921585 6.5832742,11.398502 6.5325718,12.606496 6.486065,13.715333 6.4320862,14.260163 6.2926113,15.029719 6.0643457,16.289161 5.702703,17.453652 5.1922476,18.572909 4.8845291,19.247631 4.7194709,19.510426 4.5532204,19.590334 4.2993169,19.712371 3.9915893,19.54046 3.9445001,19.250307 3.9250236,19.13019 3.9692552,19.008326 4.1987039,18.550566 5.1229424,16.706485 5.5287074,15.013874 5.6362556,12.554028 5.6597365,12.016697 5.7068804,11.463876 5.7432758,11.299063 6.0028948,10.123014 6.6063547,9.0544046 7.4854971,8.2139421 8.3384828,7.3984803 9.3214055,6.8840568 10.502178,6.6351226 c 0.542346,-0.1143376 1.582114,-0.1028065 2.176882,0.024118 2.331047,0.4975591 4.141427,2.3066737 4.6602,4.6569324 0.08974,0.406794 0.0985,0.546706 0.09436,1.515276 -0.01183,2.773271 -0.574364,5.806069 -1.583407,8.536856 -0.312842,0.846651 -0.369733,0.953499 -0.547196,1.027655 -0.17436,0.07281 -0.176917,0.07281 -0.345525,-5.46e-4 z m 3.415665,-2.047273 c -0.08355,-0.08355 -0.145126,-0.18813 -0.145126,-0.246477 0,-0.05579 0.07618,-0.398603 0.169354,-0.761911 0.533754,-2.081857 0.800572,-3.963954 0.880298,-6.209523 C 19.335654,11.497984 19.104881,10.27237 18.505562,9.0293553 16.833674,5.5617801 12.781867,3.8815012 9.0509106,5.1085345 8.4555598,5.3043363 7.5037904,5.7836203 7.0020721,6.1402665 6.2138227,6.7005961 5.3160594,7.6963605 4.8078702,8.5739739 4.5612294,8.9999161 4.238758,9.7789369 4.0975448,10.289975 c -0.1974765,0.714648 -0.2565883,1.151166 -0.2979439,2.200027 -0.055062,1.396196 -0.207151,2.378308 -0.538496,3.477107 -0.2199744,0.729483 -0.3211154,0.930199 -0.5080891,1.008323 -0.2813525,0.117551 -0.6169569,-0.08673 -0.6169569,-0.375567 0,-0.06917 0.059066,-0.292247 0.1313476,-0.495784 0.3776971,-1.064223 0.5720792,-2.184346 0.6345767,-3.656764 0.022935,-0.539952 0.070716,-1.154606 0.1062831,-1.365889 0.4641852,-2.7603565 2.2702782,-5.1620642 4.8160024,-6.40426 3.2882953,-1.6045302 7.1797493,-0.9336127 9.8035973,1.6902356 1.307169,1.3071688 2.136328,2.9212916 2.465398,4.7993934 0.09019,0.514596 0.101232,2.432961 0.0192,3.329368 -0.187301,2.046873 -0.39842,3.317555 -0.843466,5.07654 -0.17273,0.682704 -0.223323,0.799053 -0.37817,0.869605 -0.201954,0.09202 -0.360323,0.06325 -0.517673,-0.09413 z m 3.791479,-7.577642 C 22.042145,12.648052 22.039078,12.633863 22.0102,12.055577 21.874738,9.3427741 20.888066,7.0171336 19.082055,5.1537034 17.906352,3.9406222 16.492345,3.0488838 14.919997,2.5289086 13.742437,2.1394892 12.852118,1.9976116 11.569286,1.9949541 10.289111,1.9922238 9.3303701,2.1422469 8.1820889,2.524713 5.5583953,3.398604 3.4450935,5.2436135 2.1676126,7.7756132 1.8928675,8.3201614 1.8378966,8.4014528 1.69773,8.4704121 1.4901877,8.5725086 1.270814,8.5094559 1.1511795,8.3132173 1.0328921,8.1192357 1.0469715,8.0217534 1.2574353,7.5774724 2.8608916,4.1925325 6.1799574,1.7486956 9.9230451,1.1969574 15.08368,0.43627541 20.163771,3.4049748 22.126285,8.3282887 c 0.474943,1.1914661 0.796276,2.7982443 0.796868,3.9845773 1.27e-4,0.275692 -0.0082,0.300674 -0.144981,0.43751 -0.195993,0.195993 -0.43002,0.203683 -0.613535,0.0202 z"
     id="path4515"
     inkscape:connector-curvature="0" />
</svg>
