<?xml version="1.0" encoding="UTF-8" standalone="no"?>
<svg
   xmlns:dc="http://purl.org/dc/elements/1.1/"
   xmlns:cc="http://creativecommons.org/ns#"
   xmlns:rdf="http://www.w3.org/1999/02/22-rdf-syntax-ns#"
   xmlns:svg="http://www.w3.org/2000/svg"
   xmlns="http://www.w3.org/2000/svg"
   xmlns:sodipodi="http://sodipodi.sourceforge.net/DTD/sodipodi-0.dtd"
   xmlns:inkscape="http://www.inkscape.org/namespaces/inkscape"
   height="24"
   version="1.1"
   viewBox="0 0 23.999999 24"
   width="24"
   xml:space="preserve"
   id="svg10"
   sodipodi:docname="ecommerce.svg"
   inkscape:version="0.92.1 r15371"><metadata
     id="metadata16"><rdf:RDF><cc:Work
         rdf:about=""><dc:format>image/svg+xml</dc:format><dc:type
           rdf:resource="http://purl.org/dc/dcmitype/StillImage" /><dc:title></dc:title></cc:Work></rdf:RDF></metadata><defs
     id="defs14" /><sodipodi:namedview
     pagecolor="#ffffff"
     bordercolor="#666666"
     borderopacity="1"
     objecttolerance="10"
     gridtolerance="10"
     guidetolerance="10"
     inkscape:pageopacity="0"
     inkscape:pageshadow="2"
     inkscape:window-width="1366"
     inkscape:window-height="705"
     id="namedview12"
     showgrid="false"
     inkscape:zoom="10.164199"
     inkscape:cx="4.159089"
     inkscape:cy="3.299619"
     inkscape:window-x="-8"
     inkscape:window-y="-8"
     inkscape:window-maximized="1"
     inkscape:current-layer="svg10" /><g
     id="shopping_bag_1"
     transform="matrix(0.01168149,0,0,0.01168149,3.2988485,3.35078)"
     style="fill:#6600ff"><g
       id="g6"
       style="fill:#6600ff"><path
         d="M 1489.672,1327.532 1438.934,152.623 C 1438.056,68.021 1368.594,0 1283.34,0 H 206.31 C 121.084,0 51.645,68.025 50.768,152.626 L 0.062,1327.801 C 0.021,1328.75 0,1329.809 0,1330.757 0,1416.301 69.798,1486 155.592,1486 h 1178.556 c 85.79,0 155.586,-69.834 155.586,-155.377 -10e-4,-0.949 -0.022,-2.141 -0.062,-3.091 z M 1334.147,1354 H 155.592 c -12.819,0 -22.93,-9.909 -23.431,-22.337 L 182.84,156.711 c 0.04,-0.952 0.061,-1.513 0.061,-2.461 0,-12.694 10.283,-22.25 23.409,-22.25 h 1077.03 c 13.154,0 23.46,9.477 23.46,22.172 0,0.95 0.021,1.668 0.062,2.616 l 50.711,1174.995 c -0.503,12.424 -10.611,22.217 -23.426,22.217 z"
         id="path2"
         inkscape:connector-curvature="0"
         style="fill:#6600ff" /><path
         d="m 965.5,256.603 c -36.489,0 -66.5,29.58 -66.5,66.071 v 199.672 c 0,84.12 -68.813,152.559 -153.539,152.559 C 660.779,674.905 592,606.466 592,522.346 V 322.674 c 0,-36.491 -29.511,-66.071 -66,-66.071 -36.489,0 -66,29.58 -66,66.071 v 199.672 c 0,156.983 128.416,284.7 285.961,284.7 157.588,0 286.039,-127.717 286.039,-284.7 V 322.674 c 0,-36.491 -30.012,-66.071 -66.5,-66.071 z"
         id="path4"
         inkscape:connector-curvature="0"
         style="fill:#6600ff" /></g></g><g
     id="Layer_1"
     transform="translate(0,-1462)" /></svg>