<?xml version="1.0" encoding="UTF-8" standalone="no"?>
<svg
   xmlns:dc="http://purl.org/dc/elements/1.1/"
   xmlns:cc="http://creativecommons.org/ns#"
   xmlns:rdf="http://www.w3.org/1999/02/22-rdf-syntax-ns#"
   xmlns:svg="http://www.w3.org/2000/svg"
   xmlns="http://www.w3.org/2000/svg"
   xmlns:sodipodi="http://sodipodi.sourceforge.net/DTD/sodipodi-0.dtd"
   xmlns:inkscape="http://www.inkscape.org/namespaces/inkscape"
   height="24"
   version="1.1"
   viewBox="0 0 23.999999 24"
   width="24"
   xml:space="preserve"
   id="svg10"
   sodipodi:docname="email.svg"
   inkscape:version="0.92.1 r15371"><metadata
     id="metadata16"><rdf:RDF><cc:Work
         rdf:about=""><dc:format>image/svg+xml</dc:format><dc:type
           rdf:resource="http://purl.org/dc/dcmitype/StillImage" /><dc:title></dc:title></cc:Work></rdf:RDF></metadata><defs
     id="defs14" /><sodipodi:namedview
     pagecolor="#ffffff"
     bordercolor="#666666"
     borderopacity="1"
     objecttolerance="10"
     gridtolerance="10"
     guidetolerance="10"
     inkscape:pageopacity="0"
     inkscape:pageshadow="2"
     inkscape:window-width="1366"
     inkscape:window-height="705"
     id="namedview12"
     showgrid="false"
     inkscape:zoom="10.164199"
     inkscape:cx="4.159089"
     inkscape:cy="3.299619"
     inkscape:window-x="-8"
     inkscape:window-y="-8"
     inkscape:window-maximized="1"
     inkscape:current-layer="svg10" /><g
     id="Layer_1"
     transform="translate(0,-1462)" /><g
     id="_8-Email"
     data-name="8-Email"
     transform="matrix(0.44960204,0,0,0.44960204,1.209551,1.209551)"
     style="fill:#333333;stroke:#333333;stroke-opacity:1"><path
       id="path4495"
       d="M 45,7 H 3 a 3,3 0 0 0 -3,3 v 28 a 3,3 0 0 0 3,3 h 42 a 3,3 0 0 0 3,-3 V 10 A 3,3 0 0 0 45,7 Z M 44.36,9 24,24.74 3.64,9 Z M 2,37.59 V 10.26 L 17.41,22.17 Z M 3.41,39 19,23.41 23.38,26.8 a 1,1 0 0 0 1.22,0 L 29,23.41 44.59,39 Z M 46,37.59 30.59,22.17 46,10.26 Z"
       inkscape:connector-curvature="0"
       style="fill:#333333;stroke:#333333;stroke-opacity:1" /></g></svg>