<?xml version="1.0" encoding="UTF-8" standalone="no"?>
<!-- Created with Inkscape (http://www.inkscape.org/) -->

<svg
   xmlns:dc="http://purl.org/dc/elements/1.1/"
   xmlns:cc="http://creativecommons.org/ns#"
   xmlns:rdf="http://www.w3.org/1999/02/22-rdf-syntax-ns#"
   xmlns:svg="http://www.w3.org/2000/svg"
   xmlns="http://www.w3.org/2000/svg"
   xmlns:sodipodi="http://sodipodi.sourceforge.net/DTD/sodipodi-0.dtd"
   xmlns:inkscape="http://www.inkscape.org/namespaces/inkscape"
   width="24"
   height="24"
   viewBox="0 0 6.3499998 6.3500002"
   version="1.1"
   id="svg8"
   inkscape:version="0.92.1 r15371"
   sodipodi:docname="laravel.svg">
  <defs
     id="defs2" />
  <sodipodi:namedview
     id="base"
     pagecolor="#ffffff"
     bordercolor="#666666"
     borderopacity="1.0"
     inkscape:pageopacity="0.0"
     inkscape:pageshadow="2"
     inkscape:zoom="11.2"
     inkscape:cx="4.4081492"
     inkscape:cy="5.2600684"
     inkscape:document-units="mm"
     inkscape:current-layer="layer1"
     showgrid="false"
     units="px"
     inkscape:window-width="1366"
     inkscape:window-height="705"
     inkscape:window-x="-8"
     inkscape:window-y="-8"
     inkscape:window-maximized="1" />
  <metadata
     id="metadata5">
    <rdf:RDF>
      <cc:Work
         rdf:about="">
        <dc:format>image/svg+xml</dc:format>
        <dc:type
           rdf:resource="http://purl.org/dc/dcmitype/StillImage" />
        <dc:title />
      </cc:Work>
    </rdf:RDF>
  </metadata>
  <g
     inkscape:label="Layer 1"
     inkscape:groupmode="layer"
     id="layer1"
     transform="translate(0,-290.64998)">
    <path
       style="fill:#ff2d20;fill-opacity:1;stroke-width:0.01152937"
       d="m 2.5282496,296.72506 c -0.034875,-0.0211 -0.1071157,-0.0635 -0.1605315,-0.0941 -0.053419,-0.0306 -0.1192615,-0.0686 -0.1463231,-0.0846 -0.04356,-0.0255 -0.1317295,-0.0761 -0.3033948,-0.17422 -0.07537,-0.043 -0.2770629,-0.15938 -0.3178644,-0.18334 -0.019025,-0.0112 -0.086471,-0.0501 -0.149881,-0.0865 -0.063409,-0.0363 -0.1308583,-0.0752 -0.1498819,-0.0865 -0.031144,-0.0182 -0.1974298,-0.11402 -0.30780451,-0.17721 -0.18324082,-0.1049 -0.25033271,-0.1435 -0.29304978,-0.16852 -0.0270615,-0.0158 -0.092313,-0.0532 -0.14499638,-0.0831 -0.14499083,-0.082 -0.20893589,-0.12725 -0.22506821,-0.15907 -0.0116559,-0.023 -0.0140538,-0.4152 -0.0118412,-1.93862 0.002685,-1.84334 0.003518,-1.91059 0.0242008,-1.93347 0.0117856,-0.013 0.0403285,-0.0335 0.063409,-0.0455 0.0230806,-0.012 0.1107172,-0.0616 0.19473761,-0.11011 0.13973869,-0.0808 0.37207638,-0.21501 0.51593867,-0.29802 0.031709,-0.0183 0.065427,-0.0379 0.074944,-0.0437 0.0095,-0.005 0.051021,-0.0298 0.092239,-0.0532 0.041217,-0.0235 0.1052713,-0.0602 0.142342,-0.0814 0.037069,-0.0212 0.077314,-0.0386 0.089425,-0.0386 0.018396,0 0.1272013,0.0577 0.3043476,0.16159 0.033968,0.0199 0.1223861,0.071 0.4092922,0.23631 0.079268,0.0458 0.1959994,0.11312 0.2594113,0.14984 0.063409,0.0368 0.1287223,0.0736 0.1451352,0.0822 0.016414,0.008 0.039764,0.0265 0.051883,0.0398 0.021331,0.0236 0.022229,0.0634 0.027802,1.22803 l 0.00574,1.20368 0.1441169,-0.0824 c 0.079268,-0.0452 0.1934054,-0.11078 0.2536462,-0.14551 0.060243,-0.0348 0.1302815,-0.075 0.155647,-0.0894 0.025367,-0.0144 0.092811,-0.0535 0.149881,-0.0867 0.057068,-0.0333 0.1297057,-0.0749 0.1614111,-0.0926 l 0.05765,-0.0322 0.00574,-0.62743 c 0.00473,-0.51167 0.0087,-0.63097 0.021757,-0.64668 0.00879,-0.0106 0.058086,-0.0431 0.1095284,-0.0723 0.051447,-0.0291 0.1091035,-0.0622 0.1281262,-0.0734 0.019025,-0.0112 0.086471,-0.0502 0.1498819,-0.0866 0.063409,-0.0363 0.1308583,-0.0752 0.1498819,-0.0865 0.019025,-0.0112 0.086471,-0.0501 0.1498819,-0.0865 0.063409,-0.0363 0.1308583,-0.0752 0.149882,-0.0863 0.019025,-0.0111 0.086471,-0.0497 0.1498809,-0.0857 0.063409,-0.036 0.1202225,-0.0705 0.1262468,-0.0764 0.020201,-0.02 0.097976,-0.0114 0.1420588,0.0155 0.056734,0.0348 0.078055,0.0474 0.1467517,0.0866 0.031709,0.0181 0.075806,0.0437 0.098,0.0566 0.022191,0.013 0.09223,0.0534 0.1556459,0.0897 0.063409,0.0364 0.1308584,0.0752 0.149882,0.0865 0.084749,0.0497 0.2682962,0.15495 0.2997628,0.17182 0.1141279,0.0613 0.2273531,0.13357 0.2422059,0.15477 0.014767,0.0211 0.017202,0.11759 0.017202,0.68031 v 0.65574 l -0.032764,0.0305 c -0.018017,0.0169 -0.047753,0.0384 -0.066075,0.0479 -0.018322,0.01 -0.09048,0.0504 -0.1603557,0.0909 -0.069871,0.0405 -0.1477988,0.0854 -0.1731633,0.0999 -0.025367,0.0144 -0.095405,0.0549 -0.155646,0.0899 -0.096757,0.0563 -0.266702,0.15352 -0.3554904,0.20348 -0.016905,0.01 -0.060576,0.0346 -0.097037,0.0558 l -0.066298,0.0386 v 0.61892 c 0,0.52591 -0.0026,0.62255 -0.016952,0.64311 -0.00932,0.0134 -0.059909,0.0488 -0.1124105,0.0789 -0.052503,0.0301 -0.1447492,0.0833 -0.20499,0.11804 -0.060243,0.0347 -0.1302825,0.0751 -0.1556471,0.0896 -0.025367,0.0144 -0.092811,0.0534 -0.1498809,0.0867 -0.057068,0.0332 -0.1245174,0.0722 -0.149882,0.0865 -0.025367,0.0143 -0.092812,0.0533 -0.1498818,0.0865 -0.1178478,0.0686 -0.1160268,0.0675 -0.3343513,0.19239 -0.088776,0.0509 -0.2314526,0.13273 -0.317058,0.18208 -0.085601,0.0494 -0.2049345,0.1181 -0.2651755,0.15278 -0.060243,0.0348 -0.1250932,0.0723 -0.1441168,0.0833 -0.1869339,0.10956 -0.2865515,0.16141 -0.3083377,0.16052 -0.014304,-5.9e-4 -0.054549,-0.0183 -0.089425,-0.0394 z m 0.011526,-0.73139 v -0.54132 l -0.077824,-0.0426 c -0.0428,-0.0234 -0.1193282,-0.0671 -0.1700582,-0.097 -0.050726,-0.0299 -0.125958,-0.0727 -0.1671761,-0.095 -0.063742,-0.0346 -0.3133131,-0.17584 -0.4496448,-0.25446 -0.022191,-0.0128 -0.063696,-0.0359 -0.092239,-0.0514 -0.028533,-0.0155 -0.07264,-0.0421 -0.098,-0.0591 l -0.046115,-0.0309 -0.00297,-1.26424 -0.00297,-1.26426 -0.089304,-0.0509 c -0.049114,-0.028 -0.1359955,-0.078 -0.1930664,-0.11137 -0.057068,-0.0333 -0.1245165,-0.0724 -0.149881,-0.0869 -0.17749524,-0.1013 -0.32353872,-0.18557 -0.41699781,-0.24068 -0.0391157,-0.023 -0.0767315,-0.042 -0.0835917,-0.042 -0.008888,0 -0.0124707,0.51641 -0.0124707,1.79789 v 1.7979 l 0.0893503,0.0509 c 0.074852,0.0426 0.33012865,0.18855 0.45829191,0.26212 0.019025,0.0109 0.081286,0.047 0.1383526,0.0802 0.057068,0.0332 0.1245174,0.0722 0.1498819,0.0865 0.025367,0.0143 0.092811,0.0533 0.149881,0.0865 0.057067,0.0332 0.1245174,0.0722 0.1498819,0.0867 0.025367,0.0144 0.098,0.0562 0.1614111,0.0925 0.063409,0.0363 0.1308582,0.0751 0.1498819,0.086 0.019025,0.0109 0.086471,0.05 0.1498819,0.0868 0.1749252,0.10151 0.4492763,0.2586 0.4525268,0.25903 0.00158,2.3e-4 0.00287,-0.24319 0.00287,-0.54092 z m 0.311293,0.46153 c 0.04756,-0.0268 0.1357586,-0.0776 0.1959995,-0.1129 0.060243,-0.0353 0.1302815,-0.0759 0.155646,-0.0901 0.053558,-0.0301 0.2606648,-0.14885 0.3112929,-0.17856 0.019025,-0.0112 0.086471,-0.0501 0.149882,-0.0865 0.063409,-0.0363 0.1334524,-0.0768 0.155646,-0.0897 0.022191,-0.013 0.068195,-0.0396 0.1022271,-0.059 0.034033,-0.0194 0.080721,-0.0464 0.1037646,-0.0598 0.0669,-0.0388 0.3345401,-0.19312 0.494418,-0.28511 0.080852,-0.0465 0.166455,-0.0963 0.1902345,-0.11066 l 0.043235,-0.0261 v -0.52538 c 0,-0.28894 -0.00268,-0.52802 -0.00592,-0.53127 -0.00324,-0.003 -0.025302,0.004 -0.049003,0.0174 -0.053438,0.0289 -0.6906898,0.39138 -0.8386192,0.47701 -0.1019198,0.059 -0.3060621,0.17582 -0.3862339,0.22103 -0.049282,0.0278 -0.2429253,0.13873 -0.317058,0.18165 -0.187545,0.10856 -0.3758953,0.21491 -0.4064093,0.22946 l -0.037468,0.0179 v 0.54657 0.54657 l 0.025941,-0.0168 c 0.014267,-0.01 0.064854,-0.0388 0.1124115,-0.0656 z m -0.092239,-1.22334 c 0.01585,-0.0106 0.074797,-0.0446 0.130986,-0.0758 0.1060205,-0.0587 0.1539314,-0.0857 0.2321895,-0.13136 0.025367,-0.0148 0.1187523,-0.0682 0.2075287,-0.11879 0.088776,-0.0505 0.1821632,-0.10405 0.2075277,-0.11886 0.025367,-0.0148 0.064279,-0.037 0.086471,-0.0492 0.032959,-0.0181 0.2627165,-0.1493 0.6464812,-0.36914 0.028996,-0.0165 0.1197883,-0.068 0.2017637,-0.11439 0.1573485,-0.0889 0.1965873,-0.1143 0.1885559,-0.12212 -0.00268,-0.003 -0.074963,-0.0449 -0.1605696,-0.0938 -0.08561,-0.049 -0.2049345,-0.11764 -0.2651753,-0.1526 -0.060243,-0.035 -0.1302815,-0.0752 -0.1556461,-0.0895 -0.1018806,-0.0573 -0.2443909,-0.14023 -0.2824696,-0.16426 -0.050586,-0.0319 -0.075925,-0.032 -0.1268235,-4.5e-4 -0.022191,0.0138 -0.1065019,0.063 -0.1873515,0.10948 -0.2057427,0.11819 -0.4144342,0.23839 -0.5966446,0.34366 -0.085601,0.0495 -0.2230934,0.12859 -0.3055289,0.17584 -0.8267557,0.47387 -0.8732196,0.5012 -0.8781329,0.51642 -0.00203,0.006 0.078037,0.0568 0.1778452,0.11258 0.099807,0.0557 0.2022201,0.11327 0.2275846,0.12784 0.025367,0.0145 0.074649,0.0424 0.1095285,0.0619 0.034875,0.0194 0.1411218,0.0796 0.2361011,0.1334 l 0.1726893,0.098 0.052133,-0.0298 c 0.028672,-0.0164 0.065104,-0.0385 0.080953,-0.0491 z m -1.0503047,-0.66124 c 0.04818,-0.0278 0.105762,-0.0607 0.1279558,-0.0733 0.022191,-0.0126 0.06889,-0.0398 0.1037646,-0.0606 0.063122,-0.0377 0.085703,-0.0507 0.1844694,-0.106 0.028533,-0.016 0.080416,-0.0461 0.1152935,-0.067 0.065936,-0.0393 0.095194,-0.0562 0.1877385,-0.10763 0.030329,-0.0168 0.067945,-0.0391 0.083592,-0.0494 l 0.028441,-0.0186 v -1.16314 c 0,-0.92296 -0.00297,-1.16309 -0.014415,-1.16289 -0.00796,1.4e-4 -0.027386,0.0106 -0.043235,0.0228 -0.01585,0.0124 -0.032043,0.0227 -0.035977,0.0228 -0.00389,1.2e-4 -0.066196,0.0347 -0.1383528,0.0767 -0.072157,0.0422 -0.1493579,0.0868 -0.1715515,0.0994 -0.2660086,0.15081 -0.5262938,0.30392 -0.5330569,0.31355 -0.010564,0.0151 -0.011693,2.30547 -0.00111,2.31603 0.011665,0.0116 0.012674,0.0113 0.1064741,-0.0428 z m 3.0248246,-1.66243 c -0.011156,-0.008 -0.091749,-0.0555 -0.1790858,-0.10511 -0.087342,-0.0496 -0.1781303,-0.10109 -0.2017636,-0.11461 -0.073954,-0.0422 -0.2719533,-0.15613 -0.3081461,-0.17722 -0.1668049,-0.0972 -0.199999,-0.11529 -0.2116801,-0.11529 -0.00999,0 -0.012619,0.13438 -0.010374,0.53194 l 0.00297,0.53195 0.1210585,0.0691 c 0.1722459,0.0982 0.1779101,0.10151 0.3055279,0.17559 0.1674196,0.0972 0.4334783,0.24929 0.466939,0.26696 l 0.02882,0.0152 0.00297,-0.53172 c 0.00278,-0.49619 0.00166,-0.53272 -0.017294,-0.54678 z m 0.3601768,0.98876 c 0.069751,-0.0399 0.1346051,-0.0778 0.1441169,-0.0838 0.017322,-0.0111 0.3051669,-0.17557 0.4784682,-0.27345 0.050726,-0.0286 0.1065029,-0.062 0.1239406,-0.0742 l 0.031709,-0.022 v -0.5238 c 0,-0.47907 -0.00166,-0.52381 -0.019025,-0.52381 -0.010458,0 -0.055864,0.0214 -0.1008824,0.0476 -0.045022,0.0262 -0.097424,0.0567 -0.1164471,0.0677 -0.019025,0.0111 -0.086471,0.0499 -0.1498819,0.0864 -0.063409,0.0363 -0.1308582,0.0752 -0.1498819,0.0865 -0.044171,0.026 -0.2492236,0.14363 -0.3170571,0.18201 -0.028533,0.0161 -0.060965,0.035 -0.072056,0.0419 -0.018748,0.0115 -0.020173,0.0502 -0.020173,0.54544 0,0.50305 0.00111,0.5325 0.020173,0.52469 0.0111,-0.004 0.07725,-0.041 0.1469998,-0.081 z m -0.2304795,-1.13223 c 0.00398,-0.006 0.023737,-0.0193 0.043911,-0.0284 0.020174,-0.01 0.057437,-0.0291 0.082796,-0.0445 0.040301,-0.0243 0.1767546,-0.1031 0.3228222,-0.18645 0.025367,-0.0144 0.092811,-0.0534 0.1498819,-0.0867 0.1199253,-0.0697 0.1486793,-0.0861 0.239234,-0.1374 0.036459,-0.0206 0.066298,-0.0417 0.066298,-0.0472 0,-0.005 -0.058363,-0.0429 -0.1297056,-0.0835 -0.1808199,-0.10289 -0.457941,-0.26193 -0.4950226,-0.284 -0.040161,-0.024 -0.2898243,-0.16736 -0.2985038,-0.1715 -0.00361,-0.002 -0.065918,0.0314 -0.1383518,0.0736 -0.072436,0.0422 -0.1472703,0.0857 -0.1662939,0.0965 -0.5211426,0.29784 -0.62835,0.36099 -0.62835,0.37021 0,0.004 0.02983,0.0251 0.066298,0.0457 0.036458,0.0207 0.08186,0.0464 0.1008825,0.0573 0.1791181,0.10267 0.2706015,0.15536 0.2997627,0.17248 0.019025,0.0112 0.086471,0.0501 0.149882,0.0865 0.1534713,0.0881 0.174615,0.10045 0.2421171,0.14179 0.06253,0.0383 0.081184,0.0434 0.092341,0.0253 z m -3.2138453,-0.69308 c 0.068131,-0.0389 0.1394331,-0.0798 0.1584558,-0.0909 0.029172,-0.0172 0.1194041,-0.069 0.2997638,-0.17246 0.019025,-0.0109 0.086471,-0.05 0.1498819,-0.0869 0.063409,-0.037 0.1294576,-0.0744 0.1467702,-0.0833 0.047967,-0.0246 0.047615,-0.0336 -0.00241,-0.0627 -0.025367,-0.0148 -0.1149129,-0.0663 -0.1989907,-0.11458 -0.084073,-0.0482 -0.2229101,-0.12819 -0.3085155,-0.17766 -0.3059483,-0.17676 -0.3710155,-0.21309 -0.3816411,-0.21309 -0.00592,0 -0.04493,0.0208 -0.086684,0.0461 -0.041754,0.0253 -0.077027,0.0461 -0.078407,0.0461 -0.00139,0 -0.0644,0.0359 -0.1400564,0.0799 -0.075657,0.044 -0.1995481,0.11528 -0.27530648,0.15853 -0.0757594,0.0432 -0.16655209,0.0956 -0.20176358,0.11631 -0.0352087,0.0208 -0.0808791,0.0463 -0.10149142,0.0569 -0.0206086,0.0106 -0.0374677,0.0251 -0.0374677,0.0323 0,0.007 0.0168591,0.022 0.0374677,0.033 0.0206086,0.011 0.0582244,0.0321 0.0835825,0.0469 0.0253673,0.0149 0.0675659,0.0393 0.0937729,0.0543 0.0262098,0.0151 0.0755001,0.0433 0.10952936,0.0629 0.21976692,0.12699 0.38688752,0.22385 0.47693042,0.27642 0.057068,0.0334 0.110282,0.061 0.1182486,0.0616 0.00796,5.3e-4 0.070223,-0.0308 0.1383528,-0.0697 z"
       id="path4900"
       inkscape:connector-curvature="0" />
  </g>
</svg>
