<?xml version="1.0" encoding="UTF-8" standalone="no"?>
<!-- Created with Inkscape (http://www.inkscape.org/) -->

<svg
   xmlns:dc="http://purl.org/dc/elements/1.1/"
   xmlns:cc="http://creativecommons.org/ns#"
   xmlns:rdf="http://www.w3.org/1999/02/22-rdf-syntax-ns#"
   xmlns:svg="http://www.w3.org/2000/svg"
   xmlns="http://www.w3.org/2000/svg"
   xmlns:sodipodi="http://sodipodi.sourceforge.net/DTD/sodipodi-0.dtd"
   xmlns:inkscape="http://www.inkscape.org/namespaces/inkscape"
   width="24"
   height="24"
   viewBox="0 0 6.3499998 6.3500002"
   version="1.1"
   id="svg8"
   inkscape:version="0.92.1 r15371"
   sodipodi:docname="pencil.svg">
  <defs
     id="defs2" />
  <sodipodi:namedview
     id="base"
     pagecolor="#ffffff"
     bordercolor="#666666"
     borderopacity="1.0"
     inkscape:pageopacity="0.0"
     inkscape:pageshadow="2"
     inkscape:zoom="11.2"
     inkscape:cx="-10.824734"
     inkscape:cy="12.688192"
     inkscape:document-units="mm"
     inkscape:current-layer="layer1"
     showgrid="false"
     units="px"
     inkscape:window-width="1366"
     inkscape:window-height="705"
     inkscape:window-x="-8"
     inkscape:window-y="-8"
     inkscape:window-maximized="1" />
  <metadata
     id="metadata5">
    <rdf:RDF>
      <cc:Work
         rdf:about="">
        <dc:format>image/svg+xml</dc:format>
        <dc:type
           rdf:resource="http://purl.org/dc/dcmitype/StillImage" />
        <dc:title />
      </cc:Work>
    </rdf:RDF>
  </metadata>
  <g
     inkscape:label="Layer 1"
     inkscape:groupmode="layer"
     id="layer1"
     transform="translate(0,-290.64998)">
    <g
       id="g4735"
       transform="matrix(0.01201978,0,0,0.01201978,0.35434317,291.0043)"
       style="fill:#333333;fill-opacity:1">
      <g
         id="g4678"
         style="fill:#333333;fill-opacity:1">
        <g
           id="g4676"
           style="fill:#333333;fill-opacity:1">
          <path
             id="path4674"
             d="m 456.836,76.168 -64,-64.054 C 376.711,-4.025 348.659,-4.056 332.471,12.145 L 45.763,301.682 c -1.271,1.282 -2.188,2.857 -2.688,4.587 L 0.409,455.73 c -1.063,3.722 -0.021,7.736 2.719,10.478 2.031,2.033 4.75,3.128 7.542,3.128 0.979,0 1.969,-0.136 2.927,-0.407 L 162.93,426.226 c 1.729,-0.5 3.302,-1.418 4.583,-2.69 L 456.836,136.553 c 8.063,-8.069 12.5,-18.787 12.5,-30.192 0,-11.405 -4.437,-22.124 -12.5,-30.193 z m -170.847,13.569 39.264,39.264 -204.996,204.997 -14.712,-29.434 c -1.813,-3.615 -5.5,-5.896 -9.542,-5.896 H 78.921 Z M 26.201,443.137 40.095,394.5 74.837,429.242 Z M 149.336,407.96 98.301,422.539 46.798,371.036 61.377,320.001 h 28.031 l 18.385,36.771 c 1.031,2.063 2.708,3.74 4.771,4.771 l 36.771,18.385 v 28.032 z m 21.334,-17.543 v -17.082 c 0,-4.042 -2.281,-7.729 -5.896,-9.542 L 135.34,349.081 340.336,144.085 379.6,183.349 Z M 441.784,121.72 394.751,168.333 301.004,74.586 347.586,27.585 c 8.063,-8.063 22.104,-8.063 30.167,0 l 64,64 c 4.031,4.031 6.25,9.385 6.25,15.083 0,5.698 -2.219,11.052 -6.219,15.052 z"
             inkscape:connector-curvature="0"
             style="fill:#333333;fill-opacity:1" />
        </g>
      </g>
      <g
         id="g4680"
         style="fill:#333333;fill-opacity:1" />
      <g
         id="g4682"
         style="fill:#333333;fill-opacity:1" />
      <g
         id="g4684"
         style="fill:#333333;fill-opacity:1" />
      <g
         id="g4686"
         style="fill:#333333;fill-opacity:1" />
      <g
         id="g4688"
         style="fill:#333333;fill-opacity:1" />
      <g
         id="g4690"
         style="fill:#333333;fill-opacity:1" />
      <g
         id="g4692"
         style="fill:#333333;fill-opacity:1" />
      <g
         id="g4694"
         style="fill:#333333;fill-opacity:1" />
      <g
         id="g4696"
         style="fill:#333333;fill-opacity:1" />
      <g
         id="g4698"
         style="fill:#333333;fill-opacity:1" />
      <g
         id="g4700"
         style="fill:#333333;fill-opacity:1" />
      <g
         id="g4702"
         style="fill:#333333;fill-opacity:1" />
      <g
         id="g4704"
         style="fill:#333333;fill-opacity:1" />
      <g
         id="g4706"
         style="fill:#333333;fill-opacity:1" />
      <g
         id="g4708"
         style="fill:#333333;fill-opacity:1" />
    </g>
  </g>
</svg>
