<?xml version="1.0" encoding="UTF-8" standalone="no"?>
<svg
   xmlns:dc="http://purl.org/dc/elements/1.1/"
   xmlns:cc="http://creativecommons.org/ns#"
   xmlns:rdf="http://www.w3.org/1999/02/22-rdf-syntax-ns#"
   xmlns:svg="http://www.w3.org/2000/svg"
   xmlns="http://www.w3.org/2000/svg"
   xmlns:sodipodi="http://sodipodi.sourceforge.net/DTD/sodipodi-0.dtd"
   xmlns:inkscape="http://www.inkscape.org/namespaces/inkscape"
   height="24"
   viewBox="8.738 -5.0362283 0.16761527 0.37829947"
   width="24"
   version="1.1"
   id="svg8"
   sodipodi:docname="php.svg"
   inkscape:version="0.92.1 r15371">
  <metadata
     id="metadata14">
    <rdf:RDF>
      <cc:Work
         rdf:about="">
        <dc:format>image/svg+xml</dc:format>
        <dc:type
           rdf:resource="http://purl.org/dc/dcmitype/StillImage" />
        <dc:title></dc:title>
      </cc:Work>
    </rdf:RDF>
  </metadata>
  <defs
     id="defs12" />
  <sodipodi:namedview
     pagecolor="#ffffff"
     bordercolor="#666666"
     borderopacity="1"
     objecttolerance="10"
     gridtolerance="10"
     guidetolerance="10"
     inkscape:pageopacity="0"
     inkscape:pageshadow="2"
     inkscape:window-width="1366"
     inkscape:window-height="705"
     id="namedview10"
     showgrid="false"
     inkscape:zoom="17.088225"
     inkscape:cx="15.531031"
     inkscape:cy="13.398849"
     inkscape:window-x="-8"
     inkscape:window-y="-8"
     inkscape:window-maximized="1"
     inkscape:current-layer="svg8" />
  <path
     style="fill:#333333;stroke-width:0.00073375"
     d="m 8.6362915,-4.7599507 c 5.268e-4,-0.00227 0.026793,-0.1377661 0.026793,-0.1382195 0,-1.999e-4 0.016096,-2.453e-4 0.03577,-1.013e-4 0.033874,2.482e-4 0.036069,3.455e-4 0.041398,0.00184 0.014382,0.00402 0.023286,0.012098 0.027196,0.024686 0.00368,0.011859 0.00117,0.030756 -0.00581,0.043695 -0.00684,0.012664 -0.018691,0.023386 -0.030922,0.027963 -0.00871,0.00326 -0.013568,0.00385 -0.035709,0.0043 l -0.021278,4.385e-4 -0.00364,0.018527 -0.00364,0.018527 h -0.015275 -0.015273 z m 0.073208,-0.058826 c 0.013683,-0.00262 0.020724,-0.00896 0.025254,-0.022746 0.00165,-0.00502 0.00196,-0.00729 0.00201,-0.014783 5.96e-5,-0.00848 -2.28e-5,-0.00899 -0.00195,-0.011909 -0.00412,-0.00624 -0.011592,-0.00819 -0.0315,-0.00821 -0.01243,-1.15e-5 -0.013743,1.07e-4 -0.014084,0.00128 -2.065e-4,7.063e-4 -0.00272,0.013501 -0.00558,0.028433 -0.00286,0.014932 -0.00535,0.027561 -0.00552,0.028066 -4.661e-4,0.00135 0.024159,0.00126 0.031379,-1.266e-4 z m 0.1652603,0.058826 c 5.725e-4,-0.00245 0.026791,-0.1376529 0.026791,-0.1381538 0,-2.359e-4 0.016096,-3.11e-4 0.03577,-1.67e-4 0.034066,2.496e-4 0.036043,3.383e-4 0.041503,0.00186 0.021204,0.00591 0.031349,0.021986 0.028387,0.044975 -0.00265,0.020546 -0.012988,0.037061 -0.029479,0.047086 -0.011065,0.00673 -0.017709,0.00801 -0.044248,0.00855 l -0.021263,4.385e-4 -8.544e-4,0.00404 c -4.699e-4,0.00221 -0.0021,0.010556 -0.00363,0.018527 l -0.00277,0.014492 h -0.015294 -0.015294 z m 0.07349,-0.05888 c 0.014573,-0.00278 0.021854,-0.010274 0.02602,-0.026746 0.00223,-0.00882 0.00179,-0.018423 -0.00103,-0.022685 -0.0041,-0.00619 -0.011613,-0.00814 -0.031506,-0.00815 -0.013653,-1.26e-5 -0.013746,-2.1e-6 -0.014132,0.00163 -2.136e-4,9.081e-4 -0.00281,0.014115 -0.00576,0.02935 l -0.00537,0.027699 h 0.013014 c 0.00851,0 0.015001,-3.802e-4 0.018752,-0.0011 z m -0.184661,0.022193 c -1.01e-5,-5.045e-4 0.00601,-0.032035 0.013391,-0.070069 l 0.01341,-0.069152 0.015156,-3e-6 c 0.014062,-2.8e-6 0.015134,8.96e-5 0.014855,0.00128 -3.201e-4,0.00136 -0.0069,0.03551 -0.0069,0.035811 0,9.72e-5 0.00949,3.251e-4 0.021095,5.065e-4 0.018454,2.886e-4 0.0218,5.22e-4 0.026722,0.00187 0.010295,0.00281 0.016047,0.0069 0.019041,0.013553 0.00152,0.00339 0.00172,0.00486 0.00162,0.012284 -9.22e-5,0.00742 -8.997e-4,0.01245 -0.00665,0.041457 l -0.00654,0.033018 -0.01541,1.977e-4 -0.015409,1.976e-4 0.00608,-0.031015 c 0.00708,-0.036109 0.00752,-0.039485 0.00563,-0.043097 -0.00266,-0.00508 -0.00437,-0.0055 -0.023463,-0.00576 -0.015896,-2.166e-4 -0.017021,-1.455e-4 -0.017397,0.0011 -5.103e-4,0.00169 -0.015136,0.077106 -0.015136,0.078044 0,0.00114 -0.03008,9.163e-4 -0.030102,-2.19e-4 z"
     id="path4502"
     inkscape:connector-curvature="0" />
</svg>
