<?xml version="1.0" encoding="UTF-8" standalone="no"?>
<!-- Created with Inkscape (http://www.inkscape.org/) -->

<svg
   xmlns:dc="http://purl.org/dc/elements/1.1/"
   xmlns:cc="http://creativecommons.org/ns#"
   xmlns:rdf="http://www.w3.org/1999/02/22-rdf-syntax-ns#"
   xmlns:svg="http://www.w3.org/2000/svg"
   xmlns="http://www.w3.org/2000/svg"
   xmlns:sodipodi="http://sodipodi.sourceforge.net/DTD/sodipodi-0.dtd"
   xmlns:inkscape="http://www.inkscape.org/namespaces/inkscape"
   width="24"
   height="24"
   viewBox="0 0 6.3499999 6.3500002"
   version="1.1"
   id="svg8"
   inkscape:version="0.92.1 r15371"
   sodipodi:docname="print.svg">
  <defs
     id="defs2" />
  <sodipodi:namedview
     id="base"
     pagecolor="#ffffff"
     bordercolor="#666666"
     borderopacity="1.0"
     inkscape:pageopacity="0.0"
     inkscape:pageshadow="2"
     inkscape:zoom="22.4"
     inkscape:cx="13.641349"
     inkscape:cy="6.9304797"
     inkscape:document-units="mm"
     inkscape:current-layer="layer1"
     showgrid="false"
     units="px"
     inkscape:window-width="1366"
     inkscape:window-height="705"
     inkscape:window-x="-8"
     inkscape:window-y="-8"
     inkscape:window-maximized="1" />
  <metadata
     id="metadata5">
    <rdf:RDF>
      <cc:Work
         rdf:about="">
        <dc:format>image/svg+xml</dc:format>
        <dc:type
           rdf:resource="http://purl.org/dc/dcmitype/StillImage" />
        <dc:title></dc:title>
      </cc:Work>
    </rdf:RDF>
  </metadata>
  <g
     inkscape:label="Layer 1"
     inkscape:groupmode="layer"
     id="layer1"
     transform="translate(0,-290.64998)">
    <path
       style="fill:#1a1a1a;stroke-width:0.01192379"
       d="M 1.3457908,296.7174 C 1.2077437,296.6605 1.122805,296.58076 1.059152,296.4484 l -0.03727,-0.0774 -0.00312,-2.5174 c -0.003,-2.42614 -0.00231,-2.51999 0.019075,-2.58871 0.05286,-0.16983 0.186213,-0.29894 0.3538886,-0.34261 0.061168,-0.0159 0.2343571,-0.0183 1.322856,-0.0183 1.2081015,5e-5 1.2537406,7.3e-4 1.2882447,0.0226 0.019674,0.0125 0.3269063,0.31437 0.6827377,0.67102 l 0.6469658,0.64847 -0.00309,2.06245 -0.00308,2.06246 -0.037977,0.0802 c -0.050172,0.10591 -0.128047,0.18703 -0.2337814,0.24353 l -0.085956,0.0459 -1.7766449,0.003 -1.7766442,0.003 z m 3.5870935,-0.24391 c 0.058446,-0.027 0.1059725,-0.0762 0.1305292,-0.13501 0.016482,-0.0395 0.018518,-0.25661 0.018518,-1.97604 v -1.93172 l -0.5959679,-0.004 -0.5959677,-0.004 -0.038974,-0.039 -0.038973,-0.039 -0.0035,-0.59613 -0.0035,-0.59615 -1.1778923,0.003 -1.1778919,0.003 -0.058152,0.036 c -0.042336,0.0263 -0.067215,0.0533 -0.09147,0.0997 l -0.033318,0.0637 4.5e-5,2.45793 c 4.18e-5,1.55791 0.00431,2.47319 0.011679,2.49966 0.01623,0.0583 0.078953,0.13016 0.1364586,0.15628 0.046495,0.021 0.120605,0.0221 1.7596026,0.0221 1.6403457,0 1.7130346,-9.2e-4 1.7587588,-0.0221 z m -2.9570995,-0.75436 c -0.088914,-0.049 -0.087651,-0.17729 0.00219,-0.22325 0.018664,-0.009 0.3604406,-0.0133 1.2060227,-0.0133 h 1.1799778 l 0.03635,0.0339 c 0.019992,0.0186 0.039947,0.0483 0.044344,0.0658 0.010516,0.0419 -0.013544,0.0977 -0.054759,0.12709 -0.032384,0.0231 -0.05703,0.0236 -1.2116708,0.0232 -0.8340506,-2.5e-4 -1.1855863,-0.004 -1.2024619,-0.0135 z m 0.017884,-1.00808 c -0.00984,-0.004 -0.032642,-0.0202 -0.050677,-0.0371 -0.047503,-0.0443 -0.046566,-0.12146 0.00207,-0.17009 l 0.034854,-0.0349 h 1.1923818 1.192381 l 0.03581,0.0301 c 0.045648,0.0384 0.05699,0.0876 0.032233,0.13974 -0.040835,0.086 0.044697,0.0806 -1.2544693,0.0795 -0.6416803,-4.8e-4 -1.1747403,-0.004 -1.1845773,-0.007 z m -0.048612,-1.0519 c -0.027977,-0.028 -0.034779,-0.0451 -0.034475,-0.0865 4.138e-4,-0.056 0.012726,-0.0783 0.060128,-0.10912 0.028182,-0.0183 0.1266903,-0.02 1.2024627,-0.02 1.3045846,0 1.2187296,-0.005 1.2595433,0.0805 0.024756,0.0521 0.013415,0.10131 -0.032233,0.13976 l -0.03581,0.0301 H 3.172293 1.9799112 Z m 2.9580167,-1.48251 c 0,-0.002 -0.1878,-0.19079 -0.4173324,-0.42026 l -0.4173328,-0.4172 v 0.42025 0.42025 h 0.4173328 c 0.2295324,0 0.4173324,-0.002 0.4173324,-0.003 z"
       id="path4531"
       inkscape:connector-curvature="0" />
  </g>
</svg>
