<?xml version="1.0" encoding="UTF-8" standalone="no"?>
<svg
   xmlns:dc="http://purl.org/dc/elements/1.1/"
   xmlns:cc="http://creativecommons.org/ns#"
   xmlns:rdf="http://www.w3.org/1999/02/22-rdf-syntax-ns#"
   xmlns:svg="http://www.w3.org/2000/svg"
   xmlns="http://www.w3.org/2000/svg"
   xmlns:sodipodi="http://sodipodi.sourceforge.net/DTD/sodipodi-0.dtd"
   xmlns:inkscape="http://www.inkscape.org/namespaces/inkscape"
   width="24"
   height="24"
   viewBox="0 0 24 24"
   fill="none"
   version="1.1"
   id="svg4"
   sodipodi:docname="react.svg"
   inkscape:version="0.92.1 r15371">
  <metadata
     id="metadata10">
    <rdf:RDF>
      <cc:Work
         rdf:about="">
        <dc:format>image/svg+xml</dc:format>
        <dc:type
           rdf:resource="http://purl.org/dc/dcmitype/StillImage" />
      </cc:Work>
    </rdf:RDF>
  </metadata>
  <defs
     id="defs8" />
  <sodipodi:namedview
     pagecolor="#ffffff"
     bordercolor="#666666"
     borderopacity="1"
     objecttolerance="10"
     gridtolerance="10"
     guidetolerance="10"
     inkscape:pageopacity="0"
     inkscape:pageshadow="2"
     inkscape:window-width="1366"
     inkscape:window-height="705"
     id="namedview6"
     showgrid="false"
     inkscape:zoom="19.666667"
     inkscape:cx="7.4517389"
     inkscape:cy="10.871605"
     inkscape:window-x="-8"
     inkscape:window-y="-8"
     inkscape:window-maximized="1"
     inkscape:current-layer="svg4" />
  <path
     d="m 12,13.645279 c -0.436328,0 -0.854887,-0.173303 -1.163431,-0.481847 C 10.528024,12.854777 10.354722,12.436328 10.354722,12 c 0,-0.436327 0.173302,-0.854886 0.481847,-1.163431 0.308544,-0.308544 0.727103,-0.481847 1.163431,-0.481847 0.436328,0 0.854887,0.173303 1.163431,0.481847 0.308545,0.308545 0.481847,0.727104 0.481847,1.163431 0,0.436328 -0.173302,0.854777 -0.481847,1.163432 C 12.854887,13.471976 12.436328,13.645279 12,13.645279 Z m -0.579138,3.283976 c 0.191949,0.230339 0.384995,0.454097 0.579138,0.667983 0.194143,-0.213886 0.387189,-0.436547 0.579138,-0.667983 -0.386092,0.0082 -0.772184,0.0082 -1.158276,0 z M 9.2326416,16.792148 C 8.3903249,16.70451 7.5535801,16.569707 6.7263341,16.388507 c -0.082264,0.383898 -0.1447845,0.756828 -0.1864649,1.114401 -0.2084019,1.736318 0.082264,2.79149 0.5242954,3.045959 0.4420315,0.255567 1.500494,-0.02084 2.9011744,-1.068334 0.288472,-0.21608 0.579138,-0.45629 0.870901,-0.718438 -0.570912,-0.626193 -1.1062855,-1.283866 -1.6035984,-1.969947 z m 8.0410244,-0.403641 c -0.786443,0.175496 -1.626632,0.311506 -2.506308,0.403641 -0.497312,0.686081 -1.032686,1.343754 -1.603598,1.969947 0.291763,0.263244 0.582429,0.502358 0.870901,0.718438 1.40068,1.047494 2.459143,1.323901 2.901174,1.068334 0.442032,-0.254469 0.731601,-1.309641 0.525393,-3.045959 -0.0453,-0.374136 -0.107492,-0.745969 -0.186465,-1.114401 z m 1.590436,-0.424482 c 0.632883,2.894593 0.300537,5.19908 -1.105627,6.01075 C 16.35231,22.786446 14.190414,21.922126 12,19.926952 9.809586,21.922126 7.6476901,22.785349 6.2415254,21.973678 4.8353608,21.162008 4.5030145,18.858618 5.1348015,15.962928 2.3115036,15.064606 0.48305085,13.623342 0.48305085,12 c 0,-1.623341 1.82845275,-3.063519 4.65175065,-3.9640347 C 4.5030145,5.1413721 4.8353608,2.8368854 6.2415254,2.0252147 7.6476901,1.213544 9.809586,2.0778636 12,4.0730379 c 2.190414,-1.9951743 4.35231,-2.8583971 5.758475,-2.0467264 1.406164,0.8116708 1.73851,3.1150606 1.106724,6.0107507 2.823297,0.898322 4.65175,2.3395968 4.65175,3.9629378 0,1.623342 -1.828453,3.063509 -4.65175,3.964025 z M 10.835143,5.2378951 C 10.556213,4.9854107 10.265986,4.7456826 9.965339,4.5194568 8.5646586,3.4719629 7.5061961,3.1955561 7.0641646,3.4511227 6.6221332,3.7055924 6.3325642,4.7607643 6.5387724,6.4970815 6.5826465,6.8557522 6.6440702,7.2275852 6.7252373,7.6114835 7.5528453,7.4302177 8.3899629,7.2954584 9.2326416,7.2078418 9.7536465,6.4915973 10.291104,5.832389 10.83624,5.2378951 Z m 3.932215,1.9699467 c 0.879676,0.092136 1.719865,0.2292421 2.506308,0.4036417 0.08226,-0.3838983 0.144784,-0.7568281 0.186465,-1.114402 0.208402,-1.7363172 -0.08226,-2.7914891 -0.524296,-3.0459588 -0.442031,-0.2555666 -1.500494,0.02084 -2.901174,1.0683341 -0.300976,0.2262039 -0.591642,0.4659209 -0.870901,0.7184383 0.545136,0.5944939 1.082594,1.2537022 1.603598,1.9699467 z M 12.579138,7.0707353 C 12.387189,6.8403963 12.194143,6.6166384 12,6.4027522 c -0.194143,0.2138862 -0.387189,0.4365472 -0.579138,0.6679831 0.386092,-0.00819 0.772184,-0.00819 1.158276,0 z M 8.0206199,14.965889 C 7.8205101,14.635846 7.6274202,14.301635 7.4414818,13.963366 c -0.1042009,0.281891 -0.2007239,0.559395 -0.2884721,0.834705 0.281891,0.06142 0.57146,0.117363 0.8665133,0.167818 z m 2.1191181,0.256664 c 1.238456,0.09202 2.482068,0.09202 3.720524,0 C 14.559176,14.195789 15.180981,13.11868 15.720523,12 15.180981,10.881321 14.559176,9.8041461 13.860262,8.7774375 c -1.238456,-0.091982 -2.482068,-0.091982 -3.720524,0 C 9.4408242,9.8041461 8.8190296,10.881321 8.279477,12 c 0.5395526,1.11868 1.1613472,2.195789 1.860261,3.222553 z m 6.41878,-5.185918 c 0.104201,-0.2819021 0.200724,-0.5594058 0.288472,-0.8347157 -0.287594,-0.0624 -0.576505,-0.1183504 -0.866513,-0.1678184 0.199737,0.3300538 0.392454,0.6643086 0.578041,1.0025341 z M 5.561477,9.627498 C 5.1885472,9.7481517 4.8353608,9.879785 4.5041114,10.022376 2.8972228,10.711199 2.1283293,11.489964 2.1283293,12 c 0,0.510037 0.7677966,1.288802 2.3757821,1.977625 0.3312494,0.142591 0.6844358,0.274213 1.0573656,0.394867 C 5.8049782,13.604695 6.1066126,12.808381 6.4663801,12 6.1206742,11.22672 5.8185682,10.434573 5.561477,9.627498 Z M 7.1519128,9.2019193 C 7.2407579,9.4761324 7.3372809,9.7547329 7.4414818,10.035538 7.6274312,9.6976636 7.8205211,9.3637818 8.0206199,9.0341009 7.7244697,9.0845561 7.4349007,9.1404956 7.1530097,9.2019193 Z M 18.438523,14.372492 c 0.37293,-0.120654 0.726116,-0.252276 1.057366,-0.394867 1.606888,-0.688823 2.375782,-1.467588 2.375782,-1.977625 0,-0.510036 -0.767797,-1.288801 -2.375782,-1.977624 C 19.149612,9.8748492 18.796755,9.7430843 18.438523,9.627498 18.195022,10.395306 17.893387,11.19162 17.53362,12 c 0.359767,0.808381 0.661402,1.603599 0.904903,2.372492 z m -1.590436,0.425579 c -0.08884,-0.274213 -0.185368,-0.552814 -0.289569,-0.833608 -0.185916,0.33783 -0.379072,0.671712 -0.579138,1.001426 0.29615,-0.05046 0.585719,-0.106395 0.86761,-0.167818 z"
     id="path2"
     style="fill:#22b1ce;fill-opacity:1;stroke-width:1.0968523"
     inkscape:connector-curvature="0" />
</svg>
