<?xml version="1.0" encoding="UTF-8" standalone="no"?>
<svg
   xmlns:dc="http://purl.org/dc/elements/1.1/"
   xmlns:cc="http://creativecommons.org/ns#"
   xmlns:rdf="http://www.w3.org/1999/02/22-rdf-syntax-ns#"
   xmlns:svg="http://www.w3.org/2000/svg"
   xmlns="http://www.w3.org/2000/svg"
   xmlns:sodipodi="http://sodipodi.sourceforge.net/DTD/sodipodi-0.dtd"
   xmlns:inkscape="http://www.inkscape.org/namespaces/inkscape"
   height="24"
   version="1.1"
   viewBox="0 0 23.999999 24"
   width="24"
   xml:space="preserve"
   id="svg10"
   sodipodi:docname="shopify.svg"
   inkscape:version="0.92.1 r15371"><metadata
     id="metadata16"><rdf:RDF><cc:Work
         rdf:about=""><dc:format>image/svg+xml</dc:format><dc:type
           rdf:resource="http://purl.org/dc/dcmitype/StillImage" /><dc:title></dc:title></cc:Work></rdf:RDF></metadata><defs
     id="defs14" /><sodipodi:namedview
     pagecolor="#ffffff"
     bordercolor="#666666"
     borderopacity="1"
     objecttolerance="10"
     gridtolerance="10"
     guidetolerance="10"
     inkscape:pageopacity="0"
     inkscape:pageshadow="2"
     inkscape:window-width="1366"
     inkscape:window-height="705"
     id="namedview12"
     showgrid="false"
     inkscape:zoom="10.164199"
     inkscape:cx="1.4593243"
     inkscape:cy="-1.2567278"
     inkscape:window-x="-8"
     inkscape:window-y="-8"
     inkscape:window-maximized="1"
     inkscape:current-layer="svg10" /><g
     id="Layer_1"
     transform="translate(0,-1462)" /><g
     id="g4522"
     transform="matrix(0.35972712,0,0,0.35972712,0.48873226,0.48873226)"><g
       id="g4510"><path
         id="path4508"
         d="m 51.759,12.659 c -0.221,-0.021 -4.94,-0.371 -4.94,-0.371 0,0 -3.28,-3.271 -3.639,-3.631 C 42.82,8.295 42.117,8.403 41.843,8.486 41.804,8.497 41.128,8.708 40.009,9.053 38.913,5.886 36.982,2.976 33.583,2.976 33.489,2.976 33.392,2.98 33.294,2.986 32.328,1.703 31.13,1.142 30.095,1.142 22.176,1.142 18.392,11.093 17.206,16.15 14.128,17.106 11.94,17.788 11.664,17.878 9.943,18.42 9.89,18.474 9.667,20.1 9.495,21.331 5,56.264 5,56.264 L 40.022,62.858 59,58.731 c 0,0 -6.661,-45.261 -6.703,-45.572 -0.042,-0.31 -0.314,-0.482 -0.538,-0.5 z M 33.034,10.88 c 0,0.119 -0.002,0.231 -0.002,0.344 -1.928,0.601 -4.02,1.251 -6.121,1.906 1.179,-4.57 3.387,-6.78 5.32,-7.613 0.485,1.226 0.803,2.988 0.803,5.363 z M 29.876,3.278 c 0.346,0 0.688,0.116 1.018,0.345 -2.539,1.199 -5.258,4.224 -6.408,10.261 -1.679,0.522 -3.319,1.034 -4.838,1.506 1.346,-4.607 4.54,-12.112 10.228,-12.112 z m 1.365,26.912 c 0,0 -2.05,-1.099 -4.561,-1.099 -3.686,0 -3.872,2.324 -3.872,2.908 0,3.195 8.287,4.42 8.287,11.903 0,5.888 -3.714,9.678 -8.726,9.678 -6.012,0 -9.088,-3.761 -9.088,-3.761 l 1.609,-5.345 c 0,0 3.16,2.729 5.83,2.729 1.74,0 2.449,-1.38 2.449,-2.387 0,-4.168 -6.799,-4.354 -6.799,-11.203 0,-5.761 4.116,-11.341 12.428,-11.341 3.199,0 4.783,0.923 4.783,0.923 z M 35.11,10.578 c 0,-0.211 0.002,-0.417 0.002,-0.644 0,-1.966 -0.273,-3.551 -0.709,-4.807 1.752,0.219 2.919,2.223 3.67,4.528 -0.879,0.276 -1.879,0.586 -2.963,0.923 z"
         inkscape:connector-curvature="0"
         style="fill:#95c675" /></g><g
       id="g4514"><path
         id="path4512"
         d="m 51.759,12.659 c -0.221,-0.021 -4.94,-0.371 -4.94,-0.371 0,0 -3.28,-3.271 -3.639,-3.631 C 42.82,8.295 42.117,8.403 41.843,8.486 41.804,8.497 41.128,8.708 40.009,9.053 38.913,5.886 36.982,2.976 33.583,2.976 c -0.094,0 -0.191,0.004 -0.289,0.01 -0.966,-1.283 -2.164,-1.844 -3.199,-1.844 -7.919,0 -9.873,9.951 -11.059,15.008 -3.078,0.956 -5.44,6.219 -5.719,6.307 -1.719,0.542 -1.772,0.596 -1.996,2.223 C 11.148,25.91 5,56.264 5,56.264 L 40.022,62.858 59,58.731 c 0,0 -6.661,-45.261 -6.703,-45.572 -0.042,-0.31 -0.314,-0.482 -0.538,-0.5 z M 33.034,10.88 c 0,0.119 -0.002,0.231 -0.002,0.344 -1.928,0.601 -4.02,1.251 -6.121,1.906 1.179,-4.57 3.387,-6.78 5.32,-7.613 0.485,1.226 0.803,2.988 0.803,5.363 z M 29.876,3.278 c 0.346,0 0.688,0.116 1.018,0.345 -2.539,1.199 -5.258,4.224 -6.408,10.261 -1.679,0.522 -3.319,1.034 -4.838,1.506 1.346,-4.607 4.54,-12.112 10.228,-12.112 z m 1.365,26.912 c 0,0 -2.05,-1.099 -4.561,-1.099 -3.686,0 -3.872,2.324 -3.872,2.908 0,3.195 8.287,4.42 8.287,11.903 0,5.888 -3.714,9.678 -8.726,9.678 -6.012,0 -9.088,-3.761 -9.088,-3.761 l 1.609,-5.345 c 0,0 3.16,2.729 5.83,2.729 1.74,0 2.449,-1.38 2.449,-2.387 0,-4.168 -6.799,-4.354 -6.799,-11.203 0,-5.761 4.116,-11.341 12.428,-11.341 3.199,0 4.783,0.923 4.783,0.923 z M 35.11,10.578 c 0,-0.211 0.002,-0.417 0.002,-0.644 0,-1.966 -0.273,-3.551 -0.709,-4.807 1.752,0.219 2.919,2.223 3.67,4.528 -0.879,0.276 -1.879,0.586 -2.963,0.923 z"
         inkscape:connector-curvature="0"
         style="fill:#79b259" /></g><path
       id="path4516"
       d="M 40.022,62.857 59,58.731 c 0,0 -6.661,-45.261 -6.703,-45.572 -0.042,-0.311 -0.313,-0.482 -0.538,-0.5 -0.221,-0.021 -4.94,-0.371 -4.94,-0.371 0,0 -3.28,-3.271 -3.639,-3.631 -0.192,-0.194 -0.479,-0.249 -0.75,-0.251 -0.72,1.22 -0.571,3.537 -0.571,3.537 l -2.232,50.839 z"
       inkscape:connector-curvature="0"
       style="fill:#55932c" /><path
       id="path4518"
       d="m 33.583,2.977 c -0.094,0 -0.191,0.004 -0.289,0.01 C 32.328,1.704 31.13,1.143 30.095,1.143 22.208,1.143 18.421,11.016 17.22,16.09 l 2.447,-0.759 c 1.354,-4.609 4.545,-12.053 10.209,-12.053 0.346,0 0.688,0.116 1.018,0.345 -2.532,1.195 -5.244,4.209 -6.398,10.213 l 2.43,-0.75 c 1.182,-4.541 3.381,-6.739 5.307,-7.569 0.484,1.227 0.803,2.988 0.803,5.363 0,0.108 0,0.211 -0.002,0.314 l 2.078,-0.643 c 0,-0.2 0.002,-0.4 0.002,-0.617 0,-1.966 -0.273,-3.551 -0.709,-4.807 1.746,0.218 2.912,2.213 3.662,4.508 L 40.005,9.034 C 38.906,5.876 36.976,2.977 33.583,2.977 Z"
       inkscape:connector-curvature="0"
       style="fill:#4a7a2b" /><path
       id="path4520"
       d="m 47.611,12.348 c -0.474,-0.037 -0.793,-0.06 -0.793,-0.06 0,0 -3.28,-3.271 -3.639,-3.631 -0.192,-0.194 -0.479,-0.249 -0.75,-0.251 -0.72,1.22 -0.571,3.537 -0.571,3.537 l -2.232,50.839 0.396,0.075 10.098,-2.196 z"
       inkscape:connector-curvature="0"
       style="fill:#4c822a" /></g></svg>