<?xml version="1.0" encoding="UTF-8" standalone="no"?>
<svg
   xmlns:dc="http://purl.org/dc/elements/1.1/"
   xmlns:cc="http://creativecommons.org/ns#"
   xmlns:rdf="http://www.w3.org/1999/02/22-rdf-syntax-ns#"
   xmlns:svg="http://www.w3.org/2000/svg"
   xmlns="http://www.w3.org/2000/svg"
   xmlns:sodipodi="http://sodipodi.sourceforge.net/DTD/sodipodi-0.dtd"
   xmlns:inkscape="http://www.inkscape.org/namespaces/inkscape"
   height="24"
   viewBox="8.738 -5.0362283 0.16761527 0.37829947"
   width="24"
   version="1.1"
   id="svg8"
   sodipodi:docname="squarespace.svg"
   inkscape:version="0.92.1 r15371">
  <metadata
     id="metadata14">
    <rdf:RDF>
      <cc:Work
         rdf:about="">
        <dc:format>image/svg+xml</dc:format>
        <dc:type
           rdf:resource="http://purl.org/dc/dcmitype/StillImage" />
        <dc:title></dc:title>
      </cc:Work>
    </rdf:RDF>
  </metadata>
  <defs
     id="defs12" />
  <sodipodi:namedview
     pagecolor="#ffffff"
     bordercolor="#666666"
     borderopacity="1"
     objecttolerance="10"
     gridtolerance="10"
     guidetolerance="10"
     inkscape:pageopacity="0"
     inkscape:pageshadow="2"
     inkscape:window-width="1366"
     inkscape:window-height="705"
     id="namedview10"
     showgrid="false"
     inkscape:zoom="12.0832"
     inkscape:cx="24.961073"
     inkscape:cy="14.393104"
     inkscape:window-x="-8"
     inkscape:window-y="-8"
     inkscape:window-maximized="1"
     inkscape:current-layer="svg8" />
  <path
     style="fill:#1a1a1a;stroke-width:0.00073887"
     d="m 8.7759609,-4.7130004 c -0.013612,-0.00259 -0.026737,-0.00939 -0.035176,-0.018224 -0.00924,-0.00967 -0.00374,-0.025869 0.00939,-0.027663 0.00486,-6.641e-4 0.00902,7.615e-4 0.01384,0.00474 0.00832,0.00687 0.014147,0.00919 0.023025,0.00917 0.00605,-1.39e-5 0.013337,-0.00202 0.017404,-0.00479 0.00124,-8.405e-4 0.027017,-0.026206 0.057292,-0.056368 0.060632,-0.060406 0.057731,-0.057901 0.066051,-0.057042 0.00492,5.078e-4 0.00933,0.00317 0.012047,0.00727 0.00279,0.00421 0.00325,0.011063 0.00106,0.015573 -0.00234,0.00482 -0.1109664,0.1129904 -0.1179518,0.1174579 -0.014084,0.00901 -0.031856,0.012737 -0.046985,0.00986 z m 0.086854,6.65e-5 c -0.00479,-0.00116 -0.00964,-0.00352 -0.0129,-0.00628 l -0.00259,-0.00218 0.052875,-0.053069 c 0.048092,-0.048269 0.053085,-0.053504 0.055187,-0.057875 0.00495,-0.010299 0.00457,-0.021775 -0.00104,-0.031492 -0.00267,-0.00462 -0.00926,-0.010414 -0.014838,-0.013057 -0.00472,-0.00223 -0.00546,-0.00237 -0.013491,-0.00237 -0.01482,0 -0.00912,-0.00463 -0.074256,0.060259 -0.045267,0.045092 -0.056706,0.056112 -0.059003,0.056846 -0.00157,5.007e-4 -0.00478,7.708e-4 -0.00714,6.002e-4 -0.00809,-5.851e-4 -0.014039,-0.00656 -0.014627,-0.014697 -5.992e-4,-0.00828 -0.00221,-0.00643 0.058386,-0.066884 0.035801,-0.035713 0.05653,-0.055852 0.059604,-0.057908 0.013397,-0.00896 0.029655,-0.013013 0.044508,-0.011088 0.024921,0.00323 0.045033,0.01872 0.053711,0.041368 0.00333,0.00868 0.00413,0.013302 0.00413,0.023644 0,0.00716 -3.638e-4,0.011331 -0.00129,0.014777 -0.0027,0.010067 -0.00644,0.017894 -0.012012,0.025121 -0.00172,0.00224 -0.022526,0.023387 -0.046232,0.047005 -0.036768,0.036632 -0.043698,0.043215 -0.047164,0.044801 -0.00748,0.00343 -0.014599,0.00423 -0.021827,0.00248 z m -0.1551561,-0.069444 c -0.026924,-0.0044 -0.046721,-0.02271 -0.054032,-0.049961 -0.00179,-0.00666 -0.00179,-0.022893 0,-0.029555 0.0027,-0.010067 0.00644,-0.017895 0.012012,-0.025121 0.00172,-0.00224 0.022526,-0.023387 0.046232,-0.047005 0.047242,-0.047067 0.045783,-0.045839 0.056642,-0.047701 0.00862,-0.00148 0.01878,0.00122 0.025249,0.0067 l 0.00259,0.00219 -0.052916,0.05307 c -0.048581,0.048722 -0.053101,0.053463 -0.055178,0.057872 -0.00468,0.00993 -0.00469,0.019826 -2.78e-5,0.029311 0.0023,0.00467 0.00797,0.010944 0.012265,0.013549 0.00841,0.00511 0.021333,0.00589 0.030467,0.00186 0.00452,-0.00199 0.00809,-0.00539 0.060218,-0.057282 0.030478,-0.030339 0.056412,-0.055797 0.057632,-0.056572 0.00167,-0.00107 0.00358,-0.00141 0.00781,-0.00142 0.00488,-8.4e-6 0.00599,2.514e-4 0.00868,0.00203 0.00447,0.00296 0.00684,0.00693 0.00733,0.012293 7.572e-4,0.00835 0.00248,0.00637 -0.057953,0.06665 -0.052266,0.052133 -0.059189,0.058583 -0.067231,0.062636 -0.012013,0.00605 -0.027188,0.00852 -0.039773,0.00646 z m 0.00446,-0.049267 c -0.00849,-0.00249 -0.01329,-0.014133 -0.00925,-0.022442 9.799e-4,-0.00202 0.019719,-0.021235 0.057077,-0.058534 0.059131,-0.059036 0.060021,-0.059837 0.071736,-0.064528 0.00917,-0.00367 0.014705,-0.00472 0.02489,-0.00472 0.010184,0 0.015724,0.00105 0.02489,0.00472 0.010469,0.00419 0.022042,0.013013 0.024706,0.018833 0.00443,0.00966 -0.00211,0.02153 -0.01266,0.022971 -0.00486,6.641e-4 -0.00902,-7.615e-4 -0.01384,-0.00474 -0.00234,-0.00193 -0.00542,-0.00421 -0.00684,-0.00505 -0.00966,-0.00575 -0.024421,-0.00544 -0.033618,7.08e-4 -0.00122,8.15e-4 -0.026821,0.026021 -0.056893,0.056012 -0.041996,0.041884 -0.055447,0.054878 -0.058001,0.056029 -0.00347,0.00156 -0.00838,0.00187 -0.012191,7.472e-4 z"
     id="path4510"
     inkscape:connector-curvature="0" />
</svg>
