<?xml version="1.0" encoding="UTF-8" standalone="no"?>
<svg
   xmlns:dc="http://purl.org/dc/elements/1.1/"
   xmlns:cc="http://creativecommons.org/ns#"
   xmlns:rdf="http://www.w3.org/1999/02/22-rdf-syntax-ns#"
   xmlns:svg="http://www.w3.org/2000/svg"
   xmlns="http://www.w3.org/2000/svg"
   xmlns:sodipodi="http://sodipodi.sourceforge.net/DTD/sodipodi-0.dtd"
   xmlns:inkscape="http://www.inkscape.org/namespaces/inkscape"
   width="24"
   height="24"
   viewBox="0 0 24 24"
   fill="none"
   version="1.1"
   id="svg4"
   sodipodi:docname="tailwind.svg"
   inkscape:version="0.92.1 r15371">
  <metadata
     id="metadata10">
    <rdf:RDF>
      <cc:Work
         rdf:about="">
        <dc:format>image/svg+xml</dc:format>
        <dc:type
           rdf:resource="http://purl.org/dc/dcmitype/StillImage" />
        <dc:title></dc:title>
      </cc:Work>
    </rdf:RDF>
  </metadata>
  <defs
     id="defs8">
    <linearGradient
       gradientUnits="userSpaceOnUse"
       gradientTransform="matrix(-38.064915,77.652126,-77.652126,-38.064915,258.72325,244.62943)"
       x2="1.251"
       x1="-.348"
       id="b">
      <stop
         id="stop4482"
         stop-color="#3e863d"
         offset=".3" />
      <stop
         id="stop4484"
         stop-color="#55934f"
         offset=".5" />
      <stop
         id="stop4486"
         stop-color="#5aad45"
         offset=".8" />
    </linearGradient>
    <linearGradient
       gradientUnits="userSpaceOnUse"
       gradientTransform="matrix(106.8057,-78.916731,78.916731,106.8057,235.18824,285.39477)"
       x2=".582"
       x1="-.456"
       id="d">
      <stop
         id="stop4489"
         stop-color="#3e863d"
         offset=".57" />
      <stop
         id="stop4491"
         stop-color="#619857"
         offset=".72" />
      <stop
         id="stop4493"
         stop-color="#76ac64"
         offset="1" />
    </linearGradient>
    <linearGradient
       gradientUnits="userSpaceOnUse"
       gradientTransform="matrix(97.417,0,0,97.417,192.862,279.652)"
       x2=".984"
       x1=".043"
       id="f">
      <stop
         id="stop4496"
         stop-color="#6bbf47"
         offset=".16" />
      <stop
         id="stop4498"
         stop-color="#79b461"
         offset=".38" />
      <stop
         id="stop4500"
         stop-color="#75ac64"
         offset=".47" />
      <stop
         id="stop4502"
         stop-color="#659e5a"
         offset=".7" />
      <stop
         id="stop4504"
         stop-color="#3e863d"
         offset=".9" />
    </linearGradient>
    <clipPath
       id="a">
      <path
         id="path4507"
         d="M239.03 226.605l-42.13 24.317a5.085 5.085 0 00-2.546 4.406v48.668c0 1.817.968 3.496 2.546 4.406l42.133 24.336a5.1 5.1 0 005.09 0l42.126-24.336a5.096 5.096 0 002.54-4.406v-48.668c0-1.816-.97-3.496-2.55-4.406l-42.12-24.317a5.123 5.123 0 00-5.1 0" />
    </clipPath>
    <clipPath
       id="c">
      <path
         id="path4510"
         d="M195.398 307.086c.403.523.907.976 1.5 1.316l36.14 20.875 6.02 3.46c.9.52 1.926.74 2.934.665.336-.027.672-.09 1-.183l44.434-81.36c-.34-.37-.738-.68-1.184-.94l-27.586-15.93-14.582-8.39a5.318 5.318 0 00-1.32-.53zm0 0" />
    </clipPath>
    <clipPath
       id="e">
      <path
         id="path4513"
         d="M241.066 225.953a5.14 5.14 0 00-2.035.652l-42.01 24.247 45.3 82.51c.63-.09 1.25-.3 1.81-.624l42.13-24.336a5.105 5.105 0 002.46-3.476l-46.18-78.89a5.29 5.29 0 00-1.03-.102c-.14 0-.28.007-.42.02" />
    </clipPath>
    <clipPath
       clipPathUnits="userSpaceOnUse"
       id="clipPath4578">
      <path
         sodipodi:type="star"
         style="opacity:1;fill:#689f63;fill-opacity:1;stroke:#b3b3b3;stroke-width:0.1876421;stroke-linecap:round;stroke-linejoin:miter;stroke-miterlimit:4;stroke-dasharray:none;stroke-dashoffset:0;stroke-opacity:1;paint-order:stroke fill markers"
         id="path4580"
         sodipodi:sides="6"
         sodipodi:cx="162.94611"
         sodipodi:cy="115.44357"
         sodipodi:r1="55.780529"
         sodipodi:r2="48.307358"
         sodipodi:arg1="0.52359878"
         sodipodi:arg2="1.0471976"
         inkscape:flatsided="true"
         inkscape:rounded="0"
         inkscape:randomized="0"
         d="m 211.25346,143.33384 -48.30735,27.89026 -48.30736,-27.89026 0,-55.780532 48.30736,-27.890264 48.30735,27.890265 z" />
    </clipPath>
  </defs>
  <sodipodi:namedview
     pagecolor="#ffffff"
     bordercolor="#666666"
     borderopacity="1"
     objecttolerance="10"
     gridtolerance="10"
     guidetolerance="10"
     inkscape:pageopacity="0"
     inkscape:pageshadow="2"
     inkscape:window-width="1366"
     inkscape:window-height="705"
     id="namedview6"
     showgrid="false"
     inkscape:zoom="13.906433"
     inkscape:cx="19.254886"
     inkscape:cy="8.1022957"
     inkscape:window-x="-8"
     inkscape:window-y="-8"
     inkscape:window-maximized="1"
     inkscape:current-layer="svg4" />
  <path
     style="fill:#44a8b3;fill-opacity:1;stroke-width:0.11613928"
     d="M 10.721418,18.726138 C 9.3258776,18.492825 8.3462491,17.911831 6.7127928,16.348719 5.3424898,15.037428 4.7876591,14.742428 3.6917072,14.742428 c -0.9517591,0 -1.6411044,0.295492 -2.4511449,1.050696 -0.69785878,0.650616 -0.70111691,0.536551 -0.024446,-0.855773 1.0178006,-2.094239 3.4069141,-3.226585 5.9954161,-2.841594 1.7434872,0.259312 2.5659853,0.710711 4.2615076,2.338777 1.415288,1.358979 1.990327,1.671426 3.07769,1.672255 0.999309,7.97e-4 1.616625,-0.255263 2.465976,-1.022742 l 0.607749,-0.549164 -0.170323,0.482742 c -0.322323,0.913564 -0.902894,1.856083 -1.470135,2.38667 -1.246923,1.16635 -3.223319,1.662778 -5.262577,1.321843 z m 6.152097,-6.801046 C 15.62621,11.679472 15.28644,11.58298 14.783008,11.331405 14.086617,10.983405 13.467909,10.494652 12.227944,9.3130133 11.02169,8.1635005 10.500579,7.8978647 9.4406013,7.8921694 8.4417085,7.886808 7.8278137,8.1405622 6.9746253,8.9115073 L 6.3668779,9.460671 6.5371998,8.9779285 C 6.8595237,8.0643654 7.4400945,7.121847 8.0073344,6.5912601 9.8263484,4.8897843 13.22276,4.6838931 15.494897,6.1373619 c 0.342153,0.2188731 1.144792,0.8981364 1.783641,1.5094735 1.370303,1.3112907 1.925135,1.6062901 3.021086,1.6062901 0.951759,0 1.641104,-0.2954904 2.451144,-1.0506946 0.509333,-0.4748537 0.587054,-0.5157838 0.511794,-0.269528 -0.479796,1.5699181 -1.544215,2.8767061 -2.820047,3.4621741 -1.057621,0.485332 -2.618666,0.717155 -3.569,0.530015 z"
     id="path4593"
     inkscape:connector-curvature="0" />
</svg>
