<?xml version="1.0" encoding="UTF-8" standalone="no"?>
<!-- Generator: Adobe Illustrator 16.0.0, SVG Export Plug-In . SVG Version: 6.00 Build 0)  -->

<svg
   xmlns:dc="http://purl.org/dc/elements/1.1/"
   xmlns:cc="http://creativecommons.org/ns#"
   xmlns:rdf="http://www.w3.org/1999/02/22-rdf-syntax-ns#"
   xmlns:svg="http://www.w3.org/2000/svg"
   xmlns="http://www.w3.org/2000/svg"
   xmlns:sodipodi="http://sodipodi.sourceforge.net/DTD/sodipodi-0.dtd"
   xmlns:inkscape="http://www.inkscape.org/namespaces/inkscape"
   version="1.1"
   id="Capa_1"
   x="0px"
   y="0px"
   width="24"
   height="24"
   viewBox="0 0 23.999999 23.999999"
   xml:space="preserve"
   sodipodi:docname="typography.svg"
   inkscape:version="0.92.1 r15371"><metadata
     id="metadata41"><rdf:RDF><cc:Work
         rdf:about=""><dc:format>image/svg+xml</dc:format><dc:type
           rdf:resource="http://purl.org/dc/dcmitype/StillImage" /><dc:title /></cc:Work></rdf:RDF></metadata><defs
     id="defs39" /><sodipodi:namedview
     pagecolor="#ffffff"
     bordercolor="#666666"
     borderopacity="1"
     objecttolerance="10"
     gridtolerance="10"
     guidetolerance="10"
     inkscape:pageopacity="0"
     inkscape:pageshadow="2"
     inkscape:window-width="1366"
     inkscape:window-height="705"
     id="namedview37"
     showgrid="false"
     inkscape:zoom="17.93077"
     inkscape:cx="13.959679"
     inkscape:cy="4.4576408"
     inkscape:window-x="-8"
     inkscape:window-y="-8"
     inkscape:window-maximized="1"
     inkscape:current-layer="Capa_1" /><path
     style="fill:#333333;stroke-width:0.52966118"
     inkscape:connector-curvature="0"
     id="path2"
     d="M 13.170812,17.994176 12.431405,16.047141 H 6.1289669 l -0.740996,1.989407 c -0.2897246,0.775424 -0.5360171,1.2982 -0.7404663,1.570446 -0.2039196,0.271716 -0.5391951,0.407309 -1.0042376,0.407309 -0.3951272,0 -0.7436443,-0.143538 -1.0476698,-0.432733 -0.3029662,-0.289195 -0.4544493,-0.617055 -0.4544493,-0.98411 0,-0.210276 0.034428,-0.430085 0.1048729,-0.654132 0.070975,-0.226165 0.1875001,-0.540784 0.3495764,-0.941208 L 6.5617001,6.9332612 C 6.6745179,6.6440662 6.8101112,6.2966084 6.9684799,5.890888 7.1284376,5.4851675 7.2973995,5.1493623 7.476425,4.8813537 7.6570394,4.6133452 7.892209,4.3967138 8.1867006,4.2304002 8.4785439,4.0651459 8.8387135,3.9819891 9.2698577,3.9819891 c 0.4375002,0 0.8034963,0.082627 1.0937503,0.2484111 0.294492,0.1657839 0.528602,0.3792374 0.709746,0.6403603 0.179555,0.2605933 0.331038,0.5407841 0.45392,0.8405723 0.122881,0.2997882 0.28019,0.6996824 0.470868,1.2012716 l 4.051379,10.0052996 c 0.317267,0.761653 0.475106,1.314089 0.475106,1.660488 0,0.360699 -0.149365,0.690678 -0.450212,0.988877 -0.299788,0.299259 -0.661017,0.450742 -1.085276,0.450742 -0.246292,0 -0.457097,-0.04449 -0.632945,-0.132415 -0.176907,-0.08792 -0.324682,-0.209217 -0.444915,-0.36017 -0.121293,-0.151483 -0.249471,-0.385064 -0.386123,-0.697034 -0.137183,-0.318326 -0.255297,-0.595339 -0.354344,-0.834216 z M 6.9525901,13.689619 H 11.585007 L 9.2470823,7.2902528 Z M 21.49126,17.640362 18.389034,10.053495 C 18.244437,9.6737281 18.123144,9.3707619 18.027805,9.1430076 17.933526,8.915783 17.81806,8.7039185 17.681407,8.5058252 17.543695,8.3082616 17.36361,8.1467149 17.141153,8.0222445 c -0.221399,-0.125 -0.498412,-0.1875 -0.830509,-0.1864407 -0.32786,0.00159 -0.601166,0.065148 -0.822564,0.1912077 -0.223517,0.126589 -0.401483,0.292373 -0.537606,0.4962925 -0.136653,0.2044492 -0.263242,0.4602756 -0.384004,0.7685384 -0.07733,0.1980933 -0.143539,0.3702332 -0.206568,0.5323095 l 1.133475,2.8013781 0.807203,-2.274895 1.791844,4.851696 -1.554026,0.0069 0.692267,1.707098 c 0.01112,0.02913 0.0196,0.05297 0.03178,0.08157 l 1.479344,-0.0064 0.566207,1.476166 c 0.07733,0.182203 0.166314,0.391419 0.272776,0.629237 0.104343,0.237818 0.204449,0.414725 0.29661,0.529661 0.0911,0.114937 0.20392,0.205509 0.338454,0.272246 0.133474,0.06621 0.295021,0.09958 0.481991,0.09958 0.319916,-0.0011 0.59481,-0.117055 0.821505,-0.34375 0.228813,-0.229343 0.340572,-0.478813 0.339513,-0.752118 -0.0026,-0.264831 -0.124471,-0.684323 -0.367585,-1.262183 z" /><g
     id="g6"
     transform="translate(0,-13.227001)" /><g
     id="g8"
     transform="translate(0,-13.227001)" /><g
     id="g10"
     transform="translate(0,-13.227001)" /><g
     id="g12"
     transform="translate(0,-13.227001)" /><g
     id="g14"
     transform="translate(0,-13.227001)" /><g
     id="g16"
     transform="translate(0,-13.227001)" /><g
     id="g18"
     transform="translate(0,-13.227001)" /><g
     id="g20"
     transform="translate(0,-13.227001)" /><g
     id="g22"
     transform="translate(0,-13.227001)" /><g
     id="g24"
     transform="translate(0,-13.227001)" /><g
     id="g26"
     transform="translate(0,-13.227001)" /><g
     id="g28"
     transform="translate(0,-13.227001)" /><g
     id="g30"
     transform="translate(0,-13.227001)" /><g
     id="g32"
     transform="translate(0,-13.227001)" /><g
     id="g34"
     transform="translate(0,-13.227001)" /></svg>