<?xml version="1.0" encoding="UTF-8" standalone="no"?>
<!-- Created with Inkscape (http://www.inkscape.org/) -->

<svg
   xmlns:dc="http://purl.org/dc/elements/1.1/"
   xmlns:cc="http://creativecommons.org/ns#"
   xmlns:rdf="http://www.w3.org/1999/02/22-rdf-syntax-ns#"
   xmlns:svg="http://www.w3.org/2000/svg"
   xmlns="http://www.w3.org/2000/svg"
   xmlns:sodipodi="http://sodipodi.sourceforge.net/DTD/sodipodi-0.dtd"
   xmlns:inkscape="http://www.inkscape.org/namespaces/inkscape"
   width="24"
   height="24"
   viewBox="0 0 6.3499998 6.3500002"
   version="1.1"
   id="svg8"
   inkscape:version="0.92.1 r15371"
   sodipodi:docname="website.svg">
  <defs
     id="defs2" />
  <sodipodi:namedview
     id="base"
     pagecolor="#ffffff"
     bordercolor="#666666"
     borderopacity="1.0"
     inkscape:pageopacity="0.0"
     inkscape:pageshadow="2"
     inkscape:zoom="22.4"
     inkscape:cx="14.22394"
     inkscape:cy="11.517295"
     inkscape:document-units="mm"
     inkscape:current-layer="layer1"
     showgrid="false"
     units="px"
     inkscape:window-width="1366"
     inkscape:window-height="705"
     inkscape:window-x="-8"
     inkscape:window-y="-8"
     inkscape:window-maximized="1" />
  <metadata
     id="metadata5">
    <rdf:RDF>
      <cc:Work
         rdf:about="">
        <dc:format>image/svg+xml</dc:format>
        <dc:type
           rdf:resource="http://purl.org/dc/dcmitype/StillImage" />
        <dc:title />
      </cc:Work>
    </rdf:RDF>
  </metadata>
  <g
     inkscape:label="Layer 1"
     inkscape:groupmode="layer"
     id="layer1"
     transform="translate(0,-290.64998)">
    <path
       style="fill:#1a1a1a;stroke-width:0.06;stroke:#1a1a1a;stroke-miterlimit:4;stroke-dasharray:none"
       d="m 0.40259065,296.14299 c -0.0138861,-0.005 -0.030232,-0.0232 -0.0363232,-0.0393 -0.007241,-0.0191 -0.0101164,-0.81628 -0.0082,-2.29713 0.002769,-2.16028 0.003834,-2.26897 0.0227779,-2.28795 0.0190082,-0.0191 0.14584965,-0.0199 2.79587625,-0.0199 2.6500554,0 2.776865,8.4e-4 2.7958753,0.0199 0.018987,0.019 0.019913,0.1262 0.019913,2.30521 0,2.179 -9.296e-4,2.28622 -0.019913,2.30521 -0.018998,0.019 -0.1468709,0.02 -2.7823342,0.022 -1.6454656,0.001 -2.77263308,-0.002 -2.78767562,-0.009 z m 5.43937625,-1.88425 v -1.73966 H 3.1767242 0.51148139 v 1.73966 1.73965 H 3.1767242 5.8419669 Z m -4.92395771,1.25506 c -0.0150575,-0.015 -0.0273675,-0.0379 -0.0273675,-0.0507 0,-0.0128 0.0123207,-0.0357 0.0273675,-0.0507 l 0.0273781,-0.0274 H 2.4548385 c 1.5036508,0 1.509546,8e-5 1.5338572,0.0227 0.031808,0.0296 0.031808,0.081 0,0.11065 -0.024311,0.0227 -0.030211,0.0228 -1.5338572,0.0228 H 0.94538734 Z m 3.29581781,0.005 c -0.012395,-0.0123 -0.022299,-0.0372 -0.022299,-0.0558 0,-0.0186 0.0099,-0.0433 0.022299,-0.0558 0.021734,-0.0217 0.037175,-0.0222 0.6082711,-0.0222 h 0.5859682 l 0.027378,0.0274 c 0.015058,0.015 0.027368,0.0379 0.027368,0.0507 0,0.0128 -0.012321,0.0357 -0.027368,0.0507 l -0.027378,0.0274 H 4.8220981 c -0.5710992,0 -0.5865336,-5.6e-4 -0.6082711,-0.0223 z m -3.29581781,-0.46228 c -0.0150575,-0.015 -0.0273675,-0.0379 -0.0273675,-0.0507 0,-0.0128 0.0123207,-0.0357 0.0273675,-0.0507 l 0.0273781,-0.0274 H 1.6545295 2.3636728 l 0.027367,0.0274 c 0.034737,0.0347 0.034737,0.0667 0,0.10138 l -0.027367,0.0274 H 1.6545295 0.94538734 Z m 1.69505081,0 c -0.015057,-0.015 -0.027367,-0.0379 -0.027367,-0.0507 0,-0.0128 0.012321,-0.0357 0.027367,-0.0507 l 0.027367,-0.0274 H 4.0242448 5.408062 l 0.027378,0.0274 c 0.034736,0.0347 0.034736,0.0667 0,0.10138 l -0.027378,0.0274 H 4.0242448 2.6404275 Z m -1.68725693,-0.44935 c -0.0383571,-0.0325 -0.0418606,-0.0752 -0.008839,-0.10817 l 0.028443,-0.0284 H 2.0491168 3.1528271 l 0.023108,0.0294 c 0.030349,0.0385 0.029178,0.0659 -0.00426,0.0994 l -0.027378,0.0274 H 2.0465898 c -1.0292163,0 -1.09914723,-10e-4 -1.12077182,-0.0195 z m 2.52563973,-0.003 c -0.035951,-0.0283 -0.039166,-0.0786 -0.00703,-0.1107 0.021958,-0.0219 0.037175,-0.0224 0.9930029,-0.0224 h 0.9706999 l 0.027367,0.0274 c 0.015058,0.015 0.027368,0.0379 0.027368,0.0507 0,0.0128 -0.012321,0.0357 -0.027368,0.0507 l -0.027367,0.0274 H 4.4444968 c -0.9579831,0 -0.963792,-1.3e-4 -0.9930029,-0.0231 z m -2.51268223,-0.44533 c -0.0133962,-0.005 -0.0298487,-0.02 -0.0365574,-0.0326 -0.008413,-0.0158 -0.0112452,-0.18801 -0.009052,-0.56339 0.002875,-0.50163 0.004579,-0.54205 0.0230015,-0.56053 0.0184544,-0.0184 0.0585473,-0.0201 0.55171303,-0.023 0.374577,-0.002 0.5407468,5.7e-4 0.5620434,0.01 0.017688,0.007 0.035162,0.0266 0.042116,0.0466 0.016165,0.0463 0.016325,1.02945 1.694e-4,1.07579 -0.00639,0.0185 -0.024237,0.0393 -0.03956,0.0463 -0.033799,0.0154 -1.05585974,0.0167 -1.09383988,0.001 z m 0.98897973,-0.58538 v -0.4405 H 1.4872502 1.0467611 v 0.4405 0.44048 h 0.4404891 0.4404901 z m 0.495862,0.56935 -0.027495,-0.0275 v -0.54013 c 0,-0.51518 9.861e-4,-0.54134 0.021319,-0.56645 l 0.021319,-0.0263 h 1.4893313 c 1.4148884,0 1.4903258,10e-4 1.5092446,0.0199 0.018582,0.0185 0.019913,0.0569 0.019913,0.57112 0,0.51428 -0.00128,0.55254 -0.019913,0.57112 -0.018891,0.0188 -0.096308,0.02 -1.5030704,0.0228 l -1.4831571,0.003 z m 2.883086,-0.56936 v -0.44049 H 3.9294595 2.5522317 v 0.44049 0.44049 h 1.3772278 1.3772288 z m 0.5326452,-1.56401 0.00298,-0.35965 H 3.176918 0.51152185 v 0.355 c 0,0.19525 0.003408,0.35835 0.007454,0.36245 0.004153,0.004 1.20220665,0.006 2.66245485,0.004 l 2.6549976,-0.003 z m -4.7779218,0.10928 c -0.045162,-0.0276 -0.059261,-0.0543 -0.059261,-0.11246 0,-0.0379 0.00692,-0.0533 0.03791,-0.0843 0.031084,-0.0311 0.046354,-0.0379 0.084754,-0.0379 0.0384,0 0.05367,0.006 0.084754,0.0379 0.031574,0.0316 0.037921,0.0461 0.037921,0.0867 0,0.0558 -0.020627,0.0912 -0.067034,0.11518 -0.043213,0.0224 -0.076384,0.021 -0.1190455,-0.005 z m 0.5262037,0.0111 c -0.097064,-0.0402 -0.1076661,-0.1821 -0.017091,-0.22893 0.087054,-0.045 0.189775,0.014 0.1899017,0.10909 1.182e-4,0.087 -0.094189,0.15236 -0.1728107,0.11984 z m 0.5004666,-0.005 c -0.048218,-0.021 -0.071124,-0.0582 -0.071124,-0.11581 0,-0.0407 0.00639,-0.0552 0.03792,-0.0867 0.029263,-0.0293 0.047196,-0.0379 0.07862,-0.0379 0.057589,0 0.1003014,0.0258 0.1233615,0.0743 0.017773,0.0375 0.018231,0.0465 0.00426,0.0866 -0.016804,0.0482 -0.07435,0.0959 -0.1148019,0.0952 -0.012896,-2.5e-4 -0.039102,-0.007 -0.05826,-0.0156 z"
       id="path4811"
       inkscape:connector-curvature="0" />
  </g>
</svg>
