<?xml version="1.0" encoding="UTF-8" standalone="no"?>
<!-- Created with Inkscape (http://www.inkscape.org/) -->

<svg
   xmlns:dc="http://purl.org/dc/elements/1.1/"
   xmlns:cc="http://creativecommons.org/ns#"
   xmlns:rdf="http://www.w3.org/1999/02/22-rdf-syntax-ns#"
   xmlns:svg="http://www.w3.org/2000/svg"
   xmlns="http://www.w3.org/2000/svg"
   xmlns:sodipodi="http://sodipodi.sourceforge.net/DTD/sodipodi-0.dtd"
   xmlns:inkscape="http://www.inkscape.org/namespaces/inkscape"
   width="24"
   height="24"
   viewBox="0 0 6.3499998 6.3500002"
   version="1.1"
   id="svg8"
   inkscape:version="0.92.1 r15371"
   sodipodi:docname="wordpress.svg">
  <defs
     id="defs2" />
  <sodipodi:namedview
     id="base"
     pagecolor="#ffffff"
     bordercolor="#666666"
     borderopacity="1.0"
     inkscape:pageopacity="0.0"
     inkscape:pageshadow="2"
     inkscape:zoom="11.2"
     inkscape:cx="-10.824734"
     inkscape:cy="12.688192"
     inkscape:document-units="mm"
     inkscape:current-layer="layer1"
     showgrid="false"
     units="px"
     inkscape:window-width="1366"
     inkscape:window-height="705"
     inkscape:window-x="-8"
     inkscape:window-y="-8"
     inkscape:window-maximized="1" />
  <metadata
     id="metadata5">
    <rdf:RDF>
      <cc:Work
         rdf:about="">
        <dc:format>image/svg+xml</dc:format>
        <dc:type
           rdf:resource="http://purl.org/dc/dcmitype/StillImage" />
        <dc:title />
      </cc:Work>
    </rdf:RDF>
  </metadata>
  <g
     inkscape:label="Layer 1"
     inkscape:groupmode="layer"
     id="layer1"
     transform="translate(0,-290.64998)">
    <g
       id="g4567"
       transform="matrix(0.05150738,0,0,0.05150738,0.6850817,291.33506)"
       style="fill:#21759b;fill-opacity:1">
      <g
         id="g4511"
         style="fill:#21759b;fill-opacity:1">
        <path
           id="path4509"
           d="M 48.343,0 C 21.686,0 0.002,21.683 0.002,48.339 c 0,26.657 21.684,48.343 48.341,48.343 26.653,0 48.337,-21.686 48.337,-48.343 C 96.68,21.686 74.996,0 48.343,0 Z M 5.55,48.339 c 0,-6.203 1.332,-12.094 3.706,-17.413 L 29.668,86.851 C 15.394,79.916 5.55,65.279 5.55,48.339 Z m 42.793,42.796 c -4.201,0 -8.255,-0.62 -12.09,-1.744 L 49.091,52.084 62.248,88.117 c 0.084,0.211 0.189,0.406 0.304,0.59 -4.447,1.566 -9.228,2.428 -14.209,2.428 z m 5.895,-62.858 c 2.576,-0.136 4.896,-0.409 4.896,-0.409 2.307,-0.272 2.037,-3.659 -0.271,-3.523 0,0 -6.932,0.543 -11.405,0.543 -4.203,0 -11.272,-0.543 -11.272,-0.543 -2.305,-0.136 -2.573,3.39 -0.27,3.523 0,0 2.183,0.272 4.486,0.409 L 47.069,46.543 37.706,74.63 22.125,28.279 c 2.579,-0.136 4.898,-0.408 4.898,-0.408 2.303,-0.272 2.034,-3.661 -0.275,-3.523 0,0 -6.929,0.542 -11.405,0.542 -0.806,0 -1.749,-0.021 -2.753,-0.052 7.648,-11.619 20.802,-19.289 35.753,-19.289 11.142,0 21.283,4.26 28.896,11.232 -0.187,-0.009 -0.364,-0.033 -0.556,-0.033 -4.202,0 -7.187,3.661 -7.187,7.595 0,3.525 2.031,6.51 4.203,10.034 1.629,2.853 3.527,6.514 3.527,11.803 0,3.663 -1.406,7.914 -3.256,13.833 l -4.268,14.263 z m 15.616,57.049 13.07,-37.79 c 2.445,-6.104 3.254,-10.986 3.254,-15.328 0,-1.573 -0.104,-3.038 -0.288,-4.4 3.345,6.095 5.245,13.091 5.243,20.532 0,15.786 -8.559,29.568 -21.279,36.986 z"
           inkscape:connector-curvature="0"
           style="fill:#21759b;fill-opacity:1" />
      </g>
      <g
         id="g4513"
         style="fill:#21759b;fill-opacity:1" />
      <g
         id="g4515"
         style="fill:#21759b;fill-opacity:1" />
      <g
         id="g4517"
         style="fill:#21759b;fill-opacity:1" />
      <g
         id="g4519"
         style="fill:#21759b;fill-opacity:1" />
      <g
         id="g4521"
         style="fill:#21759b;fill-opacity:1" />
      <g
         id="g4523"
         style="fill:#21759b;fill-opacity:1" />
      <g
         id="g4525"
         style="fill:#21759b;fill-opacity:1" />
      <g
         id="g4527"
         style="fill:#21759b;fill-opacity:1" />
      <g
         id="g4529"
         style="fill:#21759b;fill-opacity:1" />
      <g
         id="g4531"
         style="fill:#21759b;fill-opacity:1" />
      <g
         id="g4533"
         style="fill:#21759b;fill-opacity:1" />
      <g
         id="g4535"
         style="fill:#21759b;fill-opacity:1" />
      <g
         id="g4537"
         style="fill:#21759b;fill-opacity:1" />
      <g
         id="g4539"
         style="fill:#21759b;fill-opacity:1" />
      <g
         id="g4541"
         style="fill:#21759b;fill-opacity:1" />
    </g>
  </g>
</svg>
